<?xml version="1.0" encoding="UTF-8"?>
<svg id="Layer_2" data-name="Layer 2" xmlns="http://www.w3.org/2000/svg" viewBox="0 0 94.61 65.61">
  <defs>
    <style>
      .cls-1 {
        fill: #fff;
      }

      .cls-2 {
        fill: #cbd1d0;
      }

      .cls-3 {
        fill: #bbb;
      }

      .cls-4 {
        fill: #025c88;
      }
    </style>
  </defs>
  <g id="Layer_1-2" data-name="Layer 1">
    <g>
      <g>
        <path class="cls-2" d="m94.6,38.76v.3c0,.41-.02.82-.03,1.23-.12,2.99-.58,5.88-1.35,8.65-.65,2.33-1.51,4.57-2.57,6.7-.37.75-.76,1.48-1.19,2.2H23.91c-.47-.8-.91-1.62-1.31-2.45-1.65-3.38-2.82-7.03-3.4-10.89-.21-1.37-.34-2.78-.4-4.21-.02-.51-.03-1.01-.03-1.53v-.11C18.83,17.76,35.78.85,56.68.85c10.07,0,19.22,3.93,26.01,10.32,4.27,4.03,7.6,9.03,9.65,14.66,1.47,4.04,2.26,8.4,2.26,12.94Z"/>
        <path class="cls-3" d="m94.61,38.77c0,.07,0,.14,0,.2,0,.03,0,.07,0,.1,0,.41-.01.82-.03,1.22-.12,2.98-.58,5.88-1.35,8.65l-.38.23-17.33-1.41-16.87-3.75-12.8-.62-1.91-12.06s10.69-10.55,15.93-9.37c10.35,2.33,14.28,7.1,19.32,8.32,3.23.78,10.74-9.14,3.51-19.1,4.27,4.03,7.61,9.03,9.65,14.66,1.47,4.04,2.27,8.39,2.27,12.94Z"/>
        <path class="cls-1" d="m66.93,13.51c1.37-.3,2.77.16,3.87.98,1.16.86,1.9,2.35,1.65,3.82,0,0-1.27-.35-1.27-.35.02-.06.07-.17.09-.23,1-2.3,3.09-4.38,5.77-3.39.76.3.37,1.42-.42,1.17-1.48-.55-2.71.34-3.51,1.56-.25.37-.46.77-.63,1.18l-.04.09c-.11.38-.51.6-.89.45-.3-.12-.47-.43-.41-.73.12-.49.1-1-.08-1.49-.56-1.51-2.4-2.62-4.01-2.41-.42.06-.55-.54-.13-.65h0Z"/>
      </g>
      <g>
        <path class="cls-4" d="m76.23,56.9c-1.65,1.38-3.52,1.38-5.33,1.38h-4.28v-2.03h4.28c1.64,0,2.95,0,4.03-.91.6-.49.97-1.22,1.13-2.22.06-.44.08-.95.06-1.51-.01-.17-.02-.34-.04-.52-.08-1.13-.34-2.31-.6-3.41-.15-.57-.29-1.12-.43-1.62-.03-.14-.07-.27-.11-.41-.07-.27-.15-.53-.2-.77-.46-1.84-1.2-4.13-2.82-5.5-.38-.32-.83-.6-1.43-.91-.71-.36-1.52-.46-2.38-.58-.97-.13-2.07-.27-3.13-.82-1.65-.84-2.85-2.15-3.68-3.96-.39-.86-.72-1.75-1.04-2.6-.15-.41-.31-.82-.46-1.23-.29-.76-.56-1.54-.82-2.29-.51-1.5-.99-2.91-1.71-4.21-.71-1.3-2.11-2.96-3.72-3.39-.97-.26-1.81-.39-2.57-.39h-21.37c-4.1,0-5.95.9-6.78,1.64-.73.66-1.4,1.52-2.07,2.62-.77,1.27-1.22,2.6-1.7,4-.22.65-.45,1.33-.73,2.01-.16.42-.32.83-.47,1.25-.51,1.38-1.04,2.79-1.79,4.12-1.04,1.84-2.76,2.96-5.08,3.33-.36.05-.71.09-1.04.15-1.47.19-2.64.34-3.74,1.25-2.31,1.94-3.19,5.47-3.54,8.08-.06.49-.16,1.03-.25,1.58-.13.68-.25,1.38-.32,2.05-.08.72-.12,1.4-.03,2.02.12.88.44,1.64,1.13,2.22,1.1.91,2.39.91,4.03.91h4.43v2.03h-4.43c-1.8,0-3.68,0-5.33-1.38-2.57-2.13-1.97-5.5-1.48-8.21.09-.52.18-1.02.24-1.48.39-2.97,1.44-7.01,4.24-9.36,1.55-1.3,3.19-1.52,4.78-1.73.33-.04.65-.08.99-.14,1.71-.26,2.89-1.02,3.62-2.32.67-1.19,1.16-2.46,1.66-3.82.16-.43.32-.86.48-1.28.25-.64.47-1.3.68-1.93.49-1.44,1.01-2.95,1.88-4.4.78-1.27,1.58-2.29,2.45-3.07.91-.81,2.17-1.39,3.79-1.75,1.24-.27,2.7-.41,4.35-.41h21.37c.79,0,1.63.11,2.57.33.17.03.35.07.53.13,2.23.59,4.03,2.65,4.97,4.38.8,1.46,1.34,3.01,1.84,4.52.25.74.52,1.48.8,2.21.16.42.32.84.47,1.26.32.86.62,1.67.98,2.46.64,1.41,1.52,2.36,2.76,3,.75.38,1.58.49,2.46.61.99.13,2.01.26,3.02.78.75.37,1.33.75,1.83,1.17,2.07,1.74,2.95,4.41,3.49,6.56.08.34.19.73.29,1.14.47,1.74,1.05,3.91,1.14,5.99.09,2.43-.55,4.24-1.92,5.37Z"/>
        <rect class="cls-4" x="26.34" y="56.25" width="25.61" height="2.03"/>
        <path class="cls-4" d="m58,32.8l-.13-.39c-.17-.55-.33-1.1-.48-1.64-.26-.92-.53-1.86-.85-2.78-1.41-4.04-3.56-6.1-6.38-6.1h-22.15c-2.82,0-4.97,2.05-6.38,6.1-.33.92-.59,1.86-.85,2.78-.16.55-.32,1.1-.48,1.64l-.13.39c-.4,1.24-.96,2.96,0,4.4.62.94,1.81,1.44,3.43,1.45h.37c1.38,0,2.77-.02,4.15-.04,1.38-.01,2.75-.03,4.13-.03h13.68c1.38,0,2.75.02,4.13.03,1.38.02,2.77.04,4.15.04h.37c1.62-.01,2.81-.52,3.43-1.45.96-1.44.4-3.16,0-4.4Zm-1.68,3.27c-.23.34-.88.55-1.75.55h-.37c-1.37,0-2.75-.02-4.13-.03-1.38-.02-2.76-.04-4.15-.04h-13.68c-1.38,0-2.77.02-4.15.04-1.38.01-2.76.03-4.13.03h-.37c-.86,0-1.52-.21-1.75-.55-.41-.62-.04-1.75.25-2.65l.13-.41c.18-.56.34-1.13.49-1.68.25-.88.52-1.8.82-2.67,1.11-3.18,2.57-4.73,4.46-4.73h22.15c1.9,0,3.36,1.55,4.46,4.73.31.87.57,1.79.82,2.67.16.56.32,1.13.49,1.68l.13.41c.29.91.66,2.03.25,2.65Z"/>
        <g>
          <path class="cls-4" d="m67.57,56.25c-.13-1.13-.49-2.19-1.04-3.13-.43-.75-.98-1.44-1.62-2.02-1.48-1.35-3.45-2.17-5.62-2.17s-4.14.83-5.62,2.17c-.65.58-1.2,1.27-1.62,2.02-.55.94-.9,2-1.04,3.13-.04.32-.07.66-.07,1.01s.03.68.07,1.03c.5,4.13,4.03,7.33,8.29,7.33s7.78-3.2,8.29-7.33c.05-.34.07-.67.07-1.03s-.02-.68-.07-1.01Zm-8.29,7.34c-3.48,0-6.31-2.84-6.31-6.33s2.83-6.31,6.31-6.31,6.32,2.84,6.32,6.31-2.84,6.33-6.32,6.33Z"/>
          <path class="cls-3" d="m59.28,50.95c-3.48,0-6.31,2.84-6.31,6.31s2.83,6.33,6.31,6.33,6.32-2.84,6.32-6.33-2.84-6.31-6.32-6.31Zm0,10.95c-2.55,0-4.62-2.07-4.62-4.62s2.07-4.62,4.62-4.62,4.63,2.07,4.63,4.62-2.08,4.62-4.63,4.62Z"/>
        </g>
        <g>
          <path class="cls-4" d="m27.76,56.25c-.13-1.13-.49-2.19-1.04-3.13-.43-.75-.98-1.44-1.62-2.02-1.48-1.35-3.46-2.17-5.62-2.17s-4.22.86-5.71,2.27c-.61.56-1.12,1.22-1.53,1.93-.55.94-.91,2-1.04,3.13-.05.32-.07.66-.07,1.01s.02.68.07,1.03c.5,4.13,4.03,7.33,8.29,7.33s7.78-3.2,8.29-7.33c.04-.34.07-.67.07-1.03s-.03-.68-.07-1.01Zm-8.29,7.34c-3.48,0-6.32-2.84-6.32-6.33s2.84-6.31,6.32-6.31,6.31,2.84,6.31,6.31-2.83,6.33-6.31,6.33Z"/>
          <path class="cls-3" d="m19.47,50.95c-3.48,0-6.32,2.84-6.32,6.31s2.84,6.33,6.32,6.33,6.31-2.84,6.31-6.33-2.83-6.31-6.31-6.31Zm0,10.95c-2.55,0-4.63-2.07-4.63-4.62s2.08-4.62,4.63-4.62,4.62,2.07,4.62,4.62-2.08,4.62-4.62,4.62Z"/>
        </g>
        <rect class="cls-4" x="38.07" y="23.57" width="2.03" height="14"/>
        <path class="cls-4" d="m38.8,43.24c0,.56-.45,1.01-1.01,1.01h-4.88c-.56,0-1.01-.45-1.01-1.01s.45-1.01,1.01-1.01h4.88c.56,0,1.01.45,1.01,1.01Z"/>
        <path class="cls-4" d="m42.89,13.96h-6.23c-.56,0-1.01-.46-1.01-1.01s.45-1.01,1.01-1.01h6.23c.56,0,1.01.45,1.01,1.01s-.45,1.01-1.01,1.01Z"/>
        <g>
          <path class="cls-4" d="m59.28,52.65c-2.55,0-4.62,2.07-4.62,4.62s2.07,4.62,4.62,4.62,4.63-2.07,4.63-4.62-2.08-4.62-4.63-4.62Zm0,7.22c-1.43,0-2.6-1.17-2.6-2.6s1.17-2.6,2.6-2.6,2.6,1.17,2.6,2.6-1.17,2.6-2.6,2.6Z"/>
          <circle class="cls-1" cx="59.28" cy="57.27" r="2.6"/>
        </g>
        <path class="cls-4" d="m19.47,52.65c-2.55,0-4.63,2.07-4.63,4.62s2.08,4.62,4.63,4.62,4.62-2.07,4.62-4.62-2.08-4.62-4.62-4.62Zm0,7.22c-1.43,0-2.6-1.17-2.6-2.6s1.17-2.6,2.6-2.6,2.59,1.17,2.59,2.6-1.17,2.6-2.59,2.6Z"/>
        <g>
          <path class="cls-1" d="m12.22,53.12c-.55.94-.91,2-1.04,3.13h-3.94c-1.64,0-2.94,0-4.03-.91-.68-.58-1.01-1.34-1.13-2.22h10.14Z"/>
          <rect class="cls-4" x="1.66" y="51.1" width="12.09" height="2.02"/>
        </g>
        <g>
          <path class="cls-1" d="m52.04,53.12c-.55.94-.91,2-1.04,3.13h-23.24c-.14-1.13-.49-2.19-1.04-3.13h25.33Z"/>
          <rect class="cls-4" x="24.68" y="51.1" width="29.39" height="2.02"/>
        </g>
        <g>
          <path class="cls-1" d="m76.06,53.12c-.16,1-.53,1.73-1.13,2.22-1.08.91-2.39.91-4.03.91h-3.33c-.14-1.13-.49-2.19-1.04-3.13h9.53Z"/>
          <rect class="cls-4" x="64.5" y="51.1" width="12.65" height="2.02"/>
        </g>
        <g>
          <path class="cls-4" d="m76.08,51.1h-4.24v-3.41h3.64c.26,1.11.52,2.29.6,3.41Z"/>
          <path class="cls-4" d="m76.26,45.66v2.03h-4.42v4.42h-2.03v-5.44c0-.56.46-1.01,1.02-1.01h5.43Z"/>
        </g>
        <g>
          <path class="cls-4" d="m51.68,7.18c-.49-.2-1.04-.31-1.61-.31h-21.42c-2.44.02-4.41,2-4.41,4.44v3.25c0,1.08.38,2.06,1.03,2.83.81.99,2.03,1.61,3.41,1.61h21.39c1.41,0,2.67-.66,3.49-1.7.6-.75.96-1.71.96-2.75v-3.25c0-1.88-1.17-3.5-2.83-4.14Zm-23,9.81c-1.34,0-2.42-1.1-2.42-2.42v-3.25c0-1.33,1.08-2.42,2.42-2.42h21.39c1.33,0,2.42,1.1,2.42,2.42v3.25c0,1.33-1.1,2.42-2.42,2.42h-21.39Z"/>
          <path class="cls-1" d="m74.74,44.89c-.46-1.84-1.2-4.13-2.82-5.5-.38-.32-.83-.6-1.43-.91-.71-.36-1.52-.46-2.38-.58-.97-.13-2.07-.27-3.13-.82-1.65-.84-2.85-2.15-3.68-3.96-.39-.86-.72-1.75-1.04-2.6-.15-.41-.31-.82-.46-1.23-.29-.76-.56-1.54-.82-2.29-.51-1.5-.99-2.91-1.71-4.21-.71-1.3-2.11-2.96-3.72-3.39-.97-.26-1.81-.39-2.57-.39h-21.37c-4.1,0-5.95.9-6.78,1.64-.73.66-1.4,1.52-2.07,2.62-.77,1.27-1.22,2.6-1.7,4-.22.65-.45,1.33-.73,2.01-.16.42-.32.83-.47,1.25-.51,1.38-1.04,2.79-1.79,4.12-1.04,1.84-2.76,2.96-5.08,3.33-.36.05-.71.09-1.04.15-1.47.19-2.64.34-3.74,1.25-2.31,1.94-3.19,5.47-3.54,8.08-.06.49-.16,1.03-.25,1.58-.13.68-.25,1.38-.32,2.05h11.64v.09c1.5-1.41,3.52-2.27,5.72-2.27s4.14.83,5.62,2.18h28.57c1.48-1.35,3.45-2.18,5.62-2.18s4.14.83,5.62,2.18h4.9v-4.43c0-.56.46-1.01,1.02-1.01h4.12c-.07-.27-.15-.53-.2-.77Zm-36.95-.64h-4.88c-.56,0-1.01-.45-1.01-1.01s.45-1.01,1.01-1.01h4.88c.56,0,1.01.45,1.01,1.01s-.45,1.01-1.01,1.01Zm20.21-7.04c-.62.94-1.81,1.44-3.43,1.45h-.37c-1.38,0-2.77-.02-4.15-.04-1.38-.01-2.75-.03-4.13-.03h-13.68c-1.38,0-2.75.02-4.13.03-1.38.02-2.77.04-4.15.04h-.37c-1.62-.01-2.81-.52-3.43-1.45-.96-1.44-.4-3.16,0-4.4l.13-.39c.17-.55.33-1.1.48-1.64.26-.92.53-1.86.85-2.78,1.41-4.04,3.56-6.1,6.38-6.1h22.15c2.82,0,4.97,2.05,6.38,6.1.33.92.59,1.86.85,2.78.16.55.32,1.1.48,1.64l.13.39c.4,1.24.96,2.96,0,4.4Z"/>
        </g>
        <path class="cls-4" d="m48.48,8.9h-16.47c-2.02,0-3.66-1.5-3.66-3.35v-2.2c0-1.85,1.64-3.35,3.66-3.35h16.47c2.02,0,3.66,1.5,3.66,3.35v2.2c0,1.85-1.64,3.35-3.66,3.35Zm-16.47-6.87c-.9,0-1.63.59-1.63,1.32v2.2c0,.73.73,1.32,1.63,1.32h16.47c.9,0,1.63-.59,1.63-1.32v-2.2c0-.73-.73-1.32-1.63-1.32h-16.47Z"/>
        <rect class="cls-4" x="31.9" y="1.01" width="2.03" height="16.99"/>
        <rect class="cls-4" x="45.17" y="1.01" width="2.03" height="16.99"/>
      </g>
    </g>
  </g>
</svg>