<?xml version="1.0" encoding="UTF-8"?>
<svg id="Layer_2" data-name="Layer 2" xmlns="http://www.w3.org/2000/svg" viewBox="0 0 122.54 57.79">
  <defs>
    <style>
      .cls-1 {
        fill: #cbd1d0;
      }

      .cls-2 {
        fill: #bbb;
      }

      .cls-3 {
        fill: #025c88;
      }

      .cls-4 {
        fill: #010101;
      }
    </style>
  </defs>
  <g id="Layer_1-2" data-name="Layer 1">
    <g>
      <g>
        <polygon class="cls-2" points="66.33 0 54.6 0 44.18 30.85 56.12 30.85 66.33 0"/>
        <polygon class="cls-2" points="87.01 0 75.28 0 64.86 30.85 76.8 30.85 87.01 0"/>
        <polygon class="cls-3" points="33.97 0 45.7 0 56.12 30.85 44.18 30.85 33.97 0"/>
        <polygon class="cls-1" points="54.6 0 66.33 0 76.75 30.85 64.81 30.85 54.6 0"/>
        <polygon class="cls-1" points="75.28 0 87.01 0 97.43 30.85 85.49 30.85 75.28 0"/>
        <circle class="cls-3" cx="31.5" cy="24.42" r="6.43"/>
      </g>
      <g>
        <g>
          <path class="cls-4" d="m0,47.11l3.62-8.13h1.86l3.63,8.13h-1.97l-2.97-7.17h.74l-2.98,7.17H0Zm1.81-1.74l.5-1.43h4.18l.51,1.43H1.81Z"/>
          <path class="cls-4" d="m12.87,45.83l-3.67-6.84h2.01l2.69,5.46-1.03,1.38Zm-2.48-.24c.45.13.83.17,1.13.11.31-.06.58-.27.82-.64l.39-.59.17-.2,2.69-5.27h1.85l-3.46,6.43c-.31.58-.68,1.03-1.1,1.34-.42.31-.88.49-1.39.53-.5.04-1.03-.05-1.57-.27l.45-1.43Z"/>
          <path class="cls-4" d="m20.74,47.11v-7.02l.43.43h-3.02v-1.53h7.04v1.53h-3.02l.42-.43v7.02h-1.86Z"/>
          <path class="cls-4" d="m30.06,47.25c-.64,0-1.24-.1-1.78-.31-.55-.21-1.02-.5-1.42-.88-.4-.38-.71-.82-.93-1.34-.22-.51-.33-1.07-.33-1.67s.11-1.16.33-1.67c.22-.51.53-.96.93-1.34s.87-.67,1.42-.88c.54-.21,1.13-.31,1.76-.31s1.23.1,1.77.31c.54.21,1.01.5,1.4.88.4.38.71.82.93,1.33.22.51.34,1.07.34,1.68s-.11,1.16-.34,1.68c-.22.51-.54.96-.93,1.34-.4.38-.87.67-1.4.88s-1.12.31-1.76.31Zm-.01-1.6c.36,0,.7-.06,1-.19.31-.12.57-.3.81-.53s.41-.51.54-.82c.13-.32.19-.67.19-1.06s-.06-.74-.19-1.06c-.13-.32-.31-.59-.53-.82-.23-.23-.5-.41-.81-.53-.31-.12-.65-.19-1.01-.19s-.7.06-1,.19c-.31.12-.57.3-.81.53-.23.23-.41.51-.54.82-.13.32-.19.67-.19,1.06s.06.73.19,1.05c.13.32.31.6.53.83.23.23.5.41.81.53.31.12.65.19,1.01.19Z"/>
          <path class="cls-4" d="m35.44,47.11v-8.13h1.55l3.46,5.74h-.82l3.4-5.74h1.56v8.13s-1.75,0-1.75,0v-5.42s.33,0,.33,0l-2.73,4.56h-.84l-2.79-4.56h.39v5.42h-1.76Z"/>
          <path class="cls-4" d="m45.42,47.11l3.62-8.13h1.86l3.63,8.13h-1.97l-2.97-7.17h.74l-2.98,7.17h-1.93Zm1.81-1.74l.5-1.43h4.18l.51,1.43h-5.19Z"/>
          <path class="cls-4" d="m55.45,47.11v-8.13h1.87v8.13h-1.87Zm1.32-3.27v-1.57h2.83v1.57h-2.83Zm3.12-.58l-1.73-.21,2.63-4.06h1.98l-2.89,4.27Zm.84,3.85l-2.53-3.91,1.52-.92,3.14,4.83h-2.14Z"/>
          <path class="cls-4" d="m65.59,45.61h4.42v1.51h-6.29v-8.13h6.14v1.51h-4.27v5.11Zm-.14-3.34h3.91v1.46h-3.91v-1.46Z"/>
          <path class="cls-4" d="m71.02,48.8v-3.22h9.21v3.22h-1.74v-1.68h-5.73v1.68h-1.74Zm6.22-2.52v-5.76h-2.79l-.03,1.18c-.02.5-.06.98-.1,1.43-.04.45-.11.86-.19,1.22-.09.37-.2.68-.33.93-.14.26-.3.44-.5.55l-2.01-.26c.28,0,.51-.09.69-.29.18-.2.33-.49.44-.85.11-.37.19-.8.24-1.29.05-.5.09-1.03.11-1.61l.09-2.54h6.24v7.29h-1.86Z"/>
          <path class="cls-4" d="m85.01,47.25c-.64,0-1.24-.1-1.78-.31-.55-.21-1.02-.5-1.42-.88-.4-.38-.71-.82-.93-1.34-.22-.51-.33-1.07-.33-1.67s.11-1.16.33-1.67c.22-.51.53-.96.93-1.34s.87-.67,1.42-.88c.54-.21,1.13-.31,1.76-.31s1.23.1,1.77.31c.54.21,1.01.5,1.4.88.4.38.71.82.93,1.33.22.51.34,1.07.34,1.68s-.11,1.16-.34,1.68c-.22.51-.54.96-.93,1.34-.4.38-.87.67-1.4.88s-1.12.31-1.76.31Zm-.01-1.6c.36,0,.7-.06,1-.19.31-.12.57-.3.81-.53s.41-.51.54-.82c.13-.32.19-.67.19-1.06s-.06-.74-.19-1.06c-.13-.32-.31-.59-.53-.82-.23-.23-.5-.41-.81-.53-.31-.12-.65-.19-1.01-.19s-.7.06-1,.19c-.31.12-.57.3-.81.53-.23.23-.41.51-.54.82-.13.32-.19.67-.19,1.06s.06.73.19,1.05c.13.32.31.6.53.83.23.23.5.41.81.53.31.12.65.19,1.01.19Z"/>
          <path class="cls-4" d="m92.28,47.11h-1.88v-8.13h1.88v8.13Zm3.83-3.33h-3.97v-1.59h3.97v1.59Zm-.14-4.79h1.88v8.13h-1.88v-8.13Z"/>
          <path class="cls-4" d="m98.92,47.11v-8.13h1.87v5.29l3.88-5.29h1.76v8.13h-1.86v-5.28l-3.88,5.28h-1.78Z"/>
          <path class="cls-4" d="m110.06,47.25c-.55,0-1.05-.1-1.51-.31-.46-.21-.84-.5-1.13-.88l1.04-1.25c.22.29.46.52.71.67.25.15.51.23.8.23.77,0,1.15-.45,1.15-1.35v-3.87h-2.86v-1.51h4.72v5.27c0,1.01-.25,1.76-.74,2.25-.5.5-1.22.74-2.18.74Z"/>
          <path class="cls-4" d="m113.43,47.11l3.62-8.13h1.86l3.63,8.13h-1.97l-2.97-7.17h.74l-2.98,7.17h-1.93Zm1.81-1.74l.5-1.43h4.18l.51,1.43h-5.19Z"/>
        </g>
        <g>
          <path class="cls-4" d="m26.3,56.86v-4.09h2.68v.51h-2.25l.14-.15v3.73s-.57,0-.57,0Z"/>
          <path class="cls-4" d="m33.77,56.86v-4.09h1.6c.36,0,.66.06.92.17.25.11.45.28.58.49.14.21.2.47.2.77s-.07.55-.2.76-.33.38-.58.49-.56.17-.92.17h-1.27l.26-.27v1.51h-.58Zm.58-1.46l-.26-.29h1.26c.37,0,.66-.08.85-.24.19-.16.29-.39.29-.68s-.1-.52-.29-.68-.48-.24-.85-.24h-1.26l.26-.29v2.42Z"/>
          <path class="cls-4" d="m43.14,56.15l-1.79-3.39h.63l1.49,2.92-.32.47Zm-1.26.19c.2.07.39.09.56.06s.33-.17.46-.39l.2-.32.06-.06,1.5-2.87h.58l-1.82,3.37c-.14.26-.3.45-.48.58s-.38.2-.58.22c-.21.01-.42-.03-.63-.12l.15-.47Z"/>
          <path class="cls-4" d="m49.93,56.86v-4.09h3.53v4.09h-.57v-3.74l.14.15h-2.66l.15-.15v3.74h-.58Z"/>
          <path class="cls-4" d="m58.26,56.86l1.85-4.09h.58l1.86,4.09h-.61l-1.65-3.77h.23l-1.65,3.77h-.6Zm.79-1.02l.16-.47h2.3l.17.47h-2.63Z"/>
          <path class="cls-4" d="m67.35,56.86v-4.09h.58v3.59h2.28v-3.59h.58v4.09h-3.44Zm3.53.93v-1.08l.14.15h-.81v-.51h1.21v1.44h-.54Z"/>
          <path class="cls-4" d="m76.29,56.86v-4.09h.58v3.16l2.42-3.16h.54v4.09h-.57v-3.15l-2.43,3.15h-.54Z"/>
          <path class="cls-4" d="m85.85,56.9c-.24,0-.47-.05-.68-.15s-.38-.25-.51-.44l.34-.4c.11.16.24.28.38.36.14.08.3.13.47.13.47,0,.7-.28.7-.83v-2.3h-1.48v-.51h2.06v2.78c0,.46-.11.8-.32,1.02-.22.23-.53.34-.96.34Z"/>
          <path class="cls-4" d="m91.79,56.86l1.85-4.09h.58l1.86,4.09h-.61l-1.65-3.77h.23l-1.65,3.77h-.6Zm.79-1.02l.16-.47h2.3l.17.47h-2.63Z"/>
        </g>
      </g>
    </g>
  </g>
</svg>