<svg xmlns="http://www.w3.org/2000/svg" id="Layer_2" data-name="Layer 2" viewBox="0 0 124.64 124.64">
  <defs>
    <style>
      .cls-1, .cls-2 {
        opacity: .7;
      }

      .cls-3, .cls-2 {
        fill: #fff;
      }

      .cls-4 {
        fill: #e2e2e2;
      }

      .cls-5 {
        fill: #4cb7d7;
      }

      .cls-6 {
        fill: #a8a7a7;
      }

      .cls-7 {
        fill: #656565;
      }

      .cls-8 {
        fill: #cfd0d0;
      }

      .cls-9 {
        fill: #7d7d7d;
      }

      .cls-10 {
        fill: #ebebeb;
      }

      .cls-11 {
        fill: #ee3456;
      }

      .cls-12 {
        fill: #025c88;
      }

      .cls-13 {
        fill: #bcbcbb;
      }
    </style>
  </defs>
  <g id="Layer_1-2" data-name="Layer 1">
    
    <g>
      <path class="cls-10" d="m117.36,67.05l-1.61,1.58-3.06-1.32c-.6-.26-1.3-.14-1.79.3l-2.93,2.7-2.91,2.67-.66.61-2.92,2.69-.74.69c-.18.17-.27.41-.24.65.03.24.17.46.38.57l3.25,1.81-1.09,1.06-24.34-11.47,5.52,1.12c1.84.37,3.74.33,5.56-.12l2.02-.5,2.86-.7,1.32-.32,5.8-1.42,10.59-2.6c.77-.19,1.58-.12,2.31.19l2.54,1.1c.13.06.23.18.26.32.02.15-.02.29-.12.39Z"/>
      <g>
        <path class="cls-8" d="m103.3,82.56c-3.97.88-15.31,2.2-34.64-4.51l-34-14.69s-7.42-2.99-13.77-6.99c-5.58-3.52-9.67-7.39-8.54-10,.1-.22.5-.36.99-.47.69-.15,1.58-.23,2.1-.34,1.03-.22,1.9-.75,3.46-.64,6.04.4,14.09,3,16.37,4,43.51,17.95,61.37,27.99,67.24,31.61.4.25.74.46,1.03.65.25.17.39.47.33.77-.05.3-.28.54-.58.6Z"/>
        <path class="cls-4" d="m102.52,80.54c-5.08.75-15.88,1.05-32.84-4.84l-34-14.69s-7.42-2.99-13.77-6.99c-4.35-2.75-7.8-5.71-8.57-8.12.3-.06.64-.12.97-.16.42-.06.84-.11,1.13-.18.53-.11,1.01-.31,1.58-.46.53-.14,1.13-.24,1.89-.19,6.04.4,14.01,2.86,16.32,3.79,43.62,17.57,61.46,28.09,67.29,31.82Z"/>
      </g>
      <path class="cls-11" d="m24.53,52.9c-1.37-.58-2.22-1.42-2.48-1.97-.26-.54-.52-.93-.28-1.48l16.27,7.03c-4.59-.6-8.42-1.36-13.51-3.58Z"/>
      <path class="cls-5" d="m86.89,76.01c-.22.5-.76.76-1.21.56l-63.41-27.4c-.45-.19-.64-.76-.42-1.27h0c.22-.5.76-.75,1.21-.56l63.41,27.4c.45.19.64.76.42,1.26h0Z"/>
      <path class="cls-8" d="m115.51,68.86l-11.16,10.92-3.33-1.86c-.13-.07-.21-.2-.23-.34-.02-.15.04-.29.15-.39l10.16-9.35c.39-.36.97-.46,1.46-.25l2.95,1.27Z"/>
      <path class="cls-10" d="m104.82,83.55c.11.07.15.21.1.33s-.18.18-.31.15c-1.75-.41-5.02-1.3-8.55-2.82-3.32-1.43-6.07-3.09-7.64-4.1-.13-.09-.18-.25-.12-.4.06-.14.22-.22.37-.19,1.81.44,4.9,1.31,8.22,2.75,3.53,1.52,6.42,3.3,7.92,4.29Z"/>
      <path class="cls-8" d="m104.82,83.55c-.1-.07-.21-.14-.33-.21-1.82-.45-4.88-1.31-8.17-2.73s-6.02-3.06-7.59-4.07c-.02,0-.04,0-.05-.01-.15-.04-.31.04-.37.19s-.01.31.12.4c1.56,1.01,4.31,2.67,7.63,4.1,3.53,1.52,6.8,2.41,8.55,2.82.13.03.25-.03.31-.15s0-.26-.1-.33Z"/>
      <path class="cls-6" d="m115.75,68.63l-.23.23-2.95-1.27c-.49-.21-1.07-.12-1.46.25l-2.84,2.61-2.9,2.67-.66.61-2.91,2.67-.86.79c-.11.1-.16.24-.14.39.02.15.1.27.23.34l3.33,1.86-.23.22-3.25-1.81c-.21-.12-.35-.33-.38-.57-.03-.24.06-.48.24-.65l.74-.69,2.92-2.69.66-.61,2.91-2.67,2.93-2.7c.49-.45,1.18-.56,1.79-.3l3.06,1.32Z"/>
      <path class="cls-7" d="m17.71,45.42c-.7.52-1.42.83-1.87.99l1.09.47c.37-.2.98-.57,1.57-1.12l-.79-.34Z"/>
      <path class="cls-7" d="m17.55,45.35l-.46-.2c-.56.15-1.05.34-1.58.45-.3.06-.71.12-1.13.18l1.26.55c.39-.13,1.15-.43,1.91-.97Z"/>
      <path class="cls-7" d="m20.05,46.72c.06-.13,0-.29-.14-.35l-.43-.19c-.39.55-.82.99-1.15,1.29.68.23,1.43-.09,1.72-.76Z"/>
      <path class="cls-7" d="m18.66,45.83c-.56.54-1.15.91-1.55,1.13l1.06.46c.33-.29.77-.73,1.17-1.29l-.68-.29Z"/>
      <path class="cls-9" d="m27.58,53.66l-1.04-.45c-.54-.23-.78-.86-.55-1.39l.93-2.15c.23-.54.85-.78,1.39-.55l1.04.45c.54.23.78.85.55,1.39l-.93,2.15c-.23.54-.86.78-1.39.55Zm.67-4.4c-.46-.2-.99.01-1.19.47l-.93,2.15c-.2.46.01.99.47,1.19l1.04.45c.46.2.99-.01,1.19-.47l.93-2.15c.2-.46-.01-.99-.47-1.19l-1.04-.45Z"/>
      <path class="cls-9" d="m39.75,58.92l-1.04-.45c-.54-.23-.78-.86-.55-1.39l.93-2.15c.23-.54.85-.78,1.39-.55l1.04.45c.54.23.78.85.55,1.39l-.93,2.15c-.23.54-.86.78-1.39.55Zm.67-4.4c-.46-.2-.99.01-1.19.47l-.93,2.15c-.2.46.01.99.47,1.19l1.04.45c.46.2.99-.01,1.19-.47l.93-2.15c.2-.46-.01-.99-.47-1.19l-1.04-.45Z"/>
      <path class="cls-9" d="m83.2,77.7l-1.04-.45c-.54-.23-.78-.86-.55-1.39l.93-2.15c.23-.54.85-.78,1.39-.55l1.04.45c.54.23.78.85.55,1.39l-.93,2.15c-.23.54-.85.78-1.39.55Zm.67-4.4c-.46-.2-.99.01-1.19.47l-.93,2.15c-.2.46.01.99.47,1.19l1.04.45c.46.2.99-.01,1.19-.47l.93-2.15c.2-.46-.01-.99-.47-1.19l-1.04-.45Z"/>
      <g>
        <g>
          <rect class="cls-7" x="27.64" y="50.16" width="1.23" height=".98" rx=".49" ry=".49" transform="translate(-29.45 56.51) rotate(-66.63)"/>
          <path class="cls-8" d="m28.51,50.09h0c-.17-.08-.36-.04-.5.07.12-.06.26-.06.4,0h0c.25.11.36.4.25.64l-.1.24c-.03.07-.08.13-.14.18.11-.05.19-.13.24-.25l.1-.24c.11-.25,0-.53-.25-.64Z"/>
        </g>
        <g class="cls-1">
          <path class="cls-3" d="m28.52,50.29l-.16-.07c-.16-.07-.35,0-.43.17l-.16.37c.22-.24.47-.52.75-.47Z"/>
        </g>
      </g>
      <g>
        <g>
          <g>
            <rect class="cls-7" x="30.24" y="51.29" width="1.23" height=".98" rx=".49" ry=".49" transform="translate(-28.91 59.57) rotate(-66.63)"/>
            <path class="cls-8" d="m31.11,51.21h0c-.17-.08-.36-.04-.5.07.12-.06.26-.06.4,0h0c.25.11.36.4.25.64l-.1.24c-.03.07-.08.13-.14.18.11-.05.19-.13.24-.25l.1-.24c.11-.25,0-.53-.25-.64Z"/>
          </g>
          <path class="cls-2" d="m31.12,51.42l-.16-.07c-.16-.07-.35,0-.43.17l-.16.37c.22-.24.47-.52.75-.47Z"/>
        </g>
        <g>
          <g>
            <rect class="cls-7" x="32.02" y="52.05" width="1.23" height=".98" rx=".49" ry=".49" transform="translate(-28.54 61.67) rotate(-66.63)"/>
            <path class="cls-8" d="m32.89,51.98h0c-.17-.08-.36-.04-.5.07.12-.06.26-.06.4,0h0c.25.11.36.4.25.64l-.1.24c-.03.07-.08.13-.14.18.11-.05.19-.13.24-.25l.1-.24c.11-.25,0-.53-.25-.64Z"/>
          </g>
          <path class="cls-2" d="m32.89,52.19l-.16-.07c-.16-.07-.35,0-.43.17l-.16.37c.22-.24.47-.52.75-.47Z"/>
        </g>
        <g>
          <g>
            <rect class="cls-7" x="33.8" y="52.82" width="1.23" height=".98" rx=".49" ry=".49" transform="translate(-28.17 63.76) rotate(-66.63)"/>
            <path class="cls-8" d="m34.66,52.75h0c-.17-.08-.36-.04-.5.07.12-.06.26-.06.4,0h0c.25.11.36.4.25.64l-.1.24c-.03.07-.08.13-.14.18.11-.05.19-.13.24-.25l.1-.24c.11-.25,0-.53-.25-.64Z"/>
          </g>
          <path class="cls-2" d="m34.67,52.95l-.16-.07c-.16-.07-.35,0-.43.17l-.16.37c.22-.24.47-.52.74-.47Z"/>
        </g>
        <g>
          <g>
            <rect class="cls-7" x="35.57" y="53.59" width="1.23" height=".98" rx=".49" ry=".49" transform="translate(-27.81 65.85) rotate(-66.63)"/>
            <path class="cls-8" d="m36.44,53.51h0c-.17-.08-.36-.04-.5.07.12-.06.26-.06.4,0h0c.25.11.36.4.25.64l-.1.24c-.03.07-.08.13-.14.18.1-.05.19-.13.24-.25l.1-.24c.11-.25,0-.53-.25-.64Z"/>
          </g>
          <path class="cls-2" d="m36.45,53.72l-.16-.07c-.16-.07-.35,0-.43.17l-.16.37c.22-.24.47-.52.75-.47Z"/>
        </g>
        <g>
          <g>
            <rect class="cls-7" x="37.35" y="54.36" width="1.23" height=".98" rx=".49" ry=".49" transform="translate(-27.44 67.95) rotate(-66.63)"/>
            <path class="cls-8" d="m38.22,54.28h0c-.17-.08-.36-.04-.5.07.12-.06.26-.06.4,0h0c.25.11.36.4.25.64l-.1.24c-.03.07-.08.13-.14.18.1-.05.19-.13.24-.25l.1-.24c.11-.25,0-.53-.25-.64Z"/>
          </g>
          <path class="cls-2" d="m38.23,54.49l-.16-.07c-.16-.07-.35,0-.43.17l-.16.37c.22-.24.47-.52.74-.47Z"/>
        </g>
      </g>
      <g>
        <g>
          <rect class="cls-7" x="39.82" y="55.42" width="1.23" height=".98" rx=".49" ry=".49" transform="translate(-26.93 70.86) rotate(-66.63)"/>
          <path class="cls-8" d="m40.69,55.35h0c-.17-.08-.36-.04-.5.07.12-.06.26-.06.4,0h0c.25.11.36.4.25.64l-.1.24c-.03.07-.08.13-.14.18.11-.05.19-.13.24-.25l.1-.24c.11-.25,0-.53-.25-.64Z"/>
        </g>
        <g class="cls-1">
          <path class="cls-3" d="m40.7,55.56l-.16-.07c-.16-.07-.35,0-.43.17l-.16.37c.22-.24.47-.52.74-.47Z"/>
        </g>
      </g>
      <g>
        <g>
          <rect class="cls-7" x="83.27" y="74.19" width="1.23" height=".98" rx=".49" ry=".49" transform="translate(-17.94 122.07) rotate(-66.63)"/>
          <path class="cls-8" d="m84.14,74.12h0c-.17-.08-.36-.04-.5.07.12-.06.26-.06.4,0h0c.25.11.36.4.25.64l-.1.24c-.03.07-.08.13-.14.18.1-.05.19-.13.24-.25l.1-.24c.11-.25,0-.53-.25-.64Z"/>
        </g>
        <g class="cls-1">
          <path class="cls-3" d="m84.14,74.33l-.16-.07c-.16-.07-.35,0-.43.17l-.16.37c.22-.24.47-.52.74-.47Z"/>
        </g>
      </g>
      <g>
        <g>
          <g>
            <rect class="cls-7" x="42.49" y="56.57" width="1.23" height=".98" rx=".49" ry=".49" transform="translate(-26.38 74) rotate(-66.63)"/>
            <path class="cls-8" d="m43.35,56.5h0c-.17-.08-.36-.04-.5.07.12-.06.26-.06.4,0h0c.25.11.36.4.25.64l-.1.24c-.03.07-.08.13-.14.18.1-.05.19-.13.24-.25l.1-.24c.11-.25,0-.53-.25-.64Z"/>
          </g>
          <g class="cls-1">
            <path class="cls-3" d="m43.36,56.71l-.16-.07c-.16-.07-.35,0-.43.17l-.16.37c.22-.24.47-.52.74-.47Z"/>
          </g>
        </g>
        <g>
          <g>
            <rect class="cls-7" x="44.29" y="57.35" width="1.23" height=".98" rx=".49" ry=".49" transform="translate(-26 76.13) rotate(-66.63)"/>
            <path class="cls-8" d="m45.16,57.28h0c-.17-.08-.36-.04-.5.07.12-.06.26-.06.4,0h0c.25.11.36.4.25.64l-.1.24c-.03.07-.08.13-.14.18.1-.05.19-.13.24-.25l.1-.24c.11-.25,0-.53-.25-.64Z"/>
          </g>
          <g class="cls-1">
            <path class="cls-3" d="m45.16,57.49l-.16-.07c-.16-.07-.35,0-.43.17l-.16.37c.22-.24.47-.52.74-.47Z"/>
          </g>
        </g>
        <g>
          <g>
            <rect class="cls-7" x="46.1" y="58.13" width="1.23" height=".98" rx=".49" ry=".49" transform="translate(-25.63 78.26) rotate(-66.63)"/>
            <path class="cls-8" d="m46.96,58.06h0c-.17-.08-.36-.04-.5.07.12-.06.26-.06.4,0h0c.25.11.36.4.25.64l-.1.24c-.03.07-.08.13-.14.18.1-.05.19-.13.24-.25l.1-.24c.11-.25,0-.53-.25-.64Z"/>
          </g>
          <g class="cls-1">
            <path class="cls-3" d="m46.97,58.27l-.16-.07c-.16-.07-.35,0-.43.17l-.16.37c.22-.24.47-.52.75-.47Z"/>
          </g>
        </g>
        <g>
          <g>
            <rect class="cls-7" x="47.9" y="58.91" width="1.23" height=".98" rx=".49" ry=".49" transform="translate(-25.26 80.38) rotate(-66.63)"/>
            <path class="cls-8" d="m48.77,58.84h0c-.17-.08-.36-.04-.5.07.12-.06.26-.06.4,0h0c.25.11.36.4.25.64l-.1.24c-.03.07-.08.13-.14.18.1-.05.19-.13.24-.25l.1-.24c.11-.25,0-.53-.25-.64Z"/>
          </g>
          <g class="cls-1">
            <path class="cls-3" d="m48.77,59.05l-.16-.07c-.16-.07-.35,0-.43.17l-.16.37c.22-.24.47-.52.75-.47Z"/>
          </g>
        </g>
        <g>
          <g>
            <rect class="cls-7" x="49.7" y="59.69" width="1.23" height=".98" rx=".49" ry=".49" transform="translate(-24.88 82.51) rotate(-66.63)"/>
            <path class="cls-8" d="m50.57,59.62h0c-.17-.08-.36-.04-.5.07.12-.06.26-.06.4,0h0c.25.11.36.4.25.64l-.1.24c-.03.07-.08.13-.14.18.1-.05.19-.13.24-.25l.1-.24c.11-.25,0-.53-.25-.64Z"/>
          </g>
          <g class="cls-1">
            <path class="cls-3" d="m50.58,59.83l-.16-.07c-.16-.07-.35,0-.43.17l-.16.37c.22-.24.47-.52.75-.47Z"/>
          </g>
        </g>
        <g>
          <g>
            <rect class="cls-7" x="51.51" y="60.47" width="1.23" height=".98" rx=".49" ry=".49" transform="translate(-24.51 84.64) rotate(-66.63)"/>
            <path class="cls-8" d="m52.37,60.4h0c-.17-.08-.36-.04-.5.07.12-.06.26-.06.4,0h0c.25.11.36.4.25.64l-.1.24c-.03.07-.08.13-.14.18.1-.05.19-.13.24-.25l.1-.24c.11-.25,0-.53-.25-.64Z"/>
          </g>
          <g class="cls-1">
            <path class="cls-3" d="m52.38,60.6l-.16-.07c-.16-.07-.35,0-.43.17l-.16.37c.22-.24.47-.52.75-.47Z"/>
          </g>
        </g>
        <g>
          <g>
            <rect class="cls-7" x="53.31" y="61.25" width="1.23" height=".98" rx=".49" ry=".49" transform="translate(-24.14 86.76) rotate(-66.63)"/>
            <path class="cls-8" d="m54.18,61.18h0c-.17-.08-.36-.04-.5.07.12-.06.26-.06.4,0h0c.25.11.36.4.25.64l-.1.24c-.03.07-.08.13-.14.18.1-.05.19-.13.24-.25l.1-.24c.11-.25,0-.53-.25-.64Z"/>
          </g>
          <g class="cls-1">
            <path class="cls-3" d="m54.19,61.38l-.16-.07c-.16-.07-.35,0-.43.17l-.16.37c.22-.24.47-.52.75-.47Z"/>
          </g>
        </g>
        <g>
          <g>
            <rect class="cls-7" x="55.12" y="62.03" width="1.23" height=".98" rx=".49" ry=".49" transform="translate(-23.76 88.89) rotate(-66.63)"/>
            <path class="cls-8" d="m55.98,61.96h0c-.17-.08-.36-.04-.5.07.12-.06.26-.06.4,0h0c.25.11.36.4.25.64l-.1.24c-.03.07-.08.13-.14.18.1-.05.19-.13.24-.25l.1-.24c.11-.25,0-.53-.25-.64Z"/>
          </g>
          <g class="cls-1">
            <path class="cls-3" d="m55.99,62.16l-.16-.07c-.16-.07-.35,0-.43.17l-.16.37c.22-.24.47-.52.75-.47Z"/>
          </g>
        </g>
        <g>
          <g>
            <rect class="cls-7" x="56.92" y="62.81" width="1.23" height=".98" rx=".49" ry=".49" transform="translate(-23.39 91.02) rotate(-66.63)"/>
            <path class="cls-8" d="m57.79,62.74h0c-.17-.08-.36-.04-.5.07.12-.06.26-.06.4,0h0c.25.11.36.4.25.64l-.1.24c-.03.07-.08.13-.14.18.1-.05.19-.13.24-.25l.1-.24c.11-.25,0-.53-.25-.64Z"/>
          </g>
          <g class="cls-1">
            <path class="cls-3" d="m57.8,62.94l-.16-.07c-.16-.07-.35,0-.43.17l-.16.37c.22-.24.47-.52.75-.47Z"/>
          </g>
        </g>
        <g>
          <g>
            <rect class="cls-7" x="58.73" y="63.59" width="1.23" height=".98" rx=".49" ry=".49" transform="translate(-23.02 93.14) rotate(-66.63)"/>
            <path class="cls-8" d="m59.59,63.52h0c-.17-.08-.36-.04-.5.07.12-.06.26-.06.4,0h0c.25.11.36.4.25.64l-.1.24c-.03.07-.08.13-.14.18.1-.05.19-.13.24-.25l.1-.24c.11-.25,0-.53-.25-.64Z"/>
          </g>
          <g class="cls-1">
            <path class="cls-3" d="m59.6,63.72l-.16-.07c-.16-.07-.35,0-.43.17l-.16.37c.22-.24.47-.52.75-.47Z"/>
          </g>
        </g>
        <g>
          <g>
            <rect class="cls-7" x="60.53" y="64.37" width="1.23" height=".98" rx=".49" ry=".49" transform="translate(-22.64 95.27) rotate(-66.63)"/>
            <path class="cls-8" d="m61.4,64.3h0c-.17-.08-.36-.04-.5.07.12-.06.26-.06.4,0h0c.25.11.36.4.25.64l-.1.24c-.03.07-.08.13-.14.18.1-.05.19-.13.24-.25l.1-.24c.11-.25,0-.53-.25-.64Z"/>
          </g>
          <g class="cls-1">
            <path class="cls-3" d="m61.4,64.5l-.16-.07c-.16-.07-.35,0-.43.17l-.16.37c.22-.24.47-.52.75-.47Z"/>
          </g>
        </g>
        <g>
          <g>
            <rect class="cls-7" x="62.33" y="65.15" width="1.23" height=".98" rx=".49" ry=".49" transform="translate(-22.27 97.4) rotate(-66.63)"/>
            <path class="cls-8" d="m63.2,65.08h0c-.17-.08-.36-.04-.5.07.12-.06.26-.06.4,0h0c.25.11.36.4.25.64l-.1.24c-.03.07-.08.13-.14.18.1-.05.19-.13.24-.25l.1-.24c.11-.25,0-.53-.25-.64Z"/>
          </g>
          <g class="cls-1">
            <path class="cls-3" d="m63.21,65.28l-.16-.07c-.16-.07-.35,0-.43.17l-.16.37c.22-.24.47-.52.75-.47Z"/>
          </g>
        </g>
        <g>
          <g>
            <rect class="cls-7" x="64.14" y="65.93" width="1.23" height=".98" rx=".49" ry=".49" transform="translate(-21.9 99.52) rotate(-66.63)"/>
            <path class="cls-8" d="m65,65.86h0c-.17-.08-.36-.04-.5.07.12-.06.26-.06.4,0h0c.25.11.36.4.25.64l-.1.24c-.03.07-.08.13-.14.18.1-.05.19-.13.24-.25l.1-.24c.11-.25,0-.53-.25-.64Z"/>
          </g>
          <g class="cls-1">
            <path class="cls-3" d="m65.01,66.06l-.16-.07c-.16-.07-.35,0-.43.17l-.16.37c.22-.24.47-.52.75-.47Z"/>
          </g>
        </g>
        <g>
          <g>
            <rect class="cls-7" x="65.94" y="66.71" width="1.23" height=".98" rx=".49" ry=".49" transform="translate(-21.53 101.65) rotate(-66.63)"/>
            <path class="cls-8" d="m66.81,66.63h0c-.17-.08-.36-.04-.5.07.12-.06.26-.06.4,0h0c.25.11.36.4.25.64l-.1.24c-.03.07-.08.13-.14.18.1-.05.19-.13.24-.25l.1-.24c.11-.25,0-.53-.25-.64Z"/>
          </g>
          <g class="cls-1">
            <path class="cls-3" d="m66.82,66.84l-.16-.07c-.16-.07-.35,0-.43.17l-.16.37c.22-.24.47-.52.75-.47Z"/>
          </g>
        </g>
        <g>
          <g>
            <rect class="cls-7" x="67.75" y="67.49" width="1.23" height=".98" rx=".49" ry=".49" transform="translate(-21.15 103.78) rotate(-66.63)"/>
            <path class="cls-8" d="m68.61,67.41h0c-.17-.08-.36-.04-.5.07.12-.06.26-.06.4,0h0c.25.11.36.4.25.64l-.1.24c-.03.07-.08.13-.14.18.1-.05.19-.13.24-.25l.1-.24c.11-.25,0-.53-.25-.64Z"/>
          </g>
          <g class="cls-1">
            <path class="cls-3" d="m68.62,67.62l-.16-.07c-.16-.07-.35,0-.43.17l-.16.37c.22-.24.47-.52.75-.47Z"/>
          </g>
        </g>
        <g>
          <g>
            <rect class="cls-7" x="69.55" y="68.27" width="1.23" height=".98" rx=".49" ry=".49" transform="translate(-20.78 105.9) rotate(-66.63)"/>
            <path class="cls-8" d="m70.42,68.19h0c-.17-.08-.36-.04-.5.07.12-.06.26-.06.4,0h0c.25.11.36.4.25.64l-.1.24c-.03.07-.08.13-.14.18.1-.05.19-.13.24-.25l.1-.24c.11-.25,0-.53-.25-.64Z"/>
          </g>
          <g class="cls-1">
            <path class="cls-3" d="m70.43,68.4l-.16-.07c-.16-.07-.35,0-.43.17l-.16.37c.22-.24.47-.52.75-.47Z"/>
          </g>
        </g>
        <g>
          <g>
            <rect class="cls-7" x="71.36" y="69.05" width="1.23" height=".98" rx=".49" ry=".49" transform="translate(-20.41 108.03) rotate(-66.63)"/>
            <path class="cls-8" d="m72.22,68.97h0c-.17-.08-.36-.04-.5.07.12-.06.26-.06.4,0h0c.25.11.36.4.25.64l-.1.24c-.03.07-.08.13-.14.18.11-.05.19-.13.24-.25l.1-.24c.11-.25,0-.53-.25-.64Z"/>
          </g>
          <g class="cls-1">
            <path class="cls-3" d="m72.23,69.18l-.16-.07c-.16-.07-.35,0-.43.17l-.16.37c.22-.24.47-.52.74-.47Z"/>
          </g>
        </g>
        <g>
          <g>
            <rect class="cls-7" x="73.16" y="69.83" width="1.23" height=".98" rx=".49" ry=".49" transform="translate(-20.03 110.16) rotate(-66.63)"/>
            <path class="cls-8" d="m74.03,69.75h0c-.17-.08-.36-.04-.5.07.12-.06.26-.06.4,0h0c.25.11.36.4.25.64l-.1.24c-.03.07-.08.13-.14.18.11-.05.19-.13.24-.25l.1-.24c.11-.25,0-.53-.25-.64Z"/>
          </g>
          <g class="cls-1">
            <path class="cls-3" d="m74.04,69.96l-.16-.07c-.16-.07-.35,0-.43.17l-.16.37c.22-.24.47-.52.75-.47Z"/>
          </g>
        </g>
        <g>
          <g>
            <path class="cls-7" d="m80.87,72.94h.26c.27,0,.49.22.49.49h0c0,.28-.22.5-.49.5h-.26c-.27,0-.49-.22-.49-.49h0c0-.28.22-.5.49-.5Z" transform="translate(-18.54 118.67) rotate(-66.63)"/>
            <path class="cls-8" d="m81.24,72.87h0c-.17-.08-.36-.04-.5.07.12-.06.26-.06.4,0h0c.25.11.36.4.25.64l-.1.24c-.03.07-.08.13-.14.18.1-.05.19-.13.24-.25l.1-.24c.11-.25,0-.53-.25-.64Z"/>
          </g>
          <g class="cls-1">
            <path class="cls-3" d="m81.25,73.08l-.16-.07c-.16-.07-.35,0-.43.17l-.16.37c.22-.24.47-.52.75-.47Z"/>
          </g>
        </g>
      </g>
      <g>
        <path class="cls-13" d="m79.43,74.02l-5.73-2.48c-14.24-4.42-31.64-10.6-36.83-9.97,10.06,5.71,20.58,10.31,31.62,13.66l10.95-1.21Z"/>
        <polygon class="cls-8" points="81.18 69.99 78.79 69.04 73.7 71.55 79.43 74.02 81.18 69.99"/>
        <g>
          <path class="cls-10" d="m56.35,70.02l-1.16,2.67c-.08-.01-.15-.03-.23-.04-.16-.03-.33-.07-.5-.1-3.27-.68-7.83-2.18-11.07-3.58-2.11-.91-3.36-1.65-4.05-2.29-.23-.21-.39-.4-.52-.59-.09-.13-.15-.25-.19-.38l1.28-2.96c.12-.05.25-.09.41-.12.22-.04.48-.05.78-.03.95.07,2.34.47,4.45,1.38,3.25,1.4,7.45,3.69,10.19,5.61.15.1.29.2.42.3.06.05.13.09.19.14Z"/>
          <path class="cls-13" d="m55.43,72.15l-.24.54c-.08-.01-.15-.03-.23-.04-.16-.03-.33-.07-.5-.1-3.27-.68-7.83-2.18-11.07-3.58-2.11-.91-3.36-1.65-4.05-2.29-.23-.21-.39-.4-.52-.59-.09-.13-.15-.25-.19-.38l.3-.69c4.76,2.58,10.36,4.93,16.5,7.13Z"/>
          <path class="cls-5" d="m41.1,62.6l-1.76,4.08c-.23-.21-.39-.4-.52-.59l1.49-3.46c.22-.04.48-.05.78-.03Z"/>
          <path class="cls-5" d="m56.16,69.89l-1.2,2.77c-.16-.03-.33-.07-.5-.1l1.28-2.96c.15.1.29.2.42.3Z"/>
        </g>
        <g>
          <path class="cls-10" d="m69.24,73.94l-1.16,2.67c-.08-.01-.15-.03-.23-.04-.16-.03-.33-.07-.5-.1-3.27-.68-7.83-2.18-11.07-3.58-2.11-.91-3.36-1.65-4.05-2.29-.23-.21-.39-.4-.51-.59-.09-.13-.15-.25-.19-.38l1.28-2.96c.12-.05.25-.09.41-.12.22-.04.48-.05.78-.03.95.07,2.34.47,4.45,1.38,3.25,1.4,7.45,3.69,10.19,5.61.15.1.29.2.42.3.06.05.13.09.19.14Z"/>
          <path class="cls-13" d="m68.32,76.07l-.23.54c-.08-.01-.15-.03-.23-.04-.16-.03-.33-.07-.5-.1-3.27-.68-7.83-2.18-11.07-3.58-2.11-.91-3.36-1.65-4.05-2.29-.23-.21-.39-.4-.51-.59-.09-.13-.15-.25-.19-.38l.3-.68c4.76,2.58,10.36,4.93,16.5,7.13Z"/>
          <path class="cls-5" d="m53.99,66.52l-1.76,4.08c-.23-.21-.39-.4-.51-.59l1.49-3.46c.22-.04.48-.05.78-.03Z"/>
          <path class="cls-5" d="m69.05,73.8l-1.2,2.77c-.16-.03-.33-.07-.5-.1l1.28-2.96c.15.1.29.2.42.3Z"/>
        </g>
      </g>
      <path class="cls-11" d="m104.4,73.59l-2.92,2.69c-1.55-.57-3.16-1.22-4.84-1.95-2.48-1.05-4.02-2.58-4.5-3.56-.11-.24-.23-.46-.33-.68l2.86-.7,9.73,4.2Z"/>
      <polygon class="cls-5" points="107.97 70.31 105.06 72.98 95.99 69.06 101.79 67.64 107.97 70.31"/>
      <g class="cls-1">
        <path class="cls-2" d="m19.59,45.33c7.04,1.03,13.13,2.45,19.68,5.49l-19.68-5.49Z"/>
      </g>
      <g class="cls-1">
        <path class="cls-2" d="m50.23,66.59c-5.77-3.15-9.13-4.07-10.44-3.08l10.44,3.08Z"/>
      </g>
      <g class="cls-1">
        <path class="cls-3" d="m63.23,70.6c-5.77-3.15-9.13-4.07-10.44-3.08l10.44,3.08Z"/>
      </g>
      <g class="cls-1">
        <polygon class="cls-3" points="111.91 65.92 88.14 71.76 91.8 73.35 111.91 65.92"/>
      </g>
      <g class="cls-1">
        <path class="cls-3" d="m17.06,45.22c-1.08.39-1.65.52-2.36.61.76.03,1.49-.06,2.62-.5l-.26-.11Z"/>
      </g>
      <g class="cls-1">
        <path class="cls-3" d="m17.74,45.51c-.67.45-.9.6-1.7.9.75-.13,1.01-.23,2.09-.73l-.39-.17Z"/>
      </g>
      <g class="cls-1">
        <path class="cls-3" d="m18.68,45.92c-.4.37-.74.67-1.4,1.03.72-.26.94-.38,1.78-.86l-.38-.16Z"/>
      </g>
      <g class="cls-1">
        <path class="cls-3" d="m19.52,46.28c-.34.42-.61.82-1.08,1.17.67-.37,1.03-.65,1.46-1l-.38-.16Z"/>
      </g>
    </g>
  </g>
</svg>