<svg xmlns="http://www.w3.org/2000/svg" viewBox="0 0 124.64 124.64">
  <defs>
    <style>
      .cls-1 {
        fill: #fff;
      }

      .cls-2, .cls-3, .cls-4, .cls-5 {
        opacity: .2;
      }

      .cls-2, .cls-3, .cls-4, .cls-5, .cls-6, .cls-7 {
        mix-blend-mode: multiply;
      }

      .cls-2, .cls-8 {
        fill: #819f3d;
      }

      .cls-9 {
        fill: #547d39;
      }

      .cls-10 {
        fill: #cfaf2b;
      }

      .cls-11 {
        fill: #467336;
      }

      .cls-12 {
        isolation: isolate;
      }

      .cls-13 {
        fill: #5d9b42;
      }

      .cls-14 {
        fill: #76b24e;
      }

      .cls-4, .cls-15, .cls-6 {
        fill: #a48a7b;
      }

      .cls-16, .cls-5, .cls-7 {
        fill: #946138;
      }

      .cls-17 {
        fill: #a89131;
      }

      .cls-18 {
        fill: #93ca62;
      }

      .cls-19 {
        fill: #548a3e;
      }

      .cls-20 {
        fill: #b39930;
      }

      .cls-21 {
        fill: #80c455;
      }

      .cls-22 {
        fill: #3c612e;
      }

      .cls-6, .cls-7 {
        opacity: .6;
      }

      .cls-23 {
        fill: #66b045;
      }

      .cls-24 {
        fill: #548f40;
      }

      .cls-25 {
        fill: #93802f;
      }

      .cls-26 {
        fill: #025c88;
      }

      .cls-27 {
        fill: #4a7e3b;
      }

      .cls-28 {
        fill: #7cc248;
      }
    </style>
  </defs>
  <g class="cls-12">
    <g id="Layer_2" data-name="Layer 2">
      <g id="Layer_1-2" data-name="Layer 1">
        
        <g>
          <g>
            <ellipse class="cls-2" cx="41.26" cy="91.23" rx="7.58" ry="1.08"/>
            <g>
              <path class="cls-25" d="m59.17,63.23c-.48,1.89-1.54,3.67-2.98,5-.35.32-.71.62-1.08.92-.35,2.02-1.43,3.78-3.27,4.86-1.13.66-2.52,1-3.88.94-1.58,1.62-4.07,2.38-6.28,2.35-1.69-.02-3.68-.73-4.85-2.01-.02-.02-.04-.04-.06-.06-.94-.51-1.75-1.2-2.38-2.02-1.78,0-3.57-.63-4.79-1.96-.8-.88-1.4-1.89-1.76-3.02-.2-.61-.27-1.36-.24-2.12-.03-.13-.05-.27-.07-.4-.16-1.19-.09-2.7.49-3.85-1.4-2.17-1.65-5.06-.12-7.59,1.66-2.75,5.03-4.03,8.12-3.18,2.08.57,3.76,2.09,4.78,3.95,0,.01.01.02.02.04.5-.11,1-.17,1.47-.17.82,0,1.73.18,2.6.52,1.06-1.25,2.48-2.18,4.1-2.65,2.83-.83,5.86.24,7.94,2.19,2.18,2.04,2.95,5.45,2.23,8.29Z"/>
              <path class="cls-15" d="m43.56,91.5s.3-13.97,1.21-16.09c.91-2.12,4.39-6.81,4.39-6.81l-.45-1.82s-4.09,7.27-5,7.42.91-15.44.91-15.44h-1.82s-1.21,17.26-2.12,18.16c-.91.91-1.21-13.32-1.21-13.32l-1.51.3s.76,7.57.15,8.17-2.42-6.81-2.42-6.81l-1.51.76,4.24,11.81,1.06,13.62,4.09.04Z"/>
              <path class="cls-6" d="m48.7,66.79l.45,1.82s-1.49,2-2.77,3.98c-.27-.22-.54-.43-.81-.63,1.45-2.18,3.13-5.17,3.13-5.17Z"/>
              <path class="cls-6" d="m42.8,58.77h1.82s-.87,7.51-1.11,12.05c-.56-.23-1.13-.39-1.71-.48.55-5.2,1-11.57,1-11.57Z"/>
              <path class="cls-4" d="m44.28,78.12c-.53,4.92-.72,13.38-.72,13.38l-4.09-.04-.15-1.88c3.73-2.21,3.35-7.4,4.96-11.46Z"/>
              <path class="cls-6" d="m37.96,63.91l1.51-.3s.07,3.35.25,6.7c-.46.06-.92.17-1.38.32.05-2.37-.38-6.72-.38-6.72Z"/>
              <path class="cls-6" d="m35.69,65.28s.94,3.83,1.69,5.76c-.39.19-.78.43-1.16.7l-2.05-5.7,1.51-.76Z"/>
              <path class="cls-20" d="m24.24,58.93c.54-2.13,1.74-4.14,3.36-5.64.39-.36.8-.7,1.22-1.04.4-2.27,1.61-4.26,3.69-5.48,1.28-.75,2.85-1.12,4.38-1.06,1.78-1.83,4.59-2.68,7.08-2.65,1.91.02,4.15.83,5.47,2.27.02.02.04.05.06.07,1.06.58,1.97,1.35,2.69,2.28,2.01,0,4.02.71,5.4,2.22.91.99,1.58,2.14,1.99,3.41.22.69.31,1.53.27,2.39.03.15.05.3.07.46.18,1.34.1,3.05-.55,4.34,1.58,2.45,1.86,5.71.14,8.56-1.87,3.1-5.68,4.55-9.16,3.59-2.35-.65-4.24-2.36-5.4-4.46,0-.01-.01-.03-.02-.04-.56.13-1.12.19-1.65.19-.93,0-1.96-.2-2.94-.58-1.2,1.41-2.8,2.45-4.63,2.99-3.19.94-6.61-.27-8.96-2.47-2.46-2.3-3.33-6.15-2.51-9.35Z"/>
              <path class="cls-17" d="m29.63,61.13c0,.64-.43,1.5-.21,2.15.43,1.07.43,2.58,1.5,3.44,1.5.86,3.22.21,4.94,0,2.15-.64,2.58-3.87.21-4.73,4.08-2.58,7.31,2.58,10.53,4.08,2.36,1.07,4.51-.86,5.8-3.01-.64,1.93-.86,4.08-.43,6.02.21.64.86,1.07,1.5,1.29,2.42.48,4.67-.3,6.29-1.78-.08.15-.16.31-.26.46-1.87,3.1-5.68,4.55-9.16,3.59-2.35-.65-4.24-2.36-5.4-4.46,0-.01-.01-.03-.02-.04-.56.13-1.12.19-1.65.19-.93,0-1.96-.2-2.94-.58-1.2,1.41-2.8,2.45-4.63,2.99-3.19.94-6.61-.27-8.96-2.47-1.5-1.4-2.41-3.39-2.7-5.45,2.18.42,4.32.53,5.57-1.69Z"/>
              <path class="cls-10" d="m54.55,51.25c-4.51-.21-7.09-3.01-10.53-5.59-3.22-2.15-6.66,1.72-10.31,2.36-.96.11-1.86.11-2.72-.08.44-.44.95-.84,1.53-1.18,1.28-.75,2.85-1.12,4.38-1.06,1.78-1.83,4.59-2.68,7.08-2.65,1.91.02,4.15.83,5.47,2.27.02.02.04.05.06.07,1.06.58,1.97,1.35,2.69,2.28,2.01,0,4.02.71,5.4,2.22.91.99,1.58,2.14,1.99,3.41.22.69.31,1.53.27,2.39.03.14.05.28.07.42-.68-.24-1.33-.6-1.94-1-1.5-1.07-1.5-3.65-3.44-3.87Z"/>
            </g>
          </g>
          <g>
            <ellipse class="cls-2" cx="64.89" cy="94.38" rx="19.7" ry="1.92"/>
            <g>
              <path class="cls-24" d="m63.21,32.92c-.73-.02-1.41.1-2.04.33-.66-1.03-1.43-1.95-2.29-2.68-3.79-3.22-8.54-1.96-11.79,2.01-1.5,1.83-2.46,4.25-2.93,6.88-1.06.08-2.13.21-3.19.39-2.47.42-5.03.93-6.84,3.77-1.8,2.83-2.54,6.7-1.86,10.29-.04.11-.09.21-.13.32-.93,2.67.04,5.92,2.12,7.8,1.77,1.6,3.93,2.19,6.23,2.52,2.42.34,4.68.64,7.11.26,1.17-.18,2.3-.61,3.34-1.19.03-.02.06-.04.1-.06,1.34.28,2.75.12,3.94-.65.69-.44,1.25-.98,1.68-1.58.16-.06.33-.13.51-.2,1.44-.61,2.57-1.52,3.45-2.81.78-1.14,1.14-2.51,1.11-3.88.51-.61,1-1.26,1.43-1.96.47-.75.89-2,1.39-2.92,2.47-.91,4.53-4.39,4.42-8.21-.14-4.64-2.53-8.35-5.77-8.44Z"/>
              <path class="cls-22" d="m77.82,26.55c-4.5-1.13-9.42.08-13.1,2.85-1.24-.07-2.52.05-3.83.42-2.27.64-3.99,2.1-5.08,3.94-2.33-.01-4.65.25-7.05.8-4.7,1.09-7.27,7.26-4.61,11.33,1.72,2.63,4.1,4.8,6.83,6.31.74,4.11,2.65,7.96,6.05,10.58,2.61,2.02,5.97,2.92,9.22,2.08,1.52-.39,2.73-1.11,3.95-2.05.02-.01.04-.03.05-.04,2.48-.23,4.89-1.59,6.05-3.77.03-.06.05-.12.08-.18,4.78-1.88,7.33-6.04,7.26-10.61,1.98-1.24,3.53-3.08,4.23-5.57,2.02-7.16-3.11-14.34-10.06-16.09Z"/>
              <path class="cls-9" d="m94.14,47.57c-.97-1.01-2.19-1.92-3.46-2.65-.33-1.06-.94-2.04-1.6-2.9-2.22-2.88-5.86-3.98-9.35-3-1.53.43-2.71,1.25-3.7,2.28-3.75-.47-7.77-.33-10.73,1.49-5.59,3.44-6.01,10.55-1.82,14.82.15,1.03.46,2.04.94,2.99,1.46,2.85,4.38,4.2,7.36,4.82.92.19,1.82.42,2.72.7.45.14.89.3,1.33.45.13.04.23.08.33.11.03.02.06.03.1.06,1.98,1.07,3.87,2.1,5.66,3.48,3.71,2.86,10.6-.06,11.33-4.61l.49-3.06c4.62-3.64,4.5-10.73.41-14.98Z"/>
              <g>
                <path class="cls-23" d="m61.74,26.25c-.73-.02-1.41.1-2.04.33-.66-1.03-1.43-1.95-2.29-2.68-3.79-3.22-8.54-1.96-11.79,2.01-1.5,1.83-2.46,4.25-2.93,6.88-1.06.08-2.13.21-3.19.39-2.47.42-5.03.93-6.84,3.77-1.8,2.83-2.54,6.7-1.86,10.29-.04.11-.09.21-.13.32-.93,2.67.04,5.92,2.12,7.8,1.77,1.6,3.93,2.19,6.23,2.52,2.42.34,4.68.64,7.11.26,1.17-.18,2.3-.61,3.34-1.19.03-.02.06-.04.1-.06,1.34.28,2.75.12,3.94-.65.69-.44,1.25-.98,1.68-1.58.16-.06.33-.13.51-.2,1.44-.61,2.57-1.52,3.45-2.81.78-1.14,1.14-2.51,1.11-3.88.51-.61,1-1.26,1.43-1.96.47-.75.89-2,1.39-2.92,2.47-.91,4.53-4.39,4.42-8.21-.14-4.64-2.53-8.35-5.77-8.44Z"/>
                <path class="cls-13" d="m59.81,42.99c.36-.72-1.07-1.07-1.79-.72-2.51,1.79-.72,5.02-2.51,6.45-2.51,2.15-5.37-1.43-8.24-.36-.36.36-1.07.36-1.43,1.07,2.51-.72,3.58,2.87,1.79,3.94-4.3,2.87-7.52-1.07-8.24-6.09,0-.72-1.07-2.15-2.51-1.07.72-.36.72.72,1.07.72.36.36-.36,1.43-.36,1.79-1.07,1.07-2.87,1.07-4.3.72-1.31-.58-2.08-1.64-2.59-2.88.03.23.07.46.11.68-.04.11-.09.21-.13.32-.93,2.67.04,5.92,2.12,7.8,1.77,1.6,3.93,2.19,6.23,2.52,2.42.34,4.68.64,7.11.26,1.17-.18,2.3-.61,3.34-1.19.03-.02.06-.04.1-.06,1.34.28,2.75.12,3.94-.65.69-.44,1.25-.98,1.68-1.58.16-.06.33-.13.51-.2,1.44-.61,2.57-1.52,3.45-2.81.78-1.14,1.14-2.51,1.11-3.88.47-.56.91-1.16,1.32-1.8-1.23-.5-2.39-1.49-1.79-2.99Z"/>
                <path class="cls-28" d="m45.47,35.47c-1.79-8.24,6.45-10.03,12.9-10.39.07,0,.13,0,.2-.02-.36-.42-.75-.81-1.16-1.16-3.79-3.22-8.54-1.96-11.79,2.01-1.5,1.83-2.46,4.25-2.93,6.88-1.06.08-2.13.21-3.19.39-2.21.37-4.48.82-6.23,2.93,3.93-.99,8.06-.94,12.19-.65Z"/>
              </g>
              <path class="cls-16" d="m57.83,91.77s3.11-20.07,2.32-25.62c-.79-5.55-6.6-21.4-6.87-24.3l2.38-.79s5.28,19.8,7.92,22.18c2.64,2.38,5.28-15.84,5.28-15.84l3.17.26s-5.02,17.43-3.7,20.33c1.32,2.9,5.28-9.24,5.28-9.24l3.17,1.32-7.13,13.2,3.22,21.92-16.9-.53,1.85-2.89Z"/>
              <path class="cls-5" d="m70.45,78.7c-.49,6.5-4.32,12.03-9.71,16.11l12.14.38-2.43-16.49Z"/>
              <path class="cls-7" d="m76.78,60.07l-3.17-1.32s-1.05,3.21-2.24,5.94c.46.94.92,1.88,1.41,2.79l4-7.41Z"/>
              <path class="cls-7" d="m55.66,41.05l-2.38.79c.19,2.1,3.27,10.93,5.26,17.77.93-.23,1.84-.49,2.73-.73-2.61-6.56-5.62-17.83-5.62-17.83Z"/>
              <path class="cls-7" d="m68.96,60.08c1.15-5.77,3.07-12.43,3.07-12.43l-3.17-.26s-.92,6.32-2.21,11.03c.87.25,1.65.76,2.31,1.66Z"/>
              <g>
                <path class="cls-27" d="m77.92,17.61c-4.5-1.13-9.42.08-13.1,2.85-1.24-.07-2.52.05-3.83.42-2.27.64-3.99,2.1-5.08,3.94-2.33-.01-4.65.25-7.05.8-4.7,1.09-7.27,7.26-4.61,11.33,1.72,2.63,4.1,4.8,6.83,6.31.74,4.11,2.65,7.96,6.05,10.58,2.61,2.02,5.97,2.92,9.22,2.08,1.52-.39,2.73-1.11,3.95-2.05.02-.01.04-.03.05-.04,2.48-.23,4.89-1.59,6.05-3.77.03-.06.05-.12.08-.18,4.78-1.88,7.33-6.04,7.26-10.61,1.98-1.24,3.53-3.08,4.23-5.57,2.02-7.16-3.11-14.34-10.06-16.09Z"/>
                <path class="cls-11" d="m71.46,43.26c.72,0,1.07.72,1.43.72.72.72.72,1.79.36,2.87-.36.72-.72,1.79-1.07,2.51-2.15,2.51-5.02,3.58-7.88,2.87-2.15-.72-3.22-3.58-2.51-5.73.36-.72,1.07-.72,1.43-1.07,1.43-.72,1.79,1.79,2.87,1.43.72,0,1.79-1.07,1.79-1.79,1.07-4.66-4.66-5.02-7.52-3.94-.72,0-1.43.36-2.15.72-2.87,2.15-5.73-1.07-6.81-3.58,2.51.36,3.58-2.15,2.87-4.3-1.43,2.15-4.3,1.43-5.37-.36-1.11-2.5-1.14-5.42-.1-7.95-4.65,1.14-7.18,7.26-4.53,11.3,1.72,2.63,4.1,4.8,6.83,6.31.74,4.11,2.65,7.96,6.05,10.58,2.61,2.02,5.97,2.92,9.22,2.08,1.52-.39,2.73-1.11,3.95-2.05.02-.01.04-.03.05-.04,2.48-.23,4.89-1.59,6.05-3.77.03-.06.05-.12.08-.18,3.91-1.53,6.32-4.59,7.03-8.15-2.22,1.2-3.78,3.78-5.97,4.05-2.51.36-3.22-3.22-6.09-2.51Z"/>
                <path class="cls-19" d="m77.92,17.61c-4.5-1.13-9.42.08-13.1,2.85-1.24-.07-2.52.05-3.83.42-2.27.64-3.99,2.1-5.08,3.94-.91,0-1.82.03-2.73.11,3.07,1.28,6.43.07,9.32-1.38,2.51-1.07,5.37,1.43,7.88,0,3.94-2.51,8.6-3.22,11.82,0,2.01,1.78,3.87,4.12,6.12,5.46-.68-5.38-4.99-10.05-10.41-11.41Z"/>
              </g>
              <path class="cls-21" d="m84.74,56.12c.09-.15.15-.34.15-.59-.09.18-.13.38-.15.59Z"/>
              <g>
                <path class="cls-21" d="m97.64,43.24c-.97-1.01-2.19-1.92-3.46-2.65-.33-1.06-.94-2.04-1.6-2.9-2.22-2.88-5.86-3.98-9.35-3-1.53.43-2.71,1.25-3.7,2.28-3.75-.47-7.77-.33-10.73,1.49-5.59,3.44-6.01,10.55-1.82,14.82.15,1.03.46,2.04.94,2.99,1.46,2.85,4.38,4.2,7.36,4.82.92.19,1.82.42,2.72.7.45.14.89.3,1.33.45.13.04.23.08.33.11.03.02.06.03.1.06,1.98,1.07,3.87,2.1,5.66,3.48,3.71,2.86,10.6-.06,11.33-4.61.16-1.02.32-2.04.49-3.06,4.62-3.64,4.5-10.73.41-14.98Z"/>
                <path class="cls-18" d="m84.89,37.97c6.48.88,9.82,9.03,15.78,12.1-.17-2.47-1.2-4.94-3.03-6.83-.97-1.01-2.19-1.92-3.46-2.65-.33-1.06-.94-2.04-1.6-2.9-2.22-2.88-5.86-3.98-9.35-3-1.53.43-2.71,1.25-3.7,2.28-2.18-.27-4.46-.34-6.57.01,3.15,2.51,8.21.68,11.93.99Z"/>
                <path class="cls-14" d="m95.64,57.32c-2.51-.36-4.66,1.43-5.37,3.58-1.07,2.15-5.73-.36-5.37-2.87,0-.54-.2-1.28-.15-1.92-.31.51-1.01.57-1.28.85-3.58,1.79-8.6,0-10.75-3.22,2.51,0,5.37.36,7.17-2.15.36-.72,0-1.07-.36-1.79,0,.72-.36,1.79-1.07,2.15-2.51.72-5.02-.36-7.17-1.43-3.94-1.64-4.87-7.81-2.79-11.86-5.3,3.51-5.62,10.43-1.51,14.62.15,1.03.46,2.04.94,2.99,1.46,2.85,4.38,4.2,7.36,4.82.92.19,1.82.42,2.72.7.45.14.89.3,1.33.45.13.04.23.08.33.11.03.02.06.03.1.06,1.98,1.07,3.87,2.1,5.66,3.48,3.38,2.61,9.42.41,11-3.45-1.7-1.25-2.88-3.31-.77-5.11Z"/>
              </g>
            </g>
          </g>
          <g class="cls-3">
            <path class="cls-8" d="m38.26,96.56c-.52-.18-.95-.86-.79-1.61.05-.25.3-.41.55-.36.63.24,1.23.57,1.8.9,0,0-1.61,1.15-1.61,1.15-.27-.49-.32-1.05-.2-1.55.18-1.01,1.6-2.12,2.49-1.09.49.55.96,1.13,1.38,1.72l-2.6,1.31c-1.19-3.56,4.59-5.54,3.68-.74,0,0-2.62-.62-2.62-.62.8-1.28,2.71-2.23,4.06-1.2.56.47.41,1.41-.01,1.73-.09.09-.12.06-.15.05-.15.01-.21.23-.1.39.1.12.3.24.55.19-.32.63-1.36.44-1.62-.23-.19-.3-.12-.92,0-1.19.04-.11.03-.2-.03-.1-.08.11-.05.44.13.61.19.2.38.18.21.29-.27.18-.53.51-.6.79-.36,1.36-2.4,1.2-2.56-.17-.09-.61-.15-1.24-.19-1.85,0,0,1.8,1.41,1.8,1.41.25-.07.28-.13.19-.37,0,0-2.6,1.31-2.6,1.31-.33-.56-.63-1.13-.92-1.72l1.67.44c.15-.18,0-.2-.13-.22,0,0-1.61,1.15-1.61,1.15-.3-.43-.58-.88-.84-1.36l.94-.2c-.23.15-.46.61-.29,1.13h0Z"/>
          </g>
          <g class="cls-3">
            <path class="cls-8" d="m76.19,89.32c1.09-.35,2.17-.55,3.25-.73l-.78,1.22c-.43-.56-.84-1.13-1.23-1.71-.67-.96.49-2.19,1.48-1.61.64.36,1.28.73,1.9,1.12l-2.04.51c.24-.61.48-1.21.74-1.8.47-1.18,2.29-1.11,2.69.08.23.62.44,1.24.64,1.87l-2.53-.54c.94-1.02,2.18-1.7,3.52-1.96.71-.16,1.42.28,1.58.99.29,1.16-1.08,1.42-1.01,2.6,0,0-1.88-.51-1.88-.51.66-.57,1.51-.82,2.31-.74l1.1.12c.67.1.34,1.11-.26.8-.05-.03-.11.04-.08.18.25.63,1,.63,1.7.74-1.11.91-3.2.72-3.26-1.11,0,0,.84.92.84.92-.34.12-.62.37-.75.62-.24.47-.81.66-1.28.42-.37-.17-.49-.58-.6-.93-.41-1.19-.2-2.55.63-3.61l1.44,2.23c-1.46.41-2.28,2.65-3.89,1.38-.63-.65-.68-1.64-.99-2.45,0,0,2.72.17,2.72.17-.33.64-.68,1.27-1.04,1.9-1.09,1.59-2.43-.13-3.35-.96,0,0,1.74-1.46,1.74-1.46.27.76.51,1.54.73,2.32.16.52-.35,1.04-.87.91-1.07-.25-2.13-.52-3.19-.95h0Z"/>
          </g>
        </g>
      </g>
    </g>
  </g>
</svg>