<svg xmlns="http://www.w3.org/2000/svg" id="Layer_2" data-name="Layer 2" viewBox="0 0 124.64 124.64">
  <defs>
    <style>
      .cls-1 {
        fill: #39aae1;
      }

      .cls-2 {
        fill: #fff;
      }

      .cls-3 {
        fill: #ebbb7b;
      }

      .cls-4 {
        fill: #dbf1fd;
      }

      .cls-5 {
        fill: #f58020;
      }

      .cls-6 {
        fill: #f6ad1b;
      }

      .cls-7 {
        fill: #025c88;
      }

      .cls-8 {
        fill: #595959;
      }
    </style>
  </defs>
  <g id="Layer_1-2" data-name="Layer 1">
    
    <g>
      <rect class="cls-3" x="33.18" y="32.15" width="57.42" height="66.57"/>
      <rect class="cls-5" x="33.18" y="94.19" width="57.42" height="4.53"/>
      <rect class="cls-5" x="33.18" y="78.74" width="57.42" height="4.53"/>
      <rect class="cls-5" x="33.18" y="61.75" width="57.42" height="4.53"/>
      <rect class="cls-5" x="33.18" y="44.75" width="57.42" height="4.53"/>
      <rect class="cls-8" x="54.39" y="85.04" width="14.99" height="13.68"/>
      <rect class="cls-5" x="54.66" y="85.32" width="7.04" height="13.28"/>
      <rect class="cls-4" x="55.03" y="85.64" width="6.31" height="7.53"/>
      <polygon class="cls-2" points="61.34 93.16 56.82 93.16 59.66 85.64 61.34 85.64 61.34 93.16"/>
      <rect class="cls-5" x="62.06" y="85.32" width="7.04" height="13.28" transform="translate(131.17 183.91) rotate(180)"/>
      <rect class="cls-4" x="62.43" y="85.64" width="6.31" height="7.53"/>
      <rect class="cls-8" x="34.62" y="69.69" width="8.45" height="7.32" transform="translate(112.19 34.5) rotate(90)"/>
      <rect class="cls-4" x="35.41" y="69.34" width="6.88" height="8.01"/>
      <rect class="cls-8" x="43.84" y="69.69" width="8.45" height="7.32" transform="translate(121.41 25.29) rotate(90)"/>
      <rect class="cls-4" x="44.62" y="69.34" width="6.88" height="8.01"/>
      <rect class="cls-8" x="53.05" y="69.69" width="8.45" height="7.32" transform="translate(130.62 16.07) rotate(90)"/>
      <rect class="cls-4" x="53.84" y="69.34" width="6.88" height="8.01"/>
      <rect class="cls-8" x="62.27" y="69.69" width="8.45" height="7.32" transform="translate(139.84 6.85) rotate(90)"/>
      <rect class="cls-4" x="63.05" y="69.34" width="6.88" height="8.01"/>
      <rect class="cls-8" x="71.48" y="69.69" width="8.45" height="7.32" transform="translate(149.05 -2.36) rotate(90)"/>
      <polygon class="cls-2" points="68.74 93.16 64.22 93.16 67.06 85.64 68.74 85.64 68.74 93.16"/>
      <rect class="cls-4" x="72.27" y="69.34" width="6.88" height="8.01"/>
      <rect class="cls-8" x="80.7" y="69.69" width="8.45" height="7.32" transform="translate(158.27 -11.58) rotate(90)"/>
      <rect class="cls-4" x="81.48" y="69.34" width="6.88" height="8.01"/>
      <rect class="cls-8" x="34.62" y="52.65" width="8.45" height="7.32" transform="translate(95.15 17.47) rotate(90)"/>
      <rect class="cls-4" x="35.41" y="52.31" width="6.88" height="8.01"/>
      <rect class="cls-8" x="43.84" y="52.65" width="8.45" height="7.32" transform="translate(104.37 8.25) rotate(90)"/>
      <rect class="cls-4" x="44.62" y="52.31" width="6.88" height="8.01"/>
      <rect class="cls-8" x="53.05" y="52.65" width="8.45" height="7.32" transform="translate(113.59 -.97) rotate(90)"/>
      <rect class="cls-4" x="53.84" y="52.31" width="6.88" height="8.01"/>
      <rect class="cls-8" x="62.27" y="52.65" width="8.45" height="7.32" transform="translate(122.8 -10.18) rotate(90)"/>
      <rect class="cls-4" x="63.05" y="52.31" width="6.88" height="8.01"/>
      <rect class="cls-8" x="71.48" y="52.65" width="8.45" height="7.32" transform="translate(132.02 -19.4) rotate(90)"/>
      <rect class="cls-4" x="72.27" y="52.31" width="6.88" height="8.01"/>
      <rect class="cls-8" x="80.7" y="52.65" width="8.45" height="7.32" transform="translate(141.23 -28.61) rotate(90)"/>
      <rect class="cls-4" x="81.48" y="52.31" width="6.88" height="8.01"/>
      <rect class="cls-8" x="34.62" y="35.61" width="8.45" height="7.32" transform="translate(78.12 .43) rotate(90)"/>
      <rect class="cls-4" x="35.41" y="35.27" width="6.88" height="8.01"/>
      <rect class="cls-8" x="43.84" y="35.61" width="8.45" height="7.32" transform="translate(87.33 -8.79) rotate(90)"/>
      <rect class="cls-4" x="44.62" y="35.27" width="6.88" height="8.01"/>
      <rect class="cls-8" x="53.05" y="35.61" width="8.45" height="7.32" transform="translate(96.55 -18) rotate(90)"/>
      <rect class="cls-4" x="53.84" y="35.27" width="6.88" height="8.01"/>
      <rect class="cls-8" x="62.27" y="35.61" width="8.45" height="7.32" transform="translate(105.77 -27.22) rotate(90)"/>
      <rect class="cls-4" x="63.05" y="35.27" width="6.88" height="8.01"/>
      <rect class="cls-8" x="71.48" y="35.61" width="8.45" height="7.32" transform="translate(114.98 -36.43) rotate(90)"/>
      <rect class="cls-4" x="72.27" y="35.27" width="6.88" height="8.01"/>
      <rect class="cls-8" x="80.7" y="35.61" width="8.45" height="7.32" transform="translate(124.2 -45.65) rotate(90)"/>
      <rect class="cls-4" x="81.48" y="35.27" width="6.88" height="8.01"/>
      <rect class="cls-8" x="34.62" y="85.35" width="8.45" height="7.32" transform="translate(127.85 50.16) rotate(90)"/>
      <rect class="cls-4" x="35.41" y="85.01" width="6.88" height="8.01"/>
      <rect class="cls-8" x="43.84" y="85.35" width="8.45" height="7.32" transform="translate(137.07 40.95) rotate(90)"/>
      <rect class="cls-4" x="44.62" y="85.01" width="6.88" height="8.01"/>
      <rect class="cls-8" x="71.48" y="85.35" width="8.45" height="7.32" transform="translate(164.72 13.3) rotate(90)"/>
      <rect class="cls-4" x="72.27" y="85.01" width="6.88" height="8.01"/>
      <rect class="cls-8" x="80.7" y="85.35" width="8.45" height="7.32" transform="translate(173.93 4.09) rotate(90)"/>
      <rect class="cls-4" x="81.48" y="85.01" width="6.88" height="8.01"/>
      <polygon class="cls-6" points="61.71 23.11 62.81 25.36 65.29 25.72 63.5 27.46 63.92 29.93 61.71 28.76 59.49 29.93 59.92 27.46 58.12 25.72 60.6 25.36 61.71 23.11"/>
      <polygon class="cls-6" points="69.93 23.11 71.04 25.36 73.51 25.72 71.72 27.46 72.14 29.93 69.93 28.76 67.72 29.93 68.14 27.46 66.35 25.72 68.82 25.36 69.93 23.11"/>
      <polygon class="cls-6" points="53.48 23.11 52.37 25.36 49.9 25.72 51.69 27.46 51.27 29.93 53.48 28.76 55.7 29.93 55.27 27.46 57.06 25.72 54.59 25.36 53.48 23.11"/>
      <polygon class="cls-2" points="79.15 93.01 74.08 93.01 77.23 85.01 79.15 85.01 79.15 93.01"/>
      <polygon class="cls-2" points="88.36 93.01 83.29 93.01 86.45 85.01 88.36 85.01 88.36 93.01"/>
      <polygon class="cls-2" points="42.28 93.01 37.22 93.01 40.37 85.01 42.28 85.01 42.28 93.01"/>
      <polygon class="cls-2" points="51.5 93.01 46.43 93.01 49.59 85.01 51.5 85.01 51.5 93.01"/>
      <polygon class="cls-2" points="42.28 77.35 37.22 77.35 40.37 69.34 42.28 69.34 42.28 77.35"/>
      <polygon class="cls-2" points="51.5 77.35 46.43 77.35 49.59 69.34 51.5 69.34 51.5 77.35"/>
      <polygon class="cls-2" points="60.71 77.35 55.65 77.35 58.8 69.34 60.71 69.34 60.71 77.35"/>
      <polygon class="cls-2" points="69.93 77.35 64.86 77.35 68.02 69.34 69.93 69.34 69.93 77.35"/>
      <polygon class="cls-2" points="79.15 77.35 74.08 77.35 77.23 69.34 79.15 69.34 79.15 77.35"/>
      <polygon class="cls-2" points="88.36 77.35 83.29 77.35 86.45 69.34 88.36 69.34 88.36 77.35"/>
      <polygon class="cls-2" points="42.28 60.31 37.22 60.31 40.37 52.31 42.28 52.31 42.28 60.31"/>
      <polygon class="cls-2" points="51.5 60.31 46.43 60.31 49.59 52.31 51.5 52.31 51.5 60.31"/>
      <polygon class="cls-2" points="60.71 60.31 55.65 60.31 58.8 52.31 60.71 52.31 60.71 60.31"/>
      <polygon class="cls-2" points="69.93 60.31 64.86 60.31 68.02 52.31 69.93 52.31 69.93 60.31"/>
      <polygon class="cls-2" points="79.15 60.31 74.08 60.31 77.23 52.31 79.15 52.31 79.15 60.31"/>
      <polygon class="cls-2" points="88.36 60.31 83.29 60.31 86.45 52.31 88.36 52.31 88.36 60.31"/>
      <polygon class="cls-2" points="42.28 43.28 37.22 43.28 40.37 35.27 42.28 35.27 42.28 43.28"/>
      <polygon class="cls-2" points="51.5 43.28 46.43 43.28 49.59 35.27 51.5 35.27 51.5 43.28"/>
      <polygon class="cls-2" points="60.71 43.28 55.65 43.28 58.8 35.27 60.71 35.27 60.71 43.28"/>
      <polygon class="cls-2" points="69.93 43.28 64.86 43.28 68.02 35.27 69.93 35.27 69.93 43.28"/>
      <polygon class="cls-2" points="79.15 43.28 74.08 43.28 77.23 35.27 79.15 35.27 79.15 43.28"/>
      <polygon class="cls-2" points="88.36 43.28 83.29 43.28 86.45 35.27 88.36 35.27 88.36 43.28"/>
      <rect class="cls-1" x="93.08" y="51.18" width="6.35" height="21.14"/>
      <rect class="cls-8" x="90.59" y="52.63" width="2.49" height=".85"/>
      <rect class="cls-8" x="90.59" y="70.21" width="2.49" height=".85"/>
      <g>
        <path class="cls-2" d="m95.8,54.05v1.3h-.72v-3.04h.72v1.18h.91v-1.18h.72v3.04h-.72v-1.3h-.91Z"/>
        <path class="cls-2" d="m97.62,57.78c0,1-.51,1.6-1.37,1.6s-1.37-.58-1.37-1.6.51-1.59,1.37-1.59,1.37.58,1.37,1.59Zm-1.99,0c0,.77.22,1.07.61,1.07s.62-.3.62-1.07-.21-1.07-.62-1.07-.61.3-.61,1.07Z"/>
        <path class="cls-2" d="m96.61,60.76v2.49h-.72v-2.49h-.79v-.55h2.32l-.07.55h-.75Z"/>
        <path class="cls-2" d="m96.1,64.67v.73h.93v.5h-.93v.78h1.15v.52h-1.86v-3.04h1.86l-.08.51h-1.07Z"/>
        <path class="cls-2" d="m97.32,70.58l-.08.57h-1.83v-3.04h.72v2.47h1.19Z"/>
      </g>
    </g>
  </g>
</svg>