<svg xmlns="http://www.w3.org/2000/svg" id="Layer_2" data-name="Layer 2" viewBox="0 0 124.64 124.64">
  <defs>
    <style>
      .cls-1 {
        fill: #40c4e0;
      }

      .cls-2 {
        fill: #fff;
      }

      .cls-3 {
        fill: #ca3941;
      }

      .cls-4 {
        fill: #2d2a2b;
      }

      .cls-5 {
        fill: #3c2415;
      }

      .cls-6 {
        fill: #3b3b3c;
      }

      .cls-7 {
        fill: #874e26;
      }

      .cls-8 {
        fill: #fbb040;
      }

      .cls-9 {
        fill: #393839;
      }

      .cls-10 {
        fill: #7f4922;
      }

      .cls-11 {
        fill: #f7941d;
      }

      .cls-12 {
        fill: #025c88;
      }

      .cls-13 {
        fill: #7ad0e2;
      }

      .cls-14 {
        fill: #623611;
      }

      .cls-15 {
        fill: #a05e31;
      }

      .cls-16 {
        fill: #231f20;
      }

      .cls-17 {
        fill: #58595b;
      }

      .cls-18 {
        fill: #414042;
      }

      .cls-19 {
        fill: #ec524f;
      }
    </style>
  </defs>
  <g id="Layer_1-2" data-name="Layer 1">
    
    <g>
      <rect class="cls-9" x="28.23" y="67.74" width="76.25" height="9.77"/>
      <rect class="cls-5" x="28.23" y="64.81" width="76.25" height="2.99"/>
      <rect class="cls-10" x="28.23" y="58.03" width="76.25" height="2.99"/>
      <rect class="cls-10" x="28.23" y="50.67" width="76.25" height="2.99"/>
      <rect class="cls-10" x="28.23" y="43.46" width="76.25" height="2.99"/>
      <path class="cls-19" d="m12.27,74.24v-16.21l9.4-17.44c1.26-2.35,3.38-2.45,3.38-2.45l18.73-2.05c1.5,0,2.71,1.47,2.71,3.29l.03,31.03s-8.85-3.83-13.61,3.83H12.27Z"/>
      <polygon class="cls-3" points="21.67 40.59 40.38 38.32 40.38 54.81 12.27 59.11 12.27 58.03 21.67 40.59"/>
      <rect class="cls-6" x="12.27" y="74.24" width="19.18" height="4.65"/>
      <rect class="cls-16" x="12.27" y="78.87" width="19.18" height="1.53"/>
      <polygon class="cls-13" points="21.19 41.48 39.74 39.32 39.74 53.74 12.27 58.03 21.19 41.48"/>
      <g>
        <circle class="cls-4" cx="40.83" cy="78.49" r="8.1"/>
        <path class="cls-18" d="m45.81,78.49c0,2.75-2.23,4.98-4.98,4.98s-4.98-2.23-4.98-4.98,2.23-4.98,4.98-4.98,4.98,2.23,4.98,4.98Z"/>
        <path class="cls-16" d="m44.66,78.49c0,2.11-1.71,3.83-3.83,3.83s-3.83-1.71-3.83-3.83,1.71-3.83,3.83-3.83,3.83,1.71,3.83,3.83Z"/>
        <path class="cls-17" d="m40.83,79.46c-.54,0-.97-.44-.97-.97s.44-.97.97-.97.97.44.97.97-.44.97-.97.97Z"/>
        <g>
          <path class="cls-17" d="m38.6,76.89c-.18-.18-.18-.46,0-.64.18-.18.46-.18.64,0,.18.18.18.46,0,.64-.18.18-.46.18-.64,0Z"/>
          <path class="cls-17" d="m42.43,80.72c-.18-.18-.18-.46,0-.64.18-.18.46-.18.64,0,.18.18.18.46,0,.64-.18.18-.46.18-.64,0Z"/>
        </g>
        <g>
          <path class="cls-17" d="m39.24,80.72c-.18.18-.46.18-.64,0-.18-.18-.18-.46,0-.64.18-.18.46-.18.64,0,.18.18.18.46,0,.64Z"/>
          <path class="cls-17" d="m43.07,76.89c-.18.18-.46.18-.64,0-.18-.18-.18-.46,0-.64.18-.18.46-.18.64,0,.18.18.18.46,0,.64Z"/>
        </g>
        <g>
          <path class="cls-17" d="m38.12,78.94c-.25,0-.45-.2-.45-.45s.2-.45.45-.45.45.2.45.45-.2.45-.45.45Z"/>
          <path class="cls-17" d="m43.54,78.94c-.25,0-.45-.2-.45-.45s.2-.45.45-.45.45.2.45.45-.2.45-.45.45Z"/>
        </g>
        <g>
          <path class="cls-17" d="m41.28,81.19c0,.25-.2.45-.45.45s-.45-.2-.45-.45.2-.45.45-.45.45.2.45.45Z"/>
          <path class="cls-17" d="m41.28,75.78c0,.25-.2.45-.45.45s-.45-.2-.45-.45.2-.45.45-.45.45.2.45.45Z"/>
        </g>
      </g>
      <g>
        <path class="cls-4" d="m104.2,78.49c0,4.48-3.63,8.1-8.1,8.1s-8.1-3.63-8.1-8.1,3.63-8.1,8.1-8.1,8.1,3.63,8.1,8.1Z"/>
        <path class="cls-18" d="m101.07,78.49c0,2.75-2.23,4.98-4.98,4.98s-4.98-2.23-4.98-4.98,2.23-4.98,4.98-4.98,4.98,2.23,4.98,4.98Z"/>
        <path class="cls-16" d="m99.92,78.49c0,2.11-1.71,3.83-3.83,3.83s-3.83-1.71-3.83-3.83,1.71-3.83,3.83-3.83,3.83,1.71,3.83,3.83Z"/>
        <path class="cls-17" d="m96.09,79.46c-.54,0-.97-.44-.97-.97s.44-.97.97-.97.97.44.97.97-.44.97-.97.97Z"/>
        <g>
          <path class="cls-17" d="m93.86,76.89c-.18-.18-.18-.46,0-.64.18-.18.46-.18.64,0,.18.18.18.46,0,.64s-.46.18-.64,0Z"/>
          <path class="cls-17" d="m97.69,80.72c-.18-.18-.18-.46,0-.64.18-.18.46-.18.64,0,.18.18.18.46,0,.64-.18.18-.46.18-.64,0Z"/>
        </g>
        <g>
          <path class="cls-17" d="m94.5,80.72c-.18.18-.46.18-.64,0-.18-.18-.18-.46,0-.64.18-.18.46-.18.64,0s.18.46,0,.64Z"/>
          <path class="cls-17" d="m98.33,76.89c-.18.18-.46.18-.64,0-.18-.18-.18-.46,0-.64.18-.18.46-.18.64,0,.18.18.18.46,0,.64Z"/>
        </g>
        <g>
          <path class="cls-17" d="m93.38,78.94c-.25,0-.45-.2-.45-.45s.2-.45.45-.45.45.2.45.45-.2.45-.45.45Z"/>
          <path class="cls-17" d="m98.8,78.94c-.25,0-.45-.2-.45-.45s.2-.45.45-.45.45.2.45.45-.2.45-.45.45Z"/>
        </g>
        <g>
          <path class="cls-17" d="m96.55,81.19c0,.25-.2.45-.45.45s-.45-.2-.45-.45.2-.45.45-.45.45.2.45.45Z"/>
          <path class="cls-17" d="m96.55,75.78c0,.25-.2.45-.45.45s-.45-.2-.45-.45.2-.45.45-.45.45.2.45.45Z"/>
        </g>
      </g>
      <path class="cls-3" d="m31.45,78.89s.85-12.36,15.07-8.48v-4.4s-16.22-3.57-19.02,12.86c0,0,1.9,2.2,3.96.01Z"/>
      <rect class="cls-17" x="13.55" y="75.19" width="1.33" height="4.65"/>
      <rect class="cls-17" x="15.34" y="75.19" width="1.33" height="4.65"/>
      <rect class="cls-17" x="17.13" y="75.19" width="1.33" height="4.65"/>
      <path class="cls-1" d="m36.83,39.66c.06,1.91.06,3.92-.87,5.65-.88,1.63-2.23,2.94-3.76,3.96-1.8,1.19-3.81,2.1-5.79,2.96-2.05.88-4.14,1.62-6.33,2.03-2,.37-4.03.51-6.06.54l-1.74,3.24,27.46-4.29v-14.42l-2.91.34Z"/>
      <path class="cls-16" d="m12.27,58.03v2.87l4.4-.37s0-3.35-1.33-4.54l-3.07,2.04Z"/>
      <path class="cls-8" d="m12.27,65.04s1.74-.88,1.94.79c0,0,.41,3.05-1.94,4.84v-5.63Z"/>
      <path class="cls-11" d="m12.27,65.45s1.41-.71,1.58.64c0,0,.33,2.48-1.58,3.94v-4.58Z"/>
      <g>
        <rect class="cls-15" x="59.25" y="37.18" width="2.45" height="30.84"/>
        <g>
          <path class="cls-7" d="m61.19,45.36c0,.37-.3.66-.66.66s-.66-.3-.66-.66.3-.66.66-.66.66.3.66.66Z"/>
          <path class="cls-14" d="m60.86,45.36c0,.18-.15.33-.33.33s-.33-.15-.33-.33.15-.33.33-.33.33.15.33.33Z"/>
        </g>
        <g>
          <path class="cls-7" d="m61.19,52.48c0,.37-.3.66-.66.66s-.66-.3-.66-.66.3-.66.66-.66.66.3.66.66Z"/>
          <path class="cls-14" d="m60.86,52.48c0,.18-.15.33-.33.33s-.33-.15-.33-.33.15-.33.33-.33.33.15.33.33Z"/>
        </g>
        <g>
          <path class="cls-7" d="m61.19,59.84c0,.37-.3.66-.66.66s-.66-.3-.66-.66.3-.66.66-.66.66.3.66.66Z"/>
          <path class="cls-14" d="m60.86,59.84c0,.18-.15.33-.33.33s-.33-.15-.33-.33.15-.33.33-.33.33.15.33.33Z"/>
        </g>
      </g>
      <g>
        <rect class="cls-15" x="73.31" y="37.18" width="2.45" height="30.84"/>
        <g>
          <path class="cls-7" d="m75.26,45.36c0,.37-.3.66-.66.66s-.66-.3-.66-.66.3-.66.66-.66.66.3.66.66Z"/>
          <path class="cls-14" d="m74.92,45.36c0,.18-.15.33-.33.33s-.33-.15-.33-.33.15-.33.33-.33.33.15.33.33Z"/>
        </g>
        <g>
          <path class="cls-7" d="m75.26,52.48c0,.37-.3.66-.66.66s-.66-.3-.66-.66.3-.66.66-.66.66.3.66.66Z"/>
          <path class="cls-14" d="m74.92,52.48c0,.18-.15.33-.33.33s-.33-.15-.33-.33.15-.33.33-.33.33.15.33.33Z"/>
        </g>
        <g>
          <circle class="cls-7" cx="74.59" cy="59.84" r=".66"/>
          <path class="cls-14" d="m74.92,59.84c0,.18-.15.33-.33.33s-.33-.15-.33-.33.15-.33.33-.33.33.15.33.33Z"/>
        </g>
      </g>
      <g>
        <rect class="cls-15" x="87.38" y="37.18" width="2.45" height="30.84"/>
        <g>
          <path class="cls-7" d="m89.32,45.36c0,.37-.3.66-.66.66s-.66-.3-.66-.66.3-.66.66-.66.66.3.66.66Z"/>
          <path class="cls-14" d="m88.99,45.36c0,.18-.15.33-.33.33s-.33-.15-.33-.33.15-.33.33-.33.33.15.33.33Z"/>
        </g>
        <g>
          <path class="cls-7" d="m89.32,52.48c0,.37-.3.66-.66.66s-.66-.3-.66-.66.3-.66.66-.66.66.3.66.66Z"/>
          <path class="cls-14" d="m88.99,52.48c0,.18-.15.33-.33.33s-.33-.15-.33-.33.15-.33.33-.33.33.15.33.33Z"/>
        </g>
        <g>
          <path class="cls-7" d="m89.32,59.84c0,.37-.3.66-.66.66s-.66-.3-.66-.66.3-.66.66-.66.66.3.66.66Z"/>
          <path class="cls-14" d="m88.99,59.84c0,.18-.15.33-.33.33s-.33-.15-.33-.33.15-.33.33-.33.33.15.33.33Z"/>
        </g>
      </g>
      <g>
        <rect class="cls-15" x="101.87" y="37.18" width="2.45" height="30.84"/>
        <g>
          <path class="cls-7" d="m103.82,45.36c0,.37-.3.66-.66.66s-.66-.3-.66-.66.3-.66.66-.66.66.3.66.66Z"/>
          <path class="cls-14" d="m103.48,45.36c0,.18-.15.33-.33.33s-.33-.15-.33-.33.15-.33.33-.33.33.15.33.33Z"/>
        </g>
        <g>
          <path class="cls-7" d="m103.82,52.48c0,.37-.3.66-.66.66s-.66-.3-.66-.66.3-.66.66-.66.66.3.66.66Z"/>
          <path class="cls-14" d="m103.48,52.48c0,.18-.15.33-.33.33s-.33-.15-.33-.33.15-.33.33-.33.33.15.33.33Z"/>
        </g>
        <g>
          <path class="cls-7" d="m103.82,59.84c0,.37-.3.66-.66.66s-.66-.3-.66-.66.3-.66.66-.66.66.3.66.66Z"/>
          <path class="cls-14" d="m103.48,59.84c0,.18-.15.33-.33.33s-.33-.15-.33-.33.15-.33.33-.33.33.15.33.33Z"/>
        </g>
      </g>
      <g>
        <rect class="cls-15" x="46.52" y="37.18" width="2.45" height="30.84"/>
        <g>
          <path class="cls-7" d="m48.46,45.36c0,.37-.3.66-.66.66s-.66-.3-.66-.66.3-.66.66-.66.66.3.66.66Z"/>
          <path class="cls-14" d="m48.13,45.36c0,.18-.15.33-.33.33s-.33-.15-.33-.33.15-.33.33-.33.33.15.33.33Z"/>
        </g>
        <g>
          <path class="cls-7" d="m48.46,52.48c0,.37-.3.66-.66.66s-.66-.3-.66-.66.3-.66.66-.66.66.3.66.66Z"/>
          <path class="cls-14" d="m48.13,52.48c0,.18-.15.33-.33.33s-.33-.15-.33-.33.15-.33.33-.33.33.15.33.33Z"/>
        </g>
        <g>
          <path class="cls-7" d="m48.46,59.84c0,.37-.3.66-.66.66s-.66-.3-.66-.66.3-.66.66-.66.66.3.66.66Z"/>
          <path class="cls-14" d="m48.13,59.84c0,.18-.15.33-.33.33s-.33-.15-.33-.33.15-.33.33-.33.33.15.33.33Z"/>
        </g>
      </g>
      <path class="cls-16" d="m87.99,77.51s.84-7.16,8.1-7.13c0,0,7.01-.15,8.05,7.13h4.64v-3.16h-2.91s-1.48-6.61-9.77-6.61c0,0-9.05-.45-10.59,9.77h2.48Z"/>
    </g>
  </g>
</svg>