<svg xmlns="http://www.w3.org/2000/svg" viewBox="0 0 124.64 124.64">
  <defs>
    <style>
      .cls-1 {
        fill: #292728;
      }

      .cls-2 {
        fill: #fff;
      }

      .cls-3 {
        fill: #939598;
      }

      .cls-3, .cls-4, .cls-5, .cls-6 {
        mix-blend-mode: multiply;
      }

      .cls-7 {
        fill: #af7982;
      }

      .cls-8 {
        isolation: isolate;
      }

      .cls-4, .cls-9 {
        fill: #bcbec0;
      }

      .cls-10 {
        fill: #3c2415;
      }

      .cls-11 {
        fill: #240c00;
      }

      .cls-5, .cls-12 {
        fill: #d1d3d4;
      }

      .cls-13 {
        fill: #fdd0aa;
      }

      .cls-14 {
        fill: #f6a9b2;
      }

      .cls-15 {
        fill: #dfb898;
      }

      .cls-16 {
        fill: #025c88;
      }

      .cls-6 {
        fill: #e6e7e8;
      }

      .cls-17 {
        fill: #414042;
      }
    </style>
  </defs>
  <g class="cls-8">
    <g id="Layer_2" data-name="Layer 2">
      <g id="Layer_1-2" data-name="Layer 1">
        
        <g>
          <g>
            <path class="cls-2" d="m30.64,33s-2.26-4.41-7.55-3.85c0,0-2.51.55-3.6.46,0,0,1.92,10.13,10.86,4.68l.29-1.29Z"/>
            <path class="cls-14" d="m30.55,33.39s-2.16-2.85-5.83-2.84c0,0-1.43,0-2.14.63,0,0,1.86,5.03,7.83,2.83l.14-.61Z"/>
            <path class="cls-4" d="m24.77,31.35s-1.11.05-1.84.53c-.25-.41-.35-.7-.35-.7.71-.63,2.14-.63,2.14-.63,3.67,0,5.83,2.84,5.83,2.84l-.05.24c-.68-.68-2.76-2.44-5.73-2.28Z"/>
          </g>
          <path class="cls-12" d="m96.56,83.46l-.12-.33c-.62-1.64-1.2-3.19-1.3-5.05-.15-2.57.8-4.51,1.71-6.38.37-.76.76-1.55,1.07-2.39,1.15-3.09.92-6.52-.63-9.16-1.32-2.26-3.47-3.72-6.06-4.13l.26-1.69c3.11.49,5.69,2.25,7.28,4.96,1.8,3.09,2.08,7.06.75,10.62-.34.91-.74,1.74-1.13,2.54-.89,1.83-1.66,3.41-1.54,5.54.09,1.6.63,3.03,1.2,4.54l.12.33-1.6.6Z"/>
          <path class="cls-9" d="m83.25,71.88s-2.94,2.61-.83,6.99l.87,3.01c-8.05,10.75-3.48,10.1-5.94,13.12h-3.61s4.14-11.55,4.14-11.55l-4.2-7.8"/>
          <polyline class="cls-9" points="37.4 72.33 40.09 80.86 41.06 87.88 41.07 91.3 39.29 95.13 42.99 95.12 42.98 93.19 43.92 91.48 45.95 75.02"/>
          <path class="cls-2" d="m36.84,49.96s.03,9.37-1.35,11.65c0,0-6.83,14.91,17.99,18.87,0,0,22.42,4.48,34.35-3.16,4.57-2.93,8.76-10.82,7.62-16.58-.71-3.6-2.24-7.85-4.89-10.5-3.48-3.49-8.63-1.38-12.76-.54,0,0-16.22,2.33-26.21-3.61,0,0-6.85-3.39-6.86-8.23,0,0-7.71,6.81-7.88,12.1Z"/>
          <path class="cls-17" d="m57.69,48.81c.96,1.9,3.05,3.34,5.2,3.5,2.27.16,4.9-.84,6.86.8.55.46.82,1.07.99,1.75.22.87.45,1.71.98,2.46,1.19,1.67,3.18,2.58,5.22,2.19,1.88-.36,3.58-1.65,4.29-3.46.65-1.67,1.3-3.4,2.31-4.89.77-1.15,1.8-2.11,3.15-2.52.21-.06.42-.11.63-.16-3.03-.65-6.54.62-9.52,1.23,0,0-10.8,1.55-20.21-1.11.03.07.06.14.09.21Z"/>
          <path class="cls-2" d="m36.84,49.96c-3.91,4.82-9.36,2.44-9.36,2.44-8.24-4.15-4.52-8.59-4.52-8.59,4.73-4.32,4.46-10.27,4.46-10.27,1.74-6.8,9.01-5.9,9.01-5.9,8.83-.03,8.29,10.22,8.29,10.22,0,0-.19,5.78-7.88,12.1Z"/>
          <path class="cls-17" d="m24.52,42.11c1.16.54,2.4.91,3.67.75.71-.09,1.51-.3,1.92-.93.3-.46.4-1,.44-1.54.13-1.56.05-3.29,1.37-4.4,1.41-1.18,3.33-1.44,4.78-2.55,1.78-1.37,2.01-3.69,1.27-5.69-.48-.07-1-.11-1.55-.11,0,0-7.27-.9-9.01,5.9,0,0,.21,4.54-2.9,8.57Z"/>
          <path class="cls-17" d="m44.31,34.12c-1.02-.04-1.97.21-2.51,1.28-.57,1.15-.03,2.18.43,3.25.36.84.61,1.83.32,2.73-.5,1.51-2.25,1.29-3.36,2.06-.76.53-1.26,1.48-1.17,2.41.08.81.49,1.54,1.01,2.14.22-.22.43-.44.64-.65,0,0,6.78-2.6,5.06-9.48,0,0,.09-1.72-.41-3.74Z"/>
          <path class="cls-2" d="m92.74,71.39s-3.53,3.81-1.43,8.2l.87,3.01c-8.05,10.75-3.48,10.1-5.94,13.12h-3.61s4.14-11.55,4.14-11.55l-4.2-7.8"/>
          <path class="cls-12" d="m92.74,71.39s-3.53,3.81-1.43,8.2l.87,3.01c-8.05,10.75-3.48,10.1-5.94,13.12h-3.61s4.14-11.55,4.14-11.55l-2.67-4.95"/>
          <polyline class="cls-2" points="43.01 73.05 45.69 81.59 46.67 88.61 46.68 92.03 44.89 95.86 48.59 95.85 48.58 93.92 49.53 92.21 51.56 75.74"/>
          <path class="cls-10" d="m96.93,82.17c-.6.32-1.1.98-1.3,1.68-.44,1.47.43,3.11,1.27,4.28,0,0,.91,2.24.01,3.05,0,0,1.82-1.08,1.43-3.21,0,0,.59,1.17.38,1.82.08-.23.57-.56.72-.76.5-.7.77-1.55.78-2.41.02-1.26-.43-3.22-1.34-4.11-.65-.63-1.35-.65-1.95-.33Z"/>
          <g>
            <path class="cls-2" d="m41.54,34.06s3.16-3.81,8.21-2.12c0,0,2.33,1.08,3.41,1.23,0,0-4.08,9.47-11.62,2.21v-1.32Z"/>
            <path class="cls-14" d="m41.54,34.47s2.73-2.31,6.31-1.51c0,0,1.4.31,1.95,1.08,0,0-2.9,4.51-8.26,1.06v-.63Z"/>
            <path class="cls-4" d="m47.63,33.73s1.07.29,1.68.91c.33-.35.5-.61.5-.61-.55-.77-1.95-1.08-1.95-1.08-3.58-.8-6.31,1.51-6.31,1.51v.25c.82-.51,3.22-1.78,6.09-.98Z"/>
          </g>
          <path class="cls-14" d="m36.3,47.17c-.75-.92-1.7-1.54-2.9-1.68-.96-.11-1.94-.01-2.9-.18-1.49-.25-2.48-1.23-3.56-2.2-.5-.45-1.06-.9-1.72-1.07-.2-.05-.4-.07-.6-.08,0,0-4.73.46-3.85,6.15,0,0,.46,3.94,5.65,3.7h0s6.29,6.71,10.99-2.34c-.16-.85-.54-1.64-1.1-2.32Z"/>
          <path class="cls-6" d="m36.3,47.17c-.75-.92-1.7-1.54-2.9-1.68-.96-.11-1.94-.01-2.9-.18-1.49-.25-2.48-1.23-3.56-2.2-.5-.45-1.06-.9-1.72-1.07-.2-.05-.4-.07-.6-.08,0,0-2.78.27-3.68,2.96.08-.07.16-.13.24-.19.73-.53,1.71-.77,2.61-.68,1.77.18,3.23,1.33,4.22,2.75.09-.04.17-.08.26-.11,1.68-.71,3.78-1.4,5.58-.73,1.82.68,3.24,2.83,2.33,4.73-.9,1.9-2.72,3.29-4.84,3.41-.29.02-.57.01-.86,0,2.1.4,4.69-.34,6.92-4.64-.16-.85-.54-1.64-1.1-2.32Z"/>
          <g>
            <path class="cls-3" d="m30.72,48.02s-.07.03-.11.02c-.22.16-.39.39-.53.62-.21.34-.44.68-.51,1.07.33-.09.81.05,1.12-.04.42-.12.88-.43.95-.86.06-.4-.33-1.24-.93-.8Z"/>
            <path class="cls-7" d="m29.58,49.91c-.05.22-.02-.46.06-.67.18-.49.45-1.24,1.09-1.38.19-.04.48,0,.65.1-.13-.07-.45.07-.57.13-.51.24-.69.71-.94,1.14-.06.12-.27.55-.3.68Z"/>
          </g>
          <g>
            <path class="cls-3" d="m25.27,46.52s.06.05.1.05c.16.23.24.5.29.76.08.39.18.79.12,1.17-.28-.2-.78-.22-1.04-.41-.36-.26-.69-.7-.61-1.13.07-.4.73-1.06,1.14-.44Z"/>
            <path class="cls-7" d="m25.72,48.69c-.03.23.17-.43.17-.65,0-.52-.01-1.32-.57-1.66-.17-.1-.45-.15-.64-.13.15-.02.4.22.49.31.4.39.42.9.5,1.39.02.13.07.61.06.74Z"/>
          </g>
          <g>
            <path class="cls-13" d="m30.16,22.22s-4.8,3.33-1.78,8.99c0,0,1.14-1.74,3.04-2.73,0,0-3.35-3.6-.12-5.76,0,0-.07-.87-1.14-.5Z"/>
            <path class="cls-15" d="m28.71,29.04c-.86-1.3-.61-2.87.05-4.19.53-1.06,1.28-2.04,2.34-2.54-.16-.15-.44-.25-.94-.08,0,0-4.8,3.33-1.78,8.99,0,0,.48-.73,1.33-1.51-.48-.21-.86-.46-1-.67Z"/>
          </g>
          <path class="cls-13" d="m41.98,32.8c4.65-4.43,1.13-9.09,1.13-9.09-.9-.69-1.24.12-1.24.12,2.39,3.07-1.92,5.43-1.92,5.43,0,0-.58,1.95,2.03,3.54"/>
          <path class="cls-15" d="m43.11,23.71c-.42-.32-.72-.31-.92-.22.47.57.8,1.31.96,1.94.26,1.06.21,2.36-.26,3.35-.44.91-1.32,1.82-2.4,1.84-.16,0-.31-.01-.46-.04.21.66.74,1.48,1.95,2.22,4.65-4.43,1.13-9.09,1.13-9.09Z"/>
          <g>
            <g>
              <path class="cls-2" d="m36.69,37.91s.96-1.32,2.56-.11c0,0-1.22,2.17-2.56.11Z"/>
              <path class="cls-10" d="m38.68,38.26c-.12.42-.55.66-.96.54-.42-.12-.66-.55-.54-.96.12-.42.55-.66.96-.54.42.12.66.55.54.96Z"/>
              <path class="cls-11" d="m38.4,38.18c-.07.26-.34.41-.6.34-.26-.07-.41-.34-.34-.6.07-.26.34-.41.6-.34.26.07.41.34.34.6Z"/>
            </g>
            <path class="cls-17" d="m39.52,37.8c.05.33-.54,0-.54,0-1.45-1.22-2.56.11-2.56.11.85-1.42,2.13-.86,2.13-.86,0,0,.91.35.97.74Z"/>
          </g>
          <g>
            <g>
              <path class="cls-2" d="m30.27,37.3s-.97-1.31-2.56-.09c0,0,1.24,2.16,2.56.09Z"/>
              <path class="cls-10" d="m28.29,37.66c.12.41.55.66.97.54.41-.12.65-.55.54-.97-.12-.41-.55-.65-.97-.54-.42.12-.65.55-.54.97Z"/>
              <path class="cls-11" d="m28.57,37.58c.07.26.34.41.6.33.26-.07.41-.34.33-.6-.07-.26-.34-.41-.6-.33-.26.07-.41.34-.33.6Z"/>
            </g>
            <path class="cls-1" d="m27.44,37.2c-.05.33.54,0,.54,0,1.44-1.23,2.56.09,2.56.09-.86-1.42-2.14-.85-2.14-.85,0,0-.9.36-.96.75Z"/>
          </g>
          <path class="cls-17" d="m93.27,67.91c-.32-.94-1.41-2.01-2.5-1.8-.82.16-1.41.86-1.91,1.48-.53.65-1.03,1.43-1.72,1.91-.72.5-1.66,1.15-2.59,1.04-.7-.09-1.26-.51-1.85-.87-.96-.6-2.02-1.07-3.17-1.1-1.16-.03-2.4.24-3.35.95-.5.38-.9.86-1.23,1.39-.18.28-.4.63-.4.98,0,.54.64.69,1.05.83.5.17,1.04.35,1.42.74,1.84,1.89-1.15,3.57-2.48,4.41-1.02.65-2.14,1.37-2.76,2.45-.26.45-.39.91-.44,1.37,5.8-.3,11.9-1.45,16.47-4.37,2.01-1.28,3.94-3.52,5.38-6.12.11-1.1.42-2.25.07-3.29Z"/>
          <path class="cls-5" d="m95.44,60.74c-.71-3.6-2.24-7.85-4.89-10.5-3.48-3.49-8.63-1.38-12.76-.54,0,0-16.22,2.33-26.21-3.61,0,0-6.85-3.39-6.86-8.23,0,0-7.71,6.81-7.88,12.1,0,0,0,1.45-.07,3.35.13-.09.27-.17.4-.26,1.47-.94,2.94-1.72,4.61-2.23,3.59-1.09,7.25-1.16,10.96-.93,3.03.19,6.04.64,9.02,1.19,2.92.54,5.84,1.1,8.74,1.75,3.56.79,7.15,1.67,10.46,3.24,3.08,1.46,6.09,3.64,7.29,6.97.7,1.96.71,4.08.38,6.11-.41,2.57-1.37,5.07-2.87,7.21-.82,1.17-1.76,2.26-2.78,3.27,1.73-.6,3.37-1.36,4.85-2.31,4.57-2.93,8.76-10.82,7.62-16.58Z"/>
          <path class="cls-17" d="m48.81,74.77c.52-.93.83-1.98.97-3.04.09-.69.12-1.52-.31-2.11-.68-.96-2.12-1-3.17-1.15-1.18-.18-2.5-.44-3.3-1.42-1.05-1.28-.72-2.8-.15-4.22.29-.72.65-1.45.76-2.23.13-.94-.26-1.73-1.03-2.27-1.11-.77-2.42-1.17-3.76-.91-.89.17-1.72.54-2.48,1.02-.2,1.36-.47,2.53-.85,3.16,0,0-5,10.9,9.07,16.53,1.67-.76,3.32-1.73,4.25-3.38Z"/>
          <g>
            <path class="cls-17" d="m43.01,94.03s-1.68.89-3.28.01c0,0-1.24.46-1.28,1.7,0,0,2.14.94,3.57.41,0,0,.63-.71,1-.12,0,0,.7-.59,0-2Z"/>
            <path class="cls-4" d="m43.17,95.82c.01-.32-.04-.62-.27-.83-.5-.45-.9-.17-1.33.19-.34.28-.78.7-1.23.48-.62-.3-.87-.94-.73-1.57-.31.15-1.13.64-1.17,1.65,0,0,2.14.94,3.57.41,0,0,.63-.71,1-.12,0,0,.08-.07.16-.21Z"/>
          </g>
          <g>
            <path class="cls-17" d="m48.58,95.15s-1.72.89-3.35.01c0,0-1.26.46-1.31,1.7,0,0,2.19.94,3.64.41,0,0,.64-.71,1.03-.12,0,0,.71-.59,0-2Z"/>
            <path class="cls-4" d="m48.75,96.94c.01-.32-.04-.62-.27-.83-.52-.45-.92-.17-1.36.19-.35.28-.79.7-1.26.48-.64-.3-.89-.94-.75-1.57-.31.15-1.15.64-1.19,1.65,0,0,2.19.94,3.64.41,0,0,.64-.71,1.03-.12,0,0,.08-.07.16-.21Z"/>
          </g>
          <g>
            <path class="cls-17" d="m78.02,93.96s-1.99.89-3.88.01c0,0-1.46.46-1.52,1.7,0,0,2.54.94,4.22.41,0,0,.75-.71,1.19-.12,0,0,.82-.59,0-2Z"/>
            <path class="cls-4" d="m78.21,95.75c.02-.32-.05-.62-.32-.83-.6-.45-1.06-.17-1.57.19-.4.28-.92.7-1.45.48-.74-.3-1.03-.94-.87-1.57-.37.15-1.34.64-1.38,1.65,0,0,2.54.94,4.22.41,0,0,.75-.71,1.19-.12,0,0,.09-.07.19-.21Z"/>
          </g>
          <g>
            <path class="cls-17" d="m86.82,95.07s-1.99.89-3.88.01c0,0-1.46.46-1.52,1.7,0,0,2.54.94,4.22.41,0,0,.75-.71,1.19-.12,0,0,.82-.59,0-2Z"/>
            <path class="cls-4" d="m87.01,96.86c.02-.32-.05-.62-.32-.83-.6-.45-1.06-.17-1.57.19-.4.28-.92.7-1.45.48-.74-.3-1.03-.94-.87-1.57-.37.15-1.34.64-1.38,1.65,0,0,2.54.94,4.22.41,0,0,.75-.71,1.19-.12,0,0,.09-.07.19-.21Z"/>
          </g>
        </g>
      </g>
    </g>
  </g>
</svg>