<svg xmlns="http://www.w3.org/2000/svg" xmlns:xlink="http://www.w3.org/1999/xlink" viewBox="0 0 124.64 124.64">
  <defs>
    <style>
      .cls-1 {
        fill: #494356;
      }

      .cls-2 {
        fill: #5d3733;
      }

      .cls-3 {
        fill: #fff;
      }

      .cls-4 {
        fill: #f99f20;
      }

      .cls-5 {
        fill: #f47d44;
      }

      .cls-6 {
        fill: #61a93d;
      }

      .cls-7 {
        fill: #c6918a;
      }

      .cls-7, .cls-8, .cls-9, .cls-10 {
        mix-blend-mode: multiply;
      }

      .cls-11 {
        isolation: isolate;
      }

      .cls-12 {
        fill: #c7343a;
      }

      .cls-13 {
        fill: #5a3e69;
      }

      .cls-14 {
        fill: #774844;
      }

      .cls-15 {
        fill: #579c43;
      }

      .cls-16 {
        fill: #49a942;
      }

      .cls-8 {
        fill: #fedaba;
      }

      .cls-17 {
        fill: #50365e;
      }

      .cls-9 {
        fill: #b88584;
      }

      .cls-18 {
        fill: #3a9038;
      }

      .cls-19 {
        fill: #e83e45;
      }

      .cls-20 {
        fill: #5c2e28;
      }

      .cls-21 {
        clip-path: url(#clippath);
      }

      .cls-22 {
        fill: #df5c1f;
      }

      .cls-23, .cls-24 {
        fill: none;
      }

      .cls-25 {
        fill: #f9a980;
      }

      .cls-26 {
        fill: #328432;
      }

      .cls-27 {
        fill: #7a403a;
      }

      .cls-28 {
        fill: #256e2a;
      }

      .cls-29 {
        fill: #025c88;
      }

      .cls-30 {
        fill: #c0a793;
        mix-blend-mode: color-burn;
      }

      .cls-31 {
        fill: #6ebe49;
      }

      .cls-10 {
        fill: #cfe1f4;
      }

      .cls-32 {
        fill: #522f2b;
      }

      .cls-24 {
        stroke: #f69065;
        stroke-linecap: round;
        stroke-linejoin: round;
        stroke-width: .32px;
      }

      .cls-33 {
        fill: #8d5752;
      }
    </style>
    <clipPath id="clippath">
      <polygon class="cls-23" points="79.35 36.51 60.13 23.61 40.64 36.51 32.33 50.81 32.09 92.27 87.44 92.27 87.55 50.81 79.35 36.51"/>
    </clipPath>
  </defs>
  <g class="cls-11">
    <g id="Layer_2" data-name="Layer 2">
      <g id="Layer_1-2" data-name="Layer 1">
        
        <g>
          <path class="cls-10" d="m106.52,92.68c0,2.91-20.41,5.26-45.58,5.26s-45.58-2.36-45.58-5.26,20.41-5.26,45.58-5.26,45.58,2.36,45.58,5.26Z"/>
          <g>
            <g>
              <polygon class="cls-19" points="79.35 36.51 60.13 23.61 40.64 36.51 32.33 50.81 32.09 92.27 87.44 92.27 87.55 50.81 79.35 36.51"/>
              <polygon class="cls-9" points="35.08 51.28 41.5 39.44 59.47 26.72 77.18 39.44 83.52 51.28 87.17 51.28 79.04 36.88 59.5 23.57 39.67 36.88 31.43 51.28 35.08 51.28"/>
              <g class="cls-21">
                <g>
                  <rect class="cls-9" x="34.51" y="23.88" width=".81" height="65.3"/>
                  <rect class="cls-9" x="38.4" y="23.88" width=".81" height="65.3"/>
                  <rect class="cls-9" x="42.3" y="23.88" width=".81" height="65.3"/>
                  <rect class="cls-9" x="46.2" y="23.88" width=".81" height="65.3"/>
                  <rect class="cls-9" x="50.09" y="23.88" width=".81" height="65.3"/>
                  <rect class="cls-9" x="53.99" y="23.88" width=".81" height="65.3"/>
                  <rect class="cls-9" x="57.88" y="23.88" width=".81" height="65.3"/>
                  <rect class="cls-9" x="61.78" y="23.88" width=".81" height="65.3"/>
                  <rect class="cls-9" x="65.68" y="23.88" width=".81" height="65.3"/>
                  <rect class="cls-9" x="69.57" y="23.88" width=".81" height="65.3"/>
                  <rect class="cls-9" x="73.47" y="23.88" width=".81" height="65.3"/>
                  <rect class="cls-9" x="77.37" y="23.88" width=".81" height="65.3"/>
                  <rect class="cls-9" x="81.26" y="23.88" width=".81" height="65.3"/>
                  <rect class="cls-9" x="85.16" y="23.88" width=".81" height="65.3"/>
                </g>
              </g>
              <polygon class="cls-25" points="33.17 51.41 40.1 38.35 59.48 24.32 78.59 38.35 85.43 51.41 89.38 51.41 80.6 35.53 59.51 20.84 38.12 35.53 29.23 51.41 33.17 51.41"/>
              <polygon class="cls-27" points="79.38 37.68 59.42 22.82 39.17 37.68 31.99 51.41 33.42 51.41 40.27 38.74 59.41 25.12 78.29 38.74 85.04 51.41 86.48 51.41 79.38 37.68"/>
              <polygon class="cls-25" points="32.15 83.67 32.09 92.27 87.72 92.27 87.76 83.67 32.15 83.67"/>
              <g>
                <rect class="cls-1" x="46.27" y="68.77" width="28.74" height="22.87"/>
                <path class="cls-3" d="m45.61,68.34v23.92h30.05v-23.92h-30.05Zm28.67,22.6h-27.28v-21.28h27.28v21.28Z"/>
                <rect class="cls-3" x="59.97" y="69.23" width="1.28" height="22.77"/>
                <rect class="cls-3" x="67.19" y="67.6" width="1.28" height="25.34" transform="translate(-32.26 48.22) rotate(-32.04)"/>
                <rect class="cls-3" x="55.15" y="79.63" width="25.34" height="1.28" transform="translate(-35.79 97.79) rotate(-59.4)"/>
                <rect class="cls-3" x="52.9" y="67.65" width="1.28" height="25.34" transform="translate(-34.46 40.65) rotate(-32.05)"/>
                <rect class="cls-3" x="40.87" y="79.68" width="25.34" height="1.28" transform="translate(-42.85 85.48) rotate(-59.38)"/>
              </g>
              <g>
                <rect class="cls-1" x="55.1" y="35.7" width="8.23" height="8.23"/>
                <path class="cls-3" d="m54.48,35.09v9.44h9.44v-9.44h-9.44Zm8.34,8.34h-7.24v-7.24h7.24v7.24Z"/>
                <g>
                  <rect class="cls-3" x="54.71" y="39.24" width="8.99" height="1.14"/>
                  <rect class="cls-3" x="58.64" y="35.32" width="1.14" height="8.99"/>
                </g>
              </g>
              <g>
                <rect class="cls-1" x="68.41" y="47.1" width="8.23" height="8.23"/>
                <path class="cls-3" d="m67.79,46.5v9.44h9.44v-9.44h-9.44Zm8.34,8.34h-7.24v-7.24h7.24v7.24Z"/>
                <g>
                  <rect class="cls-3" x="68.02" y="50.65" width="8.99" height="1.14"/>
                  <rect class="cls-3" x="71.94" y="46.72" width="1.14" height="8.99"/>
                </g>
              </g>
              <g>
                <rect class="cls-1" x="42.72" y="47.1" width="8.23" height="8.23"/>
                <path class="cls-3" d="m42.1,46.5v9.44h9.44v-9.44h-9.44Zm8.34,8.34h-7.24v-7.24h7.24v7.24Z"/>
                <g>
                  <rect class="cls-3" x="42.32" y="50.65" width="8.99" height="1.14"/>
                  <rect class="cls-3" x="46.25" y="46.72" width="1.14" height="8.99"/>
                </g>
              </g>
            </g>
            <g>
              <g>
                <g>
                  <g>
                    <path class="cls-15" d="m82.78,69.37s1.35,1.41-.02,3.49c0,0-1.41-2.16.02-3.49Z"/>
                    <path class="cls-31" d="m82.77,72.86c1.36-2.08.01-3.49.01-3.49,0,0,0,0-.01.01v3.47Z"/>
                  </g>
                  <g>
                    <path class="cls-15" d="m84.82,70.04s.28,1.93-2.05,2.82c0,0,.12-2.57,2.05-2.82Z"/>
                    <path class="cls-31" d="m82.78,72.86c2.32-.89,2.05-2.82,2.05-2.82,0,0-.01,0-.02,0l-2.03,2.82Z"/>
                  </g>
                  <g>
                    <path class="cls-15" d="m80.7,70.04s-.28,1.93,2.05,2.82c0,0-.12-2.57-2.05-2.82Z"/>
                    <path class="cls-31" d="m82.75,72.86c-2.32-.89-2.05-2.82-2.05-2.82,0,0,.01,0,.02,0l2.03,2.82Z"/>
                  </g>
                </g>
                <path class="cls-5" d="m84.4,74.89c0,1.75-.99,5.69-1.61,5.69s-1.64-3.97-1.64-5.71.76-2.84,1.59-2.84c1.08,0,1.66,1.11,1.66,2.86Z"/>
                <path class="cls-8" d="m83.19,72.11c.11.23.2.47.28.72.23.73.24,1.45.22,2.22-.02.81-.05,1.63-.18,2.44-.1.59-.28,1.26-.7,1.71-.2.22-.44.33-.68.39.23.61.47,1.01.67,1.01.62,0,1.61-3.95,1.61-5.69,0-1.49-.42-2.51-1.21-2.78Z"/>
                <path class="cls-22" d="m81.33,73.52c.09-.04.17-.06.26-.08.09-.02.17-.02.26-.02.09,0,.17,0,.26.02.09.02.17.04.26.08h0c-.34.02-.69.02-1.03.01h0Z"/>
                <path class="cls-22" d="m81.95,74.3c.09-.04.18-.06.26-.08.09-.02.18-.02.26-.02.09,0,.18,0,.26.02.09.02.18.04.26.08h0c-.35.02-.7.02-1.06.01h0Z"/>
                <path class="cls-22" d="m83.35,73.66c.08-.04.16-.06.24-.08.08-.02.16-.02.24-.02.08,0,.16,0,.24.02.08.02.16.04.24.08h0c-.31.02-.63.02-.94.01h0Z"/>
                <path class="cls-22" d="m83.2,74.7c.1-.04.2-.06.3-.08.1-.02.2-.02.3-.02.1,0,.2,0,.3.02.1.02.2.04.3.08h0c-.4.02-.8.02-1.2.01h0Z"/>
                <path class="cls-22" d="m81.15,74.83c.08-.04.17-.06.25-.08.08-.02.17-.02.25-.02.08,0,.17,0,.25.02.08.02.17.04.25.08h0c-.34.02-.68.02-1.02.01h0Z"/>
                <path class="cls-22" d="m82.65,75.62c.1-.04.2-.06.31-.08.1-.02.2-.02.31-.02.1,0,.2,0,.31.02.1.02.2.04.31.08h0c-.41.02-.82.02-1.23.01h0Z"/>
                <path class="cls-22" d="m81.28,76.24c.1-.04.19-.06.29-.08.1-.02.19-.02.29-.02.1,0,.19,0,.29.02.1.02.19.04.29.08h0c-.38.02-.76.02-1.14.01h0Z"/>
                <path class="cls-22" d="m82.52,76.7c.09-.04.17-.06.26-.08.09-.02.17-.02.26-.02.09,0,.17,0,.26.02.09.02.17.04.26.08h0c-.34.02-.69.02-1.03.01h0Z"/>
                <path class="cls-22" d="m82.83,77.31c.1-.04.21-.06.31-.08.1-.02.21-.02.31-.02.1,0,.21,0,.31.02.1.02.21.04.31.08h0c-.42.02-.83.02-1.25.01h0Z"/>
                <path class="cls-22" d="m82.73,77.85c-.09.04-.19.06-.28.08-.09.02-.19.02-.28.02-.09,0-.19,0-.28-.02-.09-.02-.19-.04-.28-.08h0c.37-.02.74-.02,1.12-.01h0Z"/>
                <path class="cls-22" d="m82.38,78.44c.08-.04.16-.06.24-.08.08-.02.16-.02.24-.02.08,0,.16,0,.24.02.08.02.16.04.24.08h0c-.33.02-.65.02-.98.01h0Z"/>
                <path class="cls-22" d="m82.89,79.06c-.08.04-.16.06-.23.08-.08.02-.16.02-.23.02-.08,0-.16,0-.23-.02-.08-.02-.16-.04-.23-.08h0c.31-.02.62-.02.93-.01h0Z"/>
                <path class="cls-22" d="m82.67,79.8c.06-.04.11-.06.17-.08.06-.02.11-.02.17-.02.06,0,.11,0,.17.02.06.02.11.04.17.08h0c-.22.02-.45.02-.67.01h0Z"/>
              </g>
              <g>
                <path class="cls-19" d="m89.11,76.44c0,1.79-1.15,2.82-2.86,2.82s-2.87-1.03-2.87-2.81c0-1.2.38-2.02,1.31-2.52,1.12-.6,2.17-.5,3.01-.05.82.44,1.4,1.18,1.4,2.57Z"/>
                <path class="cls-12" d="m88.17,74.18c.07.26.11.54.11.82,0,.42-.09.83-.24,1.2-.45,1.2-1.62,2.08-2.96,2.08-.48,0-.93-.11-1.34-.3.47.83,1.37,1.29,2.51,1.29,1.71,0,2.86-1.04,2.86-2.82,0-1.1-.37-1.8-.94-2.26Z"/>
                <path class="cls-31" d="m86.46,73.57s-.05-.82.28-1.34c0,0-.35-.18-.79.13,0,0,.29.93.24,1.21h.28Z"/>
                <path class="cls-31" d="m87.19,73.65c.5.17.66.85.66.85-.11-.16-.68-.48-.68-.48.06.33-.14.69-.14.69-.33-.51-.67-.72-.67-.72-.41.15-.88.68-.88.68.01-.37.09-.66.09-.66-.64.06-.91.35-.91.35.14-.44.51-.64.51-.64,0,0,.92-.43,2.03-.06Z"/>
              </g>
              <g>
                <g>
                  <path class="cls-16" d="m77.95,78.82s-.24-.59-.76-.95c-.72-.5-.39-1.66.2-1.99.49-.27.32-.86.52-1.28.19-.42.46-.99,1.13-.95.67.04.59-.24,1.03-.54.61-.42,1.54.14,1.66.71.12.57-.29.86.23,1.22.51.36.16.88-.03,1.21-.19.33-.2.85-.14,1.29.07.56-.34,1.15-1.23,1.4-.79.22-1.36.05-1.63.28l-.98-.4Z"/>
                  <path class="cls-18" d="m81.96,75.04c-.51-.36-.11-.64-.23-1.22-.08-.39-.53-.77-1-.84.32.36.53.82.6,1.29.06.39.03.79-.02,1.19-.05.42.02.76.07,1.17.1.8-.39,1.34-1.07,1.69-.53.27-1.13.39-1.55.82l.17.07c.27-.23.84-.05,1.63-.28.88-.25,1.3-.83,1.23-1.4-.06-.44-.05-.96.14-1.29.19-.33.55-.85.03-1.21Z"/>
                </g>
                <g>
                  <path class="cls-16" d="m78.74,78.78s.24-.59.76-.95c.72-.5.39-1.66-.2-1.99-.49-.27-.32-.86-.52-1.28-.19-.42-.46-.99-1.13-.95-.67.04-.59-.24-1.03-.54-.61-.42-1.54.14-1.66.71-.12.57.29.86-.23,1.22-.51.36-.16.88.03,1.21.19.33.2.85.14,1.29-.07.56.34,1.15,1.23,1.4.79.22,1.36.05,1.63.28l.98-.4Z"/>
                  <path class="cls-18" d="m74.74,75c.51-.36.11-.64.23-1.22.08-.39.53-.77,1.01-.84-.32.36-.53.82-.6,1.29-.06.39-.03.79.02,1.19.05.42-.02.76-.07,1.17-.1.8.39,1.34,1.07,1.69.53.27,1.13.39,1.55.82l-.17.07c-.27-.23-.84-.05-1.63-.28-.88-.25-1.3-.83-1.23-1.4.06-.44.05-.96-.14-1.29-.19-.33-.55-.85-.03-1.21Z"/>
                </g>
                <path class="cls-31" d="m80.83,76.64c-.21-.39-.39-.88-.34-1.26.06-.38.2-.99-.41-1.14-.61-.15-.33-.56-.65-1.05-.32-.49-1.38-.68-1.8-.06-.3.44-.13.67-.76.88-.64.2-.68.83-.71,1.29-.03.46.33.95-.02,1.38-.43.51-.32,1.72.53,1.92.53.13,1.03.47,1.11.59.42.71.07,1.87.07,1.87h1.05s-.27-1.16.13-1.94c.12-.23.59-.31,1.17-.74.73-.55.91-1.25.64-1.75Z"/>
                <path class="cls-6" d="m80.83,76.64c-.21-.39-.39-.88-.34-1.26.06-.38.2-.99-.41-1.14-.61-.15-.33-.56-.65-1.05-.16-.25-.53-.43-.9-.45.08.12.16.24.22.36.23.44.33.88.42,1.36.05.28.12.54.27.78.13.2.25.4.31.64.12.45-.1,1.12-.34,1.5-.26.41-.66.75-.85,1.19-.33.76.08,1.75-.32,2.47h.63s-.27-1.16.13-1.94c.12-.23.59-.31,1.17-.74.73-.55.91-1.25.64-1.75Z"/>
                <g>
                  <path class="cls-26" d="m78.29,78.68c-.16-.12-.31-.24-.45-.36-.14-.12-.28-.25-.42-.37s-.28-.24-.42-.37c-.14-.12-.29-.24-.44-.38.2,0,.4.07.58.16.18.09.35.2.5.34.15.13.28.28.39.45.06.08.11.17.15.26.04.09.08.18.11.28Z"/>
                  <path class="cls-26" d="m78.29,78.68c.03-.1.06-.19.11-.28.05-.09.1-.17.15-.26.11-.16.25-.31.4-.45.15-.13.32-.25.5-.34.18-.09.38-.15.58-.16-.15.14-.3.26-.44.38-.14.12-.28.24-.42.37-.14.12-.28.25-.42.37-.14.12-.29.25-.46.36Z"/>
                  <path class="cls-26" d="m78.36,77.45c-.16-.11-.29-.22-.42-.33-.13-.11-.26-.23-.39-.34l-.38-.34c-.13-.12-.26-.23-.4-.36.19,0,.37.06.54.14.17.08.32.19.46.31.14.12.26.26.36.42.05.08.1.16.14.24.04.08.07.17.09.27Z"/>
                  <path class="cls-26" d="m78.36,77.45c.02-.09.05-.18.09-.27.04-.08.09-.16.14-.24.1-.15.22-.29.36-.42.14-.12.29-.23.46-.31.17-.08.35-.14.54-.14-.14.13-.27.24-.4.36l-.38.34c-.13.11-.25.23-.39.34-.13.11-.27.23-.43.33Z"/>
                  <path class="cls-26" d="m78.36,76.25c-.14-.11-.26-.22-.38-.33-.12-.11-.23-.22-.35-.33-.11-.11-.23-.22-.34-.33-.12-.11-.23-.22-.36-.35.18,0,.35.06.51.13.16.08.3.19.43.31.13.12.23.26.32.41.04.08.08.15.11.24.03.08.06.17.07.26Z"/>
                  <path class="cls-26" d="m78.36,76.25c.02-.09.05-.18.09-.26.04-.08.08-.16.13-.24.1-.15.22-.29.35-.41.13-.12.28-.23.45-.31.16-.08.34-.14.53-.14-.13.13-.26.24-.38.36l-.37.34c-.12.11-.25.22-.38.33-.13.11-.26.22-.42.32Z"/>
                </g>
              </g>
              <g>
                <path class="cls-15" d="m94.42,75.98s-.6-3.57-1.25-4.7c.44.16,1.68,1.76,1.94,4.58l-.69.13Z"/>
                <path class="cls-31" d="m94.92,75.89s-1.12-3.46-.24-6.37c0,0,.24,3.32,1.07,6.37h-.83Z"/>
                <path class="cls-31" d="m95.61,76.06s.63-3.98,1.25-5.14c-.43.17-1.39,1.1-2.05,4.99l.81.15Z"/>
                <path class="cls-15" d="m94.92,75.98s.24-3.52.14-5.72c0,0,1.1.87.45,5.81l-.59-.09Z"/>
                <path class="cls-25" d="m98.06,78.09c0,1.66-1.29,3-2.87,3s-2.87-1.34-2.87-3,1.29-3,2.87-3,2.87,1.34,2.87,3Z"/>
                <path class="cls-24" d="m94.81,75.17s-2.75.62-2.08,4.36"/>
                <path class="cls-24" d="m95.57,75.17s2.73.66,2.06,4.4"/>
                <path class="cls-24" d="m94.46,80.95s-1.25-2.37.63-5.79c0,0-2.89,1.53-1.54,5.34"/>
                <path class="cls-24" d="m95.93,80.95s1.25-2.37-.63-5.79c0,0,2.92,1.5,1.57,5.31"/>
                <path class="cls-24" d="m95.19,81.04s.33-4.12,0-5.87"/>
                <path class="cls-30" d="m95.19,75.09s-.02,0-.03,0c.15.1.29.22.42.35.42.42.77.91,1,1.46.43.98.53,2.3-.26,3.14-.31.33-.71.55-1.16.61-.4.06-.81.02-1.2-.08-.25-.06-.5-.16-.74-.29.51.5,1.2.8,1.96.8,1.59,0,2.87-1.34,2.87-3s-1.29-3-2.87-3Z"/>
              </g>
              <g>
                <g>
                  <g>
                    <path class="cls-15" d="m90.83,70.76s1.76,2-.02,4.96c0,0-1.83-3.07.02-4.96Z"/>
                    <path class="cls-31" d="m90.81,75.72c1.77-2.96.02-4.96.02-4.96,0,0-.01.01-.02.02v4.94Z"/>
                  </g>
                  <g>
                    <path class="cls-15" d="m92.49,71.7s.82,2.41-1.7,4.1c0,0-.51-3.32,1.7-4.1Z"/>
                    <path class="cls-31" d="m90.79,75.79c2.51-1.69,1.69-4.09,1.69-4.09,0,0-.01,0-.02,0l-1.67,4.09Z"/>
                  </g>
                  <g>
                    <path class="cls-15" d="m89.01,71.68s-.84,2.4,1.66,4.11c0,0,.54-3.32-1.66-4.11Z"/>
                    <path class="cls-31" d="m90.67,75.79c-2.49-1.71-1.66-4.11-1.66-4.11,0,0,.01,0,.02,0l1.64,4.1Z"/>
                  </g>
                </g>
                <ellipse class="cls-13" cx="90.86" cy="77.73" rx="2.87" ry="3"/>
                <path class="cls-17" d="m92.23,75.09c.22.47.34.99.34,1.54,0,1.84-1.38,3.4-3.14,3.7.42.25.91.39,1.42.39,1.59,0,2.87-1.34,2.87-3,0-1.14-.61-2.13-1.5-2.64Z"/>
              </g>
              <rect class="cls-2" x="73.4" y="78.25" width="25.92" height="13.65"/>
              <rect class="cls-33" x="72.39" y="77.83" width="27.94" height="3.82"/>
              <rect class="cls-33" x="72.39" y="83.15" width="27.94" height="3.82"/>
              <rect class="cls-33" x="72.39" y="88.46" width="27.94" height="3.82"/>
              <rect class="cls-14" x="72.39" y="79.85" width="27.94" height="1.8"/>
              <rect class="cls-14" x="72.39" y="85.17" width="27.94" height="1.79"/>
              <rect class="cls-14" x="72.39" y="90.12" width="27.94" height="2.16"/>
              <g>
                <path class="cls-2" d="m75.85,79.76c0,.38-.31.69-.69.69s-.69-.31-.69-.69.31-.69.69-.69.69.31.69.69Z"/>
                <path class="cls-2" d="m75.85,85.06c0,.38-.31.69-.69.69s-.69-.31-.69-.69.31-.69.69-.69.69.31.69.69Z"/>
                <path class="cls-2" d="m75.85,90.22c0,.38-.31.69-.69.69s-.69-.31-.69-.69.31-.69.69-.69.69.31.69.69Z"/>
              </g>
              <g>
                <path class="cls-2" d="m98.1,79.76c0,.38-.31.69-.69.69s-.69-.31-.69-.69.31-.69.69-.69.69.31.69.69Z"/>
                <path class="cls-2" d="m98.1,85.05c0,.38-.31.69-.69.69s-.69-.31-.69-.69.31-.69.69-.69.69.31.69.69Z"/>
                <path class="cls-2" d="m98.1,90.21c0,.38-.31.69-.69.69s-.69-.31-.69-.69.31-.69.69-.69.69.31.69.69Z"/>
              </g>
            </g>
            <g>
              <g>
                <rect class="cls-31" x="38.63" y="73.79" width=".34" height="9.96"/>
                <g>
                  <path class="cls-4" d="m38.76,69.21s-1.44,2.36,0,3.06c0,0,1.59-.48,0-3.06Z"/>
                  <path class="cls-4" d="m38.83,77.09s1.44-2.36,0-3.06c0,0-1.59.48,0,3.06Z"/>
                  <path class="cls-4" d="m34.86,73.18s2.36,1.44,3.06,0c0,0-.48-1.59-3.06,0Z"/>
                  <path class="cls-4" d="m42.74,73.11s-2.36-1.44-3.06,0c0,0,.48,1.59,3.06,0Z"/>
                  <path class="cls-4" d="m35.95,70.42s.68,2.68,2.19,2.13c0,0,.77-1.48-2.19-2.13Z"/>
                  <path class="cls-4" d="m41.64,75.87s-.68-2.68-2.19-2.13c0,0-.77,1.48,2.19,2.13Z"/>
                  <path class="cls-4" d="m36.04,75.96s2.69-.65,2.16-2.17c0,0-1.47-.79-2.16,2.17Z"/>
                  <path class="cls-4" d="m41.55,70.33s-2.69.65-2.16,2.17c0,0,1.47.79,2.16-2.17Z"/>
                  <path class="cls-20" d="m39.85,73.21c0,.61-.49,1.1-1.1,1.1s-1.1-.49-1.1-1.1.49-1.1,1.1-1.1,1.1.49,1.1,1.1Z"/>
                </g>
                <path class="cls-31" d="m38.98,79.63s-.09-1.9-2.29-2.07c0,0,.3,2.48,2.01,2.32l.29-.25Z"/>
                <path class="cls-31" d="m38.69,80.02s.09-1.9,2.29-2.07c0,0-.3,2.48-2.01,2.32l-.29-.25Z"/>
              </g>
              <g>
                <rect class="cls-31" x="25.76" y="73.79" width=".34" height="9.96"/>
                <g>
                  <path class="cls-4" d="m25.9,69.21s-1.44,2.36,0,3.06c0,0,1.59-.48,0-3.06Z"/>
                  <path class="cls-4" d="m25.97,77.09s1.44-2.36,0-3.06c0,0-1.59.48,0,3.06Z"/>
                  <path class="cls-4" d="m21.99,73.18s2.36,1.44,3.06,0c0,0-.48-1.59-3.06,0Z"/>
                  <path class="cls-4" d="m29.87,73.11s-2.36-1.44-3.06,0c0,0,.48,1.59,3.06,0Z"/>
                  <path class="cls-4" d="m23.09,70.42s.68,2.68,2.19,2.13c0,0,.77-1.48-2.19-2.13Z"/>
                  <path class="cls-4" d="m28.78,75.87s-.68-2.68-2.19-2.13c0,0-.77,1.48,2.19,2.13Z"/>
                  <path class="cls-4" d="m23.18,75.96s2.69-.65,2.16-2.17c0,0-1.47-.79-2.16,2.17Z"/>
                  <path class="cls-4" d="m28.69,70.33s-2.69.65-2.16,2.17c0,0,1.47.79,2.16-2.17Z"/>
                  <path class="cls-20" d="m26.99,73.21c0,.61-.49,1.1-1.1,1.1s-1.1-.49-1.1-1.1.49-1.1,1.1-1.1,1.1.49,1.1,1.1Z"/>
                </g>
                <path class="cls-31" d="m26.11,79.63s-.09-1.9-2.29-2.07c0,0,.3,2.48,2.01,2.32l.29-.25Z"/>
                <path class="cls-31" d="m25.83,80.02s.09-1.9,2.29-2.07c0,0-.3,2.48-2.01,2.32l-.29-.25Z"/>
              </g>
              <g>
                <rect class="cls-31" x="32.36" y="75.69" width=".28" height="8.06"/>
                <g>
                  <path class="cls-4" d="m32.47,71.98s-1.17,1.91,0,2.47c0,0,1.29-.39,0-2.47Z"/>
                  <path class="cls-4" d="m32.53,78.36s1.17-1.91,0-2.47c0,0-1.29.39,0,2.47Z"/>
                  <path class="cls-4" d="m29.31,75.2s1.91,1.17,2.47,0c0,0-.39-1.29-2.47,0Z"/>
                  <path class="cls-4" d="m35.69,75.14s-1.91-1.17-2.47,0c0,0,.39,1.29,2.47,0Z"/>
                  <path class="cls-4" d="m30.2,72.96s.55,2.17,1.77,1.73c0,0,.62-1.19-1.77-1.73Z"/>
                  <path class="cls-4" d="m34.8,77.38s-.55-2.17-1.77-1.73c0,0-.62,1.19,1.77,1.73Z"/>
                  <path class="cls-4" d="m30.27,77.45s2.18-.53,1.74-1.75c0,0-1.19-.64-1.74,1.75Z"/>
                  <path class="cls-4" d="m34.73,72.89s-2.18.53-1.75,1.75c0,0,1.19.64,1.75-1.75Z"/>
                  <path class="cls-20" d="m33.35,75.22c0,.49-.4.89-.89.89s-.89-.4-.89-.89.4-.89.89-.89.89.4.89.89Z"/>
                </g>
                <path class="cls-31" d="m32.65,80.42s-.07-1.53-1.86-1.67c0,0,.24,2,1.63,1.88l.23-.2Z"/>
                <path class="cls-31" d="m32.42,80.73s.07-1.53,1.86-1.67c0,0-.24,2-1.63,1.88l-.23-.2Z"/>
              </g>
              <g>
                <path class="cls-28" d="m28.08,83.53c.03-.1.05-.2.05-.3,0-.54-.47-.98-1.04-.98-.17,0-.32.04-.46.1-.16-.46-.62-.8-1.16-.8s-.97.31-1.15.75c-.1-.03-.21-.05-.33-.05-.57,0-1.04.44-1.04.98,0,.08.01.16.03.24-.31.21-.51.55-.51.94,0,.64.55,1.16,1.22,1.16.29,0,.55-.09.76-.25.28.21.64.33,1.02.33.43,0,.82-.15,1.12-.4.19.14.43.22.69.22.65,0,1.17-.49,1.17-1.11,0-.33-.15-.62-.39-.82Z"/>
                <path class="cls-28" d="m33.02,83.41c.03-.1.05-.2.05-.3,0-.54-.47-.98-1.04-.98-.16,0-.32.04-.46.1-.16-.46-.62-.8-1.16-.8s-.97.31-1.15.75c-.1-.03-.21-.05-.33-.05-.57,0-1.04.44-1.04.98,0,.08.01.16.03.24-.31.21-.51.55-.51.94,0,.64.55,1.16,1.22,1.16.29,0,.55-.09.76-.25.28.21.64.33,1.02.33.43,0,.82-.15,1.12-.4.19.14.43.21.69.21.65,0,1.17-.49,1.17-1.1,0-.33-.15-.62-.39-.82Z"/>
                <path class="cls-28" d="m36.97,83.59c.03-.1.05-.2.05-.3,0-.54-.47-.98-1.04-.98-.16,0-.32.04-.46.1-.16-.46-.62-.8-1.16-.8s-.97.31-1.15.75c-.1-.03-.21-.05-.33-.05-.57,0-1.04.44-1.04.98,0,.08.01.16.03.24-.31.21-.51.55-.51.94,0,.64.55,1.16,1.22,1.16.29,0,.55-.09.76-.25.28.21.64.33,1.02.33.43,0,.82-.15,1.12-.4.19.14.43.22.69.22.65,0,1.17-.49,1.17-1.11,0-.33-.15-.62-.39-.82Z"/>
                <path class="cls-28" d="m41.92,83.47c.03-.1.05-.2.05-.3,0-.54-.47-.98-1.04-.98-.17,0-.32.04-.46.1-.16-.46-.62-.8-1.16-.8s-.97.31-1.15.75c-.1-.03-.21-.05-.33-.05-.57,0-1.04.44-1.04.98,0,.08.01.16.03.24-.31.21-.51.55-.51.94,0,.64.55,1.16,1.22,1.16.29,0,.55-.09.76-.25.28.21.64.33,1.02.33.43,0,.82-.15,1.12-.4.19.13.43.21.69.21.65,0,1.17-.49,1.17-1.11,0-.33-.15-.62-.39-.82Z"/>
              </g>
              <polygon class="cls-33" points="42.78 92.23 22.04 92.27 21.3 84.62 43.73 84.62 42.78 92.23"/>
              <path class="cls-7" d="m42.44,84.62c-.05.33-.1.67-.17,1-.3,1.45-.82,3.03-2.07,3.93-1.03.73-2.3,1.01-3.54,1.12-1.32.12-2.65.06-3.97.05-3.6-.04-7.2-.11-10.81-.12l.16,1.68,20.74-.04.94-7.62h-1.29Z"/>
              <rect class="cls-32" x="20.64" y="84.19" width="23.76" height=".96"/>
            </g>
          </g>
        </g>
      </g>
    </g>
  </g>
</svg>