<svg xmlns="http://www.w3.org/2000/svg" viewBox="0 0 124.64 124.64">
  <defs>
    <style>
      .cls-1 {
        fill: #878787;
      }

      .cls-1, .cls-2, .cls-3, .cls-4, .cls-5, .cls-6, .cls-7 {
        mix-blend-mode: multiply;
      }

      .cls-2 {
        fill: #e4a176;
      }

      .cls-2, .cls-5, .cls-8, .cls-9, .cls-10 {
        opacity: .5;
      }

      .cls-3 {
        opacity: .7;
      }

      .cls-3, .cls-5, .cls-8, .cls-11, .cls-12 {
        fill: #e5b97c;
      }

      .cls-13 {
        fill: #fff;
      }

      .cls-14 {
        fill: #2d1b10;
      }

      .cls-15 {
        fill: #e5d4ae;
      }

      .cls-16, .cls-4, .cls-6, .cls-17 {
        fill: #eda9ba;
      }

      .cls-16, .cls-8, .cls-9, .cls-10, .cls-11 {
        mix-blend-mode: screen;
      }

      .cls-18 {
        isolation: isolate;
      }

      .cls-19 {
        fill: #e5d4bf;
      }

      .cls-20 {
        fill: #b4865e;
      }

      .cls-6 {
        opacity: .4;
      }

      .cls-21 {
        fill: #512e17;
      }

      .cls-9 {
        fill: #e3b9a4;
      }

      .cls-22 {
        fill: #025c88;
      }

      .cls-23 {
        fill: #cc936a;
      }

      .cls-24 {
        fill: #1a130e;
      }

      .cls-7 {
        fill: #a9a8a8;
      }
    </style>
  </defs>
  <g class="cls-18">
    <g id="Layer_2" data-name="Layer 2">
      <g id="Layer_1-2" data-name="Layer 1">
        
        <g>
          <path class="cls-12" d="m48.22,95.96c.2-.36.38-.73.55-1.11.21-2.19-.53-4.66-.72-6.72-.15-1.6-.24-3.2-.28-4.8-.01-2.57.06-5.13.36-7.7.5-4.2.87-8.43.72-12.67-.05-1.48-.55-3.07-1.12-4.42-.59-1.41-1.75-3.7-3.6-3.52-2.05.2-2.95,2.53-3.39,4.23-.82,3.17-.29,6.45.4,9.6,1.35,6.16,2.21,12.43,2.31,18.74.02,1.38.2,2.78-.1,4.14-.38,1.74-1.53,2.15-2.92,2.93-.26.49-.43,1.05-.55,1.53-.08.34-.15.68-.21,1.02.76.72,2.77.58,3.57.59,1.42.02,2.83-.17,4.17-.58.34-.4.6-.92.81-1.29Z"/>
          <path class="cls-11" d="m43.97,86.74c-.02-1.93-.18-3.9-.39-5.81-.34-2.96-1.04-5.84-1.76-8.72.95,5.08,1.55,10.21,1.62,15.39.02,1.03.12,2.08.05,3.11.41-1.26.5-2.64.48-3.96Z"/>
          <path class="cls-19" d="m41.43,67.19c.53,2.92.93,5.95,2.16,8.68.04-.49,0-.99.08-1.47.01-.08.48,1.79.8,2.64.02-.33.22-1.08.25-.99.45,1.27.69,2.59.93,3.92.24,1.31.51,2.6.86,3.89.61,2.21,1.28,4.41,1.88,6.62-.14-.81-.28-1.6-.35-2.34-.15-1.6-.24-3.2-.28-4.8-.01-2.57.06-5.13.36-7.7.5-4.2.87-8.43.72-12.67-.05-1.48-.55-3.07-1.12-4.42-.59-1.41-1.75-3.7-3.6-3.52-1.69.16-2.6,1.77-3.11,3.29-.29,2.95-.11,5.98.41,8.88Z"/>
          <path class="cls-20" d="m45.1,94.36c-.73.34-1.64.7-2,1.48-.16.34-.56,1.91.09,1.96.01,0,.03-.03.02-.03-.34-.1-.23-.69-.22-.95.02-.34.11-.68.23-.99.26-.69,1.27-1.12,1.88-1.45,0,0,.02-.03,0-.02Z"/>
          <path class="cls-20" d="m41.97,94.47c-.54.27-1.1.61-1.35,1.19-.15.34-.24.68-.3,1.05-.05.29-.11.66.05.92.01.02.05-.02.04-.03-.1-.22-.03-.56,0-.79.03-.31.1-.61.21-.91.24-.68.77-1.03,1.36-1.4.01,0,.02-.04,0-.03Z"/>
          <path class="cls-3" d="m47.77,83.33c-.01-2.57.06-5.13.36-7.7.5-4.2.87-8.43.72-12.67-.05-1.48-.55-3.07-1.12-4.42-.59-1.41-1.75-3.7-3.6-3.52-2.05.2-2.95,2.53-3.39,4.23-.54,2.1-.49,4.24-.2,6.37.64,1.7,1.55,3.3,2.38,4.9.52,1.01,1.08,2.01,1.48,3.07.43,1.15.7,2.37.92,3.57.43,2.36.61,4.75.74,7.14.07,1.23.09,2.47.37,3.67.25,1.08.64,2.13,1.04,3.16.03.07-.06.12-.12.09-.3-.18-.55-.41-.82-.63.26.33.5.67.66,1.05.03.07-.03.16-.11.11-.29-.19-.55-.42-.84-.62.55.71.96,1.48,1.11,2.39.01.06-.05.13-.12.09-.31-.2-.56-.46-.8-.73.29.55.52,1.19.37,1.75.04,1.25-2.05,1.68-3.16,1.58-.04,0-.08-.03-.08-.08.07-.78.69-1.34,1.33-1.74-.51.11-1,.38-1.39.7-.38.32-.47.73-.75,1.11-.32.44-1.13.61-1.59.28-.36-.26-.16-.81.03-1.12.21-.34.5-.66.84-.88-.83.22-1.36.93-1.73,1.72-.03.06-.13.04-.15-.02-.05-.23-.08-.47-.08-.71-.08.24-.15.48-.21.71-.08.34-.15.68-.21,1.02.76.72,2.77.58,3.57.59,1.42.02,2.83-.17,4.17-.58.34-.4.6-.92.81-1.29.2-.36.38-.73.55-1.11.21-2.19-.53-4.66-.72-6.72-.15-1.6-.24-3.2-.28-4.8Z"/>
          <path class="cls-23" d="m35.39,41.11c.41,1.37-.99,3.46-.24,3.07.52-.27,2.64-1.37,2.84-1.8.58-1.22,1.51-3.62,2-4.88.89-2.28.74-4.11.11-6.42-.36-1.31,0-3.64.07-3.74.27-.35,1.19-1.32,1.28-1.37.29-.15.86-.91.68-.9-2.21.12-3.54.76-6,2.35-1.49.96-3.77.48-4.17,2.59-.98,5.2,2.85,9.19,3.42,11.12Z"/>
          <path class="cls-5" d="m42.13,25.06c-2.21.12-3.54.76-6,2.35-1.36.87-3.38.56-4.02,2.09.19-.23.4-.43.62-.57.67-.41,1.63-.24,2.2.26.03.03.03.08,0,.11-.44.4-.71.96-.87,1.53.2-.28.44-.53.72-.73.06-.04.14.03.12.09-.18.55-.39,1.08-.41,1.66.16-.38.26-.79.5-1.14.04-.06.16-.05.15.04-.07.92.58,1.63.97,2.4.43.82.88,1.66,1.17,2.54.53,1.55.46,3.26-.35,4.7-.03.06-.13.05-.15-.02-.1-.59-.3-1.11-.55-1.65-.18-.38-.37-.78-.63-1.11.09.34.16.68.17,1.04,0,.07-.09.1-.14.06-.75-.76-1.81-1.12-2.54-1.91.9,1.87,1.99,3.34,2.28,4.3.41,1.37-.99,3.46-.24,3.07.52-.27,2.64-1.37,2.84-1.8.58-1.22,1.51-3.62,2-4.88.89-2.28.74-4.11.11-6.42-.36-1.31,0-3.64.07-3.74.27-.35,1.19-1.32,1.28-1.37.29-.15.86-.91.68-.9Z"/>
          <path class="cls-5" d="m42.13,25.06c-1.22.07-2.17.29-3.19.75-1.29,1.06-2.67,2.39-2.48,4.21.2,2,1.37,3.73,1.64,5.71.23,1.76.14,3.82-.88,5.34-.44.66-.98,1.41-1.62,1.88-.13.1-.28.19-.42.26-.22.69-.41,1.17-.02.96.52-.27,2.64-1.37,2.84-1.8.58-1.22,1.51-3.62,2-4.88.89-2.28.74-4.11.11-6.42-.36-1.31,0-3.64.07-3.74.27-.35,1.19-1.32,1.28-1.37.29-.15.86-.91.68-.9Z"/>
          <path class="cls-12" d="m84.17,80.3c-1.3-5.45-5-9.61-9.57-12.66-1.14-.76-2.3-1.48-3.48-2.16-2.24-1.3-4.66-2.4-6.43-4.35-3.43-3.79-4.46-8.86-6.95-13.2-1.16-2.02-2.71-3.67-4.07-5.54-1.3-1.78-1.94-3.83-2.36-5.97-.35-1.77-1.93-.79-2.89-.17-1.96,1.27-3.56,2.63-5,4.49-.57.73-1.11,1.52-1.38,2.41-.08.27-.03.54.08.8-.04-.01-.11.08-.07.11.55.66.96,1.49,1.3,2.36.25.87.33,1.77.07,2.67-.42,1.46-1.62,2.69-2.24,4.08-.11.25-.21.49-.3.74-.02.03-.04.07-.06.1-.31.54-.52,1.12-.82,1.67-.24.45-.35.98-.43,1.48-.09.55-.14,1.15-.1,1.7,0,.07.1,0,.1-.04.05-.17.1-.35.16-.51-.05.23-.11.45-.13.68-.04.43-.19.82-.25,1.24,0,.06.06.03.08,0,.17-.2.3-.43.45-.63.04.18-.07.17-.1.31-.04.2-.08.4-.12.6-.06.31-.13.63-.16.95,0,.06.06.03.09,0,.15-.16.29-.33.43-.49-.01.11-.05.25-.07.33-.04.18-.05.36-.07.54-.04.28-.06.62-.02.9.01.07.1,0,.11-.04.1-.24.18-.48.28-.72-.03.55-.03,1.08.05,1.63,0,.05.08.02.09,0,.12-.17.12-.38.15-.58.06.85.44,1.55.93,2.26.39.57.75,1.17,1.17,1.72,1.64,3.05,3.95,5.69,5.72,8.66,1.58,2.65,2.9,5.41,4.82,7.84,1.39,1.77,3.1,3.25,4.62,4.91,1.59,1.73,3.4,3.3,5.51,4.36,2.71,1.36,5.87,1.74,8.86,1.73,3.29-.01,11.74.06,13.43-3.52.89-1.88-1.14-9.43-1.44-10.72Z"/>
          <path class="cls-19" d="m72.91,93.62c-.85-1.41-1.6-2.87-2.59-4.2-1.3-1.76-2.81-3.36-4.54-4.71-1.67-1.31-3.39-2.53-4.96-3.96-1.49-1.36-2.87-2.83-4.06-4.46-2.7-3.7-4.31-8.01-4.95-12.54-.28-2.02-.36-4.04-.46-6.08-.09-1.79-.33-3.8-1.79-5.02-.07-.06.02-.16.1-.12.41.21.79.46,1.16.73-.25-.69-.78-1.26-1.26-1.8-.05-.06,0-.16.08-.13.34.12.66.26.97.44-.63-.97-1.08-2.03-1.27-3.18-.22-1.29-.21-2.6-.34-3.91-.25-2.58-.84-5.12-2.08-7.39-1.31.99-2.45,2.08-3.51,3.45-.57.73-1.11,1.52-1.38,2.41-.08.27-.03.54.08.8-.04-.01-.11.08-.07.11.55.66.96,1.49,1.3,2.36.25.87.33,1.77.07,2.67-.42,1.46-1.62,2.69-2.24,4.08-.11.25-.21.49-.3.74-.02.03-.04.07-.06.1-.31.54-.52,1.12-.82,1.67-.24.45-.35.98-.43,1.48-.09.55-.14,1.15-.1,1.7,0,.07.1,0,.1-.04.05-.17.1-.35.16-.51-.05.23-.11.45-.13.68-.04.43-.19.82-.25,1.24,0,.06.06.03.08,0,.17-.2.3-.43.45-.63.04.18-.07.17-.1.31-.04.2-.08.4-.12.6-.06.31-.13.63-.16.95,0,.06.06.03.09,0,.15-.16.29-.33.43-.49-.01.11-.05.25-.07.33-.04.18-.05.36-.07.54-.04.28-.06.62-.02.9.01.07.1,0,.11-.04.1-.24.18-.48.28-.72-.03.55-.03,1.08.05,1.63,0,.05.08.02.09,0,.12-.17.12-.38.15-.58.06.85.44,1.55.93,2.26.39.57.75,1.17,1.17,1.72,1.64,3.05,3.95,5.69,5.72,8.66,1.58,2.65,2.9,5.41,4.82,7.84,1.39,1.77,3.1,3.25,4.62,4.91,1.59,1.73,3.4,3.3,5.51,4.36,2.71,1.36,5.87,1.74,8.86,1.73.37,0,.81,0,1.29,0-.2-.32-.39-.63-.57-.91Z"/>
          <path class="cls-5" d="m84.17,80.3c-1.3-5.45-5-9.61-9.57-12.66-1.14-.76-2.3-1.48-3.48-2.16-2.24-1.3-4.66-2.4-6.43-4.35-3.43-3.79-4.46-8.86-6.95-13.2-1.16-2.02-2.71-3.67-4.07-5.54-1.3-1.78-1.94-3.83-2.36-5.97-.35-1.77-1.93-.79-2.89-.17-1.96,1.27-3.56,2.63-5,4.49-.57.73-1.11,1.52-1.38,2.41-.08.27-.03.54.08.8-.04-.01-.11.08-.07.11.55.66.96,1.49,1.3,2.36.04.15.08.29.11.44.76.15,1.53-.49,2.05-1.05.64-.69,1.17-1.48,1.66-2.28.05-.07-.03.87,0,1.28.55-.84,1.11-1.63,2.05-2.07.07-.03-.43,1.1-.65,1.61.27-.28,1.86-1,2.34-.83,1.08.39,1.79,1.32,2.35,2.29.65,1.12,1.13,2.32,1.68,3.5.57,1.24,1.27,2.32,2.14,3.38.04.04.03.12-.04.13-.46.1-.87-.14-1.24-.42.33.57.54,1.19.62,1.85,0,.09-.11.1-.15.04-.46-.68-.81-1.29-1.74-1.28-.41,0-.79.09-1.15.22-1.25.69-2.27,1.86-2.9,3.09-.03.07-.16.04-.15-.04.09-.74.41-1.4.68-2.09-1.51.89-2.56,2.69-2.63,4.43,0,.07-.11.12-.15.04-.25-.53-.35-1.09-.38-1.65-.08.59-.14,1.18-.22,1.77-.01.09-.13.11-.16.02-.09-.28-.17-.57-.24-.85-.22,1.17-.64,2.32-1.59,3.01-.05.04-.12-.01-.12-.07.01-.27,0-.54,0-.81-.12.63-.33,1.26-.68,1.76-.05.06-.14.04-.15-.04-.02-.37-.04-.73-.08-1.1-.26,1.3-.79,2.58-1.77,3.46-.41.37-.75.33-1-.19-.12-.25-.22-.52-.29-.8,0,.14,0,.28,0,.41,0,.08-.11.1-.15.04-.89-1.35-1.32-3.09-1.05-4.7-.04.09-.08.18-.11.27-.03.08-.15.07-.16-.02-.05-.71,0-1.41.12-2.1-.06.16-.12.32-.16.49-.02.07-.14.08-.15,0-.08-.57-.06-1.13.02-1.68-.17.4-.26.84-.33,1.26-.09.55-.14,1.15-.1,1.7,0,.07.1,0,.1-.04.05-.17.1-.35.16-.51-.05.23-.11.45-.13.68-.04.43-.19.82-.25,1.24,0,.06.06.03.08,0,.17-.2.3-.43.45-.63.04.18-.07.17-.1.31-.04.2-.08.4-.12.6-.06.31-.13.63-.16.95,0,.06.06.03.09,0,.15-.16.29-.33.43-.49-.01.11-.05.25-.07.33-.04.18-.05.36-.07.54-.04.28-.06.62-.02.9.01.07.1,0,.11-.04.1-.24.18-.48.28-.72-.03.55-.03,1.08.05,1.63,0,.05.08.02.09,0,.12-.17.12-.38.15-.58.06.85.44,1.55.93,2.26.39.57.75,1.17,1.17,1.72,1.64,3.05,3.95,5.69,5.72,8.66,1.58,2.65,2.9,5.41,4.82,7.84,1.39,1.77,3.1,3.25,4.62,4.91,1.59,1.73,3.4,3.3,5.51,4.36,2.71,1.36,5.87,1.74,8.86,1.73,3.29-.01,11.74.06,13.43-3.52.89-1.88-1.14-9.43-1.44-10.72Zm-5.96-3.49c-1.72-1.22-3.67-2.2-5.74-2.66-2.01-.45-4-.36-5.94.33-1.59.56-3.15,1.43-4.25,2.74-1.15,1.37-1.64,3.05-1.44,4.82,0,.09-.14.11-.16.02-.38-1.99-.59-3.98-.41-5.99-.21.4-.32.84-.45,1.27-.02.07-.13.08-.15,0-.59-2.55-.09-5.12.93-7.49-.41.37-.71.83-1,1.3-.04.06-.16.04-.15-.04.18-1.43,1.01-2.64,1.38-4.01-.48.34-.82.84-1.31,1.16-.07.05-.14-.04-.11-.11.63-1.38.98-2.84,1-4.36,0-.05.03-.07.07-.07-.06-.6-.19-1.17-.43-1.69-.04-.09.09-.17.14-.08.3.65.54,1.33.85,1.97-.2-1.27-.52-2.52-.3-3.81.01-.08.14-.08.15,0,.24,1.43.84,2.76,1.53,4.03-.23-.85-.46-1.7-.47-2.58,0-.08.11-.11.15-.04.4.87.89,1.69,1.54,2.4.66.71,1.43,1.28,2.25,1.79.95.59,1.98,1.16,3.05,1.51.7.23,1.52.41,2.05.96.05.05,0,.13-.06.14-.32.04-.63.1-.94.16.98.12,2,.42,2.75,1.03.05.04.02.11-.04.13-.17.06-.34.09-.51.11,1.1.12,2.25.6,2.98,1.34.05.05.01.14-.06.14-.2,0-.4-.03-.6-.06.7.32,1.34.78,1.88,1.3.05.05.01.14-.06.14-.43-.04-.86-.09-1.29-.15.54.38,1.05.8,1.52,1.26.83.81,1.62,1.8,1.75,2.99,0,.06-.07.1-.12.07Z"/>
          <path class="cls-3" d="m56,82.84c-.12-2.29-.05-4.59-.02-6.88.02-1.76.05-3.53.34-5.26.17-2.88.78-5.72.85-8.61.04-1.66.01-3.58-.92-5.03-.48-.75-1.21-1.34-2.09-1.55-1.1-.26-2.08.53-2.74,1.34-2.7,3.29-2.12,8.14-1.19,11.98.02.09-.1.14-.15.06-.28-.45-.58-.9-.86-1.37.1,1.26.36,2.5.37,3.77,0,.09-.1.1-.15.04-.48-.65-.81-1.39-1.04-2.16-.24,1.14-.02,2.29.18,3.43.01.07-.07.14-.13.08-.43-.48-.84-.99-1.15-1.57.13.52.29,1.04.48,1.54.03.08-.08.13-.13.08-.5-.48-.89-1.04-1.3-1.59.21.41.41.81.53,1.25.02.09-.1.13-.15.06-1.03-1.55-2.25-2.95-3.49-4.34,1.57,2.62,3.55,4.98,5.12,7.61,1.58,2.65,2.9,5.41,4.82,7.84.98,1.25,2.12,2.36,3.25,3.48-.2-1.39-.36-2.8-.43-4.19Z"/>
          <path class="cls-5" d="m67.34,89.79c-1.08-1.05-2.06-2.22-2.89-3.48-.27-.38-.51-.79-.72-1.21-.63-1.17-1.12-2.41-1.41-3.72-.01-.05.02-.08.05-.09,0-.04-.02-.08-.03-.12-.88,3.89,1.15,7.77,3.98,10.36.06.05,0,.13-.06.14-.7.07-1.42-.17-2.06-.51.39.33.79.64,1.2.95.06.04.05.15-.04.15-1.14-.06-2.3-.5-3.28-1.16.06.08.09.19.17.25,1.56,1.18-.97.05-1.43-.09.78.59,1.61,1.13,2.5,1.57,2.71,1.36,5.87,1.74,8.86,1.73.5,0,1.11,0,1.81-.01-2.43-1.24-4.71-2.83-6.65-4.74Z"/>
          <path class="cls-5" d="m84.17,80.3c-1.3-5.45-5-9.61-9.57-12.66-1.14-.76-2.3-1.48-3.48-2.16-2.24-1.3-4.66-2.4-6.43-4.35-3.43-3.79-4.46-8.86-6.95-13.2-1.16-2.02-2.71-3.67-4.07-5.54-1.3-1.78-1.94-3.83-2.36-5.97-.35-1.77-1.93-.79-2.89-.17-1.96,1.27-3.56,2.63-5,4.49-.57.73-1.11,1.52-1.38,2.41-.08.27-.03.54.08.8-.04-.01-.11.08-.07.11.55.66.96,1.49,1.3,2.36.03.1.05.19.08.29.56-.19,1.05-.6,1.46-1.02.67-.69,1.22-1.48,1.8-2.24.57-.74,1.21-1.31,2.08-1.65.96-.38,2-.53,3.03-.54.04,0,.08.04.08.08-.03,1.68.82,3.48,1.85,4.8,0-.43-.02-.85.06-1.27.01-.07.12-.08.15-.02.43.88.81,1.78,1.2,2.67,0-.53-.11-1.05-.13-1.57,0-.1.12-.1.16-.02.38.89.76,1.78,1.16,2.67,1.06,2.36,2.18,4.69,3.34,7.01,1.07,2.14,2.07,4.33,3.74,6.09,2.68,2.83,6.49,4.21,9.37,6.78.51.31,1.02.62,1.52.94,2.51,1.59,5.13,3.33,6.57,6.02.03.06-.02.14-.09.12-.36-.13-.7-.29-1.07-.37.66.48,1.13,1.14,1.63,1.78.06.07-.01.16-.1.12-.43-.18-.84-.4-1.28-.53,2.31,1.23,3.22,4.22,3.83,6.59.46,1.78,1.09,3.71.84,5.56-.24,1.78-1.33,3.23-2.73,4.3-.46.35-.94.66-1.45.94,2.36-.48,4.43-1.35,5.17-2.93.89-1.88-1.14-9.43-1.44-10.72Z"/>
          <g>
            <path class="cls-12" d="m52.55,36.73c0-.16.07-.59-.01-.76-.26-.51-1.06-.07-1.4.06-2.2.85-4.3,2.01-6.41,3.04-2.21,1.07-4.65,1.97-6.72,3.3-1.04.67-1.08,1.19-.19,1.9.51,1.33,1.15,2.15,2.81,2.21,1.52.05,3.53-.34,4.57-1.54.61-.71.94-1.66,1.51-2.41.79-1.05,2.23-1.06,3.31-1.62.97-.5,2.83-1.03,2.72-2.4-.05-.63-.24-1.14-.2-1.79Z"/>
            <path class="cls-1" d="m46.15,41.98c.08-.09.16-.17.24-.25.23-.23.47-.44.74-.62.08-.06.16-.11.24-.17.31-.21.62-.38.94-.53.01-.01.03-.02.04-.03.83-.86.32-2.12-.49-2.87-1.05.52-2.09,1.06-3.14,1.57-2.21,1.07-4.65,1.97-6.72,3.3-1.04.67-1.08,1.19-.19,1.9.15.39.31.73.5,1.02.73-.4,1.82.07,2.65.14,1.92.16,3.23-1.24,4.36-2.56.26-.3.54-.61.82-.9Z"/>
            <path class="cls-24" d="m37.82,44.11l.77-.77s4.87.66,5,.61c.12-.05-1.68,1.37-3.92.99-2.24-.38-1.85-.83-1.85-.83Z"/>
            <path class="cls-17" d="m41.9,42.27c-1.07.01-1.95.32-2.63,1.11-.56.42-1.04.91-1.4,1.55-.59,1.05-.45,2.44-.42,3.59.03,1.08.42,1.76,1.55,1.86.81.07,1.86-.25,2.37-.91.61-.78.82-1.65.83-2.64.01-1.5-.14-2.62,1.33-3.57.11-.07.27-.14.29-.3.1-.77-1.45-.69-1.92-.68Z"/>
            <path class="cls-6" d="m41.9,42.27c-1.07.01-1.95.32-2.63,1.11-.56.42-1.04.91-1.4,1.55-.18.33-.3.68-.36,1.06.03-.06.05-.13.09-.19.27-.54.63-1.19,1.23-1.4.06-.02.11.04.1.1-.05.32-.22.58-.3.89-.1.38-.15.78-.17,1.17-.02.46.02.91.1,1.36-.02-.76.07-1.57.37-2.23.18-.39.47-.79.92-.86.48-.08.99,2.68.98,3.21-.01.69.02,1.52-.67,1.91-.75.42-1.68.34-2.34-.12.24.32.62.51,1.19.56.81.07,1.86-.25,2.37-.91.61-.78.82-1.65.83-2.64.01-1.5-.14-2.62,1.33-3.57.11-.07.27-.14.29-.3.1-.77-1.45-.69-1.92-.68Z"/>
            <path class="cls-6" d="m41.9,42.27c-1.07.01-1.95.32-2.63,1.11-.36.27-.69.57-.97.93,1.11-.31,2.44.35,3.01,1.43.47.89.65,2.04.46,3.1.31-.61.43-1.28.44-2.02.01-1.5-.14-2.62,1.33-3.57.11-.07.27-.14.29-.3.1-.77-1.45-.69-1.92-.68Z"/>
            <path class="cls-12" d="m54.17,29.36c-.13-.61-.41-1.19-.77-1.7-.63-.91-2.04-1.65-3.03-2.09-1.24-.56-2.81-1.07-4.17-1.1-1.56-.04-3.07.28-4.57.66-1.08.28-2.45.75-3.2,1.62-1.86,2.16-.69,5.45-.26,8.01-.15.18-.33.35-.52.51-.75.63-1.54,1.23-2.31,1.84-1.05.84-2.04,1.62-1.65,3.06.39,1.45,1.76,3,2.93,3.89.79.6,1.49.12,2.04-.49.18.17.39.32.63.45.86.45,1.98.49,2.91.33.9-.15,1.78-.53,2.55-1.01.84-.52,1.26-1.52,1.97-2.18,1.64-1.52,4.26-.99,5.69-2.82.59-.76.84-1.82,1.05-2.74.34-1.46.65-2.81.73-4.27.02-.29.02-.59.02-.89,0-.36.04-.76-.04-1.11Z"/>
            <path class="cls-11" d="m38.13,27.73c.41-.85,1.13-1.5,1.92-1.99.14-.09.28-.17.43-.25-.78.29-1.56.69-2.06,1.27-.98,1.14-1.12,2.6-.97,4.1.02-1.08.21-2.15.67-3.13Z"/>
            <path class="cls-11" d="m34.13,39.14c.37-.45.84-.69,1.36-.94.36-.17.73-.34,1.11-.44-.52-.05-1.05,0-1.58.05-.07,0-.1-.09-.06-.14.34-.36.72-.68,1.11-.98.42-.32.83-.66,1.29-.93.77-.45,1.62-.66,2.48-.87-.32-.06-.64-.04-.96.05-.1.03-.14-.12-.04-.15.56-.22,1.14-.4,1.71-.58-.59-.09-1.23.14-1.78.32-.24.08-.47.19-.68.31-.14.16-.29.3-.45.44-.75.63-1.54,1.23-2.31,1.84-1.01.81-1.96,1.56-1.68,2.9.1-.32.26-.63.48-.89Z"/>
            <path class="cls-15" d="m43.25,43.61c.37-.61.07-1.4-.29-1.94-.72-1.1-1.89-2.03-3.08-2.56-1.37-.62-2.95-.81-4.39-.31-.6.21-1.36.5-1.64,1.12-.06.13-.1.25-.12.39.43,1.42,1.75,2.91,2.9,3.78.79.6,1.49.12,2.04-.49.18.17.39.32.63.45.82.43,1.88.48,2.78.35.44-.17.94-.38,1.18-.78Z"/>
            <path class="cls-21" d="m38.81,43.64c-.11-.2-.27-.34-.41-.51-.3-.34-.51-.75-.74-1.15-.36-.6-.64-1.28-.78-1.96,0-.03-.04,0-.04.02.2,1.36.87,2.76,1.91,3.66.03.02.08-.04.06-.06Z"/>
            <path class="cls-7" d="m47.13,40.5c-.65.45-1.11,1.07-1.65,1.64-.99,1.04-2.42,1.77-3.86,1.85-.72.04-1.39-.06-2.03-.4-.33-.17-.87-.54-1.26-.37-.25.11-.38.5-.6.67-.36.29-.8.26-1.23.1.04.03.08.06.12.09.79.6,1.49.12,2.04-.49.18.17.39.32.63.45.86.45,1.98.49,2.91.33.9-.15,1.78-.53,2.55-1.01.84-.52,1.26-1.52,1.97-2.18.63-.58,1.4-.86,2.19-1.09-.62.06-1.27.06-1.79.41Z"/>
            <path class="cls-8" d="m38.82,29.91c-.26,0-.46.13-.66.3-.02.02-.04.02-.06.02.42.34,1.03.28,1.4-.08-.21-.12-.45-.24-.69-.24Z"/>
            <path class="cls-8" d="m46.11,29.91c-.26,0-.46.13-.66.3-.02.02-.04.02-.06.02.42.34,1.03.28,1.4-.08-.21-.12-.45-.24-.69-.24Z"/>
            <path class="cls-5" d="m54.17,29.36c-.13-.61-.41-1.19-.77-1.7-.63-.91-2.04-1.65-3.03-2.09-1.19-.54-2.68-1.02-4.01-1.09.46.13.92.3,1.34.53.95.52,1.69,1.27,2.26,2.19.04.07-.04.15-.11.11-.22-.13-.45-.21-.69-.27.4.26.71.65.88,1.09.03.08-.08.12-.13.08-.25-.2-.54-.32-.84-.43.9.8,1.33,2.01,1.45,3.19,0,.07-.09.1-.14.06-.25-.28-.53-.52-.82-.75.87,1.55.32,3.38.12,5.07,0,.07-.11.12-.15.04-.2-.44-.6-.63-1.01-.8.38.42.61.93.53,1.53-.08.65-.56,1.25-1.06,1.65-.73.6-1.56,1.01-2.39,1.45-.29.15-.74.33-.69.73.03.27.09.53.08.81,0,.09-.1.1-.15.04-.14-.19-.31-.35-.49-.5.62,1.68-1.05,3.05-2.64,3.38-.92.19-2.07.25-2.85-.36-.59-.46-.96-1.12-1.32-1.78.15.45.27.9.23,1.37-.04.45-.4.92-.88.96-.25.02-.51-.04-.76-.15.15.13.3.26.45.37.79.6,1.49.12,2.04-.49.18.17.39.32.63.45.86.45,1.98.49,2.91.33.9-.15,1.78-.53,2.55-1.01.84-.52,1.26-1.52,1.97-2.18,1.64-1.52,4.26-.99,5.69-2.82.59-.76.84-1.82,1.05-2.74.34-1.46.65-2.81.73-4.27.02-.29.02-.59.02-.89,0-.36.04-.76-.04-1.11Z"/>
          </g>
          <g>
            <path class="cls-12" d="m83.89,93.74c-.41-.38-.83-.61-1.29-.77.46-.43.81-1.11,1.03-1.62.53-1.2.75-2.28.67-3.59-.09-1.42-.61-2.88-1.22-4.15-.67-1.42-1.31-2.68-2.52-3.73-.01-.01-.03,0-.05,0-2.12-2.59-5.6-3.95-8.84-4.34-2.99-.37-7.67-.14-9.56,2.63-1.66,2.43.49,6.57,1.74,8.69,1.64,2.79,4.05,4.92,6.79,6.55-.83.04-2.6.59-4.33.65-1.01.04-2.38-.41-2.58-.38-.65.08-1.7.22-2.14.79-.45.6-.53,1.35-.67,2.08-.15.76.46.86,1.07.89,1.28.06,2.65-.12,3.94-.18.47-.02,13.4-.57,14.43-.54,1,.03,2.16.17,3.1-.26.97-.44,1.21-2.01.45-2.72Z"/>
            <path class="cls-2" d="m76.57,94.61c-1.02.16-1.93.09-2.93-.14-.7-.16-1.56-.56-1.99-1.16-.03-.04-.09.03-.07.06.16.27.35.49.55.72-.24-.1-.48-.3-.66-.44-.26-.2-.42-.48-.66-.69-.02-.02-.05.03-.04.05.06.21.2.38.3.57-.71-.47-1.3-1.05-1.85-1.7,0-.01-.04.02-.03.03.27.41.54.77.9,1.1.3.28.67.66,1.08.76.03,0,.09-.05.07-.08-.1-.16-.23-.3-.31-.47,0,0-.02-.04-.05-.08.05.08.12.16.18.23.26.33.79.78,1.21.87.04,0,.08-.05.06-.08-.06-.06-.11-.12-.17-.19.39.27.85.43,1.31.61.94.37,2.14.33,3.1.11.03,0,.06-.08.02-.08Z"/>
            <path class="cls-2" d="m83.01,92.42c-.26.4-.75.7-1.14.95-.44.29-.89.53-1.37.74-.87.38-1.82.55-2.75.74-.03,0-.06.07-.02.06,1.09-.13,2.16-.33,3.15-.81.48-.23.93-.52,1.35-.84.3-.22.64-.51.81-.85.01-.02-.01-.02-.02,0Z"/>
            <path class="cls-2" d="m65.68,94.7c-.91-.1-2.06-.22-2.62.64-.27.42-.35.92-.34,1.41,0,.21.04.4.12.59.06.13.41.08.5.08,0,0,.02-.02,0-.02-.47-.03-.48-.34-.51-.72-.04-.46.08-.92.31-1.31.47-.8,1.72-.62,2.51-.64.01,0,.03-.03.01-.03Z"/>
            <path class="cls-2" d="m63.13,94.15c-.53.02-1.24.17-1.6.61-.41.5-.54,1.12-.57,1.76,0,.04.05,0,.05-.02.1-.55.17-1.15.51-1.61.35-.46,1.06-.59,1.59-.71.01,0,.04-.04.01-.04Z"/>
            <path class="cls-5" d="m83.89,93.74c-.41-.38-.83-.61-1.29-.77.46-.43.81-1.11,1.03-1.62.53-1.2.75-2.28.67-3.59-.09-1.42-.61-2.88-1.22-4.15-.67-1.42-1.31-2.68-2.52-3.73-.01-.01-.03,0-.05,0-2.12-2.59-5.6-3.95-8.84-4.34-2.99-.37-7.67-.14-9.56,2.63-1.66,2.43.49,6.57,1.74,8.69,1.64,2.79,4.05,4.92,6.79,6.55-.83.04-2.6.59-4.33.65-1.01.04-2.38-.41-2.58-.38-.65.08-1.7.22-2.14.79-.45.6-.53,1.35-.67,2.08-.15.76.46.86,1.07.89,1.28.06,2.65-.12,3.94-.18.47-.02,13.4-.57,14.43-.54,1,.03,2.16.17,3.1-.26.97-.44,1.21-2.01.45-2.72Zm-21.36,2.35c-.31.48-.71.66-1.27.75-.05,0-.08-.01-.1-.06-.58-1.37.75-2.23,1.92-2.56.33-.14.73-.14,1.07-.06.07.02.08.11.02.15-.36.21-.72.45-1,.78-.26.31-.41.66-.63,1Zm13.46-.58c-1.6.87-3.47.95-5.25,1.07-1.05.07-2.1.19-3.16.18-.55,0-1.1-.09-1.65-.09-.5,0-.99.03-1.49,0-.06,0-.1-.06-.07-.12.1-.18.25-.3.4-.42-.34.15-.66.35-.98.56-.05.04-.14-.03-.12-.09.12-.29.29-.53.49-.76-.3.17-.53.45-.85.61-.07.04-.13-.02-.12-.09.09-.61.31-1.16.88-1.46.42-.22.89-.21,1.36-.22.19-.05.39-.1.58-.15.48-.12.94-.18,1.43-.23.99-.09,2.05-.27,3.04-.16.86.1,1.61.57,2.4.86.98.36,2.01.34,3.04.36.08,0,.11.11.04.15Zm5.41-8.16c-.59-.39-1.01-.97-1.59-1.35.47,1.11,1.43,2.18,1.11,3.45-.02.07-.11.07-.15.02-.43-.56-.79-1.18-1.25-1.71.36.65.64,1.33.72,2.07,0,.08-.09.09-.14.06-.53-.42-1.04-.74-1.72-.84-.08-.01-.19-.02-.32-.03.75,1.07,1.26,2.75.06,3.71-1.32,1.05-3.23.61-4.69-.09.26.21.51.42.73.68.04.05.02.15-.06.14-1.67-.21-3.23-1.2-4.54-2.19-1.21-.92-2.1-2.14-2.81-3.47.15.77.63,1.42,1.05,2.08.04.07-.04.15-.11.11-1.05-.69-1.88-1.68-2.4-2.82.08.28.16.57.21.86.01.07-.07.14-.13.08-1.6-1.7-2.28-3.85-2.36-6.13-.12.49-.09,1.02-.17,1.53-.01.07-.12.08-.15.02-.53-1.05-.39-2.22-.17-3.34-.16.32-.25.68-.36,1.02-.02.06-.12.09-.15.02-.15-.34-.2-.74-.17-1.14.03-2.46,2.66-3.77,4.8-4.22,2.79-.59,5.73.3,7.94,2.05.06.05,0,.16-.08.13-.23-.08-.46-.14-.69-.18.46.22.87.52,1.2.92.04.05.02.14-.06.14-.21,0-.41-.03-.61-.05.1.05.21.1.31.16,1.35.47,2.59,1.3,3.62,2.24,1.4,1.26,2.68,2.86,3.16,4.71.02.08-.08.13-.13.08-.13-.13-.28-.25-.42-.36.3.49.46,1.1.59,1.6.02.06-.06.13-.12.09Z"/>
            <path class="cls-5" d="m83.89,93.74c-.41-.38-.83-.61-1.29-.77.46-.43.81-1.11,1.03-1.62.53-1.2.75-2.28.67-3.59-.09-1.42-.61-2.88-1.22-4.15-.67-1.42-1.31-2.68-2.52-3.73-.01-.01-.03,0-.05,0-.19-.23-.4-.45-.61-.67,1.89,2.13,3.21,4.72,3.31,7.61.12,3.64-2.73,6.55-6.13,7.37-1.19.29-2.49.37-3.73.18,2.12,1.02,4.73.55,6.99.1.08-.02.14.1.06.15-1.14.61-2.46,1.17-3.27,2.19,1.66-.06,2.93-.1,3.22-.09,1,.03,2.16.17,3.1-.26.97-.44,1.21-2.01.45-2.72Z"/>
          </g>
          <path class="cls-12" d="m95.07,88.06c-.13-.29-.28-.57-.42-.85-.29-.57-.79-1.08-1.25-1.51-1.06-.99-2.39-1.68-3.7-2.28-1.4-.64-2.82-1.17-4.25-1.72-.41-.16-.88-.32-1.29-.56-.44,1.01-.26,2.23.1,3.23.13.36.28.72.47,1.07.64.62,1.38,1.17,2.07,1.75.64.54,1.31,1.15,1.65,1.94.34.79.3,1.61,0,2.41-.1.28-.23.54-.37.78-.51.49-1.2.81-1.89.85-.03,0-.09.07-.05.1.2.17.36.22.58.25-.3.14-.64.18-.97.18-.04,0-.1.07-.06.11.11.1.31.17.5.19-.19.09-.39.18-.59.24-.77.23-1.63.28-2.42.41-.72.12-1.45.18-2.17.36-.36.09-.71.2-1.05.33-.26.1-.6.14-.83.31-.02.02-.07.12,0,.11.14-.02.29-.06.44-.06-.19.07-.38.14-.56.24-.18.11-.44.22-.53.42,0,.02,0,.04.01.05-.23.1-.44.23-.53.44-.14.3.67.37.81.39,1.47.21,2.93.31,4.42.23,1.57-.09,3.16-.22,4.71-.45.76-.11,1.5-.29,2.25-.45.17-.04.33-.08.5-.13,1.84-.3,2.84-1.25,3.36-2.37.39-.51.59-1.17.77-1.78.21-.69.39-1.39.31-2.11-.05-.4-.13-.74-.27-1.05.03.04.07.08.14.1.05.02.1-.05.1-.09.02-.26-.07-.52-.2-.75.07.04.14.07.22.09.05.01.1-.05.1-.09.03-.11-.05-.24-.1-.34Z"/>
          <path class="cls-5" d="m95.07,88.06c-.13-.29-.28-.57-.42-.85-.29-.57-.79-1.08-1.25-1.51-1.06-.99-2.39-1.68-3.7-2.28-1.4-.64-2.82-1.17-4.25-1.72-.41-.16-.88-.32-1.29-.56-.44,1.01-.26,2.23.1,3.23.13.36.28.72.47,1.07.64.62,1.38,1.17,2.07,1.75.64.54,1.31,1.15,1.65,1.94.34.79.3,1.61,0,2.41-.1.28-.23.54-.37.78-.51.49-1.2.81-1.89.85-.03,0-.09.07-.05.1.2.17.36.22.58.25-.3.14-.64.18-.97.18-.04,0-.1.07-.06.11.11.1.31.17.5.19-.19.09-.39.18-.59.24-.77.23-1.63.28-2.42.41-.72.12-1.45.18-2.17.36-.36.09-.71.2-1.05.33-.26.1-.6.14-.83.31-.02.02-.07.12,0,.11.14-.02.29-.06.44-.06-.19.07-.38.14-.56.24-.18.11-.44.22-.53.42,0,.02,0,.04.01.05-.23.1-.44.23-.53.44-.14.3.67.37.81.39,1.47.21,2.93.31,4.42.23,1.57-.09,3.16-.22,4.71-.45.76-.11,1.5-.29,2.25-.45.17-.04.33-.08.5-.13,1.84-.3,2.84-1.25,3.36-2.37.39-.51.59-1.17.77-1.78.21-.69.39-1.39.31-2.11-.05-.4-.13-.74-.27-1.05.03.04.07.08.14.1.05.02.1-.05.1-.09.02-.26-.07-.52-.2-.75.07.04.14.07.22.09.05.01.1-.05.1-.09.03-.11-.05-.24-.1-.34Zm-1.3,1.33c-.26.06-.54,0-.8-.11.22.37.34.78.33,1.22,0,.51-.02,1.22-.47,1.56-.04.03-.11,0-.12-.05-.04-.27,0-.55-.04-.82-.12.69-.18,1.4-.55,2.02-.28.47-.63.99-1.17,1.17-.05.02-.1-.03-.1-.08,0-.01,0-.02,0-.04-.3.4-.71.72-1.17.83-.06.01-.12-.04-.1-.1.06-.18.13-.35.22-.51-.78.72-1.77,1.2-2.81,1.41-.71.14-1.44.2-2.16.15-.62-.04-1.23-.15-1.72-.55-.06-.05,0-.13.06-.14.75-.03,1.5-.03,2.25-.11.52-.05,1.14-.06,1.58-.37-.31-.04-.61-.07-.92-.11-.08-.01-.11-.13-.02-.16.71-.19,1.56-.35,2.23-.73-.18-.03-.35-.09-.5-.18-.06-.03-.05-.13.02-.15,1.33-.26,1.94-1.87,1.91-3.09-.03-1.43-.77-2.92-1.96-3.73.06.2.13.39.17.6.02.09-.09.14-.15.06-.44-.62-1.03-1.11-1.43-1.75.03.13.06.26.09.39.02.08-.07.14-.13.08-.55-.53-1.15-1.31-1.2-2.11-.1-.36-.12-.74-.02-1.09.02-.07.11-.08.15-.02.26.42.44.88.75,1.26-.08-.35-.18-.69-.16-1.06,0-.08.11-.11.15-.04.57.92,1.26,1.68,2.14,2.28-.21-.29-.42-.57-.53-.92-.03-.08.08-.12.13-.08,1.3,1.07,3.1,1.18,4.4,2.25.06.05,0,.13-.06.14-.21.02-.42.02-.63.02.68.35,1.29.84,1.77,1.44.04.05.02.15-.06.14-.17-.02-.34-.06-.5-.11.41.32.81.66,1.14,1.06.03.04.03.12-.04.13Z"/>
          <path class="cls-5" d="m48.48,34.75c-.45-.77-1.27-1.13-2.06-1.49-.96-.44-2.04-.49-3.08-.54-1.03-.05-2.09-.05-3.1.19-.86.2-1.55.73-2.04,1.45-.03.04-.03.11.04.08.17-.08.32-.18.49-.25,0,0,.01,0,.02-.02.11-.05.22-.1.32-.14.44-.16.89-.23,1.35-.29.97-.12,1.93-.06,2.9.03.9.09,1.8.19,2.68.37.44.09.87.18,1.3.32.35.11.77.16,1.09.37.04.03.11-.05.09-.09Z"/>
          <path class="cls-12" d="m58.2,96.42c.2-.36.38-.73.55-1.11.21-2.19-.53-4.66-.72-6.72-.15-1.6-.24-3.2-.28-4.8-.01-2.57.06-5.13.36-7.7.5-4.2.86-8.43.72-12.67-.05-1.48-.55-3.07-1.12-4.42-.59-1.41-1.75-3.7-3.6-3.52-2.05.2-2.95,2.53-3.39,4.23-.82,3.17-.29,6.45.4,9.6,1.35,6.16,2.21,12.43,2.31,18.74.02,1.38.2,2.78-.1,4.14-.38,1.74-1.53,2.15-2.92,2.93-.26.49-.43,1.05-.55,1.53-.08.34-.15.68-.21,1.02.76.72,2.77.58,3.57.59,1.42.02,2.83-.17,4.17-.58.34-.4.6-.92.81-1.29Z"/>
          <path class="cls-11" d="m52.08,74.18c-.45-3.71-1.17-7.4-1.04-11.14.06-1.84.24-3.81,1.05-5.49.33-.67.84-1.31,1.38-1.82.05-.05.11-.1.17-.15-1.72.48-2.51,2.58-2.91,4.14-.82,3.17-.29,6.45.4,9.6.35,1.62.67,3.24.96,4.87Z"/>
          <path class="cls-5" d="m57.75,83.8c-.01-2.57.06-5.13.36-7.7.5-4.2.86-8.43.72-12.67-.05-1.48-.55-3.07-1.12-4.42-.59-1.41-1.75-3.7-3.6-3.52-.46.04-.86.19-1.21.42.5-.15,1.04-.05,1.62.46.9.81,1.39,2.03,1.73,3.17.33,1.11.56,2.27.67,3.43,0,.08-.11.1-.15.04-.2-.32-.45-.58-.72-.84.39.69.59,1.5.6,2.29,0,.07-.09.1-.14.06l-.87-.87c.43.89.77,1.84.74,2.83,0,.06-.09.11-.14.06-.25-.29-.5-.57-.76-.85,1.38,3.49.86,7.41.61,11.06-.15,2.2-.11,4.4-.19,6.6-.04,1.13-.09,2.25-.22,3.37.02.2.04.39.08.59.33,1.88,1.27,3.58,1.62,5.45.01.07-.08.15-.13.08-.27-.34-.55-.67-.87-.97.34.66.54,1.38.69,2.11.01.08-.07.14-.13.08-.31-.3-.63-.59-.98-.84.36.53.77,1.22.75,1.85.07.39.03.76-.21,1.08-.61.82-1.93.97-2.87.95-.05,0-.08-.04-.08-.08-.08-1,.72-1.42,1.44-1.89-.91.1-1.59.67-2.16,1.38-.4.49-.87.49-1.47.35-.6-.14-.73-.61-.37-1.12.32-.44.78-.72,1.28-.92-.76.09-1.46.65-1.85,1.29-.04.07-.15.04-.15-.04,0-.33.06-.67.2-.96-.02.01-.05.03-.07.04-.26.49-.43,1.05-.55,1.53-.08.34-.15.68-.21,1.02.76.72,2.77.58,3.57.59,1.42.02,2.83-.17,4.17-.58.34-.4.6-.92.81-1.29.2-.36.38-.73.55-1.11.21-2.19-.53-4.66-.72-6.72-.15-1.6-.24-3.2-.28-4.8Z"/>
          <path class="cls-5" d="m57.94,68.29c-.13,5.12-.57,10.21-.95,15.31-.09,1.22-.16,2.46-.06,3.69.09,1.12.34,2.15.74,3.19.45,1.19.97,2.42,1.12,3.67-.06-1.87-.59-3.86-.75-5.56-.15-1.6-.24-3.2-.28-4.8-.01-2.57.06-5.13.36-7.7.5-4.2.86-8.43.72-12.67-.05-1.48-.55-3.07-1.12-4.42-.48-1.14-1.32-2.84-2.6-3.37,3.06,3.26,2.94,8.43,2.83,12.65Z"/>
          <path class="cls-5" d="m54.65,97.65c-.37,0-.78.07-1.15.03-.24-.03-.49-.12-.56-.38-.09-.36.04-.72.24-1.04-.06.08-.12.16-.17.24-.16.26-.26.57-.44.81-.27.37-.77.45-1.2.34-.8-.21-.85-.99-.65-1.66-.27.35-.46.75-.51,1.21-.01.09-.12.11-.16.02-.09-.21-.14-.42-.17-.63,0,.02-.01.04-.02.06-.08.34-.15.68-.21,1.02.76.72,2.77.58,3.57.59,1.42.02,2.83-.17,4.17-.58.22-.26.42-.58.58-.88-.94.63-2.22.8-3.33.83Z"/>
          <path class="cls-20" d="m55.08,95.01c-.65.27-1.47.61-1.89,1.21-.4.58-.44,1.41-.25,2.06.01.04.06,0,.05-.03-.11-.69-.09-1.47.32-2.07.2-.28.6-.49.89-.66.28-.17.58-.32.87-.47.01,0,.02-.04,0-.03Z"/>
          <path class="cls-20" d="m52.35,94.69c-.7.21-1.38.55-1.72,1.23-.3.61-.52,1.5-.28,2.15,0,.03.05-.02.05-.04-.08-.63,0-1.26.21-1.85.28-.79,1.01-1.15,1.74-1.46.01,0,.03-.04,0-.03Z"/>
          <path class="cls-4" d="m39.33,44.44c-1.05,1.26-.87,3.39-.47,4.85,0,.03.05,0,.05-.03-.32-1.52-.35-3.41.5-4.78.04-.07-.03-.09-.08-.04Z"/>
          <path class="cls-16" d="m37.72,48.81c-.06-.38-.07-.77-.06-1.15.02-.31.04-.64-.02-.95-.14.96-.31,2.16.27,2.93-.1-.28-.15-.59-.19-.84Z"/>
          <g>
            <g>
              <path class="cls-13" d="m47.82,32.85c-.14.51-.67.82-1.18.68-.51-.14-.82-.67-.68-1.18.14-.51.67-.82,1.18-.68.51.14.82.67.68,1.18Z"/>
              <g>
                <path class="cls-21" d="m47.71,32.78c-.13.47-.61.74-1.08.61-.47-.13-.74-.61-.61-1.07.13-.47.61-.74,1.08-.61.47.13.74.61.61,1.08Z"/>
                <path class="cls-24" d="m47.42,32.7c-.08.31-.4.49-.7.4-.31-.08-.49-.4-.4-.7.08-.31.4-.49.7-.4.31.08.49.4.4.7Z"/>
                <path class="cls-13" d="m46.73,32.23c-.03.09-.12.15-.22.12-.09-.03-.15-.12-.12-.22s.12-.15.22-.12.15.12.12.22Z"/>
              </g>
            </g>
            <g>
              <path class="cls-13" d="m40.12,32.85c-.14.51-.67.82-1.18.68-.51-.14-.82-.67-.68-1.18.14-.51.67-.82,1.18-.68.51.14.82.67.68,1.18Z"/>
              <g>
                <path class="cls-21" d="m40.01,32.78c-.13.47-.61.74-1.08.61-.47-.13-.74-.61-.61-1.07.13-.47.61-.74,1.08-.61.47.13.74.61.61,1.08Z"/>
                <path class="cls-24" d="m39.72,32.7c-.08.31-.4.49-.7.4-.31-.08-.49-.4-.4-.7.08-.31.4-.49.7-.4.31.08.49.4.4.7Z"/>
                <path class="cls-13" d="m39.03,32.23c-.03.09-.12.15-.22.12s-.15-.12-.12-.22.12-.15.22-.12c.09.03.15.12.12.22Z"/>
              </g>
            </g>
            <path class="cls-14" d="m39.27,38.54c-.12-.16-.29-.31-.52-.42-.64-.32-4.06-.45-4.63.12-.36.35-.16,1.32.17,1.61.75.66,1.56.97,2.55.86.65-.07,1.55-.42,2.08-.78.57-.39.66-.95.35-1.38Z"/>
            <path class="cls-21" d="m38.09,38.55c-.09-.12-.22-.24-.4-.32-.49-.24-3.1-.34-3.53.09-.27.27-.12,1.01.13,1.23.57.5,1.19.74,1.95.66.49-.05,1.19-.32,1.59-.6.43-.3.5-.72.26-1.05Z"/>
          </g>
          <g>
            <path class="cls-23" d="m60.77,32.55c0-2.14-2.06-2.49-3.62-3.31-1.92-1.01-3.31-2.89-5.46-3.41-.18-.04-.48.31-.31.45.28.22.55.36.81.57.07.07.14.13.22.2.05.06.11.12.16.18.27.35.43.81.62,1.21.06.11-.03,2.47-.63,3.69-1.05,2.15-1.53,3.92-1.08,6.33.25,1.33.75,2.63,1.1,3.94.12.46.36,2.14.81,2.5.67.52,1.06-1.26,1.19-1.62.46-1.27,6.17-5.41,6.17-10.71Z"/>
            <path class="cls-5" d="m57.15,29.24c-1.92-1.01-3.31-2.89-5.46-3.41-.18-.04-.48.31-.31.45.28.22.55.36.81.57.07.07.14.13.22.2.05.06.11.12.16.18.27.35.43.81.62,1.21.06.11-.03,2.47-.63,3.69-1.05,2.15-1.53,3.92-1.08,6.33.25,1.33.75,2.63,1.1,3.94.12.46.36,2.14.81,2.5.67.52,1.06-1.26,1.19-1.62.46-1.27,6.17-5.41,6.17-10.71,0-2.14-2.06-2.49-3.62-3.31Zm.49,5.51c-1.08,2.02-2.74,3.65-3.86,5.65-.03.05-.11.05-.14,0-.26-.47-.38-.97-.48-1.49-.07.65-.03,1.31.03,1.96,0,.08-.11.11-.15.04-.68-1.21-1.02-2.67-.95-4.05.07-1.58.81-3.02,1.11-4.56.02-.08.13-.07.15,0,.13.35.16.72.21,1.08.19-.95.2-1.91.07-2.87-.01-.08.1-.15.15-.06.18.3.32.61.44.93.06-.98-.14-1.97-.47-2.9-.02-.06.04-.12.1-.1.34.12.58.39.79.69-.08-.28-.15-.56-.25-.83-.03-.08.08-.13.13-.08.71.76,1.12,1.71,1.5,2.66.07-.37.04-.78.07-1.13,0-.07.08-.11.14-.06,1.43,1.33,2.42,3.21,1.4,5.11Z"/>
            <path class="cls-5" d="m57.15,29.24c-.43-.23-.83-.49-1.21-.78.49.55,1.03,1.05,1.56,1.58.61.61.92,1.33,1.17,2.12.04-.31.03-.62.04-.93,0-.08.1-.1.15-.04.32.42.48.95.56,1.49.06-.12.12-.23.18-.35.03-.05.11-.05.14,0,.44.82.32,1.86.04,2.71-.32,1.02-.93,1.82-1.59,2.65-.46.56-.93,1.12-1.34,1.73-.35.53-.68,1.08-1.07,1.58-.43.55-.98,1.04-1.35,1.62-.26.41-.45.87-.77,1.23-.03.04-.1.03-.12-.02-.47-1.03-1.03-2.04-1.37-3.12-.05-.09-.09-.18-.14-.27.2.64.41,1.29.58,1.93.12.46.36,2.14.81,2.5.67.52,1.06-1.26,1.19-1.62.46-1.27,6.17-5.41,6.17-10.71,0-2.14-2.06-2.49-3.62-3.31Z"/>
          </g>
          <g>
            <path class="cls-9" d="m52.95,35.72c.09-.34.18-.68.25-1.02.05-.35.06-.71.02-1.07-.31,1.08-.82,2.19-.78,3.32.19-.41.37-.82.51-1.24Z"/>
            <path class="cls-9" d="m53.29,36.23c-.22.38-.41.79-.51,1.22-.1.41-.28,1-.06,1.4.06-.9.36-1.74.57-2.62Z"/>
            <path class="cls-9" d="m53.16,37.86c-.05.28-.19.56-.13.85.01.06.08-.01.09-.04.03-.15.03-.31.05-.46,0-.06.02-.11.03-.17-.01-.06-.02-.12-.04-.18Z"/>
            <path class="cls-9" d="m53.54,38.09c-.14.43-.21.93-.07,1.35.14-.44.12-.9.07-1.35Z"/>
            <path class="cls-9" d="m52.91,41.14c-.14-.28-.27-.58-.47-.83.11.37.22.73.38,1.09.16.38.29.87.62,1.14-.12-.49-.31-.95-.53-1.4Z"/>
          </g>
          <g>
            <path class="cls-8" d="m32.18,31.41c0-.05-.02-.1-.03-.16-.09.5-.1.98-.04,1.5,0,.06.09-.01.09-.05-.04-.44-.05-.86-.02-1.29Z"/>
            <path class="cls-8" d="m32.34,33.55c-.04-.28-.05-.56-.03-.84,0-.11-.02-.23-.03-.34-.13.55-.16,1.16,0,1.71.03-.17.05-.35.06-.52Z"/>
            <path class="cls-8" d="m32.56,34.26c-.02-.1-.03-.2-.03-.31-.02.12-.04.25-.05.37.01.12.03.24.07.36.02.05.1-.03.1-.07-.02-.12-.06-.24-.09-.35Z"/>
            <path class="cls-8" d="m32.96,35.32c-.09-.39-.12-.79-.24-1.17-.02.73.08,1.42.49,2.04-.1-.29-.18-.58-.25-.87Z"/>
            <path class="cls-8" d="m33.53,36.42c.08.14.18.26.28.38-.15-.33-.33-.65-.44-1,0,.2.03.4.09.59.03,0,.05,0,.07.04Z"/>
          </g>
          <g class="cls-10">
            <path class="cls-11" d="m46.06,35.56c0-.12-.01-.23-.05-.34,0-.01-.01-.02-.02-.04-.05-.11-.11-.22-.18-.32-.08-.1-.19-.19-.29-.17.24.23.45.67.48,1.02.02-.05.03-.1.04-.15Z"/>
            <path class="cls-11" d="m45.87,36.01s.04-.04.05-.06c0-.12-.01-.22-.04-.33-.03-.1-.11-.18-.14-.27,0,0,0-.01-.02,0,.06.22.11.45.15.68Z"/>
            <path class="cls-11" d="m45.54,35.84c-.01.24-.02.49-.01.73.09-.21.11-.51.01-.73Z"/>
            <path class="cls-11" d="m44.55,37.99c.21-.31.39-.64.52-.99,0-.11.01-.22.02-.34-.22.62-.61,1.09-.93,1.66.14-.1.27-.21.39-.33Z"/>
            <path class="cls-11" d="m44.12,37.84s0-.09-.01-.14c0,0,0,.01-.01.02-.06.13-.11.26-.17.39-.05.12-.13.22-.21.33.14-.13.28-.28.38-.45.01-.03.03-.07.04-.1,0-.01-.02-.03-.02-.05Z"/>
            <path class="cls-11" d="m43.46,38.42c-.07.12-.15.24-.2.37-.03.07.06.04.08,0,.07-.12.14-.24.2-.36.04-.07-.05-.07-.07-.02Z"/>
            <path class="cls-11" d="m43.11,38.76c-.15.23-.31.46-.44.71.04-.02.08-.04.12-.06.11-.22.25-.43.38-.64.04-.06-.03-.06-.06-.02Z"/>
          </g>
          <path class="cls-11" d="m34.27,41.05c.16.32.31.65.51.96.27.42.63.73,1.04,1-.51-.66-1.03-1.31-1.56-1.96Z"/>
          <path class="cls-11" d="m38.1,41.45s-.06-.07-.09-.1c.23.62.65,1.17,1.28,1.41-.41-.42-.83-.84-1.18-1.31Z"/>
        </g>
      </g>
    </g>
  </g>
</svg>