<svg xmlns="http://www.w3.org/2000/svg" id="Layer_2" data-name="Layer 2" viewBox="0 0 124.64 124.64">
  <defs>
    <style>
      .cls-1 {
        fill: #262626;
      }

      .cls-2 {
        fill: #fff;
      }

      .cls-3 {
        fill: #90191c;
      }

      .cls-4 {
        fill: #ebbb7b;
      }

      .cls-5 {
        fill: #9ac774;
      }

      .cls-6 {
        fill: #a4c3c8;
      }

      .cls-7 {
        fill: #7aa15a;
      }

      .cls-8 {
        fill: #dba358;
      }

      .cls-9 {
        fill: #c33627;
      }

      .cls-10 {
        fill: #5a8343;
      }

      .cls-11 {
        fill: #ffd188;
      }

      .cls-12 {
        fill: #025c88;
      }

      .cls-13 {
        fill: #595959;
      }

      .cls-14 {
        fill: #433d3f;
      }
    </style>
  </defs>
  <g id="Layer_1-2" data-name="Layer 1">
    
    <g>
      <path class="cls-4" d="m18.76,60.49v-12.2c0-2,1.46-3.34,3.31-3.34h71.22c2.86,0,5.38,2.23,6.31,5.21l2.21,8.35c.79.34,1.3,1.11,1.3,1.97v.02H18.76Z"/>
      <path class="cls-7" d="m20.48,77.92h80.91c.95,0,1.72-.77,1.72-1.72v-15.71H18.76v15.71c0,.95.77,1.72,1.72,1.72Z"/>
      <rect class="cls-1" x="23.42" y="79.39" width="77.96" height="3.19" transform="translate(124.81 161.98) rotate(180)"/>
      <path class="cls-13" d="m89.79,51.91h5.06c.91,0,1.65.74,1.65,1.65v1.53c0,.91-.74,1.65-1.65,1.65h-5.06c-.91,0-1.65-.74-1.65-1.65v-1.53c0-.91.74-1.65,1.65-1.65Z" transform="translate(146.65 -38) rotate(90)"/>
      <path class="cls-6" d="m89.79,52.09h5.06c.81,0,1.47.66,1.47,1.47v1.54c0,.81-.66,1.47-1.47,1.47h-5.06c-.81,0-1.47-.66-1.47-1.47v-1.54c0-.81.66-1.47,1.47-1.47Z" transform="translate(146.65 -37.99) rotate(90)"/>
      <path class="cls-13" d="m20.79,51.91h5.06c.91,0,1.65.74,1.65,1.65v1.53c0,.91-.74,1.65-1.65,1.65h-5.06c-.91,0-1.65-.74-1.65-1.65v-1.53c0-.91.74-1.65,1.65-1.65Z" transform="translate(77.65 31.01) rotate(90)"/>
      <path class="cls-6" d="m20.79,52.09h5.06c.81,0,1.47.66,1.47,1.47v1.54c0,.81-.66,1.47-1.47,1.47h-5.06c-.81,0-1.47-.66-1.47-1.47v-1.54c0-.81.66-1.47,1.47-1.47Z" transform="translate(77.65 31.01) rotate(90)"/>
      <path class="cls-13" d="m26.44,51.91h5.06c.91,0,1.65.74,1.65,1.65v1.53c0,.91-.74,1.65-1.65,1.65h-5.06c-.91,0-1.65-.74-1.65-1.65v-1.53c0-.91.74-1.65,1.65-1.65Z" transform="translate(83.3 25.36) rotate(90)"/>
      <path class="cls-6" d="m26.44,52.09h5.06c.81,0,1.47.66,1.47,1.47v1.54c0,.81-.66,1.47-1.47,1.47h-5.06c-.81,0-1.47-.66-1.47-1.47v-1.54c0-.81.66-1.47,1.47-1.47Z" transform="translate(83.3 25.36) rotate(90)"/>
      <path class="cls-13" d="m80.54,47.31h3.34c.91,0,1.65.74,1.65,1.65v9.01c0,.91-.74,1.65-1.65,1.65h-3.34c-.91,0-1.65-.74-1.65-1.65v-9.01c0-.91.74-1.65,1.65-1.65Z" transform="translate(135.67 -28.74) rotate(90)"/>
      <path class="cls-6" d="m80.53,47.49h3.34c.81,0,1.47.66,1.47,1.47v9.01c0,.81-.66,1.47-1.47,1.47h-3.34c-.81,0-1.47-.66-1.47-1.47v-9.01c0-.81.66-1.47,1.47-1.47Z" transform="translate(135.67 -28.74) rotate(90)"/>
      <path class="cls-13" d="m37.81,47.31h3.34c.91,0,1.65.74,1.65,1.65v9.01c0,.91-.74,1.65-1.65,1.65h-3.34c-.91,0-1.65-.74-1.65-1.65v-9.01c0-.91.74-1.65,1.65-1.65Z" transform="translate(92.95 13.99) rotate(90)"/>
      <path class="cls-6" d="m37.81,47.49h3.34c.81,0,1.47.66,1.47,1.47v9.01c0,.81-.66,1.47-1.47,1.47h-3.34c-.81,0-1.47-.66-1.47-1.47v-9.01c0-.81.66-1.47,1.47-1.47Z" transform="translate(92.95 13.99) rotate(90)"/>
      <rect class="cls-14" x="100.92" y="79.25" width="4.12" height="1.38" transform="translate(205.97 159.88) rotate(180)"/>
      <path class="cls-14" d="m87.68,84.28c0,2.7,2.19,4.89,4.89,4.89s4.89-2.19,4.89-4.89-2.19-4.89-4.89-4.89-4.89,2.19-4.89,4.89Z"/>
      <path class="cls-2" d="m92.57,80.48c2.1,0,3.81,1.7,3.81,3.81s-1.7,3.81-3.81,3.81-3.81-1.7-3.81-3.81,1.7-3.81,3.81-3.81Zm-3.07,3.81c0,1.69,1.37,3.07,3.07,3.07s3.07-1.37,3.07-3.07-1.37-3.07-3.07-3.07-3.07,1.37-3.07,3.07Z"/>
      <circle class="cls-14" cx="82.43" cy="84.28" r="4.89"/>
      <path class="cls-2" d="m82.43,80.48c2.1,0,3.81,1.7,3.81,3.81s-1.7,3.81-3.81,3.81-3.81-1.7-3.81-3.81,1.7-3.81,3.81-3.81Zm-3.07,3.81c0,1.69,1.37,3.07,3.07,3.07s3.07-1.37,3.07-3.07-1.37-3.07-3.07-3.07-3.07,1.37-3.07,3.07Z"/>
      <path class="cls-14" d="m34.22,84.28c0,2.7-2.19,4.89-4.89,4.89s-4.89-2.19-4.89-4.89,2.19-4.89,4.89-4.89,4.89,2.19,4.89,4.89Z"/>
      <path class="cls-2" d="m33.14,84.28c0,2.1-1.7,3.81-3.81,3.81s-3.81-1.7-3.81-3.81,1.7-3.81,3.81-3.81,3.81,1.7,3.81,3.81Zm-3.81-3.07c-1.69,0-3.07,1.37-3.07,3.07s1.37,3.07,3.07,3.07,3.07-1.37,3.07-3.07-1.37-3.07-3.07-3.07Z"/>
      <path class="cls-14" d="m44.37,84.28c0,2.7-2.19,4.89-4.89,4.89s-4.89-2.19-4.89-4.89,2.19-4.89,4.89-4.89,4.89,2.19,4.89,4.89Z"/>
      <path class="cls-2" d="m43.29,84.28c0,2.1-1.7,3.81-3.81,3.81s-3.81-1.7-3.81-3.81,1.7-3.81,3.81-3.81,3.81,1.7,3.81,3.81Zm-3.81-3.07c-1.69,0-3.07,1.37-3.07,3.07s1.37,3.07,3.07,3.07,3.07-1.37,3.07-3.07-1.37-3.07-3.07-3.07Z"/>
      <path class="cls-3" d="m103.53,60.6c.42.11.71.49.71.92v2.86c0,.43-.29.81-.71.92l-.42.12v-4.94l.42.12Z"/>
      <g>
        <path class="cls-11" d="m61.28,51.16h8.9v.46c0,.46-.37.83-.83.83h-7.25c-.46,0-.83-.37-.83-.83v-.46h0Z" transform="translate(131.45 103.6) rotate(180)"/>
        <path class="cls-11" d="m61.28,53.05h8.9v.46c0,.46-.37.83-.83.83h-7.25c-.46,0-.83-.37-.83-.83v-.46h0Z" transform="translate(131.45 107.39) rotate(180)"/>
        <path class="cls-11" d="m61.28,54.95h8.9v.46c0,.46-.37.83-.83.83h-7.25c-.46,0-.83-.37-.83-.83v-.46h0Z" transform="translate(131.45 111.17) rotate(180)"/>
        <path class="cls-11" d="m61.28,56.84h8.9v.46c0,.46-.37.83-.83.83h-7.25c-.46,0-.83-.37-.83-.83v-.46h0Z" transform="translate(131.45 114.96) rotate(180)"/>
        <rect class="cls-8" x="61.28" y="58.12" width="8.9" height=".23" transform="translate(131.45 116.47) rotate(180)"/>
        <rect class="cls-8" x="61.28" y="56.23" width="8.9" height=".23" transform="translate(131.45 112.69) rotate(180)"/>
        <rect class="cls-8" x="61.28" y="54.34" width="8.9" height=".23" transform="translate(131.45 108.9) rotate(180)"/>
        <rect class="cls-8" x="61.28" y="52.44" width="8.9" height=".23" transform="translate(131.45 105.12) rotate(180)"/>
      </g>
      <g>
        <path class="cls-11" d="m52.52,51.16h7.25c.46,0,.83.37.83.83v.46h-8.9v-.46c0-.46.37-.83.83-.83Z"/>
        <path class="cls-11" d="m52.52,53.05h7.25c.46,0,.83.37.83.83v.46h-8.9v-.46c0-.46.37-.83.83-.83Z"/>
        <path class="cls-11" d="m52.52,54.95h7.25c.46,0,.83.37.83.83v.46h-8.9v-.46c0-.46.37-.83.83-.83Z"/>
        <path class="cls-11" d="m52.52,56.84h7.25c.46,0,.83.37.83.83v.46h-8.9v-.46c0-.46.37-.83.83-.83Z"/>
        <rect class="cls-8" x="51.69" y="58.12" width="8.9" height=".23"/>
        <rect class="cls-8" x="51.69" y="56.23" width="8.9" height=".23"/>
        <rect class="cls-8" x="51.69" y="54.34" width="8.9" height=".23"/>
        <rect class="cls-8" x="51.69" y="52.44" width="8.9" height=".23"/>
      </g>
      <path class="cls-10" d="m20.8,63.17h79.44c.31,0,.57-.25.57-.57h0c0-.31-.25-.57-.57-.57H20.8c-.31,0-.57.25-.57.57h0c0,.31.25.57.57.57Z"/>
      <path class="cls-5" d="m20.8,62.96h79.44c.31,0,.57-.25.57-.57h0c0-.31-.25-.57-.57-.57H20.8c-.31,0-.57.25-.57.57h0c0,.31.25.57.57.57Z"/>
      <path class="cls-4" d="m99.64,45.34c0,1.11.37,2.01.82,2.01s.82-.9.82-2.01-.37-2.01-.82-2.01-.82.9-.82,2.01Z"/>
      <path class="cls-7" d="m90.67,47.35h9.79v-4.03h-5.32c-3.18,0-4.47,1.62-4.47,1.62v2.41Z"/>
      <path class="cls-10" d="m90.67,49.02h8.48l1.31-1.67h-5.32c-3.18,0-4.47.67-4.47.67v1Z"/>
      <path class="cls-10" d="m20.8,66.15h79.44c.31,0,.57-.25.57-.57h0c0-.31-.25-.57-.57-.57H20.8c-.31,0-.57.25-.57.57h0c0,.31.25.57.57.57Z"/>
      <path class="cls-5" d="m20.8,65.94h79.44c.31,0,.57-.25.57-.57h0c0-.31-.25-.57-.57-.57H20.8c-.31,0-.57.25-.57.57h0c0,.31.25.57.57.57Z"/>
      <path class="cls-10" d="m20.8,69.13h79.44c.31,0,.57-.25.57-.57h0c0-.31-.25-.57-.57-.57H20.8c-.31,0-.57.25-.57.57h0c0,.31.25.57.57.57Z"/>
      <path class="cls-5" d="m20.8,68.92h79.44c.31,0,.57-.25.57-.57h0c0-.31-.25-.57-.57-.57H20.8c-.31,0-.57.25-.57.57h0c0,.31.25.57.57.57Z"/>
      <path class="cls-10" d="m20.8,72.1h79.44c.31,0,.57-.25.57-.57h0c0-.31-.25-.57-.57-.57H20.8c-.31,0-.57.25-.57.57h0c0,.31.25.57.57.57Z"/>
      <path class="cls-5" d="m20.8,71.9h79.44c.31,0,.57-.25.57-.57h0c0-.31-.25-.57-.57-.57H20.8c-.31,0-.57.25-.57.57h0c0,.31.25.57.57.57Z"/>
      <path class="cls-10" d="m20.8,75.08h79.44c.31,0,.57-.25.57-.57h0c0-.31-.25-.57-.57-.57H20.8c-.31,0-.57.25-.57.57h0c0,.31.25.57.57.57Z"/>
      <path class="cls-5" d="m20.8,74.87h79.44c.31,0,.57-.25.57-.57h0c0-.31-.25-.57-.57-.57H20.8c-.31,0-.57.25-.57.57h0c0,.31.25.57.57.57Z"/>
      <path class="cls-13" d="m95.79,51.79c0-.9.73-1.64,1.64-1.64h1.67c0,.07,2.21,8.35,2.21,8.35h-4.32c-.66,0-1.2-.54-1.2-1.2v-5.51Z"/>
      <path class="cls-6" d="m101.07,58.32c-.74-2.81-1.89-7.11-2.11-7.98h-1.53c-.8,0-1.46.65-1.46,1.46v5.51c0,.56.45,1.01,1.01,1.01h4.08Z"/>
      <rect class="cls-14" x="20.52" y="77.92" width="80.87" height="1.48" transform="translate(121.91 157.31) rotate(180)"/>
      <path class="cls-9" d="m95.23,77.92l4.58,8.65c.61,1.13,1.35,1.52,2.43,1.52h2.53l-3.38-10.17h-6.16Zm5.3,4.71h1.66l1.49,4.35h-.5c-.79,0-2.64-4.35-2.64-4.35Z"/>
      <path class="cls-5" d="m22.07,44.94h71.22c2.49,0,4.71,1.68,5.86,4.08H18.76v-.73c0-2,1.46-3.34,3.31-3.34Z"/>
      <path class="cls-14" d="m104.67,78.05h2.12c.44,0,.8.36.8.8v.32h-1.22v1.54h1.22v.32c0,.44-.36.8-.8.8h-2.12c-.44,0-.8-.36-.8-.8v-2.17c0-.44.36-.8.8-.8Z"/>
      <rect class="cls-14" x="16.39" y="77.97" width="4.12" height="1.38"/>
      <path class="cls-14" d="m16.77,76.76h-2.12c-.44,0-.8.36-.8.8v.32h1.22v1.54h-1.22v.32c0,.44.36.8.8.8h2.12c.44,0,.8-.36.8-.8v-2.17c0-.44-.36-.8-.8-.8Z"/>
      <rect class="cls-10" x="45.36" y="79.39" width="31.19" height="6.45" rx=".88" ry=".88" transform="translate(121.91 165.24) rotate(180)"/>
      <rect class="cls-7" x="72.72" y="79.39" width="1.17" height="6.45" transform="translate(146.61 165.24) rotate(180)"/>
      <rect class="cls-7" x="69.09" y="79.39" width="1.17" height="6.45" transform="translate(139.36 165.24) rotate(180)"/>
      <rect class="cls-7" x="48.01" y="79.39" width="1.17" height="6.45"/>
      <rect class="cls-7" x="51.64" y="79.39" width="1.17" height="6.45"/>
      <rect class="cls-14" x="16.77" y="52.33" width="1.99" height="21.95" transform="translate(35.53 126.61) rotate(180)"/>
    </g>
  </g>
</svg>