<svg xmlns="http://www.w3.org/2000/svg" xmlns:xlink="http://www.w3.org/1999/xlink" viewBox="0 0 124.64 124.64">
  <defs>
    <style>
      .cls-1 {
        fill: url(#radial-gradient-3);
      }

      .cls-1, .cls-2, .cls-3, .cls-4, .cls-5, .cls-6, .cls-7, .cls-8, .cls-9, .cls-10, .cls-11, .cls-12, .cls-13, .cls-14, .cls-15, .cls-16, .cls-17, .cls-18, .cls-19 {
        mix-blend-mode: screen;
      }

      .cls-1, .cls-2, .cls-5, .cls-20, .cls-9, .cls-11, .cls-14, .cls-21, .cls-22, .cls-23, .cls-16 {
        opacity: .5;
      }

      .cls-24 {
        fill: #737372;
      }

      .cls-25 {
        fill: #262626;
      }

      .cls-26 {
        fill: #696969;
      }

      .cls-26, .cls-27, .cls-28, .cls-29, .cls-30, .cls-31, .cls-32, .cls-33, .cls-34, .cls-20, .cls-35, .cls-36, .cls-37, .cls-38, .cls-39, .cls-40, .cls-21, .cls-41, .cls-22, .cls-42, .cls-23, .cls-43, .cls-44, .cls-45, .cls-46 {
        mix-blend-mode: multiply;
      }

      .cls-27 {
        fill: #2f2d2c;
      }

      .cls-47 {
        fill: #dc8327;
      }

      .cls-48 {
        fill: #0f0f0f;
      }

      .cls-49, .cls-15, .cls-16 {
        fill: #fff;
      }

      .cls-28 {
        fill: url(#radial-gradient-6);
      }

      .cls-50 {
        fill: #24211f;
      }

      .cls-2, .cls-21, .cls-51 {
        fill: #1d1d1b;
      }

      .cls-52 {
        fill: #4c4c4c;
      }

      .cls-29, .cls-53 {
        fill: #696968;
      }

      .cls-3, .cls-54 {
        fill: #303030;
      }

      .cls-4 {
        fill: #a8a8a8;
      }

      .cls-55, .cls-36, .cls-41, .cls-18 {
        fill: #828081;
      }

      .cls-56, .cls-39 {
        fill: #fbae24;
      }

      .cls-5 {
        fill: url(#radial-gradient-4);
      }

      .cls-57 {
        fill: #e63527;
      }

      .cls-30 {
        fill: url(#linear-gradient);
      }

      .cls-6 {
        fill: #fed4a8;
      }

      .cls-7 {
        fill: #65b345;
      }

      .cls-58 {
        fill: #5c5c5c;
      }

      .cls-59, .cls-32, .cls-12 {
        fill: #969595;
      }

      .cls-31, .cls-60, .cls-61, .cls-43 {
        fill: #505150;
      }

      .cls-31, .cls-8, .cls-35, .cls-39, .cls-41, .cls-15, .cls-61, .cls-42, .cls-45 {
        opacity: .4;
      }

      .cls-62 {
        isolation: isolate;
      }

      .cls-33 {
        opacity: .7;
      }

      .cls-33, .cls-63, .cls-37, .cls-10 {
        fill: #4c4d4c;
      }

      .cls-34, .cls-64 {
        fill: #2e2f2d;
      }

      .cls-65 {
        fill: #070807;
      }

      .cls-8 {
        fill: #ffca4c;
      }

      .cls-66 {
        fill: #f39f1f;
      }

      .cls-20, .cls-67 {
        fill: #914c21;
      }

      .cls-9 {
        fill: url(#radial-gradient-5);
      }

      .cls-35, .cls-44, .cls-68, .cls-17 {
        fill: #525252;
      }

      .cls-69 {
        fill: #363533;
      }

      .cls-70 {
        fill: #be3627;
      }

      .cls-71 {
        fill: #14a7e0;
      }

      .cls-71, .cls-37, .cls-43, .cls-19 {
        opacity: .3;
      }

      .cls-72 {
        fill: #ee8a22;
      }

      .cls-11 {
        fill: url(#radial-gradient);
      }

      .cls-73 {
        fill: #8f8f8f;
      }

      .cls-38 {
        opacity: .8;
      }

      .cls-74 {
        fill: #2b2b2b;
      }

      .cls-40 {
        fill: #3d3d3d;
      }

      .cls-75 {
        fill: #bdbcbc;
      }

      .cls-14 {
        fill: url(#radial-gradient-2);
      }

      .cls-76 {
        fill: #121212;
      }

      .cls-77 {
        fill: #ee7226;
      }

      .cls-78 {
        fill: #535353;
      }

      .cls-79 {
        fill: #b94f27;
      }

      .cls-80 {
        fill: #292929;
      }

      .cls-22, .cls-81 {
        fill: #ee8c22;
      }

      .cls-42, .cls-82 {
        fill: #333331;
      }

      .cls-83 {
        fill: #2f2f2e;
      }

      .cls-23 {
        fill: #c1bac4;
      }

      .cls-84 {
        fill: #a1a0a0;
      }

      .cls-85 {
        fill: #272625;
      }

      .cls-86 {
        fill: #282928;
      }

      .cls-87 {
        fill: #025c88;
      }

      .cls-88 {
        fill: #bcbaba;
      }

      .cls-45 {
        fill: #9e722a;
      }

      .cls-89 {
        fill: #2d2d2b;
      }

      .cls-90 {
        fill: #ec3e24;
      }

      .cls-91 {
        fill: #437839;
      }

      .cls-92 {
        fill: #636463;
      }

      .cls-93 {
        fill: #010101;
      }

      .cls-94 {
        fill: #e3e3e3;
      }

      .cls-19 {
        fill: #a3dada;
      }
    </style>
    <linearGradient id="linear-gradient" x1="69.51" y1="81.21" x2="69.51" y2="74.31" gradientUnits="userSpaceOnUse">
      <stop offset="0" stop-color="#b7b9ba"/>
      <stop offset="1" stop-color="#242626"/>
    </linearGradient>
    <radialGradient id="radial-gradient" cx="1000.94" cy="875.08" fx="1000.94" fy="875.08" r="6.26" gradientTransform="translate(-1060.3 -932.28) scale(1.16)" gradientUnits="userSpaceOnUse">
      <stop offset=".39" stop-color="#1f211e"/>
      <stop offset=".47" stop-color="#242522"/>
      <stop offset=".56" stop-color="#323431"/>
      <stop offset=".66" stop-color="#4a4b48"/>
      <stop offset=".71" stop-color="#5a5a57"/>
      <stop offset=".76" stop-color="#696966"/>
      <stop offset=".85" stop-color="#929190"/>
      <stop offset=".92" stop-color="#b4b3b2"/>
    </radialGradient>
    <radialGradient id="radial-gradient-2" cx="984.88" fx="984.88" r="6.26" xlink:href="#radial-gradient"/>
    <radialGradient id="radial-gradient-3" cx="955.59" fx="955.59" r="6.26" xlink:href="#radial-gradient"/>
    <radialGradient id="radial-gradient-4" cx="943.54" cy="875.01" fx="943.54" fy="875.01" r="6.26" xlink:href="#radial-gradient"/>
    <radialGradient id="radial-gradient-5" cx="943.65" fx="943.65" r="6.26" xlink:href="#radial-gradient"/>
    <radialGradient id="radial-gradient-6" cx="-4101.22" cy="153.82" fx="-4101.22" fy="153.82" r=".44" gradientTransform="translate(3047.81 231.97) scale(.74 -1.16)" gradientUnits="userSpaceOnUse">
      <stop offset="0" stop-color="#fff"/>
      <stop offset=".27" stop-color="#fff"/>
      <stop offset=".38" stop-color="#fcfcfc"/>
      <stop offset=".45" stop-color="#f4f3f5"/>
      <stop offset=".51" stop-color="#e7e5e8"/>
      <stop offset=".56" stop-color="#d5d0d7"/>
      <stop offset=".6" stop-color="#c1bac4"/>
      <stop offset=".62" stop-color="#c9c3cb"/>
      <stop offset=".68" stop-color="#e0dde2"/>
      <stop offset=".74" stop-color="#f1f0f2"/>
      <stop offset=".8" stop-color="#fbfbfb"/>
      <stop offset=".86" stop-color="#fff"/>
      <stop offset=".91" stop-color="#fcfcfc"/>
      <stop offset=".94" stop-color="#f4f3f5"/>
      <stop offset=".96" stop-color="#e7e4e8"/>
      <stop offset=".98" stop-color="#d4cfd6"/>
      <stop offset="1" stop-color="#c1bac4"/>
    </radialGradient>
  </defs>
  <g class="cls-62">
    <g id="Layer_2" data-name="Layer 2">
      <g id="Layer_1-2" data-name="Layer 1">
        
        <g>
          <g>
            <g>
              <path class="cls-24" d="m109.3,77.29h-.39s-.28.19.02.45h.33l.03-.45Z"/>
              <g>
                <path d="m109.91,76.47s.07,0,.11,0v2.07s-.07,0-.11,0c-.46,0-.71-.4-.84-.84v-.4c0-.47.38-.84.84-.84Z"/>
                <path class="cls-90" d="m110.02,76.48s.49.15.49,1.04c0,.98-.49,1.04-.49,1.04v-2.07Z"/>
              </g>
            </g>
            <path class="cls-6" d="m110.11,76.63s.34.34.3,1.15c0,0-.06-.48-.3-.65v-.5Z"/>
          </g>
          <g>
            <g>
              <g>
                <path class="cls-65" d="m44.66,71.52c.09,1.55.08,2.64.05,3.38h.51c.03-.75.04-1.85-.05-3.4-.12-1.99-1.33-2.25-2.31-2.46-.92-.2-1.59-.34-1.62-1.61-.02-1.03.32-1.83,1.02-2.37,1.8-1.39,5.38-.71,5.42-.7l.11-.47c-.16-.03-3.86-.74-5.85.8-.82.64-1.22,1.56-1.2,2.75.04,1.64,1.08,1.87,2.01,2.07.98.21,1.82.39,1.92,2.02Z"/>
                <path class="cls-75" d="m44.32,63.89s-2.39.09-3.22,2.06c0,0,.87-1.78,3.22-2.06Z"/>
                <path class="cls-75" d="m41.09,68.45s.02.57,1.28.86c1.25.29,2.14.49,2.29,1.55,0,0,.09-.89-.93-1.31-1.02-.42-2.3-.29-2.65-1.1Z"/>
              </g>
              <g>
                <path class="cls-86" d="m44.15,74.9h.52c.02-.78,0-1.8-.07-3.11-.12-2.2-1.39-2.49-2.41-2.72-.96-.22-1.65-.38-1.68-1.78-.02-1.14.34-2.03,1.06-2.63,1.87-1.54,5.6-.78,5.64-.77l.11-.52c-.16-.04-4.01-.82-6.08.88-.85.7-1.27,1.73-1.25,3.04.04,1.82,1.13,2.07,2.09,2.29,1.02.23,1.9.43,2,2.24.07,1.3.08,2.31.07,3.08Z"/>
                <path class="cls-49" d="m43.72,63.37s-2.49.11-3.36,2.28c0,0,.91-1.97,3.36-2.28Z"/>
                <path class="cls-49" d="m40.37,68.42s.03.63,1.33.95c1.3.33,2.23.55,2.39,1.72,0,0,.09-.98-.97-1.45-1.05-.47-2.39-.32-2.76-1.21Z"/>
              </g>
              <g>
                <polygon class="cls-60" points="48.89 62.12 46.54 62.12 46.54 63.09 46.54 65.25 49.63 65.25 48.89 62.12"/>
                <polygon class="cls-86" points="49.08 62.12 47.32 62.12 47.32 63.09 47.32 65.25 49.63 65.25 49.08 62.12"/>
                <polygon class="cls-60" points="51.43 61.37 47.93 61.37 47.93 62.82 47.93 66.03 52.53 66.03 51.43 61.37"/>
                <polygon class="cls-86" points="50.29 66.03 52.53 66.03 51.43 61.37 50.29 61.37 50.29 66.03"/>
                <path class="cls-86" d="m48.89,62.02c0,.22-.18.4-.4.4s-.4-.18-.4-.4.18-.4.4-.4.4.18.4.4Z"/>
                <path class="cls-86" d="m48.89,63.7c0,.22-.18.41-.4.41s-.4-.18-.4-.41.18-.41.4-.41.4.18.4.41Z"/>
                <path class="cls-86" d="m48.89,65.25c0,.22-.18.4-.4.4s-.4-.18-.4-.4.18-.41.4-.41.4.18.4.41Z"/>
              </g>
              <polygon class="cls-55" points="47.94 56.87 46.66 58.05 47.5 59.91 50.8 60.65 50.8 69.8 56.42 69.8 56.42 67.3 55.03 65.85 55.03 59.67 57.11 54.52 47.94 56.87"/>
              <path class="cls-36" d="m55.72,57.96l1.38-3.43-9.17,2.35-1.28,1.18.25.56c2.42,1.91,6.17,1.87,8.81-.66Z"/>
              <rect class="cls-36" x="50.8" y="67.79" width="5.62" height="2.01"/>
              <path class="cls-60" d="m66.85,74.9l-.37-6.76s-17.32.05-17.98,0c-.66-.05-.87.96-.87.96l-1.08,5.81h20.31Z"/>
              <path class="cls-31" d="m64.86,71.96l-.14-2.48s-14.22.04-14.76,0c-.54-.04-.71.78-.71.78l-.32,1.69h15.94Z"/>
              <polygon class="cls-31" points="65.02 74.9 64.89 72.67 54.75 72.67 54.75 74.9 65.02 74.9"/>
              <polygon class="cls-31" points="54.22 74.9 54.22 72.67 48.79 72.67 48.38 74.9 54.22 74.9"/>
              <path class="cls-59" d="m57.27,53.09c0,3.57-2.89,6.46-6.47,6.46s-6.46-2.89-6.46-6.46,2.9-6.46,6.46-6.46,6.47,2.89,6.47,6.46Z"/>
              <path class="cls-32" d="m55.49,49.43c-1,1.37-2.23,2.57-3.65,3.5-1.52.99-3.28,1.86-5.06,2.26-.67.15-1.34.23-2.02.2.93,2.43,3.28,4.17,6.04,4.17,3.57,0,6.47-2.89,6.47-6.46,0-1.56-.55-2.99-1.47-4.1-.1.15-.2.29-.3.43Z"/>
              <path class="cls-12" d="m55.27,52.85c0,2.82-2.29,5.11-5.11,5.11s-5.11-2.29-5.11-5.11,2.29-5.11,5.11-5.11,5.11,2.29,5.11,5.11Z"/>
              <g>
                <path class="cls-92" d="m51.29,59.54c0,.32-.26.58-.59.58h0c-.33,0-.59-.26-.59-.58v-12.72c0-.32.27-.58.59-.58h0c.33,0,.59.26.59.58v12.72Z"/>
                <g>
                  <path class="cls-59" d="m50.91,47.17c0,.12-.09.21-.21.21s-.21-.09-.21-.21.09-.21.21-.21.21.09.21.21Z"/>
                  <path class="cls-59" d="m50.91,49.44c0,.12-.09.21-.21.21s-.21-.1-.21-.21.09-.21.21-.21.21.1.21.21Z"/>
                  <path class="cls-59" d="m50.91,51.7c0,.12-.09.21-.21.21s-.21-.09-.21-.21.09-.21.21-.21.21.09.21.21Z"/>
                  <path class="cls-59" d="m50.91,53.97c0,.12-.09.21-.21.21s-.21-.09-.21-.21.09-.21.21-.21.21.09.21.21Z"/>
                  <path class="cls-59" d="m50.95,56.27c0,.14-.11.25-.25.25s-.24-.11-.24-.25.11-.24.24-.24.25.11.25.24Z"/>
                  <path class="cls-59" d="m50.95,58.61c0,.13-.11.25-.25.25s-.24-.11-.24-.25.11-.25.24-.25.25.11.25.25Z"/>
                </g>
              </g>
              <path class="cls-31" d="m51.75,70.7c0,.4-.32.73-.73.73s-.73-.33-.73-.73.33-.73.73-.73.73.33.73.73Z"/>
              <path class="cls-31" d="m53.62,73.51c0,.2-.16.37-.37.37s-.37-.16-.37-.37.16-.37.37-.37.37.16.37.37Z"/>
              <g>
                <path class="cls-60" d="m55.95,73.32c0,.11-.09.19-.19.19s-.19-.08-.19-.19.08-.19.19-.19.19.09.19.19Z"/>
                <path class="cls-60" d="m57.39,73.35c0,.09-.07.16-.17.16s-.17-.07-.17-.16.08-.17.17-.17.17.08.17.17Z"/>
                <path class="cls-60" d="m58.88,73.32c0,.11-.08.19-.19.19s-.19-.08-.19-.19.08-.19.19-.19.19.09.19.19Z"/>
                <path class="cls-60" d="m60.32,73.35c0,.09-.07.16-.17.16s-.16-.07-.16-.16.07-.17.16-.17.17.08.17.17Z"/>
              </g>
              <polygon class="cls-61" points="54.75 67.42 51.41 67.42 51.41 60.71 54.01 59.96 54.01 66.54 54.75 67.42"/>
              <path class="cls-18" d="m47.07,73.88l.83-4.4s.19-1.06,1.31-1.06h8.8l-8.8.38s-.72.03-.97.95l-1.17,4.13Z"/>
              <path class="cls-43" d="m57.55,68.94c.67,2.25,2.04,4.32,3.72,5.96h5.58l-.37-6.76s-4.61.01-9.16.02c.07.26.15.53.23.79Z"/>
            </g>
            <rect x="37.9" y="75.9" width="3.57" height="3.13"/>
            <polygon class="cls-76" points="81.87 82.74 100.67 82.74 100.67 76.99 81.91 76.99 81.87 82.74"/>
            <g>
              <g>
                <rect class="cls-80" x="40.28" y="74.91" width="68.67" height="4.96"/>
                <rect x="40.28" y="74.91" width="68.67" height="1.82"/>
                <g>
                  <path class="cls-30" d="m70.49,74.91c-.17.9-.39,2.02-.52,2.47-.24.81-.43.89-1.29.89h-1.94v1.59h2.6c.71,0,1.37.01,1.74-1.11.25-.75.83-2.66,1.19-3.84h-1.77Z"/>
                  <path class="cls-78" d="m70.69,74.91c-.17.91-.45,2.27-.59,2.75-.23.74-.41.81-1.21.81h-1.83l-.13,1.11h2.45c.67,0,1.23.02,1.58-1,.25-.72.8-2.62,1.1-3.67h-1.37Z"/>
                  <polygon class="cls-55" points="54.72 74.91 56.29 80.82 56.76 81.29 66.28 81.29 66.81 80.7 67.43 74.91 54.72 74.91"/>
                  <polygon class="cls-41" points="54.72 74.91 55.12 76.42 67.27 76.42 67.43 74.91 54.72 74.91"/>
                  <path class="cls-93" d="m56.78,75.9c0,.46-.37.82-.83.82s-.82-.37-.82-.82.37-.82.82-.82.83.37.83.82Z"/>
                  <path class="cls-93" d="m58.48,75.88c0,.46-.37.83-.83.83s-.83-.37-.83-.83.37-.82.83-.82.83.37.83.82Z"/>
                  <path class="cls-91" d="m58.34,75.87c0,.38-.31.69-.69.69s-.69-.31-.69-.69.31-.69.69-.69.69.31.69.69Z"/>
                  <path class="cls-70" d="m56.63,75.88c0,.39-.31.69-.68.69s-.69-.3-.69-.69.31-.69.69-.69.68.31.68.69Z"/>
                  <polygon class="cls-52" points="55.64 77.3 56.44 80.69 56.85 81.2 65.98 81.2 66.67 80.67 67.27 75.03 66.41 80.33 65.61 81.04 57.15 81.04 56.62 80.55 55.64 77.3"/>
                </g>
              </g>
              <g>
                <g>
                  <rect x="56.7" y="74.91" width=".56" height="7.42"/>
                  <rect x="72.21" y="74.91" width=".56" height="7.42"/>
                </g>
                <g>
                  <rect class="cls-94" x="54.85" y="78.51" width="19.78" height="1.26"/>
                  <rect class="cls-73" x="54.85" y="79.14" width="19.78" height=".63"/>
                  <path class="cls-40" d="m55.15,78.51h-.3v1.26h1.44c-.37-.42-.75-.85-1.14-1.26Z"/>
                  <path class="cls-40" d="m61.73,78.51h-3.32c.38.43.77.85,1.17,1.26h3.48c-.45-.41-.89-.83-1.33-1.26Z"/>
                  <path class="cls-40" d="m73.55,79.12c.24.21.48.43.72.65h.36v-1.26h-1.75c.22.2.45.41.67.61Z"/>
                  <path class="cls-40" d="m69.1,78.51h-3.5c.47.42.95.84,1.43,1.26h3.54c-.48-.43-.96-.86-1.46-1.26Z"/>
                </g>
                <g>
                  <rect class="cls-94" x="54.85" y="81.39" width="19.78" height="1.26"/>
                  <rect class="cls-73" x="54.85" y="82.01" width="19.78" height=".63"/>
                  <path class="cls-40" d="m55.15,81.39h-.3v1.26h1.44c-.37-.42-.75-.85-1.14-1.26Z"/>
                  <path class="cls-40" d="m61.73,81.39h-3.32c.38.43.77.85,1.17,1.26h3.48c-.45-.41-.89-.83-1.33-1.26Z"/>
                  <path class="cls-40" d="m73.55,81.99c.24.21.48.43.72.65h.36v-1.26h-1.75c.22.2.45.4.67.6Z"/>
                  <path class="cls-40" d="m69.1,81.39h-3.5c.47.42.95.84,1.43,1.26h3.54c-.48-.44-.96-.86-1.46-1.26Z"/>
                </g>
              </g>
            </g>
            <g>
              <g>
                <path class="cls-51" d="m106.92,82.63c0,3.55-2.88,6.44-6.43,6.44s-6.44-2.89-6.44-6.44,2.88-6.43,6.44-6.43,6.43,2.88,6.43,6.43Z"/>
                <g class="cls-13">
                  <path class="cls-11" d="m100.53,76.94c3.2,0,5.83,2.4,6.19,5.5-.06-3.39-2.83-6.12-6.24-6.12s-6.24,2.79-6.24,6.24c0,.24.02.49.05.73,0-.04,0-.07,0-.11,0-3.45,2.79-6.24,6.24-6.24Z"/>
                </g>
                <g class="cls-46">
                  <path class="cls-2" d="m100.53,88.29c3.2,0,5.83-2.4,6.19-5.5-.06,3.39-2.83,6.13-6.24,6.13s-6.24-2.79-6.24-6.23c0-.25.02-.49.05-.73,0,.03,0,.08,0,.1,0,3.45,2.79,6.24,6.24,6.24Z"/>
                </g>
                <path class="cls-27" d="m100.49,77.79c-2.68,0-4.85,2.18-4.85,4.86s2.17,4.85,4.85,4.85,4.85-2.17,4.85-4.85-2.18-4.86-4.85-4.86Z"/>
                <path class="cls-16" d="m104.54,82.62c0,2.27-1.84,4.11-4.11,4.11s-4.11-1.84-4.11-4.11,1.84-4.11,4.11-4.11,4.11,1.84,4.11,4.11Z"/>
                <path class="cls-89" d="m104.02,82.62c0,1.99-1.61,3.59-3.59,3.59s-3.59-1.6-3.59-3.59,1.6-3.59,3.59-3.59,3.59,1.6,3.59,3.59Z"/>
                <path class="cls-53" d="m103.75,82.62c0,1.83-1.49,3.32-3.32,3.32s-3.33-1.49-3.33-3.32,1.49-3.32,3.33-3.32,3.32,1.49,3.32,3.32Z"/>
                <path class="cls-64" d="m101.62,82.6c0,.63-.5,1.13-1.13,1.13s-1.13-.5-1.13-1.13.5-1.13,1.13-1.13,1.13.5,1.13,1.13Z"/>
                <path class="cls-34" d="m101.13,82.6c0,.35-.29.64-.64.64s-.64-.29-.64-.64.29-.64.64-.64.64.29.64.64Z"/>
                <g class="cls-38">
                  <path class="cls-88" d="m96.41,82.32c0,.05,0,.1,0,.15,0,2.23,1.8,4.03,4.03,4.03s4.03-1.8,4.03-4.03c0-.06,0-.1,0-.16-3.38,1.05-6.19.62-8.05,0Z"/>
                </g>
              </g>
              <g>
                <g>
                  <g>
                    <path class="cls-93" d="m100.49,79.8c-.1,0-.18-.08-.18-.18s.08-.18.18-.18.18.08.18.18-.08.18-.18.18Z"/>
                    <path class="cls-93" d="m100.49,85.68c-.1,0-.18-.08-.18-.18s.08-.18.18-.18.18.08.18.18-.08.18-.18.18Z"/>
                  </g>
                  <g>
                    <path class="cls-93" d="m103.24,82.56c0-.1.08-.18.18-.18s.18.08.18.18-.08.18-.18.18-.18-.08-.18-.18Z"/>
                    <path class="cls-93" d="m97.37,82.56c0-.1.08-.18.18-.18s.18.08.18.18-.08.18-.18.18-.18-.08-.18-.18Z"/>
                  </g>
                </g>
                <g>
                  <g>
                    <path class="cls-93" d="m102.44,80.61c-.07-.07-.07-.18,0-.26.07-.07.19-.07.25,0,.07.07.07.19,0,.26-.07.07-.18.07-.25,0Z"/>
                    <path class="cls-93" d="m98.28,84.76c-.07-.07-.07-.18,0-.26.07-.07.18-.07.25,0,.07.07.07.19,0,.26-.07.07-.19.07-.25,0Z"/>
                  </g>
                  <g>
                    <path class="cls-93" d="m102.44,84.51c.07-.07.19-.07.25,0,.07.07.07.19,0,.26-.07.07-.18.07-.25,0-.07-.07-.07-.18,0-.26Z"/>
                    <path class="cls-93" d="m98.28,80.35c.07-.07.18-.07.25,0,.07.07.07.19,0,.26-.07.07-.19.07-.25,0-.07-.07-.07-.18,0-.26Z"/>
                  </g>
                </g>
              </g>
            </g>
            <g>
              <g>
                <path class="cls-51" d="m88.3,82.63c0,3.55-2.88,6.44-6.43,6.44s-6.43-2.89-6.43-6.44,2.88-6.43,6.43-6.43,6.43,2.88,6.43,6.43Z"/>
                <g class="cls-13">
                  <path class="cls-14" d="m81.91,76.94c3.2,0,5.83,2.4,6.2,5.5-.06-3.39-2.83-6.12-6.24-6.12s-6.24,2.79-6.24,6.24c0,.24.01.49.04.73,0-.04,0-.07,0-.11,0-3.45,2.79-6.24,6.24-6.24Z"/>
                </g>
                <g class="cls-46">
                  <path class="cls-2" d="m81.91,88.29c3.2,0,5.83-2.4,6.2-5.5-.06,3.39-2.83,6.13-6.24,6.13s-6.24-2.79-6.24-6.23c0-.25.01-.49.04-.73,0,.03,0,.08,0,.1,0,3.45,2.79,6.24,6.24,6.24Z"/>
                </g>
                <path class="cls-27" d="m81.87,77.79c-2.68,0-4.85,2.18-4.85,4.86s2.17,4.85,4.85,4.85,4.86-2.17,4.86-4.85-2.18-4.86-4.86-4.86Z"/>
                <path class="cls-16" d="m85.93,82.62c0,2.27-1.84,4.11-4.11,4.11s-4.11-1.84-4.11-4.11,1.84-4.11,4.11-4.11,4.11,1.84,4.11,4.11Z"/>
                <path class="cls-89" d="m85.4,82.62c0,1.99-1.6,3.59-3.59,3.59s-3.59-1.6-3.59-3.59,1.61-3.59,3.59-3.59,3.59,1.6,3.59,3.59Z"/>
                <path class="cls-53" d="m85.14,82.62c0,1.83-1.49,3.32-3.32,3.32s-3.32-1.49-3.32-3.32,1.49-3.32,3.32-3.32,3.32,1.49,3.32,3.32Z"/>
                <path class="cls-64" d="m83,82.6c0,.63-.51,1.13-1.13,1.13s-1.13-.5-1.13-1.13.52-1.13,1.13-1.13,1.13.5,1.13,1.13Z"/>
                <path class="cls-34" d="m82.51,82.6c0,.35-.29.64-.64.64s-.64-.29-.64-.64.28-.64.64-.64.64.29.64.64Z"/>
                <g class="cls-38">
                  <path class="cls-88" d="m77.79,82.32v.15c0,2.23,1.8,4.03,4.03,4.03s4.03-1.8,4.03-4.03c0-.06,0-.1,0-.16-3.38,1.05-6.19.62-8.05,0Z"/>
                </g>
              </g>
              <g>
                <g>
                  <g>
                    <path class="cls-93" d="m81.87,79.8c-.1,0-.18-.08-.18-.18s.08-.18.18-.18.18.08.18.18-.08.18-.18.18Z"/>
                    <path class="cls-93" d="m81.87,85.68c-.1,0-.18-.08-.18-.18s.08-.18.18-.18.18.08.18.18-.08.18-.18.18Z"/>
                  </g>
                  <g>
                    <path class="cls-93" d="m84.63,82.56c0-.1.08-.18.18-.18s.18.08.18.18-.08.18-.18.18-.18-.08-.18-.18Z"/>
                    <path class="cls-93" d="m78.75,82.56c0-.1.08-.18.18-.18s.18.08.18.18-.08.18-.18.18-.18-.08-.18-.18Z"/>
                  </g>
                </g>
                <g>
                  <g>
                    <path class="cls-93" d="m83.82,80.61c-.07-.07-.07-.18,0-.26.07-.07.19-.07.26,0,.07.07.07.19,0,.26-.07.07-.19.07-.26,0Z"/>
                    <path class="cls-93" d="m79.66,84.76c-.07-.07-.07-.18,0-.26.07-.07.19-.07.26,0,.07.07.07.19,0,.26-.07.07-.18.07-.26,0Z"/>
                  </g>
                  <g>
                    <path class="cls-93" d="m83.82,84.51c.07-.07.19-.07.26,0,.07.07.07.19,0,.26-.07.07-.19.07-.26,0-.07-.07-.07-.18,0-.26Z"/>
                    <path class="cls-93" d="m79.66,80.35c.07-.07.19-.07.26,0,.07.07.07.19,0,.26-.07.07-.18.07-.26,0-.07-.07-.07-.18,0-.26Z"/>
                  </g>
                </g>
              </g>
            </g>
            <polygon class="cls-55" points="75 78.39 77.79 75.18 106.28 75.18 109.65 81.05 108.2 81.05 105.34 76.09 78.49 76.09 75.92 79.03 75 78.39"/>
            <polygon class="cls-36" points="75 78.39 77.79 75.18 106.28 75.18 109.65 81.05 108.95 81.05 105.87 75.72 78.22 75.63 75.42 78.53 75 78.39"/>
            <g>
              <g>
                <path class="cls-51" d="m54.33,82.63c0,3.55-2.88,6.44-6.43,6.44s-6.43-2.89-6.43-6.44,2.88-6.43,6.43-6.43,6.43,2.88,6.43,6.43Z"/>
                <g class="cls-13">
                  <path class="cls-1" d="m47.94,76.94c3.2,0,5.83,2.4,6.19,5.5-.06-3.39-2.83-6.12-6.23-6.12s-6.23,2.79-6.23,6.24c0,.24.01.49.04.73,0-.04,0-.07,0-.11,0-3.45,2.79-6.24,6.23-6.24Z"/>
                </g>
                <g class="cls-46">
                  <path class="cls-2" d="m47.94,88.29c3.2,0,5.83-2.4,6.19-5.5-.06,3.39-2.83,6.13-6.23,6.13s-6.23-2.79-6.23-6.23c0-.25.01-.49.04-.73,0,.03,0,.08,0,.1,0,3.45,2.79,6.24,6.23,6.24Z"/>
                </g>
                <path class="cls-27" d="m47.9,77.79c-2.68,0-4.85,2.18-4.85,4.86s2.17,4.85,4.85,4.85,4.86-2.17,4.86-4.85-2.18-4.86-4.86-4.86Z"/>
                <path class="cls-16" d="m51.96,82.62c0,2.27-1.84,4.11-4.11,4.11s-4.11-1.84-4.11-4.11,1.84-4.11,4.11-4.11,4.11,1.84,4.11,4.11Z"/>
                <path class="cls-89" d="m51.43,82.62c0,1.99-1.6,3.59-3.59,3.59s-3.59-1.6-3.59-3.59,1.6-3.59,3.59-3.59,3.59,1.6,3.59,3.59Z"/>
                <path class="cls-53" d="m51.17,82.62c0,1.83-1.49,3.32-3.32,3.32s-3.32-1.49-3.32-3.32,1.49-3.32,3.32-3.32,3.32,1.49,3.32,3.32Z"/>
                <path class="cls-64" d="m49.03,82.6c0,.63-.51,1.13-1.13,1.13s-1.13-.5-1.13-1.13.51-1.13,1.13-1.13,1.13.5,1.13,1.13Z"/>
                <path class="cls-34" d="m48.54,82.6c0,.35-.28.64-.64.64s-.64-.29-.64-.64.29-.64.64-.64.64.29.64.64Z"/>
                <g class="cls-38">
                  <path class="cls-88" d="m43.82,82.32v.15c0,2.23,1.8,4.03,4.03,4.03s4.03-1.8,4.03-4.03v-.16c-3.38,1.05-6.19.62-8.05,0Z"/>
                </g>
              </g>
              <g>
                <g>
                  <g>
                    <path class="cls-93" d="m47.9,79.8c-.1,0-.18-.08-.18-.18s.08-.18.18-.18.18.08.18.18-.08.18-.18.18Z"/>
                    <path class="cls-93" d="m47.9,85.68c-.1,0-.18-.08-.18-.18s.08-.18.18-.18.18.08.18.18-.08.18-.18.18Z"/>
                  </g>
                  <g>
                    <path class="cls-93" d="m50.66,82.56c0-.1.08-.18.18-.18s.18.08.18.18-.08.18-.18.18-.18-.08-.18-.18Z"/>
                    <path class="cls-93" d="m44.78,82.56c0-.1.08-.18.18-.18s.18.08.18.18-.08.18-.18.18-.18-.08-.18-.18Z"/>
                  </g>
                </g>
                <g>
                  <g>
                    <path class="cls-93" d="m49.85,80.61c-.07-.07-.07-.18,0-.26.07-.07.19-.07.26,0,.07.07.07.19,0,.26-.07.07-.18.07-.26,0Z"/>
                    <path class="cls-93" d="m45.7,84.76c-.07-.07-.07-.18,0-.26.07-.07.19-.07.25,0,.07.07.07.19,0,.26-.07.07-.18.07-.25,0Z"/>
                  </g>
                  <g>
                    <path class="cls-93" d="m49.85,84.51c.07-.07.19-.07.26,0,.07.07.07.19,0,.26-.07.07-.18.07-.26,0-.07-.07-.07-.18,0-.26Z"/>
                    <path class="cls-93" d="m45.7,80.35c.07-.07.19-.07.25,0,.07.07.07.19,0,.26-.07.07-.18.07-.25,0-.07-.07-.07-.18,0-.26Z"/>
                  </g>
                </g>
              </g>
            </g>
            <g>
              <g>
                <path class="cls-80" d="m38.71,79.87h-1.06v-32.54c0-1.14.34-2.03,1.01-2.65.98-.91,2.33-.88,2.53-.87h2.74v1.05h-2.79s-1.06-.06-1.76.59c-.44.42-.66,1.04-.66,1.87v32.54Z"/>
                <path class="cls-4" d="m43.34,44.02h-2.2s-2.76.02-3.28,2.61v3.81l.3-3.7s.25-2.04,3.01-2.49l2.17-.23Z"/>
              </g>
              <g>
                <g>
                  <path class="cls-51" d="m40.35,82.56c0,3.55-2.88,6.44-6.43,6.44s-6.44-2.88-6.44-6.44,2.88-6.43,6.44-6.43,6.43,2.88,6.43,6.43Z"/>
                  <g class="cls-13">
                    <path class="cls-5" d="m33.96,76.86c3.2,0,5.83,2.4,6.19,5.5-.06-3.4-2.83-6.13-6.23-6.13s-6.24,2.79-6.24,6.24c0,.24.02.49.04.73,0-.04,0-.07,0-.11,0-3.44,2.79-6.24,6.24-6.24Z"/>
                  </g>
                  <g class="cls-46">
                    <path class="cls-2" d="m33.96,88.22c3.2,0,5.83-2.4,6.19-5.5-.06,3.39-2.83,6.13-6.23,6.13s-6.24-2.79-6.24-6.23c0-.25.02-.49.04-.74,0,.04,0,.08,0,.11,0,3.44,2.79,6.23,6.24,6.23Z"/>
                  </g>
                  <path class="cls-27" d="m33.93,77.71c-2.68,0-4.85,2.17-4.85,4.86s2.17,4.85,4.85,4.85,4.85-2.17,4.85-4.85-2.17-4.86-4.85-4.86Z"/>
                  <path class="cls-16" d="m37.98,82.54c0,2.27-1.84,4.11-4.11,4.11s-4.12-1.84-4.12-4.11,1.84-4.11,4.12-4.11,4.11,1.84,4.11,4.11Z"/>
                  <path class="cls-89" d="m37.46,82.54c0,1.99-1.61,3.59-3.59,3.59s-3.59-1.61-3.59-3.59,1.61-3.59,3.59-3.59,3.59,1.61,3.59,3.59Z"/>
                  <path class="cls-53" d="m37.19,82.54c0,1.83-1.49,3.32-3.32,3.32s-3.33-1.49-3.33-3.32,1.49-3.32,3.33-3.32,3.32,1.49,3.32,3.32Z"/>
                  <path class="cls-64" d="m35.06,82.53c0,.63-.5,1.13-1.13,1.13s-1.13-.5-1.13-1.13.51-1.13,1.13-1.13,1.13.5,1.13,1.13Z"/>
                  <path class="cls-34" d="m34.56,82.53c0,.35-.29.64-.64.64s-.64-.29-.64-.64.29-.64.64-.64.64.28.64.64Z"/>
                  <g class="cls-38">
                    <path class="cls-88" d="m29.84,82.24c0,.05,0,.1,0,.15,0,2.23,1.81,4.03,4.03,4.03s4.03-1.81,4.03-4.03c0-.05,0-.1,0-.15-3.38,1.06-6.19.62-8.05,0Z"/>
                  </g>
                </g>
                <g>
                  <g>
                    <g>
                      <path class="cls-93" d="m33.93,79.73c-.1,0-.18-.08-.18-.18s.08-.18.18-.18c.1,0,.18.08.18.18s-.08.18-.18.18Z"/>
                      <path class="cls-93" d="m33.93,85.61c-.1,0-.18-.08-.18-.18s.08-.18.18-.18c.1,0,.18.08.18.18s-.08.18-.18.18Z"/>
                    </g>
                    <g>
                      <path class="cls-93" d="m36.68,82.48c0-.1.08-.18.18-.18s.18.08.18.18-.08.18-.18.18c-.1,0-.18-.08-.18-.18Z"/>
                      <path class="cls-93" d="m30.8,82.48c0-.1.08-.18.18-.18s.18.08.18.18-.08.18-.18.18-.18-.08-.18-.18Z"/>
                    </g>
                  </g>
                  <g>
                    <g>
                      <path class="cls-93" d="m35.88,80.54c-.08-.07-.08-.19,0-.26.07-.07.18-.07.26,0,.07.07.07.19,0,.26-.07.07-.19.07-.26,0Z"/>
                      <path class="cls-93" d="m31.72,84.69c-.07-.07-.07-.19,0-.26.07-.07.19-.07.26,0,.07.07.07.19,0,.26-.07.07-.18.07-.26,0Z"/>
                    </g>
                    <g>
                      <path class="cls-93" d="m35.88,84.43c.07-.07.18-.07.26,0,.07.07.07.19,0,.26-.07.07-.19.07-.26,0-.08-.07-.08-.19,0-.26Z"/>
                      <path class="cls-93" d="m31.72,80.28c.07-.07.19-.07.26,0,.07.07.07.19,0,.26-.07.07-.18.07-.26,0-.07-.07-.07-.19,0-.26Z"/>
                    </g>
                  </g>
                </g>
              </g>
              <g>
                <polygon class="cls-48" points="20.24 70.99 22.82 73.76 19.88 73.76 20.24 70.99"/>
                <polygon class="cls-74" points="23.32 61.37 22.97 63.06 23.14 63.32 23.53 61.65 23.32 61.37"/>
                <polygon class="cls-74" points="25.41 64.15 23.7 63.94 23.51 63.69 25.22 63.86 25.41 64.15"/>
                <polygon class="cls-50" points="19.71 73.18 34.45 73.18 34.45 75.33 20.87 75.33 19.71 73.18"/>
                <polygon class="cls-26" points="19.71 74.23 34.45 74.23 34.45 75.33 20.87 75.33 19.71 74.23"/>
                <polygon class="cls-68" points="21.09 64.45 23.91 62.36 24.55 63.16 22.07 65.69 21.09 64.45"/>
                <path class="cls-35" d="m21.69,65.21l.38.48,2.48-2.53-.35-.44c-.49.48-2.16,2.14-2.5,2.5Z"/>
                <path class="cls-44" d="m24.34,63.37l.21-.21-.64-.8-.17.13c.19.3.39.59.6.89Z"/>
                <path class="cls-44" d="m22.28,63.58l-1.18.88.97,1.23,1.06-1.08c-.29-.34-.57-.69-.85-1.04Z"/>
                <polygon class="cls-48" points="20.79 63.24 21.45 62.88 23.32 65.26 22.88 66.03 20.79 63.24"/>
                <path class="cls-48" d="m25.73,63.68c.24.32.3.69.12.82h0c-.17.13-.5-.03-.75-.35l-1.92-2.58c-.24-.32-.29-.69-.13-.82h0c.17-.13.51.03.74.35l1.92,2.58Z"/>
                <path class="cls-67" d="m18.55,64.73l.43-1.97,1.89.13,2.19,2.83s.18.16,0,.62c-.19.45-2.93,7.73-2.93,7.73l-2.77-1.5,1.2-7.84Z"/>
                <path class="cls-20" d="m18.55,64.73l.43-1.97,1.27.08-1.9,8.53s2.3,1.32,2.23,1.51c-.17.46-.45,1.19-.45,1.19l-2.77-1.5,1.2-7.84Z"/>
                <path class="cls-69" d="m36.1,68.27s-6.32.48-8.99.92c0,0-.88.16-1.12,1.36-.24,1.2-.6,5.24-.6,5.24h7.48l3.23-7.52Z"/>
                <path class="cls-58" d="m34.55,71.87l1.55-3.6s-6.32.48-8.99.92c0,0-.88.16-1.12,1.36-.06.3-.13.78-.2,1.32h8.76Z"/>
                <path class="cls-26" d="m33.45,68.92s-3.66.27-5.99.65c0,0-.77.14-.98,1.19-.21,1.04-.46,3.93-.46,3.93h4.98l.53-4.06,1.86-1.32.06-.39Z"/>
                <path class="cls-26" d="m27.56,69.8c2.06-.34,5.15-.59,5.85-.64l.04-.25s-3.66.27-5.99.65c0,0-.77.14-.98,1.19-.21,1.04-.46,3.93-.46,3.93h.13c.07-.71.27-2.83.44-3.7.21-1.04.97-1.18.97-1.18Z"/>
                <polygon class="cls-17" points="22.21 63.7 23.79 62.5 23.86 62.58 22.38 63.92 22.21 63.7"/>
                <g>
                  <path class="cls-54" d="m27.51,67.5s-2.04.14-2.12.91c-.08.77.7.89,1.53.85l6.38-.75s.42-.05.58-.5c.16-.45.93-4.62,1.15-6.69,0,0,.05-1.17-.67-1.2-.72-.03-1.41.43-1.68,1.25-.26.83-.77,5.15.05,6.11,0,0-.44-.34-2.1-.24-1.2.07-3.12.26-3.12.26Z"/>
                  <path class="cls-48" d="m34.36,60.12c-.3-.01-.59.06-.86.21.03,0,.05,0,.06,0,.35-.01.82.21.81.62,0,.29-.12.55-.21.83-.12.38-.24.76-.3,1.16-.13.83-.17,1.67-.19,2.51,0,.39.02.89-.31,1.17-.25.2-.68.05-.87-.17-.07-.09-.12-.18-.17-.28.06.59.19,1.07.4,1.32,0,0-.25-.19-1.06-.24-.17.32-.25.69-.62.86-.46.21-1.09.22-1.58.3-.74.12-1.49.22-2.23.31-.59.07-1.18.11-1.78.15.22.37.82.43,1.45.39l6.38-.75s.42-.05.58-.5c.16-.45.93-4.62,1.15-6.69,0,0,.05-1.17-.67-1.2Z"/>
                  <path class="cls-25" d="m34.45,68.41s-.81-1.46-1.99-1.49c-1.17-.03-.67,1.77-.67,1.77l2.66-.28Z"/>
                  <path class="cls-3" d="m33.67,60.41s-.61.05-.94,1.37c-.33,1.32-.4,4.11-.22,4.46,0,0,.1-4.48,1.16-5.83Z"/>
                  <path d="m33.11,67.87c0,.19-.16.35-.35.35s-.35-.16-.35-.35.16-.35.35-.35.35.16.35.35Z"/>
                  <path class="cls-25" d="m32.95,67.87c0,.1-.08.19-.19.19s-.19-.09-.19-.19.09-.19.19-.19.19.09.19.19Z"/>
                  <path class="cls-3" d="m25.47,68.58s-.12-.75,1.94-1.01c0,0,3.37-.33,3.71-.28,0,0-3.82.34-4.55.57-.73.23-1.1.71-1.1.71Z"/>
                </g>
              </g>
              <polygon class="cls-80" points="38.56 74.98 27.51 75 25.62 82.74 38.56 82.74 38.56 74.98"/>
              <g>
                <path class="cls-56" d="m22.67,51.18s-1.66.11-2.03,1.58l-3.19,14.22s-.49,1.06-1.42,1.5c0,0-.73.51-.73,1.75v12.14h10.33l1.99-7.72h10.56v-23.47h-15.49Zm6.61,14.99h-9.96c-.11-.05-.21-.1-.32-.17-.44-.28-.6-.76-.65-1.25.83-2.71,2.87-11.01,2.87-11.01,0,0,.44-1.54,2.23-1.61.87-.04,3.59-.04,5.84-.03v14.07Zm7.28,0h-6.28v-14.07c1.95,0,3.56.02,3.56.02,0,0,2.57-.07,2.71,2.48v11.56Z"/>
                <path class="cls-71" d="m23.44,52.12c-1.79.07-2.23,1.61-2.23,1.61,0,0-2.04,8.3-2.87,11.01.05.49.21.98.65,1.25.11.06.21.12.32.17h9.96v-14.07c-2.25,0-4.97,0-5.84.03Z"/>
                <path class="cls-19" d="m20.02,58.52c-.18.72-.38,1.47-.57,2.2,2.14-1.29,8.69-5.21,9.83-5.89v-1.84c-3.1,1.82-6.14,3.75-9.26,5.54Z"/>
                <path class="cls-19" d="m29.28,64.58v-1.76c-1.96,1.11-3.92,2.23-5.87,3.35h3.45c.81-.53,1.61-1.06,2.42-1.59Z"/>
                <path class="cls-71" d="m33.85,52.12s-1.61-.02-3.56-.02v14.07h6.28v-11.56c-.14-2.55-2.71-2.48-2.71-2.48Z"/>
                <path class="cls-19" d="m36.56,60.13v-1.44c-2.09,1.19-4.19,2.37-6.28,3.56v1.67c1.23-.8,5.43-3.3,6.28-3.79Z"/>
                <path class="cls-19" d="m30.28,52.4v1.82c1.17-.7,2.34-1.4,3.51-2.1-.26,0-1.47-.01-2.99-.02-.17.1-.35.2-.51.3Z"/>
              </g>
              <g>
                <path class="cls-22" d="m26.58,66.92h1.89c.32,0,.43.08.43.26s0,.9-1.48.88c-1.46-.01-1.57-1.15-.84-1.15Z"/>
                <g class="cls-46">
                  <path class="cls-72" d="m28.65,67.75c-.22-.13-.57-.27-1.07-.27-.61,0-.92.22-1.07.37.2.12.5.2.89.21.67,0,1.05-.14,1.24-.31Z"/>
                </g>
              </g>
              <polygon class="cls-81" points="38.56 74 26.72 74 23.21 84.74 25.58 84.74 28.02 75.77 38.56 75.77 38.56 74"/>
              <polygon class="cls-79" points="38.56 75.46 27.81 75.47 25.19 84.74 25.58 84.74 28.02 75.77 38.56 75.77 38.56 75.46"/>
              <path class="cls-66" d="m21.49,79.63h-5.54s-1.1-.2-1.14.68v3.6s-.04,1.29.92,1.36h9.63s.61,0,.75-.81l.61-3.67s0-1.13-.91-1.18l-4.32.02Z"/>
              <path class="cls-81" d="m14.81,81.86v2.04s-.04,1.29.92,1.36h9.63s.61,0,.75-.81l.43-2.59h-11.74Z"/>
              <g>
                <g>
                  <path class="cls-51" d="m40.48,82.63c0,3.55-2.88,6.44-6.43,6.44s-6.43-2.89-6.43-6.44,2.87-6.43,6.43-6.43,6.43,2.88,6.43,6.43Z"/>
                  <g class="cls-13">
                    <path class="cls-9" d="m34.09,76.94c3.2,0,5.83,2.4,6.19,5.5-.06-3.39-2.83-6.12-6.23-6.12s-6.24,2.79-6.24,6.24c0,.24.01.49.04.73,0-.04,0-.07,0-.11,0-3.45,2.8-6.24,6.24-6.24Z"/>
                  </g>
                  <g class="cls-46">
                    <path class="cls-2" d="m34.09,88.29c3.2,0,5.83-2.4,6.19-5.5-.06,3.39-2.83,6.13-6.23,6.13s-6.24-2.79-6.24-6.23c0-.25.01-.49.04-.73,0,.03,0,.08,0,.1,0,3.45,2.8,6.24,6.24,6.24Z"/>
                  </g>
                  <path class="cls-27" d="m34.05,77.79c-2.68,0-4.85,2.18-4.85,4.86s2.17,4.85,4.85,4.85,4.86-2.17,4.86-4.85-2.18-4.86-4.86-4.86Z"/>
                  <path class="cls-16" d="m38.11,82.62c0,2.27-1.84,4.11-4.11,4.11s-4.11-1.84-4.11-4.11,1.84-4.11,4.11-4.11,4.11,1.84,4.11,4.11Z"/>
                  <path class="cls-89" d="m37.58,82.62c0,1.99-1.6,3.59-3.59,3.59s-3.59-1.6-3.59-3.59,1.61-3.59,3.59-3.59,3.59,1.6,3.59,3.59Z"/>
                  <path class="cls-53" d="m37.32,82.62c0,1.83-1.49,3.32-3.32,3.32s-3.32-1.49-3.32-3.32,1.48-3.32,3.32-3.32,3.32,1.49,3.32,3.32Z"/>
                  <path class="cls-64" d="m35.18,82.6c0,.63-.51,1.13-1.13,1.13s-1.13-.5-1.13-1.13.51-1.13,1.13-1.13,1.13.5,1.13,1.13Z"/>
                  <path class="cls-34" d="m34.69,82.6c0,.35-.29.64-.64.64s-.64-.29-.64-.64.28-.64.64-.64.64.29.64.64Z"/>
                  <g class="cls-38">
                    <path class="cls-88" d="m29.97,82.32v.15c0,2.23,1.8,4.03,4.03,4.03s4.03-1.8,4.03-4.03c0-.06,0-.1,0-.16-3.38,1.05-6.19.62-8.05,0Z"/>
                  </g>
                </g>
                <g>
                  <g>
                    <g>
                      <path class="cls-93" d="m34.05,79.8c-.1,0-.18-.08-.18-.18s.08-.18.18-.18.18.08.18.18-.08.18-.18.18Z"/>
                      <path class="cls-93" d="m34.05,85.68c-.1,0-.18-.08-.18-.18s.08-.18.18-.18.18.08.18.18-.08.18-.18.18Z"/>
                    </g>
                    <g>
                      <path class="cls-93" d="m36.81,82.56c0-.1.08-.18.18-.18s.19.08.19.18-.09.18-.19.18-.18-.08-.18-.18Z"/>
                      <path class="cls-93" d="m30.93,82.56c0-.1.09-.18.18-.18s.18.08.18.18-.08.18-.18.18-.18-.08-.18-.18Z"/>
                    </g>
                  </g>
                  <g>
                    <g>
                      <path class="cls-93" d="m36,80.61c-.07-.07-.07-.18,0-.26.07-.07.19-.07.26,0,.07.07.07.19,0,.26-.07.07-.19.07-.26,0Z"/>
                      <path class="cls-93" d="m31.84,84.76c-.07-.07-.07-.18,0-.26.08-.07.19-.07.26,0,.07.07.07.19,0,.26-.07.07-.18.07-.26,0Z"/>
                    </g>
                    <g>
                      <path class="cls-93" d="m36,84.51c.07-.07.19-.07.26,0,.07.07.07.19,0,.26-.07.07-.19.07-.26,0-.07-.07-.07-.18,0-.26Z"/>
                      <path class="cls-93" d="m31.84,80.35c.08-.07.19-.07.26,0,.07.07.07.19,0,.26-.07.07-.18.07-.26,0-.07-.07-.07-.18,0-.26Z"/>
                    </g>
                  </g>
                </g>
              </g>
              <g>
                <path class="cls-80" d="m27.16,52.62h1.62v13.02h-9.32c-.06-.03-.11-.06-.15-.09-.14-.08-.32-.26-.4-.76.83-2.76,2.72-10.43,2.84-10.92.03-.09.4-1.17,1.74-1.22.52-.02,1.79-.03,3.67-.03h0Zm0-.53c-1.6,0-3.09,0-3.69.03-1.79.08-2.23,1.62-2.23,1.62,0,0-2.04,8.3-2.87,11.01.05.49.21.98.65,1.25.1.06.21.12.32.16h9.96v-14.07c-.69,0-1.43,0-2.15,0h0Z"/>
                <path class="cls-80" d="m30.84,52.63c1.69.01,3.02.02,3.03.02h.03c.06,0,.62,0,1.15.28.63.32.97.88,1.01,1.69v11.02h-5.23v-13.01h0Zm-.53-.53v14.06h6.28v-11.56c-.14-2.42-2.44-2.49-2.7-2.49h-.02s-1.61-.01-3.57-.02h0Z"/>
              </g>
              <g>
                <path class="cls-93" d="m17.49,76.32v-2.82c0-1.11-.84-2.02-1.91-2.14v7.1c1.08-.12,1.91-1.03,1.91-2.14Z"/>
                <path class="cls-77" d="m17.22,76.12v-2.43c0-.95-.72-1.74-1.65-1.83v6.1c.92-.1,1.65-.88,1.65-1.84Z"/>
                <path class="cls-57" d="m15.57,76.2v1.76c.9-.1,1.6-.84,1.64-1.76h-1.64Z"/>
                <path class="cls-49" d="m15.76,72.35v5.31s.47-2.15,0-5.31Z"/>
              </g>
              <path class="cls-7" d="m15.09,84.11v-3.43s-.03-.88,1.08-.87h7.27l-7.27.32s-.61.06-.73.55l-.35,3.43Z"/>
              <polygon class="cls-47" points="38.18 71.17 29.94 71.17 29.94 51.18 29.59 51.18 29.59 74 29.94 74 29.94 71.52 38.18 71.52 38.18 71.17"/>
              <polygon class="cls-7" points="25.38 79.3 27.08 74.26 39.35 74.16 27.21 74.58 25.38 79.3"/>
              <g>
                <path class="cls-23" d="m20.77,54.19c-.22,0-.41-.27-.41-.61s.18-.61.41-.61.4.27.4.61-.18.61-.4.61Z"/>
                <g>
                  <path class="cls-85" d="m17.83,62.72c0-.37.1-4.43.1-5.1,0-.87.12-1.35.63-1.36.61-.02.85.17.85,1.67v4.56c0,.59-.19,1.17-.75,1.17s-.83-.08-.83-.94Z"/>
                  <path class="cls-21" d="m18.66,63.66c-.27,0-.48-.02-.61-.14.11.03.25.03.41.03.56,0,.75-.57.75-1.15v-4.46c0-1.46-.23-1.65-.85-1.63-.02,0-.04,0-.05,0,.07-.04.15-.06.26-.06.61-.02.85.17.85,1.67v4.56c0,.59-.19,1.17-.75,1.17Z"/>
                </g>
                <g>
                  <path class="cls-28" d="m21.03,53.59c0-.28-.15-.51-.32-.51s-.32.23-.32.51.14.51.32.51.32-.23.32-.51Z"/>
                  <path class="cls-85" d="m21.01,53.59c0-.26-.13-.47-.3-.47s-.3.21-.3.47.13.47.3.47.3-.21.3-.47Z"/>
                </g>
                <path class="cls-23" d="m20.66,53.92c-.11,0-.2-.13-.2-.3s.09-.3.2-.3.2.13.2.3-.09.3-.2.3Z"/>
                <path class="cls-23" d="m18.32,59.71c-.11,0-.2-.13-.2-.3s.08-.3.2-.3.2.13.2.3-.09.3-.2.3Z"/>
                <path class="cls-89" d="m20.56,53.4h-2.2c-.44,0-.75.1-.96.31-.29.3-.29.72-.29,1.09v.13c0,.24,0,.65-.01,1.11,0,.66-.02,1.47-.02,2.16,0,1.12.75,1.42,1.15,1.43h0c.13,0,.24-.1.24-.23s-.1-.23-.23-.23c-.07,0-.69-.05-.69-.96,0-.69,0-1.5.02-2.15,0-.47.01-.88.01-1.12v-.13c0-.31,0-.6.15-.76.11-.12.33-.17.63-.17h2.2c.13,0,.23-.11.23-.24,0-.12-.1-.23-.23-.23Z"/>
                <path class="cls-53" d="m20.72,53.81s-.1.06-.16.06h-2.2c-.13,0-.25,0-.35.03-.12.03-.22.07-.28.14-.15.16-.15.45-.15.76v.13c0,.24,0,.65-.01,1.12-.01.65-.02,1.46-.02,2.15,0,.91.62.96.69.96.13,0,.23.11.23.23,0,.05-.02.11-.05.15h0c-.4,0-1.15-.31-1.15-1.42,0-.69.01-1.5.02-2.16,0-.47.01-.87.01-1.11,0-.05,0-.08,0-.12,0-.37-.01-.79.29-1.09.08-.08.17-.14.29-.19.14-.04.3-.05.49-.05h2.2c.13,0,.23.1.23.23,0,.07-.03.13-.07.18Z"/>
                <path class="cls-23" d="m20.72,53.81s-.1.06-.16.06h-2.2c-.13,0-.25,0-.35.03-.12.03-.22.07-.28.14-.15.16-.15.45-.15.76v.13c0,.24,0,.65-.01,1.12-.01.65-.02,1.46-.02,2.15s.37.89.57.94c-.17-.02-.64-.16-.64-.96,0-.69.01-1.5.02-2.16,0-.47.01-.88.01-1.12v-.13c0-.31,0-.6.15-.76.07-.06.16-.12.29-.14.1-.02.21-.04.34-.04h2.21c.16,0,.27-.09.23-.04Z"/>
                <path class="cls-23" d="m20.72,53.81s-.1.06-.16.06h-2.2c-.13,0-.25,0-.35.03.12-.06.29-.09.52-.09h2.18Z"/>
              </g>
              <path class="cls-49" d="m20.79,52.85s.56-1.5,2.17-1.5h13.63l-13.63.17s-1.12-.02-2.17,1.33Z"/>
            </g>
            <path class="cls-81" d="m40.78,80.23s-.1,0-.16-.03c-.23-.09-.34-.34-.25-.57.02-.05,2.19-5.43,7.35-5.29,5.03.13,6.38,2.45,7.53,5.26.09.22-.02.48-.24.57-.23.09-.48-.02-.57-.24-1.07-2.6-2.24-4.6-6.74-4.71-1.89-.05-3.57.72-4.96,2.29-1.06,1.2-1.55,2.43-1.56,2.44-.07.17-.23.28-.42.28Z"/>
            <path class="cls-56" d="m40.63,80.21c-.23-.09-.34-.34-.25-.57.02-.05,2.19-5.43,7.35-5.29,5.03.13,6.38,2.45,7.53,5.26.09.22-.02.48-.24.57-.23.09-.88-5.39-7.2-5.3-1.9.03-3.95.8-5.35,2.37-1.06,1.2-1.79,2.98-1.85,2.96Z"/>
            <g>
              <g>
                <polygon class="cls-53" points="106.1 44.36 109.55 44.36 109.55 52.47 105.62 52.47 106.1 44.36"/>
                <polygon class="cls-29" points="107.67 44.36 106.1 44.36 105.62 52.47 107.67 52.47 107.67 44.36"/>
                <g>
                  <path class="cls-84" d="m109.37,44.98c0,.15-.13.28-.28.28s-.28-.13-.28-.28.12-.29.28-.29.28.13.28.29Z"/>
                  <path class="cls-84" d="m109.37,47.23c0,.16-.13.28-.28.28s-.28-.12-.28-.28.12-.28.28-.28.28.13.28.28Z"/>
                  <path class="cls-84" d="m109.37,49.49c0,.16-.13.28-.28.28s-.28-.12-.28-.28.12-.28.28-.28.28.13.28.28Z"/>
                  <path class="cls-84" d="m109.37,51.75c0,.15-.13.28-.28.28s-.28-.13-.28-.28.12-.28.28-.28.28.13.28.28Z"/>
                </g>
              </g>
              <polygon class="cls-53" points="104.84 54.19 104.84 75.07 78.22 75.07 104.84 54.19"/>
              <path class="cls-63" d="m101.2,65.89c-.23-.82-2.15-.8-2.1-.85,1.93-2.12,3.77-3.93,5.74-5.81v-5.04l-26.61,20.88h23.36c-.02-.2-.27-8.81-.38-9.18Z"/>
              <path class="cls-37" d="m89.07,72.61c2.01-2.05,4.04-4.09,6.09-6.1,2.04-2,8.53-8.99,9.67-10.11v-2.2l-26.61,20.88h8.52c.77-.84,1.54-1.66,2.33-2.47Z"/>
              <polygon class="cls-53" points="98.87 44.19 98.87 42.03 106.23 42.03 106.23 44.99 98.87 44.19"/>
              <g>
                <path class="cls-56" d="m70.67,45.5l-11.67,4.77s-1.03.37-1.35,1.29c-.32.93-1.65,8.97,0,15.3,0,0,2.36,7.36,6.11,8h21.32l21.24-20.85s.77-.48.87-1.65v-7.17s-.26-1.72-1.65-2.07l-10.96-.95s-.84-.07-1.65,0c-.81.07-21.24,3.02-21.24,3.02,0,0-.71.18-1,.3Z"/>
                <path class="cls-39" d="m58.04,50.93c-.16.17-.3.38-.39.64-.32.93-1.65,8.97,0,15.3,0,0,2.36,7.36,6.11,8h1.04c-5.03-6.72-6.37-15.6-6.77-23.94Z"/>
                <path class="cls-8" d="m72.87,50.6l23.06-5.34,11.11-.57c-.03-.07-.06-.15-.09-.22h-11.39l-22.69,4.24-14.61,5.81c-.33.51-.87,1.62-1.36,2.66-.03.45-.04.91-.06,1.38.57-.59,1.26-1.33,1.63-1.9l14.39-6.06Z"/>
                <path class="cls-39" d="m77.87,65.19l-16.27,4.08-3.95-2.4s2.36,7.36,6.11,8h21.32l21.24-20.85s.77-.48.87-1.65v-3.67l-8.07,6.99-21.24,9.51Z"/>
                <path class="cls-45" d="m81.04,70.81l-16.92,3.09-4.05-2s2.15,2.97,3.69,2.97h21.32l21.24-20.85s.77-.48.87-1.65h0l-7.47,7.37-18.67,11.07Z"/>
                <path class="cls-47" d="m58.06,51.4s.28,11.6,4.57,19.89c0,0-5.16-8.06-4.57-19.89Z"/>
                <path class="cls-47" d="m99.86,61.23c-.17,0-.33-.13-.34-.31-1.58-14.56-6.13-18.56-6.18-18.59-.15-.13-.16-.35-.04-.5.13-.15.35-.17.49-.04.2.16,4.81,4.22,6.42,19.05.02.19-.12.37-.31.39h-.04Z"/>
                <path class="cls-45" d="m99.86,61.23c-.17,0-.33-.13-.34-.31-1.03-15.66-6.34-18.94-6.22-19.09.13-.15.35-.17.49-.04.2.16,4.81,4.22,6.42,19.05.02.19-.12.37-.31.39h-.04Z"/>
                <path class="cls-47" d="m72.06,45.26s4.3,9.77,9.17,26.03c0,0-6.73-16.56-9.17-26.03Z"/>
              </g>
              <rect class="cls-53" x="97.11" y="57.46" width="12.27" height="1.56"/>
              <rect class="cls-63" x="97.11" y="58.24" width="12.27" height=".78"/>
              <g>
                <path class="cls-45" d="m108.2,49.96s-12.74,4.17-17.31,6.07c-4.57,1.89-5.12,9.97-7.03,18.07l11.14.71s-.38-11.8,2.46-14.49c2.84-2.69,10.74-7.62,10.74-7.62v-2.74Z"/>
                <path class="cls-56" d="m107.59,49.96s-10.91,4.1-15.49,5.99c-4.57,1.89-6.24,10.75-8.15,18.85h10.44s-.38-11.8,2.46-14.49c2.84-2.69,10.75-7.62,10.75-7.62v-2.74Z"/>
                <path class="cls-8" d="m86.61,66.07l2.17-5.74s1.38-2.77,4.43-4.4c3.04-1.63,13.83-5.51,13.83-5.51v1.27s-12.58,4.83-13.75,6.87c-1.17,2.05-1.77,7.5-1.77,7.5h-4.92Z"/>
              </g>
              <g>
                <path class="cls-47" d="m108.28,41.7c-.21,0-.39.12-.39.26v1.71h-5.29v-1.71c0-.14-.17-.26-.39-.26s-.39.12-.39.26v31.06c0,.14.17.26.39.26s.39-.12.39-.26v-1.46h5.29v1.46c0,.14.17.26.39.26s.39-.12.39-.26v-31.06c0-.14-.17-.26-.39-.26Zm-5.68,17.61v-3.39h5.29v3.39h-5.29Zm5.29.52v3.39h-5.29v-3.39h5.29Zm-5.29-4.43v-3.39h5.29v3.39h-5.29Zm0-3.91v-3.39h5.29v3.39h-5.29Zm0,12.25h5.29v3.39h-5.29v-3.39Zm5.29-19.55v3.39h-5.29v-3.39h5.29Zm-5.29,26.86v-3.39h5.29v3.39h-5.29Z"/>
                <path class="cls-15" d="m108.28,41.81s-.07-.01-.14.04c-.07.05-.11.14-.12.25,0,.23,0,.57,0,.99,0,.86.02,2.08.03,3.55,0,2.93.02,6.84.03,10.75-.02,3.91-.03,7.82-.03,10.76-.02,2.93-.04,4.89-.04,4.89,0,0-.02-1.95-.04-4.89-.01-2.93-.02-6.84-.04-10.76.01-3.91.02-7.82.04-10.75.01-1.47.02-2.69.03-3.55,0-.43.01-.76.01-.99,0-.11.05-.2.12-.25.07-.05.14-.04.14-.04Z"/>
                <path class="cls-15" d="m102.19,41.81s-.07,0-.14.04c-.07.05-.11.14-.12.25,0,.23,0,.57,0,.99,0,.85.02,2.07.03,3.54,0,2.93.02,6.84.04,10.75-.01,3.91-.03,7.82-.04,10.76-.02,2.93-.04,4.89-.04,4.89,0,0-.02-1.95-.04-4.89,0-2.93-.02-6.84-.04-10.76.01-3.91.03-7.82.04-10.75.01-1.47.02-2.69.03-3.54,0-.43,0-.76.01-.99,0-.11.05-.2.12-.25.07-.05.14-.04.14-.04Z"/>
                <path class="cls-15" d="m102.86,43.79s.3-.02.74-.03c.22,0,.48-.02.75-.02.27,0,.57,0,.86,0,.3,0,.59,0,.86,0,.28,0,.53.02.76.02.44.02.74.04.74.04,0,0-.29.02-.74.04-.22,0-.48.02-.76.02-.27,0-.57,0-.86,0s-.59,0-.86,0c-.27,0-.53-.01-.75-.02-.44-.02-.74-.04-.74-.04Z"/>
                <path class="cls-15" d="m102.86,47.72s.3-.02.74-.03c.22,0,.48-.02.75-.02.27,0,.57,0,.86,0,.3,0,.59,0,.86,0,.28,0,.53.02.76.02.44.02.74.04.74.04,0,0-.29.02-.74.04-.22,0-.48.01-.76.02-.27,0-.57,0-.86,0s-.59,0-.86,0c-.27,0-.53-.01-.75-.02-.44-.02-.74-.04-.74-.04Z"/>
                <path class="cls-15" d="m102.86,51.66s.3-.02.74-.04c.22,0,.48-.02.75-.02.27,0,.57,0,.86,0,.3,0,.59,0,.86,0,.28,0,.53.01.76.02.44.01.74.04.74.04,0,0-.29.02-.74.04-.22,0-.48.01-.76.02-.27,0-.57,0-.86,0s-.59,0-.86,0c-.27,0-.53-.02-.75-.02-.44-.02-.74-.04-.74-.04Z"/>
                <path class="cls-15" d="m102.86,55.59s.3-.02.74-.04c.22,0,.48-.02.75-.02.27,0,.57,0,.86,0s.59,0,.86,0c.28,0,.53.02.76.02.44.01.74.04.74.04,0,0-.29.02-.74.04-.22,0-.48.02-.76.02-.27,0-.57,0-.86,0s-.59,0-.86-.01c-.27,0-.53-.01-.75-.02-.44-.01-.74-.04-.74-.04Z"/>
                <path class="cls-15" d="m102.86,59.48s.3-.02.74-.04c.22,0,.48-.01.75-.02.27,0,.57-.01.86-.01s.59,0,.86,0c.28,0,.53.01.76.02.44.02.74.04.74.04,0,0-.29.02-.74.04-.22,0-.48.02-.76.02-.27,0-.57,0-.86,0s-.59,0-.86,0c-.27,0-.53-.01-.75-.02-.44-.02-.74-.04-.74-.04Z"/>
                <path class="cls-15" d="m102.86,63.4s.3-.02.74-.04c.22,0,.48-.02.75-.02.27,0,.57,0,.86,0,.3,0,.59,0,.86,0,.28,0,.53.02.76.02.44.01.74.04.74.04,0,0-.29.02-.74.04-.22,0-.48.01-.76.02-.27,0-.57,0-.86,0s-.59,0-.86,0c-.27,0-.53-.02-.75-.02-.44-.02-.74-.04-.74-.04Z"/>
                <path class="cls-15" d="m102.86,67.35s.3-.02.74-.04c.22,0,.48-.01.75-.02.27,0,.57,0,.86,0s.59,0,.86,0c.28,0,.53.01.76.02.44.02.74.04.74.04,0,0-.29.02-.74.03-.22,0-.48.02-.76.02-.27,0-.57,0-.86,0-.29,0-.59,0-.86,0-.27,0-.53-.02-.75-.02-.44-.01-.74-.03-.74-.03Z"/>
                <path class="cls-15" d="m102.86,71.2s.3-.02.74-.04c.22,0,.48-.02.75-.02.27,0,.57,0,.86,0s.59,0,.86,0c.28,0,.53.02.76.02.44.02.74.04.74.04,0,0-.29.02-.74.04-.22,0-.48.01-.76.02-.27,0-.57,0-.86.01-.29,0-.59,0-.86-.01-.27,0-.53-.02-.75-.02-.44-.02-.74-.04-.74-.04Z"/>
              </g>
              <g>
                <path class="cls-42" d="m99.58,74.8s.03-.03.05-.05c0,0,0,0,.01-.02.02-.03.04-.05.06-.08,0,0,0,0,0,0,.01-.03.03-.06.05-.09,0,0,0-.02,0-.02.04-.08.07-.16.1-.25,0,0,0-.02.01-.03.01-.04.03-.09.05-.14,0,0,0,0,0,0,.01-.06.03-.12.05-.18h0c.02-.06.03-.12.04-.18,0,0,0,0,0-.01.03-.13.06-.27.08-.42h0c.03-.16.05-.31.07-.48h0c.08-.62.13-1.35.13-2.11,0-.69-.04-1.35-.11-1.92h0c-.16-1.35-.47-2.26-.83-2.26h-1.04l-.28-.94c-.09-.43-.42-1.15-1.11-1.15h-5.3c-.69,0-1.02.72-1.11,1.15l-.28.94h-1.24v-.09c0-.21-.17-.38-.38-.38s-.38.17-.38.38v.09h-1.48l-.28-.94c-.09-.43-.42-1.15-1.12-1.15h-5.3c-.69,0-1.02.72-1.11,1.15l-.28.94h-.93c-.36,0-.67.92-.83,2.26h0c-.07.58-.11,1.23-.11,1.92,0,.77.05,1.49.13,2.11t0,0c.02.17.04.32.07.46,0,0,0,0,0,.01.03.15.05.29.08.42,0,0,0,0,0,.01.01.06.03.12.05.18h0c.01.06.03.12.05.18h0c.02.05.03.11.05.15,0,0,0,.02,0,.03.03.09.07.17.11.25,0,0,0,.02.01.02.01.03.03.06.05.09,0,0,0,0,0,0,.02.03.04.06.06.08,0,0,0,0,.01.02.01.02.03.04.05.05,0,0,.01,0,.01.02.02.02.04.03.06.05,0,0,0,0,.01,0,.02.01.03.02.05.03,0,0,0,0,.01,0,.02,0,.04,0,.06,0,.08,0,.15-.04.22-.12v.12h4.19c.04.16.19.27.36.27s.32-.11.37-.27h5.39c.05.16.19.27.36.27s.32-.11.37-.27h5.49c.05.16.19.27.36.27s.32-.11.37-.27h4.18s.04,0,.06,0c0,0,.01,0,.02,0,.02,0,.03-.02.05-.03,0,0,0,0,0,0,.02-.01.04-.03.06-.05,0,0,0,0,.01-.02Zm-8.55-9.06v-.02s.17-.73.61-.73h5.3c.43,0,.59.73.59.73l.25.83h-2.57v-.09c0-.21-.17-.38-.38-.38s-.38.17-.38.38v.09h-3.67l.24-.8Zm-11.58,0v-.02s.17-.73.61-.73h5.3c.44,0,.59.73.59.73l.25.83h-3.32v-.09c0-.21-.17-.38-.38-.38s-.38.17-.38.38v.09h-2.91l.24-.8Z"/>
                <g>
                  <path class="cls-83" d="m86.65,67.68h-8.78l.62-2.09c.09-.43.42-1.15,1.11-1.15h5.3c.7,0,1.03.72,1.12,1.15l.63,2.09Zm-8.07-.53h7.36l-.43-1.44s-.16-.73-.59-.73h-5.3c-.44,0-.6.73-.61.73v.02s-.43,1.42-.43,1.42Z"/>
                  <path class="cls-83" d="m90.16,67.16h7.37l-.43-1.44s-.16-.73-.59-.73h-5.31c-.44,0-.6.73-.6.73v.02s-.43,1.42-.43,1.42Zm8.07.53h-8.78l.62-2.09c.09-.43.42-1.15,1.11-1.15h5.31c.69,0,1.03.72,1.11,1.15l.62,2.09Z"/>
                  <path class="cls-63" d="m98.93,66.54h-21.65c-.52,0-.94,1.87-.94,4.18s.42,4.18.94,4.18c.08,0,.15-.04.22-.12v.12h21.43c.52,0,.94-1.87.94-4.18s-.42-4.18-.94-4.18Z"/>
                  <g>
                    <path class="cls-10" d="m99.82,69.5c-.02-.24-.04-.48-.07-.7h-23.3c-.03.22-.05.46-.06.7h23.43Z"/>
                    <path class="cls-33" d="m76.44,72.58c.15,1.38.47,2.33.84,2.33.08,0,.15-.04.22-.12v.12h21.43c.37,0,.69-.95.84-2.33h-23.32Z"/>
                    <path class="cls-82" d="m88.55,74.8c0,.21-.17.38-.38.38h0c-.21,0-.38-.17-.38-.38v-8.35c0-.21.17-.38.38-.38h0c.21,0,.38.17.38.38v8.35Z"/>
                    <path class="cls-82" d="m82.43,74.8c0,.21-.17.38-.38.38h0c-.21,0-.38-.17-.38-.38v-8.35c0-.21.17-.38.38-.38h0c.21,0,.38.17.38.38v8.35Z"/>
                    <path class="cls-82" d="m94.77,74.8c0,.21-.18.38-.39.38h0c-.21,0-.38-.17-.38-.38v-8.35c0-.21.17-.38.38-.38h0c.21,0,.39.17.39.38v8.35Z"/>
                  </g>
                </g>
              </g>
              <g>
                <path class="cls-63" d="m104.46,60.93c0,.12-.1.22-.22.22s-.22-.09-.22-.22.09-.22.22-.22.22.1.22.22Z"/>
                <path class="cls-63" d="m104.46,62.8c0,.12-.1.22-.22.22s-.22-.1-.22-.22.09-.22.22-.22.22.1.22.22Z"/>
                <path class="cls-63" d="m104.46,64.69c0,.12-.1.22-.22.22s-.22-.1-.22-.22.09-.22.22-.22.22.1.22.22Z"/>
                <path class="cls-63" d="m104.46,66.56c0,.12-.1.22-.22.22s-.22-.1-.22-.22.09-.22.22-.22.22.1.22.22Z"/>
                <path class="cls-63" d="m104.46,68.44c0,.12-.1.22-.22.22s-.22-.1-.22-.22.09-.22.22-.22.22.1.22.22Z"/>
                <path class="cls-63" d="m104.46,70.32c0,.12-.1.22-.22.22s-.22-.1-.22-.22.09-.22.22-.22.22.1.22.22Z"/>
                <path class="cls-63" d="m104.46,72.2c0,.12-.1.22-.22.22s-.22-.1-.22-.22.09-.22.22-.22.22.1.22.22Z"/>
                <path class="cls-63" d="m104.46,74.08c0,.12-.1.22-.22.22s-.22-.1-.22-.22.09-.22.22-.22.22.1.22.22Z"/>
              </g>
            </g>
          </g>
        </g>
      </g>
    </g>
  </g>
</svg>