<svg xmlns="http://www.w3.org/2000/svg" viewBox="0 0 124.64 124.64">
  <defs>
    <style>
      .cls-1, .cls-2, .cls-3 {
        fill: #fff;
      }

      .cls-4 {
        fill: #ddb98a;
      }

      .cls-5 {
        fill: #b4c7e1;
      }

      .cls-6 {
        isolation: isolate;
      }

      .cls-2, .cls-7, .cls-3 {
        opacity: .5;
      }

      .cls-8 {
        fill: #0d3e4f;
      }

      .cls-7, .cls-9 {
        mix-blend-mode: multiply;
      }

      .cls-3 {
        mix-blend-mode: overlay;
      }

      .cls-10 {
        fill: #025c88;
      }

      .cls-11 {
        fill: #8496b2;
      }

      .cls-12 {
        fill: #4d6588;
      }

      .cls-13 {
        fill: #ffc42f;
      }

      .cls-14 {
        fill: #dfecf9;
      }

      .cls-15 {
        fill: #a9bbd8;
      }
    </style>
  </defs>
  <g class="cls-6">
    <g id="Layer_2" data-name="Layer 2">
      <g id="Layer_1-2" data-name="Layer 1">
        
        <g>
          <path class="cls-8" d="m44.38,76.91s-1.43-14.33-20.62-8.84l-1.75-1.59s21.1-7.64,23.81,10.19l-1.43.24Z"/>
          <path class="cls-8" d="m88.3,65.77s13.22-3.5,16.96,4.54l.4-.24s-3.5-8.28-14.89-6.37l-2.47,2.07Z"/>
          <polygon class="cls-8" points="82.33 70.13 72.53 81 66.44 70.6 79.1 66.9 82.33 70.13"/>
          <path class="cls-1" d="m95.7,59.29c.05.11.11.21.16.32.08.15.26.28.43.33.17.05.4.03.55-.07.34-.22.44-.62.26-.98-.05-.11-.11-.21-.16-.32-.08-.15-.26-.28-.43-.33-.17-.05-.4-.03-.55.07-.34.22-.44.62-.26.98.05.11.11.21.16.32.41-.24.83-.48,1.24-.72-.05-.11-.11-.21-.16-.32-.08-.15-.26-.28-.43-.33-.17-.05-.4-.03-.55.07-.34.22-.44.62-.26.98Z"/>
          <g>
            <path class="cls-11" d="m89.61,81.85l-.28.12.75-11.75,2.49-1.09.9,6.17c.4,2.76-1.19,5.47-3.85,6.55Z"/>
            <g>
              <path class="cls-11" d="m94.45,80.38l.24.19-10.55,5.23-2.19-1.61,4.89-3.86c2.19-1.73,5.33-1.7,7.6.06Z"/>
              <path class="cls-11" d="m90.75,76.93l.04-.3,9.8,6.52-.3,2.7-5.79-2.31c-2.59-1.03-4.14-3.76-3.75-6.61Z"/>
              <circle class="cls-15" cx="91.44" cy="80.18" r="3.03"/>
              <path class="cls-12" d="m91.44,82.6c-1.34,0-2.43-1.09-2.43-2.43s1.09-2.43,2.43-2.43,2.43,1.09,2.43,2.43-1.09,2.43-2.43,2.43Zm0-4.58c-1.19,0-2.15.97-2.15,2.15s.97,2.15,2.15,2.15,2.15-.97,2.15-2.15-.97-2.15-2.15-2.15Z"/>
              <path class="cls-8" d="m91.44,67.6c-6.95,0-12.58,5.63-12.58,12.58s5.63,12.58,12.58,12.58,12.59-5.63,12.59-12.58-5.63-12.58-12.59-12.58Zm0,20.24c-4.23,0-7.66-3.43-7.66-7.66s3.43-7.66,7.66-7.66,7.66,3.43,7.66,7.66-3.43,7.66-7.66,7.66Z"/>
              <path class="cls-14" d="m91.44,70.13c-5.55,0-10.05,4.5-10.05,10.05s4.5,10.05,10.05,10.05,10.05-4.5,10.05-10.05-4.5-10.05-10.05-10.05Zm0,17.72c-4.23,0-7.66-3.43-7.66-7.66s3.43-7.66,7.66-7.66,7.66,3.43,7.66,7.66-3.43,7.66-7.66,7.66Z"/>
              <path class="cls-15" d="m91.44,71.2c-4.96,0-8.98,4.02-8.98,8.98s4.02,8.98,8.98,8.98,8.98-4.02,8.98-8.98-4.02-8.98-8.98-8.98Zm0,16.64c-4.23,0-7.66-3.43-7.66-7.66s3.43-7.66,7.66-7.66,7.66,3.43,7.66,7.66-3.43,7.66-7.66,7.66Z"/>
            </g>
          </g>
          <g>
            <path class="cls-11" d="m29.73,81.85l-.28.12.75-11.75,2.49-1.09.9,6.17c.4,2.76-1.19,5.47-3.85,6.55Z"/>
            <g>
              <path class="cls-11" d="m34.56,80.38l.24.19-10.55,5.23-2.19-1.61,4.89-3.86c2.19-1.73,5.33-1.7,7.6.06Z"/>
              <path class="cls-11" d="m30.87,76.93l.04-.3,9.8,6.52-.3,2.7-5.79-2.31c-2.59-1.03-4.14-3.76-3.75-6.61Z"/>
              <path class="cls-15" d="m34.59,80.18c0,1.67-1.35,3.03-3.03,3.03s-3.03-1.35-3.03-3.03,1.35-3.03,3.03-3.03,3.03,1.35,3.03,3.03Z"/>
              <path class="cls-12" d="m31.56,82.6c-1.34,0-2.43-1.09-2.43-2.43s1.09-2.43,2.43-2.43,2.43,1.09,2.43,2.43-1.09,2.43-2.43,2.43Zm0-4.58c-1.19,0-2.15.97-2.15,2.15s.97,2.15,2.15,2.15,2.15-.97,2.15-2.15-.97-2.15-2.15-2.15Z"/>
              <path class="cls-8" d="m31.56,67.6c-6.95,0-12.58,5.63-12.58,12.58s5.63,12.58,12.58,12.58,12.59-5.63,12.59-12.58-5.63-12.58-12.59-12.58Zm0,20.24c-4.23,0-7.66-3.43-7.66-7.66s3.43-7.66,7.66-7.66,7.66,3.43,7.66,7.66-3.43,7.66-7.66,7.66Z"/>
              <path class="cls-14" d="m31.56,70.13c-5.55,0-10.05,4.5-10.05,10.05s4.5,10.05,10.05,10.05,10.05-4.5,10.05-10.05-4.5-10.05-10.05-10.05Zm0,17.72c-4.23,0-7.66-3.43-7.66-7.66s3.43-7.66,7.66-7.66,7.66,3.43,7.66,7.66-3.43,7.66-7.66,7.66Z"/>
              <path class="cls-15" d="m31.56,71.2c-4.96,0-8.98,4.02-8.98,8.98s4.02,8.98,8.98,8.98,8.98-4.02,8.98-8.98-4.02-8.98-8.98-8.98Zm0,16.64c-4.23,0-7.66-3.43-7.66-7.66s3.43-7.66,7.66-7.66,7.66,3.43,7.66,7.66-3.43,7.66-7.66,7.66Z"/>
            </g>
          </g>
          <path class="cls-13" d="m97.66,62.39l-2.52.29c-1.28.14-2.48.61-3.52,1.37l-14.53,10.54c-.93.67-2.19.66-3.11-.03l-7.62-5.8-1.13-.86-3.87-2.94-.09-.07-.12.29-.02.05-2.26,5.22-.15.34-1.23.21-7.3,1.23-3.34-5.52-6.93-7.31.48-1.89,1.04-4.12s15.06-6.3,23.66,2.62c.81.83,1.55,1.8,2.23,2.91l8.45.06h1.43c1.39.02,2.7-.64,3.52-1.77.84-1.15,2.17-1.83,3.58-1.83.07,0,.15,0,.22,0l9.25.47c1.51.08,2.88.95,3.58,2.29l.39.75.87,1.67c.42.78-.09,1.73-.97,1.83Z"/>
          <g>
            <path class="cls-3" d="m44.25,52.89c3.37-1.05,10.36-2.46,16.83,1.08,1.09.6,1.01,2.19-.12,2.7-3.95,1.8-11.96,4.34-17.37-1.31-.77-.8-.4-2.14.67-2.47Z"/>
            <path class="cls-3" d="m46.8,53.62c2.33-.73,7.16-1.7,11.63.75.75.41.7,1.51-.08,1.87-2.73,1.24-8.27,3-12.01-.9-.53-.56-.28-1.48.46-1.71Z"/>
          </g>
          <g class="cls-7">
            <path class="cls-4" d="m75.77,58.97c-.05,1.06-.13,2.05-.22,2.86-.13,1.23-.27,2.04-.27,2.04l-10.05,4.02-6.36,2.54-1.38.55-7.3,1.23-3.34-5.52-5.65-5.96-1.28-1.35.48-1.89c4.31,3.35,14.5,8.96,24.69-1.5.62.64,1.21,1.36,1.75,2.17.17.24.32.49.48.74h.88s7.57.06,7.57.06Z"/>
          </g>
          <g class="cls-9">
            <path class="cls-4" d="m75.55,61.84c-.13,1.23-.27,2.04-.27,2.04l-10.05,4.02-6.36,2.54-1.38.55-7.3,1.23-3.34-5.52-5.65-5.96c11.44,11.53,17.7,4.25,25.64-2.57.17.24.32.49.48.74h.88c-.21,1.07-.54,2.24-.16,2.87l7.52.05Z"/>
          </g>
          <g class="cls-9">
            <path class="cls-4" d="m98.63,60.55l-.72-1.36c-.09.53-.5.98-1.09,1.05l-2.52.29c-1.27.14-2.48.62-3.52,1.37l-14.53,10.54c-.93.67-2.19.66-3.11-.04l-6.7-5.09c-.09.43-.19.86-.3,1.29l.21.16,7.62,5.79c.91.7,2.18.71,3.11.04l14.53-10.54c1.04-.75,2.25-1.22,3.52-1.37l2.52-.29c.88-.1,1.39-1.05.97-1.84Z"/>
          </g>
          <path class="cls-8" d="m97.76,58.88c-7.84-.55-22.57,6.64-28.44,9.06-1,.41-1.74.69-2.15.76-.27.05-.54.06-.8.04-1.29-.09-2.54-.88-3.49-1.7-.98-.85-1.65-1.71-1.74-1.83h-.01s.03-.05.03-.05l.21-.22,5.96-6.04h2.32s7.56.07,7.56.07c1.39,0,2.7-.65,3.52-1.78l.04-.05c.86-1.18,2.25-1.85,3.7-1.77l9.39.48c1.47.07,2.79.92,3.47,2.22l.43.81Z"/>
          <path class="cls-15" d="m40.04,58.93c-.06.25-.33.4-.58.31-.93-.34-2.9-1.23-2.72-2.63.22-1.72,2.06-11.94,6.18-14.49.32-.2.73.1.66.47l-2.14,10.8-1.4,5.55Z"/>
          <path class="cls-5" d="m44.79,50.98l-14.47,30.51c-.28.59-.03,1.3.56,1.59.6.29,1.31.04,1.6-.56l14.6-30.46c.3-.64,0-1.4-.67-1.64l-.13-.05c-.58-.21-1.23.05-1.49.61Z"/>
          <path class="cls-3" d="m31.08,82.17s-.07,0-.1-.02c-.12-.06-.17-.2-.11-.32l14.47-30.51c.05-.1.15-.14.22-.14.03,0,.06,0,.08.01l.13.05c.08.03.12.09.14.14.02.04.03.11,0,.19l-14.6,30.46c-.05.1-.14.14-.22.14Z"/>
          <rect class="cls-13" x="44.48" y="46.93" width="3.4" height="4.36" rx="1.43" ry="1.43"/>
          <path class="cls-8" d="m49.02,49.38c0,.63-.51,1.13-1.13,1.13s-1.13-.51-1.13-1.13.51-1.13,1.13-1.13,1.13.51,1.13,1.13Z"/>
          <polygon class="cls-8" points="46.99 40.89 46.99 47 47.53 47.47 47.41 41.02 46.99 40.89"/>
          <path class="cls-11" d="m94.55,80.1s-11.82,2.64-22.52,3.68c-5.19.5-10.11.63-13.31-.1-6.87-1.56-10.02-9.43-11.28-13.99-.54-1.94-.74-3.28-.74-3.28.09.1.18.2.27.29.1.11.21.21.32.3.04.04.08.07.12.11.06.06.11.11.18.15,0,0,.01,0,.02.01.1.08.19.15.29.22.06.04.11.08.18.12.09.06.17.11.25.16.09.06.18.11.26.16.62.34,1.28.59,1.97.75.5.11,1,.17,1.51.18.39,0,.77-.02,1.16-.08l2.25-.33c1.29-.19,2.51-.72,3.53-1.54l1.17-.94.94-.75c.11,0,.2,0,.3,0,1.2-.04,2.27.06,3.23.26,2.04.42,3.55,1.33,4.69,2.49,1.98,2.01,2.78,4.79,3.09,7.1.23,1.76,1.51,3.12,3.12,3.54.54.14,1.12.18,1.72.1l16.91-2.38.22,2.16.17,1.63Z"/>
          <g class="cls-9">
            <path class="cls-15" d="m64.53,79.41c-2.51,0-3.97-.21-4.76-.39-2.63-.6-4.51-3.02-5.8-5.53l2.19-.32c2.14-.32,4.15-1.19,5.82-2.54l.78-.63c.31.03.6.07.88.13.97.2,1.68.56,2.25,1.15,1.14,1.16,1.59,3.03,1.77,4.39.17,1.3.62,2.51,1.28,3.57-1.54.11-3.03.17-4.41.17Z"/>
          </g>
          <g>
            <path class="cls-15" d="m59.17,66.95c8.18-.26,10.43,5.58,11,9.85.31,2.35,2.49,3.98,4.84,3.64l16.91-2.38.22,2.16.04.38c1.49-.3,2.36-.5,2.36-.5l-.17-1.63-.22-2.16-16.91,2.38c-2.35.34-4.53-1.29-4.84-3.64-.57-4.27-2.82-10.11-11-9.85-.1,0-.2,0-.3,0l-.94.75-1.17.94s-.05.04-.07.05c.08,0,.17,0,.25,0Z"/>
            <path class="cls-11" d="m48.33,70.42c.5.11,1,.17,1.51.18.39,0,.77-.02,1.16-.08l2.25-.33c1.29-.19,2.51-.72,3.53-1.54l1.17-.94.53-.43c-.9.6-1.93,1-3,1.16l-2.25.33c-.39.06-.77.08-1.16.08-.52,0-1.02-.07-1.51-.18-.69-.16-1.36-.41-1.97-.75-.09-.05-.18-.1-.26-.16-.08-.05-.17-.11-.25-.16-.06-.04-.12-.08-.18-.12-.1-.07-.2-.14-.29-.22,0,0-.01,0-.02-.01-.06-.04-.12-.09-.18-.15-.04-.03-.08-.07-.12-.11-.11-.09-.22-.2-.32-.3-.1-.09-.19-.19-.27-.29,0,0,.24,1.59.89,3.81.24.08.49.16.74.21Z"/>
          </g>
          <path class="cls-5" d="m94.55,80.1s-26.04,5.81-35.83,3.58c-9.79-2.23-12.02-17.28-12.02-17.28.09.1.18.2.27.29.11.11.21.21.32.3.04.04.08.07.12.11.06.05.11.1.18.15,0,0,.01,0,.02.01.1.08.19.15.29.22.06.04.12.08.18.12.09.06.17.11.25.16.09.05.18.11.26.15,1.29,4.59,4.44,12.31,11.25,13.85,8.49,1.94,29.19-2.17,34.54-3.31l.17,1.63Z"/>
          <path class="cls-8" d="m41.44,53.38h-3.56c-.94,0-1.7.76-1.7,1.7v2.36c0,.86.64,1.58,1.49,1.68l2.25.27,1.51-6.01Z"/>
          <path class="cls-13" d="m48.78,37.07v3.37c0,.96-1.09,1.51-1.86.94-.31-.23-.48-.59-.47-.97.03-.98.21-2.89,1.18-3.84.43-.42,1.15-.09,1.15.51Z"/>
          <g class="cls-9">
            <path class="cls-4" d="m48.42,36.47v3.25c0,.96-1.09,1.51-1.86.94-.04-.03-.06-.06-.1-.09.04.32.19.61.46.81.77.57,1.86.02,1.86-.94v-3.37c0-.27-.15-.48-.36-.6Z"/>
          </g>
          <path class="cls-8" d="m60.28,76.25l-.03.1-.39,1.27c-6.87-2.15-8.77-6.59-9.3-8.94.49.11.99.17,1.5.18.59,2.07,2.4,5.5,7.98,7.32.08.03.15.05.23.08Z"/>
          <path class="cls-8" d="m61.01,77.01l-.76-.65-.2-.18-.12-.11c.2-.22,4.39-5.23.24-10.11l.94-.75c.1,0,.2,0,.3,0,4.72,5.75-.33,11.74-.39,11.81Z"/>
          <path class="cls-15" d="m66.37,71.74c-1.34,0-2.54.62-3.32,1.59-.99,1.21-2.41,1.99-3.97,1.99h-.19c-.64,0-1.16.52-1.16,1.16v1.08c0,.64.52,1.16,1.16,1.16h2.13c1.04,0,2.08.26,2.93.85.69.48,1.53.76,2.44.76,2.42,0,4.37-2,4.3-4.43-.07-2.29-2.02-4.17-4.31-4.17Z"/>
          <path class="cls-14" d="m66.44,72.95c-.99,0-1.87.46-2.45,1.17-.73.89-1.77,1.47-2.92,1.47h-.14c-.47,0-.86.38-.86.86v.79c0,.47.38.86.86.86h1.57c.76,0,1.53.19,2.16.63.51.35,1.13.56,1.79.56,1.78,0,3.22-1.47,3.16-3.26-.05-1.69-1.48-3.07-3.17-3.07Z"/>
          <g class="cls-9">
            <path class="cls-15" d="m69.64,58.93c-.97,1.71-2.6,4.14-5.02,6.53-.54.54-1.13,1.08-1.76,1.6-.72.61-1.5,1.2-2.34,1.76-5.21,3.49-10.44,2.04-13.09.87-.54-1.94-.74-3.28-.74-3.28.09.1.18.2.27.29.1.11.21.21.32.3.04.04.08.07.12.11.06.06.11.11.18.15,0,0,.01,0,.02.01.1.08.19.15.29.22.06.04.11.08.18.12.09.06.17.11.25.16.09.06.18.11.26.16.62.34,1.28.59,1.97.75.5.11,1,.17,1.51.18.39,0,.77-.02,1.16-.08l2.25-.33c1.29-.19,2.51-.72,3.53-1.54l1.17-.94.94-.75s.04-.03.04-.03l.21-.22,5.96-6.04h2.32Z"/>
          </g>
          <path class="cls-3" d="m70.58,68.25c-.19.1,1.23,1.36,2.43,2.37.88.75,2.17.75,3.06,0,3.31-2.78,11.16-9.14,14.02-9.39,0,0-8.04,1.04-19.51,7.01Z"/>
          <path class="cls-2" d="m69.89,60.26c-.16-.08-.1-.32.08-.31,2.39.17,9.75.59,10.48-.61.88-1.43,1.51-3.34,2.39-3.34.62,0,6.27.36,9.49.57.2.01.2.3,0,.32-2.95.28-7.89.94-8.78,2.21-1.22,1.75-8.95,3.49-13.67,1.16Z"/>
          <path class="cls-3" d="m94.55,80.1s-11.82,2.64-22.52,3.68c1.08-1.62,2.64-3.96,3.5-5.19.54.14,1.12.18,1.72.1l16.91-2.38.22,2.16.17,1.63Z"/>
          <path class="cls-3" d="m42.83,42.33s-4.26,4.62-4.78,10.55l2.03-.04s1.31-7.57,2.75-10.51Z"/>
          <path class="cls-2" d="m37,58.24s-1.73-5.14,3.7-4.24c0,0-3.7.36-3.7,4.24Z"/>
        </g>
      </g>
    </g>
  </g>
</svg>