<svg xmlns="http://www.w3.org/2000/svg" id="Layer_2" data-name="Layer 2" viewBox="0 0 124.64 124.64">
  <defs>
    <style>
      .cls-1 {
        fill: #39aae1;
      }

      .cls-2 {
        fill: #fff;
      }

      .cls-3 {
        fill: #c5e3e8;
      }

      .cls-4 {
        fill: #e9edf0;
      }

      .cls-5 {
        fill: #025c88;
      }

      .cls-6 {
        fill: #2093c9;
      }

      .cls-7 {
        fill: #433d3f;
      }
    </style>
  </defs>
  <g id="Layer_1-2" data-name="Layer 1">
    
    <g>
      <g>
        <rect class="cls-7" x="40.96" y="53.28" width="2.57" height="46.5"/>
        <rect class="cls-3" x="25.14" y="24.86" width="34.22" height="34.22" rx="4.42" ry="4.42" transform="translate(84.21 -.28) rotate(90)"/>
        <rect class="cls-1" x="26.24" y="25.96" width="32.01" height="32.01" rx="3.31" ry="3.31"/>
        <path class="cls-6" d="m54.94,25.96h-12.69v32.01h12.69c1.83,0,3.31-1.48,3.31-3.31v-25.39c0-1.83-1.48-3.31-3.31-3.31Z"/>
        <path class="cls-2" d="m42.36,31.89c4.74,0,7.66,1.96,7.66,5.99,0,4.27-3.02,6.25-7.26,6.25h-1.99v6.12h-4.34v-18.36h5.93Zm.03,9.11c1.96,0,3.15-.82,3.15-3.13,0-1.96-1.09-2.89-3.23-2.89h-1.54v6.01h1.62Z"/>
      </g>
      <g>
        <path class="cls-1" d="m60.4,76.91h33.18c1.69,0,3.06,1.37,3.06,3.06v11.33h-39.31v-11.33c0-1.69,1.37-3.06,3.06-3.06Z"/>
        <path class="cls-3" d="m91.73,65.24c-.15-.95-.97-1.65-1.93-1.65h-25.63c-.96,0-1.78.7-1.93,1.65l-1.85,11.67h33.18l-1.85-11.67Z"/>
        <path class="cls-7" d="m59.29,91.3h5.16v7.59c0,.49-.4.89-.89.89h-3.38c-.49,0-.89-.4-.89-.89v-7.59h0Z"/>
        <path class="cls-4" d="m89.5,81.89c0,1.54,1.25,2.8,2.8,2.8s2.8-1.25,2.8-2.8-1.25-2.8-2.8-2.8-2.8,1.25-2.8,2.8Z"/>
        <path class="cls-4" d="m64.48,81.89c0,1.54-1.25,2.8-2.8,2.8s-2.8-1.25-2.8-2.8,1.25-2.8,2.8-2.8,2.8,1.25,2.8,2.8Z"/>
        <path class="cls-7" d="m90.42,91.3h3.38c.49,0,.89.4.89.89v7.59h-5.16v-7.59c0-.49.4-.89.89-.89Z" transform="translate(184.21 191.09) rotate(180)"/>
        <path class="cls-6" d="m89.8,63.59h-25.63c-.96,0-1.78.7-1.93,1.65h29.49c-.15-.95-.97-1.65-1.93-1.65Z"/>
        <rect class="cls-3" x="56.56" y="86.98" width="40.86" height="3.04" rx=".9" ry=".9"/>
      </g>
    </g>
  </g>
</svg>