<svg xmlns="http://www.w3.org/2000/svg" id="Layer_2" data-name="Layer 2" viewBox="0 0 124.64 124.64">
  <defs>
    <style>
      .cls-1 {
        fill: #fff;
      }

      .cls-2 {
        fill: #5f873b;
      }

      .cls-3 {
        fill: #90a243;
      }

      .cls-4 {
        fill: #48a4c9;
      }

      .cls-5 {
        fill: #a3d6ce;
      }

      .cls-6 {
        fill: #4f7335;
      }

      .cls-7 {
        fill: #758e3a;
      }

      .cls-8 {
        fill: #025c88;
      }
    </style>
  </defs>
  <g id="Layer_1-2" data-name="Layer 1">
    
    <g>
      <polygon class="cls-4" points="30.85 62.3 41.19 40.05 55.12 48.22 62 22.63 86.65 72.29 34.54 84.5 30.85 62.3"/>
      <polygon class="cls-6" points="49.06 68.65 41.19 40.05 55.12 48.22 49.06 68.65"/>
      <polygon class="cls-6" points="64.44 46.3 62 22.63 86.65 72.29 64.44 46.3"/>
      <polygon class="cls-2" points="86.57 69.9 79.47 52.92 82.83 53.29 78.81 46.33 80.94 46.7 78.04 41.23 75.22 46.7 77.35 46.33 73.33 53.29 76.69 52.92 68.48 69.9 86.57 69.9"/>
      <polygon class="cls-6" points="96.86 84 87.79 69.97 93.69 70.62 86.65 58.42 90.38 59.06 85.29 49.46 80.35 59.06 84.08 58.42 77.03 70.62 82.93 69.97 73.87 84 96.86 84"/>
      <polygon class="cls-7" points="77.75 70.76 72.59 62.76 75.95 63.13 71.93 56.18 74.06 56.55 71.16 51.07 68.34 56.55 70.47 56.18 66.45 63.13 69.82 62.76 64.65 70.76 77.75 70.76"/>
      <polygon class="cls-7" points="40.14 82.2 33.03 71.19 37.66 71.7 32.13 62.13 35.06 62.64 31.07 55.11 27.19 62.64 30.12 62.13 24.59 71.7 29.22 71.19 22.11 82.2 40.14 82.2"/>
      <polygon class="cls-3" points="47.78 73.58 43.05 66.27 46.13 66.6 42.45 60.24 44.4 60.58 41.75 55.57 39.17 60.58 41.11 60.24 37.44 66.6 40.51 66.27 35.79 73.58 47.78 73.58"/>
      <path class="cls-5" d="m89.47,80.7c-.18,0-.36.01-.54.02-.59-4.73-5.17-8.42-10.73-8.42-2.31,0-4.45.64-6.21,1.73-1.82-4.2-6.45-7.19-11.88-7.19s-10.49,3.26-12.12,7.76c-1.47-.8-3.2-1.27-5.05-1.27-4.04,0-7.49,2.18-8.92,5.27-1.12-.4-2.35-.63-3.63-.63-5.31,0-9.62,3.78-9.62,8.43s4.31,8.43,9.62,8.43c1.65,0,3.21-.37,4.57-1.01,1.73,2.25,4.66,3.72,7.98,3.72,1.75,0,3.39-.42,4.81-1.14,1.42.72,3.06,1.14,4.81,1.14s3.39-.42,4.81-1.14c1.42.72,3.06,1.14,4.81,1.14s3.4-.42,4.81-1.14c1.42.72,3.06,1.14,4.81,1.14s3.39-.42,4.81-1.14c1.42.72,3.06,1.14,4.81,1.14,1.44,0,2.8-.28,4.02-.78,1.22.5,2.58.78,4.02.78,5.31,0,9.62-3.77,9.62-8.43s-4.31-8.43-9.62-8.43Z"/>
    </g>
  </g>
</svg>