<svg xmlns="http://www.w3.org/2000/svg" id="Layer_2" data-name="Layer 2" viewBox="0 0 124.64 124.64">
  <defs>
    <style>
      .cls-1 {
        fill: #fff;
      }

      .cls-2 {
        fill: #585856;
      }

      .cls-3 {
        fill: #cbbba0;
      }

      .cls-4 {
        fill: #025c88;
      }
    </style>
  </defs>
  <g id="Layer_1-2" data-name="Layer 1">
    
    <g>
      <g>
        <rect class="cls-3" x="58.42" y="97.9" width="20.94" height="3.72"/>
        <rect class="cls-3" x="58.42" y="29.27" width="20.94" height="3.72"/>
        <rect class="cls-3" x="58.42" y="22.54" width="20.94" height="3.72"/>
        <rect class="cls-3" x="58.42" y="91.03" width="20.94" height="3.72"/>
        <rect class="cls-3" x="58.42" y="49.8" width="18.89" height="3.72"/>
        <rect class="cls-3" x="58.42" y="84.16" width="22.74" height="3.72"/>
        <rect class="cls-3" x="58.42" y="77.29" width="24.62" height="3.72"/>
        <rect class="cls-3" x="58.42" y="70.42" width="25.84" height="3.72"/>
        <rect class="cls-3" x="58.42" y="63.55" width="28.38" height="3.72"/>
        <rect class="cls-3" x="58.42" y="56.68" width="26.3" height="3.72"/>
        <path class="cls-3" d="m79.36,51.58v1.94h-20.94v-3.72h17.35c1.19.59,2.39,1.18,3.59,1.78Z"/>
        <path class="cls-3" d="m81.96,44.28v2.38h-23.54v-3.72h21.08c.62.36,1.88,1,2.46,1.34Z"/>
        <polygon class="cls-3" points="79.36 39.79 58.42 39.79 58.42 36.07 81.03 36.07 79.36 39.79"/>
        <g>
          <g>
            <path class="cls-3" d="m89.87,56.79c-.57,1.13-1.1,2.27-1.62,3.43-4.97-2.23-9.93-4.46-14.89-6.69-1.4-.63-2.81-1.26-4.21-1.89.28-.61.55-1.22.83-1.83h5.8c1.19.59,2.39,1.18,3.59,1.78l10.5,5.21Z"/>
            <path class="cls-3" d="m78.11,42.06l-1.86.35v3.43c.51.27,1.01.54,1.52.82l13.57,7.29c.6-1.12,1.22-2.23,1.86-3.32-4.36-2.56-10.72-6-15.09-8.57Z"/>
            <path class="cls-3" d="m94.87,47.88c-5.9-3.73-9.6-5.98-15.51-9.71.82-1.3,1.67-2.59,2.54-3.86,5.76,3.95,9.31,6.43,15.06,10.38-.72,1.05-1.42,2.11-2.1,3.19Z"/>
            <path class="cls-3" d="m98.84,42.06c-5.62-4.14-11.25-8.27-16.87-12.41.92-1.25,1.86-2.47,2.82-3.69,5.46,4.35,10.92,8.7,16.38,13.05-.8,1-1.58,2.02-2.33,3.04Z"/>
          </g>
          <path class="cls-2" d="m60.26,104.21c-.8-28.91,8.95-57.06,27.47-79.27l2.29,1.91c-18.05,21.65-27.56,49.1-26.78,77.28l-2.98.08Z"/>
          <path class="cls-2" d="m74.96,103.8c-.7-25.32,7.84-49.99,24.06-69.45l2.29,1.91c-15.76,18.9-24.06,42.86-23.37,67.45l-2.98.08Z"/>
        </g>
        <rect class="cls-2" x="60.05" y="20.97" width="2.98" height="83.2"/>
        <rect class="cls-2" x="74.75" y="20.97" width="2.98" height="83.2"/>
      </g>
      <g>
        <g>
          <rect class="cls-3" x="32.24" y="97.9" width="20.94" height="3.72"/>
          <rect class="cls-3" x="32.31" y="29.27" width="20.94" height="3.72"/>
          <rect class="cls-3" x="32.31" y="22.54" width="20.94" height="3.72"/>
          <rect class="cls-3" x="32.24" y="91.03" width="20.94" height="3.72"/>
          <rect class="cls-3" x="32.24" y="84.16" width="20.94" height="3.72"/>
          <rect class="cls-3" x="32.24" y="77.29" width="20.94" height="3.72"/>
          <rect class="cls-3" x="32.24" y="70.42" width="20.94" height="3.72"/>
          <rect class="cls-3" x="32.24" y="63.55" width="20.94" height="3.72"/>
          <rect class="cls-3" x="32.24" y="56.68" width="20.94" height="3.72"/>
          <rect class="cls-3" x="32.24" y="49.81" width="20.94" height="3.72"/>
          <rect class="cls-3" x="32.24" y="42.94" width="20.94" height="3.72"/>
          <rect class="cls-3" x="32.24" y="36.07" width="20.94" height="3.72"/>
        </g>
        <rect class="cls-2" x="33.94" y="20.97" width="2.98" height="83.2"/>
        <rect class="cls-2" x="48.65" y="20.97" width="2.98" height="83.2"/>
      </g>
    </g>
  </g>
</svg>