<?xml version="1.0" encoding="UTF-8"?>
<svg id="Layer_2" data-name="Layer 2" xmlns="http://www.w3.org/2000/svg" viewBox="0 0 158.83 60.09">
  <defs>
    <style>
      .cls-1 {
        fill: #025c88;
      }
    </style>
  </defs>
  <g id="Layer_1-2" data-name="Layer 1">
    <g>
      <polygon class="cls-1" points="24.72 0 0 2.53 .63 8.72 9.11 7.85 11.3 29.26 19.11 28.46 16.91 7.05 25.35 6.19 24.72 0"/>
      <path class="cls-1" d="m51.33,26.43l-4.13-7.45c1.4-.51,2.54-1.29,3.4-2.35.92-1.14,1.46-2.54,1.62-4.21s-.1-3.19-.78-4.5c-.68-1.31-1.73-2.37-3.13-3.16-1.41-.79-3.12-1.29-5.15-1.48l-10.14-.97-2.12,22.18,6.27.6.56-5.89,3.42.33,3.46,6.28,6.72.64Zm-6.18-17.12c.59.63.84,1.47.74,2.5s-.5,1.78-1.19,2.28c-.7.51-1.7.7-3.01.58l-3.48-.33.62-6.49,3.48.33c1.31.13,2.26.5,2.85,1.14Z"/>
      <path class="cls-1" d="m65.25,22.5l10.62-.99,2.41,4.69,7.37-.69L72.22,1.49l-6.98.65-8.72,26.08,7.23-.67,1.5-5.05Zm1.61-5.42l2.47-8.31,3.96,7.71-6.43.6Z"/>
      <polygon class="cls-1" points="99.16 25.81 111.55 4.97 105.37 4.16 97.33 17.74 93.25 2.55 86.5 1.66 93.01 24.99 99.16 25.81"/>
      <polygon class="cls-1" points="137.15 19.99 123.79 21.6 123.22 16.93 134.58 15.56 133.93 10.15 122.57 11.52 122.05 7.21 134.94 5.66 134.27 .07 114.22 2.49 117.3 28.05 137.82 25.58 137.15 19.99"/>
      <polygon class="cls-1" points="148.29 20.18 150.47 3.04 144.21 2.24 141.4 24.34 158.2 26.48 158.83 21.52 148.29 20.18"/>
      <path class="cls-1" d="m37.8,44.55c-.15-.04-.31-.07-.47-.1.87-.6,1.54-1.31,1.99-2.15.52-.96.71-2.04.56-3.22-.22-1.8-1.14-3.16-2.76-4.09-1.63-.93-3.95-1.21-6.98-.85l-11.78,1.42,2.77,23.04,12.44-1.5c3.09-.37,5.38-1.21,6.86-2.51,1.48-1.3,2.1-2.95,1.86-4.95-.16-1.34-.63-2.43-1.41-3.29-.78-.85-1.81-1.45-3.07-1.8Zm-7.95-5.61c1.1-.13,1.94-.05,2.53.25.59.3.93.82,1.02,1.56s-.12,1.34-.62,1.78c-.5.44-1.3.72-2.4.86l-4.48.54-.53-4.44,4.48-.54Zm5.11,12.62c-.54.45-1.36.75-2.48.88l-5.46.66-.56-4.67,5.46-.66c1.12-.13,1.99-.04,2.62.27.63.31.99.87,1.08,1.66s-.13,1.41-.66,1.87Z"/>
      <rect class="cls-1" x="41.13" y="42.09" width="22.28" height="6.3" transform="translate(1.44 92.1) rotate(-83.55)"/>
      <polygon class="cls-1" points="78.02 44.92 66.39 33.78 61 34.41 63.68 57.53 70.09 56.79 68.66 44.46 80.29 55.61 85.68 54.98 83 31.86 76.59 32.6 78.02 44.92"/>
      <path class="cls-1" d="m98.51,40.06c.67-.42,1.41-.69,2.25-.8.83-.11,1.71-.06,2.64.16,1.05.25,1.96.67,2.72,1.28.76.6,1.42,1.4,1.97,2.38l4.73-2.61c-.75-1.53-1.85-2.82-3.3-3.88-1.45-1.06-3.2-1.83-5.24-2.31-1.76-.41-3.44-.52-5.04-.32-1.61.2-3.06.68-4.38,1.44-1.31.76-2.43,1.76-3.35,2.99-.92,1.23-1.58,2.68-1.97,4.33s-.45,3.24-.17,4.75c.28,1.51.83,2.9,1.65,4.16.83,1.26,1.91,2.34,3.25,3.23,1.34.89,2.86,1.54,4.58,1.94,1.57.37,3.23.51,4.97.42,1.74-.09,3.34-.44,4.79-1.03l2.11-8.98-5.42-1.27-1.4,5.95c-.24.05-.48.09-.71.11-.94.1-1.86.04-2.77-.18s-1.71-.56-2.39-1.04c-.68-.48-1.23-1.05-1.64-1.73-.41-.67-.67-1.43-.79-2.26-.12-.83-.07-1.71.14-2.62s.57-1.77,1.05-2.45c.48-.68,1.05-1.24,1.71-1.66Z"/>
      <path class="cls-1" d="m138.77,36.64c-1.37-1.02-2.93-1.75-4.67-2.19-1.74-.44-3.62-.54-5.63-.29s-3.78.78-5.38,1.62c-1.6.84-2.95,1.92-4.05,3.24-1.1,1.32-1.9,2.8-2.4,4.44-.5,1.64-.63,3.4-.41,5.26s.77,3.54,1.65,5.02c.87,1.48,2,2.73,3.38,3.75,1.38,1.02,2.95,1.75,4.71,2.19,1.75.44,3.62.53,5.61.3s3.81-.78,5.4-1.62c1.59-.84,2.93-1.91,4.02-3.22s1.89-2.79,2.4-4.44c.51-1.66.65-3.42.43-5.28s-.78-3.54-1.67-5.02c-.89-1.48-2.01-2.72-3.38-3.75Zm-2.21,12.58c-.24.92-.62,1.72-1.15,2.42-.53.7-1.18,1.26-1.95,1.69-.78.43-1.64.7-2.58.81s-1.85.05-2.7-.18c-.86-.23-1.62-.63-2.3-1.18-.68-.55-1.24-1.25-1.69-2.08-.45-.83-.74-1.78-.86-2.84s-.08-2.08.16-2.99c.24-.9.62-1.71,1.15-2.4.53-.7,1.18-1.26,1.95-1.69.78-.43,1.64-.7,2.58-.81s1.85-.05,2.7.18c.86.23,1.62.63,2.3,1.18.68.55,1.24,1.24,1.69,2.06.45.82.74,1.78.87,2.86s.07,2.05-.16,2.97Z"/>
    </g>
  </g>
</svg>