<svg xmlns="http://www.w3.org/2000/svg" viewBox="0 0 124.64 124.64">
  <defs>
    <style>
      .cls-1 {
        fill: #e12726;
      }

      .cls-2, .cls-3, .cls-4 {
        fill: #fff;
      }

      .cls-5 {
        fill: #ddb98a;
      }

      .cls-6 {
        fill: #333436;
      }

      .cls-7 {
        isolation: isolate;
      }

      .cls-3 {
        opacity: .1;
      }

      .cls-8 {
        fill: #242528;
      }

      .cls-9 {
        fill: #d05227;
      }

      .cls-10 {
        fill: #4c5278;
      }

      .cls-11, .cls-4 {
        opacity: .5;
      }

      .cls-11, .cls-12 {
        mix-blend-mode: multiply;
      }

      .cls-4 {
        mix-blend-mode: overlay;
      }

      .cls-13 {
        fill: #5e617f;
      }

      .cls-14 {
        fill: #025c88;
      }

      .cls-15 {
        fill: #8496b2;
      }

      .cls-16 {
        fill: #4d6588;
      }

      .cls-17 {
        fill: #dfecf9;
      }

      .cls-18 {
        fill: #b65727;
      }

      .cls-19 {
        fill: #f8a31b;
      }

      .cls-20 {
        fill: #a9bbd8;
      }
    </style>
  </defs>
  <g class="cls-7">
    <g id="Layer_2" data-name="Layer 2">
      <g id="Layer_1-2" data-name="Layer 1">
        
        <g>
          <path class="cls-9" d="m66.62,45.73l-7.71-.76.54-1.08,1.3-2.6c.27-.54.83-.89,1.43-.89h1.62c.43,0,.83.17,1.12.46.18.18.33.41.41.67l1.28,4.19Z"/>
          <g class="cls-11">
            <path class="cls-20" d="m66.62,45.73l-7.71-.76.54-1.08c1.95-.33,4.14-1.92,5.48-3.02.18.18.33.41.41.67l1.28,4.19Z"/>
          </g>
          <path class="cls-19" d="m104.62,77.62l-3.32.03-79.8.83-4.9.05c-1.52.01-2.99-.56-4.09-1.62-.89-.86-1.39-2.04-1.39-3.26,0-.16,0-.33.03-.5l.2-1.78.09-.86.13-1.19c.08-.7.26-1.38.53-2.01.69-1.62,1.96-2.96,3.6-3.7.23-.1.46-.2.69-.28l3.21-1.09,3.55-1.2,5.92-2c.59-.2,1.17-.45,1.72-.74.57-.3,1.12-.65,1.63-1.04l10.11-7.64c.93-.7,1.86-1.38,2.83-1.99,3.19-2.02,6.66-3.37,11.06-2.83l44.11-.89c1.95-.04,3.73.83,4.9,2.23.69.82,1.16,1.81,1.36,2.92l1.91,10.86.53,2.98.52,2.95.04.22.64,3.62.03.17.11.6c.65,3.7-2.17,7.1-5.92,7.13Z"/>
          <g class="cls-12">
            <path class="cls-5" d="m104.62,77.62l-3.32.03-79.8.83-4.9.05c-1.52.01-2.99-.56-4.09-1.62-.89-.86-1.39-2.04-1.39-3.26,0-.16,0-.33.03-.5l.2-1.78,99.07-1.67.03.17.11.6c.65,3.7-2.17,7.1-5.92,7.13Z"/>
          </g>
          <path class="cls-4" d="m102.63,54.66l-.29-4.52c-.16-2.43-2.19-4.31-4.62-4.27l-43.8.61c-2.39.03-4.72.8-6.65,2.21l-7.18,5.2-6.53,5.52c-.88.64-1.03,2.57.05,2.55l7.96-1.21,56.6-1.24c2.6-.06,4.62-2.27,4.46-4.85Zm-19.67-5.64v7.93c0,.88-.71,1.61-1.59,1.63l-17.92.39c-.91.02-1.66-.71-1.66-1.63v-8.07c0-.89.71-1.61,1.6-1.63l17.92-.25c.91-.01,1.65.72,1.65,1.63Zm-42.86,8.82l-.02-.04c-.41-1.06-.06-2.26.86-2.93l7.09-5.14c1.72-1.25,3.78-1.93,5.9-1.96l2.54-.04c1.01-.01,1.84.8,1.84,1.81v7.75c0,.99-.79,1.79-1.78,1.81l-14.06.31c-1.05.02-2-.61-2.38-1.59Zm60.5-.83c-.62.75-1.5,1.18-2.46,1.2l-10.44.23c-.7.02-1.28-.55-1.28-1.25v-8.63c0-.68.55-1.24,1.23-1.25l10.12-.14c1.72,0,3.15,1.34,3.26,3.06l.28,4.41c.05.86-.18,1.72-.72,2.39Z"/>
          <path class="cls-4" d="m109.73,65.87l-97.65,1.46c.78-1.85,2.33-3.32,4.29-3.98l3.21-1.09,89.1-2.32,1.04,5.93Z"/>
          <path class="cls-4" d="m109.21,62.92l-93.53.7c.23-.1.46-.2.69-.28l3.21-1.09,3.55-1.2,85.55-1.12.53,2.98Z"/>
          <path class="cls-6" d="m108.83,75.86c-1.08,1.06-2.55,1.74-4.21,1.75l-3.32.03h-.03l-15.98.17-2.53.03h-.43s-21.77.23-21.77.23h-.43s-23.03.24-23.03.24h-.45s-15.13.16-15.13.16l-4.9.05c-1.52.01-2.99-.56-4.09-1.62-.03-.03-.06-.06-.09-.09.6.17,1.23.27,1.87.26l5.15-.05,16.83-.16h.45s23.38-.23,23.38-.23h.43s21.76-.22,21.76-.22h.43s2.42-.03,2.42-.03c0,0,16.21-.16,16.21-.16l2.05-.02,3.49-.03c.68,0,1.32-.12,1.93-.31Z"/>
          <path class="cls-10" d="m100.64,58.35c-.6.66-1.43,1.04-2.33,1.06l-10.16.22-6.02.13-16.25.36-6.02.13-12.7.28-6.02.13-6.56.14,13.62-9.87c1.35-.98,2.89-1.61,4.52-1.85.46-.07.92-.11,1.39-.11l4.68-.07,12.6-.17,5.97-.08,16.12-.23,4.48-.06c.43,0,.85.09,1.23.24,1.13.46,1.95,1.53,2.03,2.81l.29,4.52c.06.89-.25,1.75-.86,2.41Z"/>
          <g class="cls-11">
            <path class="cls-13" d="m101.5,55.94l-.29-4.52c-.11-1.71-1.53-3.05-3.24-3.06.41.51.67,1.13.71,1.83l.29,4.52c.06.9-.25,1.75-.85,2.42-.61.66-1.44,1.04-2.33,1.06l-59.37,1.3-1.83,1.33,63.73-1.4c.9-.02,1.73-.39,2.33-1.06.61-.66.91-1.52.85-2.42Z"/>
          </g>
          <path class="cls-18" d="m37.08,78.32h-.45c-.13-.48-.25-.96-.36-1.45-2-8.93-.79-18-.76-18.06l.2.07h.05s.16.06.16.06h0c-.05.36-1.16,9.27.79,17.93.1.49.23.97.36,1.45Z"/>
          <path class="cls-6" d="m104.62,77.62l-3.32.03,3.84-5.34c1.04-1.45,2.7-2.34,4.48-2.41l.81-.03.11.6c.65,3.7-2.17,7.1-5.92,7.13Z"/>
          <path class="cls-20" d="m109.77,66.09l-.08.02-2.76-2.47c-.42-.37-.69-.87-.76-1.42l-.28-1.94-.64-4.45-.32-2.21-.65-4.45-.08-.57c-.13-.92.29-1.85,1.08-2.35l.14-.09c.21.25.4.52.56.8.39.64.66,1.35.79,2.12l.41,2.31.8,4.57.4,2.27.8,4.58.39,2.19.19,1.09Z"/>
          <path class="cls-6" d="m23.71,70.38l-2.21,8.1-4.9.05c-1.52.01-2.99-.56-4.09-1.62-.89-.86-1.39-2.04-1.39-3.26,0-.16,0-.33.03-.5l.29-2.63,12.28-.14Z"/>
          <path class="cls-20" d="m24.1,62.67l-4.61,3.38c-.23.17-.49.29-.76.36-.16.04-.33.07-.5.07l-3.8.05c-.46,0-.65-.58-.28-.85,1.24-.89,2.66-1.61,4.07-2.18,2.05-.83,4.08-1.35,5.51-1.66.49-.1.78.54.37.83Z"/>
          <g class="cls-12">
            <path class="cls-20" d="m23.87,61.83s-.06.08-.11.11l-4.76,3.5c-.38.28-.84.43-1.31.44l-3.72.05c-.08.28.12.61.46.6l3.8-.05c.45,0,.9-.15,1.26-.42l4.61-3.38c.36-.27.17-.81-.23-.84Z"/>
          </g>
          <path class="cls-18" d="m23.78,61.84c.11.19.11.46-.12.62l-4.61,3.38c-.37.27-.81.42-1.26.42l-3.77.05c.08.13.22.22.4.22l3.8-.05c.45,0,.9-.15,1.26-.42l4.61-3.38c.39-.29.14-.88-.32-.84Z"/>
          <path class="cls-6" d="m102.8,55.86l-.29-4.52c-.16-2.43-2.19-4.31-4.62-4.27l-43.8.61c-2.39.03-4.72.8-6.65,2.21l-7.18,5.2-6.95,5.04c-.88.64-.41,2.02.67,2l7.76-.17,56.6-1.24c2.6-.06,4.62-2.27,4.46-4.85Zm-19.67-5.64v7.93c0,.88-.71,1.61-1.59,1.63l-17.92.39c-.91.02-1.66-.71-1.66-1.63v-8.07c0-.89.71-1.61,1.6-1.63l17.92-.25c.91-.01,1.65.72,1.65,1.63Zm-42.86,8.82l-.02-.04c-.41-1.06-.06-2.26.86-2.93l7.09-5.14c1.72-1.25,3.78-1.93,5.9-1.96l2.54-.04c1.01-.01,1.84.8,1.84,1.81v7.75c0,.99-.79,1.79-1.78,1.81l-14.06.31c-1.05.02-2-.61-2.38-1.59Zm60.5-.83c-.62.75-1.5,1.18-2.46,1.2l-10.44.23c-.7.02-1.28-.55-1.28-1.25v-8.63c0-.68.55-1.24,1.23-1.25l10.12-.14c1.72,0,3.15,1.34,3.26,3.06l.28,4.41c.05.86-.18,1.72-.72,2.39Z"/>
          <polygon class="cls-4" points="77.35 48.65 65.88 60.12 59.86 60.25 71.38 48.73 77.35 48.65"/>
          <path class="cls-4" d="m99.18,48.6l-11.03,11.03-6.02.13,11.34-11.34,4.48-.06c.43,0,.85.09,1.23.24Z"/>
          <path class="cls-4" d="m58.78,48.91l-11.62,11.62-6.02.13,11.58-11.58c.46-.07.92-.11,1.39-.11l4.68-.07Z"/>
          <path class="cls-10" d="m46.28,48.44l-12.55,9.58c-.24.18-.53.28-.83.29l-2.13.02c.57-.3,1.12-.65,1.63-1.04l10.11-7.64c.93-.7,1.86-1.38,2.83-1.99l.78.13c.33.05.43.46.17.66Z"/>
          <path class="cls-6" d="m46.11,47.77l-.78-.13s-.01,0-.02.01h.08c.32.06.42.47.17.67l-12.31,9.47c-.24.18-.52.28-.82.28h-1.27c-.13.08-.25.17-.39.23l2.13-.02c.3,0,.59-.1.83-.29l12.55-9.58c.26-.2.16-.62-.17-.66Z"/>
          <polygon class="cls-1" points="107.99 55.96 104.92 53.62 104.27 49.17 107.18 51.39 107.99 55.96"/>
          <polygon class="cls-1" points="109.19 62.81 105.88 60.28 105.24 55.83 108.39 58.23 109.19 62.81"/>
          <path class="cls-18" d="m107.36,63.5c-.41-.37-.68-.87-.76-1.42l-1.97-13.62c-.12-.84.22-1.67.87-2.2-.03-.03-.05-.07-.08-.1l-.14.09c-.79.5-1.22,1.42-1.08,2.35l1.97,13.62c.08.55.35,1.05.76,1.42l2.76,2.47.08-.02-.09-.52-2.32-2.07Z"/>
          <path class="cls-4" d="m109.58,65c-3.4-4.03-3.61-14.76-3.6-18.05.39.64.66,1.35.79,2.12l.41,2.31.8,4.57.4,2.27.8,4.58.39,2.19Z"/>
          <path class="cls-4" d="m15.22,65.22c1.18-.6,4.13-2.04,6.57-2.73.14-.04.23.15.11.23l-3.63,2.46c-.16.11-.34.17-.52.17l-2.45.11c-.14,0-.19-.18-.07-.24Z"/>
          <g>
            <g>
              <path class="cls-8" d="m101.36,76.38c0,.43-.03.86-.1,1.27l-15.98.17c-.09-.46-.13-.94-.13-1.43,0-4.47,3.63-8.11,8.1-8.11s8.02,3.55,8.1,7.95c0,.05,0,.1,0,.16Z"/>
              <path class="cls-6" d="m100.5,76.38c0,4-3.24,7.24-7.24,7.24-3.77,0-6.87-2.89-7.2-6.58-.02-.22-.03-.44-.03-.66,0-4,3.24-7.23,7.23-7.23s6.95,2.96,7.22,6.71c.02.17.02.35.02.53Z"/>
              <circle class="cls-17" cx="93.26" cy="76.39" r="4.56"/>
              <path class="cls-15" d="m93.26,78.99c-2.18,0-4-1.53-4.45-3.58-.07.32-.11.64-.11.98,0,2.52,2.04,4.56,4.56,4.56s4.56-2.04,4.56-4.56c0-.34-.04-.66-.11-.98-.45,2.05-2.27,3.58-4.45,3.58Z"/>
              <path class="cls-20" d="m97.37,76.39c0,2.27-1.84,4.11-4.11,4.11s-4.11-1.84-4.11-4.11,1.84-4.11,4.11-4.11,4.11,1.84,4.11,4.11Z"/>
              <path class="cls-16" d="m93.26,78.97c-1.43,0-2.59-1.16-2.59-2.59s1.16-2.59,2.59-2.59,2.59,1.16,2.59,2.59-1.16,2.59-2.59,2.59Zm0-4.92c-1.29,0-2.34,1.05-2.34,2.34s1.05,2.34,2.34,2.34,2.34-1.05,2.34-2.34-1.05-2.34-2.34-2.34Z"/>
              <g>
                <path class="cls-6" d="m93.55,73.41l.13-.22c.13-.23-.03-.51-.3-.51h-.26c-.26,0-.43.28-.3.51l.13.22c.13.23.46.23.59,0Z"/>
                <path class="cls-6" d="m91.38,74.08l-.07-.25c-.07-.25-.38-.34-.57-.15l-.18.18c-.19.19-.1.5.15.57l.25.07c.25.07.49-.16.42-.42Z"/>
                <path class="cls-6" d="m90.32,76.09l-.22-.13c-.23-.13-.51.03-.51.3v.26c0,.26.28.43.51.3l.22-.13c.23-.13.23-.46,0-.59Z"/>
                <path class="cls-6" d="m90.99,78.26l-.25.07c-.25.07-.34.38-.15.57l.18.18c.19.19.5.1.57-.15l.07-.25c.07-.25-.16-.49-.42-.42Z"/>
                <path class="cls-6" d="m93,79.33l-.13.22c-.13.23.03.51.3.51h.26c.26,0,.43-.28.3-.51l-.13-.22c-.13-.23-.46-.23-.59,0Z"/>
                <path class="cls-6" d="m95.17,78.65l.07.25c.07.25.38.34.57.15l.18-.18c.19-.19.1-.5-.15-.57l-.25-.07c-.25-.07-.49.16-.42.42Z"/>
                <path class="cls-6" d="m96.23,76.64l.22.13c.23.13.51-.03.51-.3v-.26c0-.26-.28-.43-.51-.3l-.22.13c-.23.13-.23.46,0,.59Z"/>
                <path class="cls-6" d="m95.56,74.47l.25-.07c.25-.07.34-.38.15-.57l-.18-.18c-.19-.19-.5-.1-.57.15l-.07.25c-.07.25.16.49.42.42Z"/>
              </g>
            </g>
            <path class="cls-3" d="m100.47,75.86c-6.33-1.42-12.03.28-14.42,1.19-.02-.22-.03-.44-.03-.66,0-4,3.24-7.23,7.23-7.23s6.95,2.96,7.22,6.71Z"/>
          </g>
          <g>
            <g>
              <path class="cls-8" d="m35.07,76.38c0,.43-.03.86-.1,1.27l-15.98.17c-.09-.46-.13-.94-.13-1.43,0-4.47,3.63-8.11,8.1-8.11s8.02,3.55,8.1,7.95c0,.05,0,.1,0,.16Z"/>
              <path class="cls-6" d="m34.2,76.38c0,4-3.24,7.24-7.24,7.24-3.77,0-6.87-2.89-7.2-6.58-.02-.22-.03-.44-.03-.66,0-4,3.24-7.23,7.23-7.23s6.95,2.96,7.22,6.71c.02.17.02.35.02.53Z"/>
              <circle class="cls-17" cx="26.96" cy="76.39" r="4.56"/>
              <path class="cls-15" d="m26.96,78.99c-2.18,0-4-1.53-4.45-3.58-.07.32-.11.64-.11.98,0,2.52,2.04,4.56,4.56,4.56s4.56-2.04,4.56-4.56c0-.34-.04-.66-.11-.98-.45,2.05-2.27,3.58-4.45,3.58Z"/>
              <path class="cls-20" d="m31.07,76.39c0,2.27-1.84,4.11-4.11,4.11s-4.11-1.84-4.11-4.11,1.84-4.11,4.11-4.11,4.11,1.84,4.11,4.11Z"/>
              <path class="cls-16" d="m26.96,78.97c-1.43,0-2.59-1.16-2.59-2.59s1.16-2.59,2.59-2.59,2.59,1.16,2.59,2.59-1.16,2.59-2.59,2.59Zm0-4.92c-1.29,0-2.34,1.05-2.34,2.34s1.05,2.34,2.34,2.34,2.34-1.05,2.34-2.34-1.05-2.34-2.34-2.34Z"/>
              <g>
                <path class="cls-6" d="m27.26,73.41l.13-.22c.13-.23-.03-.51-.3-.51h-.26c-.26,0-.43.28-.3.51l.13.22c.13.23.46.23.59,0Z"/>
                <path class="cls-6" d="m25.08,74.08l-.07-.25c-.07-.25-.38-.34-.57-.15l-.18.18c-.19.19-.1.5.15.57l.25.07c.25.07.49-.16.42-.42Z"/>
                <path class="cls-6" d="m24.02,76.09l-.22-.13c-.23-.13-.51.03-.51.3v.26c0,.26.28.43.51.3l.22-.13c.23-.13.23-.46,0-.59Z"/>
                <path class="cls-6" d="m24.69,78.26l-.25.07c-.25.07-.34.38-.15.57l.18.18c.19.19.5.1.57-.15l.07-.25c.07-.25-.16-.49-.42-.42Z"/>
                <path class="cls-6" d="m26.7,79.33l-.13.22c-.13.23.03.51.3.51h.26c.26,0,.43-.28.3-.51l-.13-.22c-.13-.23-.46-.23-.59,0Z"/>
                <path class="cls-6" d="m28.88,78.65l.07.25c.07.25.38.34.57.15l.18-.18c.19-.19.1-.5-.15-.57l-.25-.07c-.25-.07-.49.16-.42.42Z"/>
                <path class="cls-6" d="m29.94,76.64l.22.13c.23.13.51-.03.51-.3v-.26c0-.26-.28-.43-.51-.3l-.22.13c-.23.13-.23.46,0,.59Z"/>
                <path class="cls-6" d="m29.27,74.47l.25-.07c.25-.07.34-.38.15-.57l-.18-.18c-.19-.19-.5-.1-.57.15l-.07.25c-.07.25.16.49.42.42Z"/>
              </g>
            </g>
            <path class="cls-3" d="m34.18,75.86c-6.33-1.42-12.03.28-14.42,1.19-.02-.22-.03-.44-.03-.66,0-4,3.24-7.23,7.23-7.23s6.95,2.96,7.22,6.71Z"/>
          </g>
          <g class="cls-11">
            <path class="cls-20" d="m24.1,62.67l-4.61,3.38c-.23.17-.49.29-.76.36-.03-1.26,1.29-2.04-.51-2.91,2.05-.83,4.08-1.35,5.51-1.66.49-.1.78.54.37.83Z"/>
          </g>
          <g>
            <rect class="cls-6" x="63.48" y="63.46" width="3.17" height="3.17" transform="translate(-1.07 1.08) rotate(-.95)"/>
            <rect class="cls-6" x="69.81" y="63.36" width="3.17" height="3.17" transform="translate(-1.06 1.19) rotate(-.95)"/>
            <rect class="cls-6" x="66.7" y="66.58" width="3.17" height="3.17" transform="translate(-1.11 1.14) rotate(-.95)"/>
            <rect class="cls-6" x="73.03" y="66.47" width="3.17" height="3.17" transform="translate(-1.11 1.24) rotate(-.95)"/>
            <rect class="cls-6" x="76.14" y="63.25" width="3.17" height="3.17" transform="translate(-1.06 1.29) rotate(-.95)"/>
          </g>
          <path class="cls-18" d="m85.08,49.1v17.7l-.05.06s-2.23,2.97-2.3,9.54c0,.46,0,.94.02,1.43h-.43c-.02-.49-.03-.97-.02-1.43.03-4.29.96-7.04,1.65-8.52.47-1,.7-2.1.7-3.21v-15.55c0-.86-.47-2.09-1.09-2.67-.64-.6-1.45-.92-2.35-.91l-17.46.31c-1.84.03-3.34,1.58-3.33,3.45l.12,27.31v1.45s-.43,0-.43,0v-1.45s-.13-27.32-.13-27.32c0-2.11,1.68-3.86,3.75-3.9l17.46-.31c1.11-.02,2.12.43,2.87,1.25.68.74,1.01,1.74,1.01,2.74Z"/>
          <g>
            <path class="cls-6" d="m44.38,65.83h-1.13v2.95h-.85v-2.95h-1.13v-.75h3.11v.75Z"/>
            <path class="cls-6" d="m45.43,65.08h.77l1.35,3.7h-.88l-.29-.83h-1.15l-.28.83h-.88l1.35-3.7Zm.82,2.28l-.43-1.31-.44,1.31h.88Z"/>
            <path class="cls-6" d="m48.45,65.08l.81,1.28.81-1.28h.92l-1.28,1.88,1.24,1.82h-.92l-.77-1.22-.77,1.22h-.93l1.24-1.82-1.28-1.88h.93Z"/>
            <path class="cls-6" d="m51.3,68.78v-3.7h.85v3.7h-.85Z"/>
          </g>
        </g>
      </g>
    </g>
  </g>
</svg>