<svg xmlns="http://www.w3.org/2000/svg" id="Layer_2" data-name="Layer 2" viewBox="0 0 124.64 124.64">
  <defs>
    <style>
      .cls-1 {
        fill: #fff;
      }

      .cls-2 {
        fill: #ee302e;
      }

      .cls-3 {
        fill: #a5a5a5;
      }

      .cls-4 {
        fill: #5c5c5c;
      }

      .cls-5 {
        fill: #3e3e3e;
      }

      .cls-6 {
        fill: #f0efef;
      }

      .cls-7 {
        fill: #c9c9c9;
      }

      .cls-8 {
        fill: #cc2027;
      }

      .cls-9 {
        fill: #ef4444;
      }

      .cls-10 {
        fill: #db4646;
      }

      .cls-11 {
        fill: #7d7d7d;
      }

      .cls-12 {
        fill: #6d6e6e;
      }

      .cls-13 {
        fill: #171717;
      }

      .cls-14 {
        fill: #212121;
      }

      .cls-15 {
        fill: #c2c1c1;
      }

      .cls-16 {
        fill: #9b9b9b;
      }

      .cls-17 {
        fill: #025c88;
      }

      .cls-18 {
        fill: #ed1f24;
      }

      .cls-19 {
        fill: #0d0e0e;
      }

      .cls-20 {
        fill: #2c2c31;
      }
    </style>
  </defs>
  <g id="Layer_1-2" data-name="Layer 1">
    
    <g>
      <path class="cls-4" d="m39.68,41.05c-4.4-21.64,3.93-25.1,4.29-25.24l.17.43c-.08.03-8.31,3.51-4,24.71l-.45.09Z"/>
      <polygon class="cls-7" points="43.25 33.78 46.45 16.35 43.82 15.95 40.46 34.17 43.25 33.78"/>
      <polygon class="cls-3" points="45.06 16.52 47.25 16.85 47.27 16.71 44.64 16.32 41.28 34.54 41.76 34.47 45.06 16.52"/>
      <g>
        <path class="cls-9" d="m103.23,76.7v3.78c.45-.01.8-.26.8-.57v-2.63c0-.31-.36-.56-.8-.57Z"/>
        <polygon class="cls-19" points="99.84 76.67 103.31 76.67 103.31 80.69 99.84 76.67"/>
      </g>
      <g>
        <g>
          <g>
            <path class="cls-14" d="m39.8,84.92c0,4.13-3.35,7.48-7.48,7.48s-7.48-3.35-7.48-7.48,3.35-7.48,7.48-7.48,7.48,3.35,7.48,7.48Z"/>
            <path class="cls-15" d="m36.61,84.92c0,2.37-1.92,4.29-4.29,4.29s-4.29-1.92-4.29-4.29,1.92-4.29,4.29-4.29,4.29,1.92,4.29,4.29Z"/>
            <path class="cls-14" d="m33.85,84.92c0,.84-.68,1.53-1.53,1.53s-1.53-.68-1.53-1.53.68-1.53,1.53-1.53,1.53.68,1.53,1.53Z"/>
            <path class="cls-14" d="m32.32,88.38c-1.91,0-3.45-1.55-3.45-3.45s1.55-3.46,3.45-3.46,3.45,1.55,3.45,3.46-1.55,3.45-3.45,3.45Zm0-6.68c-1.78,0-3.23,1.45-3.23,3.23s1.45,3.23,3.23,3.23,3.23-1.45,3.23-3.23-1.45-3.23-3.23-3.23Z"/>
          </g>
          <g>
            <path class="cls-19" d="m33.21,79.53c.26-.13.38-.44.25-.71l-.65-1.37c-.16-.01-.32-.02-.48-.02-.23,0-.46.01-.68.03l.86,1.81c.13.26.44.38.71.25Z"/>
            <path class="cls-19" d="m31.44,90.31c-.26.13-.38.44-.25.71l.65,1.37c.16.01.32.02.48.02.23,0,.46-.01.68-.03l-.86-1.81c-.13-.27-.44-.38-.71-.25Z"/>
            <path class="cls-19" d="m31.31,79.56c.2-.21.2-.54,0-.75l-1.08-1.07c-.38.11-.74.25-1.09.41l1.43,1.41c.21.21.54.2.75,0Z"/>
            <path class="cls-19" d="m33.33,90.29c-.21.21-.2.54,0,.75l1.08,1.06c.38-.11.74-.25,1.09-.41l-1.43-1.41c-.21-.21-.54-.2-.75,0Z"/>
            <path class="cls-19" d="m29.53,80.23c.12-.27,0-.58-.26-.7l-1.38-.63c-.31.23-.61.49-.88.76l1.83.83c.27.12.58,0,.7-.26Z"/>
            <path class="cls-19" d="m35.11,89.62c-.12.27,0,.58.26.7l1.38.63c.31-.23.61-.49.88-.76l-1.83-.83c-.27-.12-.58,0-.7.26Z"/>
            <path class="cls-19" d="m28.1,81.46c.02-.29-.19-.55-.49-.57l-1.51-.12c-.22.32-.41.66-.57,1.02l2,.16c.29.02.55-.2.57-.49Z"/>
            <path class="cls-19" d="m36.55,88.39c-.02.29.19.55.49.57l1.51.12c.22-.32.41-.66.57-1.02l-2-.16c-.29-.02-.55.19-.57.49Z"/>
            <path class="cls-19" d="m27.17,83.12c-.08-.28-.37-.45-.65-.37l-1.46.41c-.09.37-.15.76-.19,1.15l1.93-.54c.28-.08.45-.37.37-.65Z"/>
            <path class="cls-19" d="m37.85,86.08c-.28.08-.45.37-.37.65.08.28.37.45.65.37l1.46-.41c.09-.37.15-.76.18-1.15l-1.93.54Z"/>
            <path class="cls-19" d="m26.86,84.99c-.17-.24-.5-.29-.74-.12l-1.24.88c.04.39.12.78.22,1.15l1.63-1.16c.24-.17.29-.5.12-.74Z"/>
            <path class="cls-19" d="m37.78,84.86c.17.24.5.29.74.12l1.24-.88c-.04-.39-.12-.78-.22-1.15l-1.63,1.16c-.24.17-.29.5-.12.74Z"/>
            <path class="cls-19" d="m27.21,86.85c-.24-.17-.57-.1-.74.14l-.86,1.25c.17.35.37.68.6,1l1.14-1.65c.17-.24.1-.57-.14-.74Z"/>
            <path class="cls-19" d="m37.43,83c.24.17.57.1.74-.14l.86-1.25c-.17-.35-.37-.68-.6-1l-1.14,1.65c-.17.24-.11.57.14.74Z"/>
            <path class="cls-19" d="m28.18,88.48c-.28-.07-.57.1-.65.38l-.38,1.47c.28.27.58.52.9.74l.5-1.94c.07-.28-.1-.57-.38-.65Z"/>
            <path class="cls-19" d="m36.46,81.36c.28.07.57-.1.65-.38l.38-1.47c-.28-.27-.58-.52-.9-.74l-.5,1.94c-.07.28.1.57.38.65Z"/>
            <path class="cls-19" d="m29.65,89.69c-.29.03-.5.29-.48.58l.15,1.51c.35.16.72.29,1.1.38l-.19-2c-.03-.29-.29-.51-.58-.48Z"/>
            <path class="cls-19" d="m35,80.16c.29-.03.5-.29.48-.58l-.15-1.51c-.35-.16-.72-.29-1.1-.39l.19,2c.03.29.29.51.58.48Z"/>
          </g>
        </g>
        <path class="cls-8" d="m30.12,82.53c-.34,3.01.2,3.68,1.34,4.36,3.04,1.11,3.92-1.92,5.96-1.69,1.02.17,2.29.6,3.35,1.27.09-.5.14-1.02.14-1.55,0-4.74-3.85-8.59-8.59-8.59-2.46,0-4.67,1.03-6.24,2.69.74,2.32,1.6,2.49,4.04,3.51Z"/>
        <path class="cls-10" d="m32.13,77.35c-2.26,0-4.3.94-5.75,2.46.11.24.22.46.35.67,1.33-1.22,3.1-1.96,5.04-1.96,4.03,0,7.31,3.19,7.46,7.18.29.11.57.24.85.38.02-.25.04-.5.04-.75,0-4.41-3.57-7.98-7.98-7.98Z"/>
      </g>
      <polygon class="cls-19" points="91.27 81.89 91.27 77.55 40.97 77.55 43.63 81.89 91.27 81.89"/>
      <polygon class="cls-12" points="91.27 83.71 43.85 83.71 40.97 79.53 91.27 79.53 91.27 83.71"/>
      <polygon class="cls-12" points="37.19 72.25 44.66 31.56 40.37 30.77 32.74 72.25 37.19 72.25"/>
      <polygon class="cls-16" points="40.37 30.77 32.74 72.25 34.5 72.25 42.07 31.09 40.37 30.77"/>
      <polygon class="cls-12" points="33.82 69.31 30.85 85.41 33.59 85.89 36.59 69.62 33.82 69.31"/>
      <g>
        <g>
          <path class="cls-14" d="m103.04,84.74c0,4.13-3.35,7.48-7.48,7.48s-7.48-3.35-7.48-7.48,3.35-7.48,7.48-7.48,7.48,3.35,7.48,7.48Z"/>
          <path class="cls-15" d="m99.84,84.74c0,2.37-1.92,4.29-4.29,4.29s-4.29-1.92-4.29-4.29,1.92-4.29,4.29-4.29,4.29,1.92,4.29,4.29Z"/>
          <path class="cls-14" d="m97.08,84.74c0,.84-.68,1.53-1.53,1.53s-1.53-.68-1.53-1.53.68-1.53,1.53-1.53,1.53.68,1.53,1.53Z"/>
          <path class="cls-14" d="m95.55,88.19c-1.91,0-3.45-1.55-3.45-3.45s1.55-3.46,3.45-3.46,3.45,1.55,3.45,3.46-1.55,3.45-3.45,3.45Zm0-6.68c-1.78,0-3.23,1.45-3.23,3.23s1.45,3.23,3.23,3.23,3.23-1.45,3.23-3.23-1.45-3.23-3.23-3.23Z"/>
        </g>
        <g>
          <path class="cls-19" d="m96.44,79.35c.26-.13.38-.44.25-.71l-.65-1.37c-.16-.01-.32-.02-.48-.02-.23,0-.46.01-.68.03l.86,1.81c.13.26.44.38.71.25Z"/>
          <path class="cls-19" d="m94.67,90.13c-.26.13-.38.44-.25.71l.65,1.37c.16,0,.32.02.48.02.23,0,.46-.01.68-.03l-.86-1.81c-.13-.26-.44-.38-.71-.25Z"/>
          <path class="cls-19" d="m94.54,79.37c.2-.21.2-.54,0-.75l-1.08-1.07c-.38.11-.74.25-1.09.41l1.43,1.41c.21.21.55.2.75,0Z"/>
          <path class="cls-19" d="m96.57,90.1c-.21.21-.2.54,0,.75l1.08,1.07c.38-.11.74-.25,1.09-.41l-1.43-1.41c-.21-.2-.54-.2-.75,0Z"/>
          <path class="cls-19" d="m92.77,80.04c.12-.27,0-.58-.26-.7l-1.38-.63c-.31.23-.61.49-.88.76l1.82.83c.27.12.58,0,.7-.26Z"/>
          <path class="cls-19" d="m98.34,89.43c-.12.27,0,.58.26.7l1.38.63c.31-.23.61-.49.88-.76l-1.82-.83c-.27-.12-.58,0-.7.26Z"/>
          <path class="cls-19" d="m91.33,81.27c.02-.29-.19-.55-.49-.57l-1.51-.12c-.22.32-.41.66-.57,1.02l2,.16c.29.02.55-.2.57-.49Z"/>
          <path class="cls-19" d="m99.78,88.2c-.02.29.19.55.49.57l1.51.12c.22-.32.41-.66.57-1.02l-2-.16c-.29-.02-.55.19-.57.49Z"/>
          <path class="cls-19" d="m90.4,82.93c-.08-.28-.37-.45-.65-.37l-1.46.41c-.09.37-.15.76-.19,1.15l1.93-.54c.28-.08.45-.37.37-.65Z"/>
          <path class="cls-19" d="m101.08,85.89c-.28.08-.45.37-.37.65.08.28.37.45.65.37l1.46-.41c.09-.37.15-.76.19-1.15l-1.93.54Z"/>
          <path class="cls-19" d="m90.09,84.8c-.17-.24-.5-.29-.74-.12l-1.24.88c.04.39.12.78.22,1.15l1.63-1.16c.24-.17.29-.5.12-.74Z"/>
          <path class="cls-19" d="m101.02,84.67c.17.24.5.29.74.12l1.24-.88c-.04-.39-.12-.78-.22-1.15l-1.63,1.16c-.24.17-.29.5-.12.74Z"/>
          <path class="cls-19" d="m90.44,86.66c-.24-.17-.57-.1-.74.14l-.86,1.25c.17.35.38.68.6,1l1.14-1.65c.17-.24.1-.57-.14-.74Z"/>
          <path class="cls-19" d="m100.66,82.81c.24.17.57.1.74-.14l.86-1.25c-.17-.35-.38-.68-.6-1l-1.14,1.65c-.17.24-.11.57.14.74Z"/>
          <path class="cls-19" d="m91.41,88.3c-.28-.07-.57.1-.65.38l-.38,1.47c.28.27.58.52.9.74l.5-1.94c.07-.28-.1-.57-.38-.65Z"/>
          <path class="cls-19" d="m99.7,81.18c.28.07.57-.1.65-.38l.38-1.47c-.28-.27-.58-.52-.9-.74l-.5,1.94c-.07.28.1.57.38.65Z"/>
          <path class="cls-19" d="m92.88,89.5c-.29.03-.51.29-.48.58l.15,1.51c.35.16.72.29,1.1.39l-.19-2c-.03-.29-.29-.51-.58-.48Z"/>
          <path class="cls-19" d="m98.23,79.97c.29-.03.5-.29.48-.58l-.15-1.51c-.35-.16-.72-.29-1.1-.38l.19,2c.03.29.29.51.58.48Z"/>
        </g>
      </g>
      <path class="cls-8" d="m95.51,77.99c2.17,0,4.06,1.21,5.03,3,.45.66,2.01.48,3.07.28-1.04-3.49-4.28-6.03-8.1-6.03-4.67,0-8.46,3.79-8.46,8.46h2.74c0-3.16,2.56-5.71,5.72-5.71Z"/>
      <path class="cls-10" d="m95.5,75.96c-4.3,0-7.8,3.46-7.86,7.75h.63c.41-3.96,3.75-7.05,7.82-7.05,2.25,0,4.27.94,5.7,2.45-1.43-1.91-3.72-3.15-6.29-3.15Z"/>
      <path class="cls-19" d="m34.42,84.89c0-1.14-.92-2.06-2.06-2.06s-2.06.92-2.06,2.06.92,2.06,2.06,2.06,2.06-.92,2.06-2.06Z"/>
      <path class="cls-12" d="m33.48,84.89c0-.62-.5-1.13-1.13-1.13s-1.13.5-1.13,1.13.5,1.13,1.13,1.13,1.13-.5,1.13-1.13Z"/>
      <g>
        <path class="cls-18" d="m26.85,69.31c0,2.29-.66,4.15-1.48,4.15s-1.48-1.86-1.48-4.15.66-4.16,1.48-4.16,1.48,1.86,1.48,4.16Z"/>
        <path class="cls-15" d="m24.96,64.84v8.94c4.32-.03,7.81-2.02,7.81-4.47s-3.49-4.44-7.81-4.47Z"/>
        <path class="cls-6" d="m24.96,65.84v1.33c3.75.02,6.77,1.37,6.77,3.03,0,.37-.15.73-.43,1.06.55-.52.86-1.11.86-1.74,0-2.02-3.22-3.66-7.2-3.68Z"/>
      </g>
      <g>
        <polygon class="cls-2" points="34.49 82.27 31.07 82.35 31.17 81.77 34.59 81.69 34.49 82.27"/>
        <polygon class="cls-2" points="34.72 81.03 31.29 81.11 31.39 80.53 34.82 80.45 34.72 81.03"/>
        <polygon class="cls-2" points="34.94 79.8 31.52 79.88 31.62 79.3 35.04 79.22 34.94 79.8"/>
        <polygon class="cls-2" points="35.17 78.56 31.75 78.64 31.85 78.06 35.27 77.98 35.17 78.56"/>
        <polygon class="cls-2" points="35.4 77.33 31.97 77.41 32.07 76.83 35.5 76.75 35.4 77.33"/>
        <polygon class="cls-2" points="35.62 76.09 32.2 76.17 32.3 75.59 35.72 75.51 35.62 76.09"/>
        <polygon class="cls-2" points="35.85 74.86 32.43 74.94 32.53 74.36 35.95 74.28 35.85 74.86"/>
      </g>
      <g>
        <path class="cls-19" d="m33.43,65.84l5.87,1.02s-.32,3.74.31,4.54c.63.79,6.21,4.82,6.49,6.64.27,1.82.05,5.24-1.99,5.79-2.04.56-3.24-2.14-3.12-3.85.12-1.43-4.65-6.03-8.91-6.37.29-2.61,1.36-7.77,1.36-7.77Z"/>
        <g>
          <path class="cls-11" d="m45.34,80.42c0,.29-.24.53-.53.53s-.53-.24-.53-.53.24-.53.53-.53.53.24.53.53Z"/>
          <g>
            <path class="cls-20" d="m44.88,80.42c0,.29-.03.53-.07.53s-.07-.24-.07-.53.03-.53.07-.53.07.24.07.53Z"/>
            <path class="cls-20" d="m44.81,80.35c.29,0,.53.03.53.07s-.24.07-.53.07-.53-.03-.53-.07.24-.07.53-.07Z"/>
          </g>
        </g>
        <g>
          <path class="cls-11" d="m42.84,80.42c0,.29-.24.53-.53.53s-.53-.24-.53-.53.24-.53.53-.53.53.24.53.53Z"/>
          <g>
            <path class="cls-20" d="m42.37,80.42c0,.29-.03.53-.07.53s-.07-.24-.07-.53.03-.53.07-.53.07.24.07.53Z"/>
            <path class="cls-20" d="m42.3,80.35c.29,0,.53.03.53.07s-.24.07-.53.07-.53-.03-.53-.07.24-.07.53-.07Z"/>
          </g>
        </g>
        <g>
          <path class="cls-11" d="m44.1,82.5c0,.29-.24.53-.53.53s-.53-.24-.53-.53.24-.53.53-.53.53.24.53.53Z"/>
          <g>
            <path class="cls-20" d="m43.63,82.5c0,.29-.03.53-.07.53s-.07-.24-.07-.53.03-.53.07-.53.07.24.07.53Z"/>
            <path class="cls-20" d="m43.56,82.43c.29,0,.53.03.53.07s-.24.07-.53.07-.53-.03-.53-.07.24-.07.53-.07Z"/>
          </g>
        </g>
      </g>
      <path class="cls-12" d="m47.1,18.11c-.05.29-.26.5-.47.46l-3.73-.66c-.21-.04-.33-.3-.28-.59l.42-2.37c.05-.29.26-.5.47-.46l3.73.66c.21.04.33.3.28.59l-.42,2.37Z"/>
      <path class="cls-13" d="m47.27,16.03c0,.93-.72,1.68-1.61,1.68s-1.61-.75-1.61-1.68.72-1.68,1.61-1.68,1.61.75,1.61,1.68Z"/>
      <path class="cls-5" d="m45.76,14.92c-.59,0-1.06.49-1.06,1.1s.47,1.1,1.06,1.1l2.58.67.09-2.97-2.67.09Z"/>
      <path class="cls-12" d="m48.43,14.83l-2.67.09c-.59,0-1.06.49-1.06,1.1,0,.02,0,.03,0,.05l3.68.37.05-1.61Z"/>
      <path class="cls-13" d="m50.1,16.32c0,.83-.65,1.51-1.45,1.51s-1.45-.68-1.45-1.51.65-1.51,1.45-1.51,1.45.68,1.45,1.51Z"/>
    </g>
  </g>
</svg>