<svg xmlns="http://www.w3.org/2000/svg" viewBox="0 0 124.64 124.64">
  <defs>
    <style>
      .cls-1 {
        fill: #e12726;
      }

      .cls-2, .cls-3, .cls-4 {
        fill: #fff;
      }

      .cls-5 {
        fill: #333436;
      }

      .cls-6 {
        isolation: isolate;
      }

      .cls-3 {
        mix-blend-mode: overlay;
      }

      .cls-4 {
        opacity: .5;
      }

      .cls-7 {
        fill: #8ea3c1;
      }

      .cls-8 {
        fill: #0d3e4f;
      }

      .cls-9 {
        fill: #991c1f;
      }

      .cls-10 {
        fill: #025c88;
      }

      .cls-11 {
        mix-blend-mode: multiply;
      }

      .cls-11, .cls-12 {
        fill: #a9bbd8;
      }

      .cls-13 {
        fill: #dfecf9;
      }
    </style>
  </defs>
  <g class="cls-6">
    <g id="Layer_2" data-name="Layer 2">
      <g id="Layer_1-2" data-name="Layer 1">
        
        <g>
          <path class="cls-9" d="m74.19,65.15c3.25-6.01,9.6-10.09,16.91-10.09s13.66,4.08,16.91,10.09h1.33c-3.35-6.68-10.26-11.28-18.24-11.28s-14.89,4.59-18.24,11.28h1.33Z"/>
          <path class="cls-9" d="m27.15,55.82c6.45-2.26,13.89-1,19.3,3.92,5.41,4.92,7.36,12.22,5.71,18.85l.98.89c2.02-7.2,0-15.24-5.9-20.62-5.91-5.37-14.11-6.63-21.08-3.94l.98.89Z"/>
          <g>
            <g>
              <rect class="cls-12" x="74.68" y="73.32" width="30.46" height=".23" transform="translate(-21.12 107.33) rotate(-56.22)"/>
              <rect class="cls-12" x="76.52" y="75.17" width="30.46" height=".23" transform="translate(-21.86 109.61) rotate(-56.18)"/>
            </g>
            <g>
              <rect class="cls-12" x="74.68" y="73.32" width="30.46" height=".23" transform="translate(-21.12 107.33) rotate(-56.22)"/>
              <rect class="cls-12" x="76.52" y="75.17" width="30.46" height=".23" transform="translate(-21.86 109.61) rotate(-56.18)"/>
            </g>
            <g>
              <g>
                <rect class="cls-12" x="89.41" y="59.13" width=".23" height="30.46" transform="translate(-12.74 18.82) rotate(-11.21)"/>
                <rect class="cls-12" x="92.02" y="59.13" width=".23" height="30.46" transform="translate(-12.69 19.32) rotate(-11.21)"/>
              </g>
              <g>
                <rect class="cls-12" x="75.45" y="72.62" width="31.35" height=".23" transform="translate(-13.16 20.6) rotate(-12.04)"/>
                <rect class="cls-12" x="75.5" y="75.23" width="31.35" height=".23" transform="translate(-13.71 20.67) rotate(-12.04)"/>
              </g>
              <g>
                <rect class="cls-12" x="89.41" y="59.13" width=".23" height="30.46" transform="translate(-12.74 18.82) rotate(-11.21)"/>
                <rect class="cls-12" x="92.02" y="59.13" width=".23" height="30.46" transform="translate(-12.69 19.32) rotate(-11.21)"/>
              </g>
              <g>
                <rect class="cls-12" x="75.45" y="72.62" width="31.35" height=".23" transform="translate(-13.16 20.6) rotate(-12.04)"/>
                <rect class="cls-12" x="75.5" y="75.23" width="31.35" height=".23" transform="translate(-13.71 20.67) rotate(-12.04)"/>
              </g>
            </g>
            <g>
              <g>
                <rect class="cls-12" x="74.41" y="73.65" width="30.46" height=".23" transform="translate(.83 148.51) rotate(-79.54)"/>
                <rect class="cls-12" x="76.83" y="74.61" width="30.46" height=".23" transform="translate(1.86 151.68) rotate(-79.54)"/>
              </g>
              <g>
                <rect class="cls-12" x="91.61" y="57.17" width=".23" height="31.35" transform="translate(4.48 150.99) rotate(-80.31)"/>
                <rect class="cls-12" x="90.7" y="59.61" width=".23" height="31.35" transform="translate(1.31 152.12) rotate(-80.31)"/>
              </g>
              <g>
                <rect class="cls-12" x="74.41" y="73.65" width="30.46" height=".23" transform="translate(.83 148.51) rotate(-79.54)"/>
                <rect class="cls-12" x="76.83" y="74.61" width="30.46" height=".23" transform="translate(1.86 151.68) rotate(-79.54)"/>
              </g>
              <g>
                <rect class="cls-12" x="91.61" y="57.17" width=".23" height="31.35" transform="translate(4.48 150.99) rotate(-80.31)"/>
                <rect class="cls-12" x="90.7" y="59.61" width=".23" height="31.35" transform="translate(1.31 152.12) rotate(-80.31)"/>
              </g>
            </g>
            <g>
              <rect class="cls-12" x="91.94" y="57.42" width=".23" height="31.35" transform="translate(-19.38 110.51) rotate(-57.01)"/>
              <rect class="cls-12" x="90.13" y="59.3" width=".23" height="31.35" transform="translate(-21.78 109.85) rotate(-57.01)"/>
            </g>
            <g>
              <rect class="cls-12" x="91.94" y="57.42" width=".23" height="31.35" transform="translate(-19.38 110.51) rotate(-57.01)"/>
              <rect class="cls-12" x="90.13" y="59.3" width=".23" height="31.35" transform="translate(-21.78 109.85) rotate(-57.01)"/>
            </g>
            <g>
              <rect class="cls-12" x="92.24" y="57.87" width=".23" height="31.35" transform="translate(-25.2 62.65) rotate(-33.24)"/>
              <rect class="cls-12" x="89.83" y="58.86" width=".23" height="31.35" transform="translate(-26.14 61.49) rotate(-33.24)"/>
            </g>
            <g>
              <rect class="cls-12" x="92.24" y="57.87" width=".23" height="31.35" transform="translate(-25.2 62.65) rotate(-33.24)"/>
              <rect class="cls-12" x="89.83" y="58.86" width=".23" height="31.35" transform="translate(-26.14 61.49) rotate(-33.24)"/>
            </g>
            <g>
              <rect class="cls-12" x="75.95" y="75.14" width="31.35" height=".23" transform="translate(-25.98 60.2) rotate(-32.1)"/>
              <rect class="cls-12" x="75" y="72.71" width="31.35" height=".23" transform="translate(-24.83 59.26) rotate(-32.07)"/>
            </g>
            <g>
              <rect class="cls-12" x="75.95" y="75.14" width="31.35" height=".23" transform="translate(-25.98 60.2) rotate(-32.1)"/>
              <rect class="cls-12" x="75" y="72.71" width="31.35" height=".23" transform="translate(-24.83 59.26) rotate(-32.07)"/>
            </g>
            <path class="cls-5" d="m91.15,55.94c-10.07,0-18.23,8.16-18.23,18.23s8.16,18.23,18.23,18.23,18.23-8.16,18.23-18.23-8.16-18.23-18.23-18.23Zm0,33.36c-8.36,0-15.13-6.77-15.13-15.13s6.77-15.13,15.13-15.13,15.13,6.78,15.13,15.13-6.77,15.13-15.13,15.13Z"/>
            <path class="cls-13" d="m91.15,58.1c-8.87,0-16.07,7.19-16.07,16.07,0,.28,0,.55.02.83.01.25.03.5.06.74.01.1.02.2.03.3.92,8,7.72,14.2,15.96,14.2s15.03-6.2,15.96-14.19c.01-.11.02-.2.03-.3.03-.25.05-.5.06-.74.02-.28.02-.55.02-.83,0-8.87-7.19-16.07-16.07-16.07Zm15.13,16.07c0,8.36-6.77,15.13-15.13,15.13s-15.13-6.77-15.13-15.13c0-.69.05-1.37.14-2.04.99-7.39,7.32-13.1,14.99-13.1s14,5.71,14.99,13.1c.1.67.14,1.35.14,2.04Z"/>
          </g>
          <path class="cls-12" d="m93.35,74.17c0,1.25-1.01,2.26-2.26,2.26s-2.26-1.01-2.26-2.26,1.01-2.26,2.26-2.26,2.26,1.01,2.26,2.26Z"/>
          <g>
            <g>
              <rect class="cls-12" x="17.02" y="73.32" width="30.46" height=".23" transform="translate(-46.71 59.39) rotate(-56.2)"/>
              <rect class="cls-12" x="18.87" y="75.17" width="30.46" height=".23" transform="translate(-47.43 61.73) rotate(-56.2)"/>
            </g>
            <g>
              <rect class="cls-12" x="17.02" y="73.32" width="30.46" height=".23" transform="translate(-46.71 59.39) rotate(-56.2)"/>
              <rect class="cls-12" x="18.87" y="75.17" width="30.46" height=".23" transform="translate(-47.43 61.73) rotate(-56.2)"/>
            </g>
            <g>
              <g>
                <rect class="cls-12" x="31.76" y="59.13" width=".23" height="30.46" transform="translate(-13.84 7.61) rotate(-11.21)"/>
                <rect class="cls-12" x="34.37" y="59.13" width=".23" height="30.46" transform="translate(-13.79 8.12) rotate(-11.21)"/>
              </g>
              <g>
                <rect class="cls-12" x="17.8" y="72.62" width="31.35" height=".23" transform="translate(-14.43 8.58) rotate(-12.04)"/>
                <rect class="cls-12" x="17.85" y="75.23" width="31.35" height=".23" transform="translate(-14.97 8.65) rotate(-12.04)"/>
              </g>
              <g>
                <rect class="cls-12" x="31.76" y="59.13" width=".23" height="30.46" transform="translate(-13.84 7.61) rotate(-11.21)"/>
                <rect class="cls-12" x="34.37" y="59.13" width=".23" height="30.46" transform="translate(-13.79 8.12) rotate(-11.21)"/>
              </g>
              <g>
                <rect class="cls-12" x="17.8" y="72.62" width="31.35" height=".23" transform="translate(-14.43 8.58) rotate(-12.04)"/>
                <rect class="cls-12" x="17.85" y="75.23" width="31.35" height=".23" transform="translate(-14.97 8.65) rotate(-12.04)"/>
              </g>
            </g>
            <g>
              <g>
                <rect class="cls-12" x="16.76" y="73.65" width="30.46" height=".23" transform="translate(-46.35 91.82) rotate(-79.54)"/>
                <rect class="cls-12" x="19.18" y="74.61" width="30.46" height=".23" transform="translate(-45.32 94.99) rotate(-79.54)"/>
              </g>
              <g>
                <rect class="cls-12" x="33.96" y="57.17" width=".23" height="31.35" transform="translate(-43.46 94.16) rotate(-80.31)"/>
                <rect class="cls-12" x="33.04" y="59.61" width=".23" height="31.35" transform="translate(-46.63 95.29) rotate(-80.31)"/>
              </g>
              <g>
                <rect class="cls-12" x="16.76" y="73.65" width="30.46" height=".23" transform="translate(-46.35 91.82) rotate(-79.54)"/>
                <rect class="cls-12" x="19.18" y="74.61" width="30.46" height=".23" transform="translate(-45.32 94.99) rotate(-79.54)"/>
              </g>
              <g>
                <rect class="cls-12" x="33.96" y="57.17" width=".23" height="31.35" transform="translate(-43.46 94.16) rotate(-80.31)"/>
                <rect class="cls-12" x="33.04" y="59.61" width=".23" height="31.35" transform="translate(-46.63 95.29) rotate(-80.31)"/>
              </g>
            </g>
            <g>
              <rect class="cls-12" x="34.29" y="57.42" width=".23" height="31.35" transform="translate(-45.64 62.15) rotate(-57.01)"/>
              <rect class="cls-12" x="32.48" y="59.3" width=".23" height="31.35" transform="translate(-48.04 61.49) rotate(-57.01)"/>
            </g>
            <g>
              <rect class="cls-12" x="34.29" y="57.42" width=".23" height="31.35" transform="translate(-45.64 62.15) rotate(-57.01)"/>
              <rect class="cls-12" x="32.48" y="59.3" width=".23" height="31.35" transform="translate(-48.04 61.49) rotate(-57.01)"/>
            </g>
            <g>
              <rect class="cls-12" x="34.59" y="57.87" width=".23" height="31.35" transform="translate(-34.63 31.05) rotate(-33.24)"/>
              <rect class="cls-12" x="32.18" y="58.86" width=".23" height="31.35" transform="translate(-35.57 29.89) rotate(-33.24)"/>
            </g>
            <g>
              <rect class="cls-12" x="34.59" y="57.87" width=".23" height="31.35" transform="translate(-34.63 31.05) rotate(-33.24)"/>
              <rect class="cls-12" x="32.18" y="58.86" width=".23" height="31.35" transform="translate(-35.57 29.89) rotate(-33.24)"/>
            </g>
            <path class="cls-5" d="m33.49,55.94c-10.07,0-18.23,8.16-18.23,18.23s8.16,18.23,18.23,18.23,18.23-8.16,18.23-18.23-8.16-18.23-18.23-18.23Zm0,33.36c-8.36,0-15.13-6.77-15.13-15.13s6.77-15.13,15.13-15.13,15.13,6.78,15.13,15.13-6.77,15.13-15.13,15.13Z"/>
            <path class="cls-13" d="m33.49,58.1c-8.87,0-16.07,7.19-16.07,16.07,0,.28,0,.55.02.83.01.25.03.5.06.74.01.1.02.2.03.3.92,8,7.72,14.2,15.96,14.2s15.03-6.2,15.96-14.19c.01-.11.02-.2.03-.3.03-.25.05-.5.06-.74.02-.28.02-.55.02-.83,0-8.87-7.19-16.07-16.07-16.07Zm15.13,16.07c0,8.36-6.77,15.13-15.13,15.13s-15.13-6.77-15.13-15.13c0-.69.05-1.37.14-2.04.99-7.39,7.32-13.1,14.99-13.1s14,5.71,14.99,13.1c.1.67.14,1.35.14,2.04Z"/>
            <g>
              <rect class="cls-12" x="18.29" y="75.14" width="31.35" height=".23" transform="translate(-34.78 29.53) rotate(-32.08)"/>
              <rect class="cls-12" x="17.35" y="72.71" width="31.35" height=".23" transform="translate(-33.64 28.67) rotate(-32.09)"/>
            </g>
            <g>
              <rect class="cls-12" x="18.29" y="75.14" width="31.35" height=".23" transform="translate(-34.78 29.53) rotate(-32.08)"/>
              <rect class="cls-12" x="17.35" y="72.71" width="31.35" height=".23" transform="translate(-33.64 28.67) rotate(-32.09)"/>
            </g>
          </g>
          <path class="cls-12" d="m49.56,74.17c0,.28,0,.55-.02.83-.01.25-.03.5-.06.74-.01.1-.02.2-.03.3-.16-1.36-.49-2.67-.97-3.91-.99-7.39-7.32-13.1-14.99-13.1s-14,5.71-14.99,13.1c-.48,1.23-.81,2.54-.97,3.91-.01-.1-.02-.2-.03-.3-.03-.25-.05-.5-.06-.74-.02-.28-.02-.55-.02-.83,0-8.87,7.19-16.07,16.07-16.07s16.07,7.19,16.07,16.07Z"/>
          <g>
            <path class="cls-1" d="m91.41,75.55l-24.95,1.91c-.21.01-.41-.07-.56-.21l-21.36-22.26c-.27-.28-.26-.73.02-.99.14-.14.32-.2.49-.2.19,0,.37.07.51.21l20.64,21.51.26.26c.15.15.36.23.56.21l.53-.04,21.62-1.65c.51-.04.81-.58.57-1.03l-11.23-21.33-.07-.12c-.12-.23-.36-.38-.61-.38h-.64c-6.51-.01-18.02-.03-25.16-.03-2.8,0-4.94,0-5.83.02-.23,0-.38,0-.43,0l-.03-.52c0-.06-.02-.12-.03-.17l-.23-.67s.1-.03,1.26-.05c.96-.01,2.69-.02,5.81-.02,4.65-.01,12.39,0,25.3.03h1.27l.15.29h0s12.73,24.19,12.73,24.19c.24.45-.06.99-.57,1.03Z"/>
            <path class="cls-3" d="m66.42,76.9s-.09-.02-.12-.05l-21.36-22.25s-.04-.07-.04-.1c0-.02,0-.06.04-.09.04-.04.09-.04.1-.04.02,0,.07,0,.09.03l20.64,21.52.26.27c.24.24.57.39.91.39h.1s22.14-1.69,22.14-1.69c.43-.03.81-.28,1.01-.65.21-.37.21-.83.01-1.21l-11.23-21.33-.07-.13c-.21-.41-.64-.67-1.11-.67h-.64c-6.51-.01-18.02-.03-25.16-.03-3.05,0-4.88,0-5.74.02-.01-.11-.03-.19-.05-.27.13,0,.3,0,.49,0,.96-.01,2.69-.02,5.8-.02,1.21,0,2.62,0,4.28,0,4.73,0,11.46.01,21.02.03h.93l12.72,24.17c.03.06.02.11,0,.13-.02.03-.05.07-.11.07l-24.95,1.91h0Z"/>
          </g>
          <g>
            <path class="cls-1" d="m80.72,47.09l-1.48,3.24s-.74,1.62-.74,1.62l-10.96,24.01-.5,1.09-1.29-.59.43-.94,10.99-24.07.64-1.4v-.02s1.61-3.52,1.61-3.52l1.29.58Z"/>
            <polygon class="cls-3" points="66.51 76.18 78.35 50.25 78.36 50.22 79.72 47.26 79.98 47.37 78.77 50.01 78.73 50.11 78 51.72 66.77 76.3 66.51 76.18"/>
          </g>
          <path class="cls-12" d="m46.66,49.57l-.33-.09h-.51c0-.1,0-.22,2.1-5.52.09-.22.33-.33.55-.24.22.09.32.33.24.55-.82,2.06-1.98,5.03-2.06,5.3Z"/>
          <path class="cls-12" d="m47.97,44.86s-.36-.53-2.01-3.78c-.3-.59-.22-1.28.2-1.79.43-.51,1.09-.71,1.73-.52l5.88,1.74-.32,1.08-5.88-1.74c-.3-.09-.49.1-.54.16-.05.06-.2.28-.06.56,1.41,2.79,1.64,3.23,1.68,3.28l-.67,1.01Z"/>
          <rect class="cls-5" x="51.68" y="37.87" width="2.02" height="6.16" rx=".72" ry=".72" transform="translate(-1.17 80.35) rotate(-74.04)"/>
          <path class="cls-12" d="m35.75,74.17c0,1.25-1.01,2.26-2.26,2.26s-2.26-1.01-2.26-2.26,1.01-2.26,2.26-2.26,2.26,1.01,2.26,2.26Z"/>
          <g>
            <path class="cls-1" d="m33.14,74.71c-.3-.25-.34-.69-.09-.99l5.47-6.63,7.22-18.43,1.31.51-7.3,18.64-5.61,6.8c-.25.3-.69.34-.99.09Z"/>
            <path class="cls-3" d="m33.59,74.31s-.06,0-.09-.03c-.06-.05-.07-.14-.02-.2l5.53-6.7,7.05-17.99.26.1-7.06,18.03-5.56,6.73s-.08.05-.11.05Z"/>
          </g>
          <g>
            <rect class="cls-7" x="65.65" y="74.27" width="3.57" height=".94" transform="translate(-32.43 87.36) rotate(-55.14)"/>
            <rect class="cls-7" x="64.26" y="72.98" width=".94" height="3.57" transform="translate(-32.01 54.26) rotate(-37.15)"/>
            <rect class="cls-7" x="62.14" y="76.88" width="3.57" height=".94" transform="translate(-21.83 25.24) rotate(-19.15)"/>
            <rect class="cls-7" x="65.66" y="77.13" width=".94" height="3.57" transform="translate(-1.56 1.34) rotate(-1.14)"/>
            <rect class="cls-7" x="67.83" y="75.52" width=".94" height="3.57" transform="translate(-25.48 120.25) rotate(-73.14)"/>
          </g>
          <rect class="cls-12" x="59.92" y="79.93" width="9.11" height=".85" transform="translate(-36.08 102.75) rotate(-63.82)"/>
          <circle class="cls-13" cx="66.27" cy="76.68" r="1.57"/>
          <path class="cls-12" d="m66.26,81.69c-2.52,0-4.69-1.9-4.97-4.46-.3-2.74,1.69-5.22,4.43-5.52,1.33-.15,2.63.24,3.68,1.07,1.04.84,1.7,2.03,1.84,3.36.3,2.74-1.69,5.22-4.43,5.52-.18.02-.37.03-.55.03Zm.01-8.6c-.13,0-.26,0-.4.02-1.97.22-3.4,1.99-3.18,3.96.1.95.57,1.81,1.32,2.41.75.6,1.69.87,2.64.77,1.97-.22,3.4-1.99,3.18-3.96-.1-.95-.57-1.81-1.32-2.41-.64-.52-1.43-.79-2.24-.79Z"/>
          <path class="cls-8" d="m64.46,85.54h-4.23c-.55,0-.99-.44-.99-.99s.44-.99.99-.99h4.23c.54,0,.99.44.99.99s-.44.99-.99.99Z"/>
          <path class="cls-12" d="m63.91,85.29h-3.14c-.4,0-.73-.33-.73-.73s.33-.73.73-.73h3.14c.4,0,.73.33.73.73s-.33.73-.73.73Z"/>
          <polygon class="cls-12" points="79.81 49.11 79.25 50.33 79.25 50.34 79.24 50.34 77.89 50.05 77.83 50.03 78.37 48.86 79.44 46.51 80.72 47.09 79.81 49.11"/>
          <path class="cls-11" d="m80.72,47.09l-.92,2.02c-.33-.01-.54-.02-.54-.02,0,0-.36-.09-.9-.24l1.07-2.35,1.29.58Z"/>
          <path class="cls-8" d="m79.98,47.4s7.01.28,7.37-.39c.35-.67.56-3.74-4.26-3.56-4.83.18-6.94-.28-7.96-.14s-1.55,1.83-.7,2.36,5.57,1.73,5.57,1.73Z"/>
          <path class="cls-11" d="m87.04,44.77c-.03.17-.08.32-.13.41-.38.67-7.91.39-7.91.39,0,0-3.13-.74-4.91-1.31-.19.53-.14,1.14.31,1.42.85.53,5.57,1.73,5.57,1.73,0,0,7.01.28,7.36-.39.19-.36.33-1.38-.3-2.25Z"/>
          <path class="cls-4" d="m84.9,44.39c.02.36-.61.68-1.39.72s-1.44-.22-1.46-.58.61-.68,1.39-.72c.79-.04,1.44.22,1.46.58Z"/>
          <path class="cls-11" d="m52.53,50.02l-.51,1.4c-2.8,0-4.94,0-5.83.02l.53-1.41c.96-.01,2.69-.02,5.81-.02Z"/>
          <path class="cls-12" d="m59.95,79.34c.06.16,2.77-.61,2.77-.61,0,0-1.83-5.83,3.99-5.54,5.83.28,8.6.7,9.3.23.7-.47,1.32-2.16,1.32-2.16l-11.55-.45c-.5-.02-1,.02-1.5.13-2.09.46-6.82,2.2-4.34,8.4Z"/>
        </g>
      </g>
    </g>
  </g>
</svg>