<svg xmlns="http://www.w3.org/2000/svg" viewBox="0 0 124.64 124.64">
  <defs>
    <style>
      .cls-1 {
        fill: #3c803d;
      }

      .cls-2 {
        fill: #3d4e22;
      }

      .cls-3 {
        fill: #fff;
      }

      .cls-4 {
        isolation: isolate;
      }

      .cls-5 {
        fill: #14181d;
      }

      .cls-6 {
        fill: #83a23d;
      }

      .cls-7 {
        fill: #8c633a;
      }

      .cls-8 {
        fill: #ddd;
      }

      .cls-8, .cls-9 {
        mix-blend-mode: multiply;
      }

      .cls-9 {
        fill: #b8b8b8;
      }

      .cls-10 {
        fill: #2a303a;
      }

      .cls-11 {
        fill: #647e37;
      }

      .cls-12 {
        fill: #757575;
      }

      .cls-13 {
        fill: #7e7e7e;
      }

      .cls-14 {
        fill: #7a7a7a;
      }

      .cls-15 {
        fill: #025c88;
      }

      .cls-16 {
        fill: #9c9b9b;
      }

      .cls-17 {
        fill: #708a39;
      }
    </style>
  </defs>
  <g class="cls-4">
    <g id="Layer_2" data-name="Layer 2">
      <g id="Layer_1-2" data-name="Layer 1">
        
        <g>
          <g>
            <path class="cls-2" d="m103.61,85.22l-1.01-1.54h.15c.14,0,.25-.1.25-.22,0-.05-.02-.09-.04-.12l-1.01-1.53h.21s0,0,0,0c.1,0,.18-.07.18-.16,0-.03-.01-.06-.03-.09l-1.53-2.33s-.09-.08-.15-.08-.12.03-.15.08l-1.54,2.33s-.03.11,0,.16c.03.05.09.08.15.08h.21s-1.02,1.54-1.02,1.54c-.04.07-.04.15,0,.22.04.07.13.11.21.11h.14l-1.03,1.56c-.06.09-.06.19,0,.28.06.09.16.14.27.14h-1.8s0-2.51,0-2.51h1.42s0,0,0,0c.25,0,.46-.18.46-.4,0-.08-.03-.16-.08-.23l-1.46-2.22h.21s0,0,0,0c.2,0,.36-.14.36-.31,0-.07-.02-.13-.06-.18l-.83-1.27v-.07s-.05,0-.05,0l-.57-.87h.3s0,0,0,0c.14,0,.26-.1.26-.22,0-.05-.02-.09-.05-.13l-2.2-3.35c-.05-.07-.13-.11-.22-.11-.09,0-.18.04-.22.11l-2.23,3.36c-.05.07-.05.15,0,.22.05.07.13.11.22.11h.3s-.57.86-.57.86h-.05v.07s-.85,1.29-.85,1.29c-.06.1-.06.21,0,.31.06.1.18.16.31.16h.21s-1.49,2.25-1.49,2.25c-.08.12-.08.28,0,.4.08.12.23.2.4.2h1.42s0,2.51,0,2.51h-7.4s0-2.79,0-2.79h1.41s0,0,0,0c.25,0,.46-.18.46-.4,0-.09-.03-.16-.08-.23l-1.46-2.22h.21s0,0,0,0c.2,0,.36-.14.36-.31,0-.07-.02-.13-.06-.18l-1.45-2.21h.3s0,0,0,0c.14,0,.26-.1.26-.22,0-.05-.02-.09-.05-.13l-2.2-3.35c-.05-.07-.13-.11-.22-.11-.09,0-.18.04-.22.11l-2.22,3.36c-.05.07-.05.15,0,.22.05.07.13.11.22.11h.3s-1.47,2.23-1.47,2.23c-.06.1-.06.22,0,.31.06.1.18.16.31.16h.21s-1.49,2.25-1.49,2.25c-.08.12-.08.28,0,.4.08.12.23.2.4.2h1.41s0,2.78,0,2.78h-4.35s0-5.43,0-5.43h1.7s0,0,0,0c.29,0,.53-.21.53-.46,0-.1-.03-.19-.09-.26l-1.68-2.56h.24s0,0,0,0c.23,0,.41-.16.41-.36,0-.08-.03-.15-.07-.21l-1.67-2.55h.35s0,0,0,0c.16,0,.3-.12.3-.26,0-.05-.02-.11-.05-.15l-2.54-3.87c-.05-.08-.15-.13-.26-.13-.11,0-.2.05-.26.13l-2.57,3.88c-.05.08-.05.18,0,.26.05.08.15.13.26.13h.35s-1.7,2.57-1.7,2.57c-.07.11-.07.25,0,.36.07.11.21.18.35.18h.24s-1.71,2.59-1.71,2.59c-.09.14-.09.32,0,.46.09.14.27.23.46.23h1.7s0,5.43,0,5.43h-5.53s0-3.12,0-3.12h1.35s0,0,0,0c.29,0,.53-.21.53-.46,0-.1-.03-.19-.09-.26l-1.68-2.56h.24s0,0,0,0c.23,0,.41-.16.41-.36,0-.08-.03-.15-.07-.2l-1.67-2.55h.35s0,0,0,0c.16,0,.3-.12.3-.26,0-.05-.02-.11-.05-.15l-2.54-3.87c-.05-.08-.15-.13-.26-.13-.11,0-.2.05-.26.13l-2.57,3.88c-.05.08-.05.18,0,.26.05.08.15.13.26.13h.35s-1.7,2.57-1.7,2.57c-.07.11-.07.25,0,.36.07.11.21.18.35.18h.24s-.79,1.2-.79,1.2l-.91-1.39h.17s0,0,0,0c.16,0,.3-.12.3-.26,0-.05-.02-.11-.05-.15l-1.2-1.83h.25s0,0,0,0c.12,0,.21-.08.21-.19,0-.04-.01-.08-.04-.11l-1.83-2.78c-.04-.06-.11-.09-.18-.09-.08,0-.15.03-.18.09l-1.84,2.79c-.04.06-.04.13,0,.19.04.06.11.09.18.09h.25s-1.22,1.85-1.22,1.85c-.05.08-.05.18,0,.26.05.08.15.13.26.13h.17s-1.23,1.86-1.23,1.86c-.07.1-.07.23,0,.33.07.1.19.17.33.17h.56s0,4.23,0,4.23h-3.74s0-3.9,0-3.9h.12c.21,0,.38-.15.38-.33,0-.07-.02-.14-.07-.19l-1.21-1.84h.17s0,0,0,0c.16,0,.29-.11.29-.26,0-.05-.02-.11-.05-.15l-1.2-1.83h.25s0,0,0,0c.12,0,.21-.08.21-.19,0-.04-.01-.08-.04-.11l-1.83-2.78c-.04-.06-.11-.09-.18-.09s-.15.04-.18.09l-1.84,2.79c-.04.06-.04.13,0,.19.04.06.11.09.18.09h.25s-1.22,1.85-1.22,1.85c-.05.08-.05.18,0,.26.05.08.15.13.26.13h.17s-1.23,1.86-1.23,1.86c-.07.1-.07.23,0,.33.07.1.19.17.33.17h.09s0,3.9,0,3.9h-5.52s0-3.57,0-3.57h1.47s0,0,0,0c.21,0,.38-.15.38-.33,0-.07-.02-.14-.07-.19l-1.21-1.84h.17c.16,0,.3-.12.3-.26,0-.05-.02-.11-.05-.15l-1.2-1.83h.25s0,0,0,0c.12,0,.21-.08.21-.19,0-.04-.01-.08-.04-.11l-1.83-2.78c-.04-.06-.11-.09-.18-.09-.08,0-.15.04-.18.09l-1.84,2.79c-.04.06-.04.13,0,.19.04.06.11.09.18.09h.25s-1.22,1.85-1.22,1.85c-.05.08-.05.18,0,.26.05.08.15.13.26.13h.17l-1.23,1.86c-.07.1-.07.23,0,.33.07.1.19.17.33.17h1.47s0,3.57,0,3.57h-4.38s0-1.75,0-1.75h1.86s0,0,0,0c.21,0,.38-.15.38-.33,0-.07-.02-.14-.07-.19l-1.21-1.84h.17s0,0,0,0c.16,0,.3-.12.3-.26,0-.05-.02-.11-.05-.15l-1.2-1.83h.25s0,0,0,0c.12,0,.21-.08.21-.19,0-.04-.01-.08-.04-.11l-1.83-2.78c-.04-.06-.11-.09-.18-.09-.08,0-.15.04-.18.09l-1.84,2.79c-.04.06-.04.13,0,.19.04.06.11.09.18.09h.25s-1.22,1.85-1.22,1.85c-.05.08-.05.18,0,.26.05.08.15.13.25.13h.17s-1.23,1.86-1.23,1.86c-.07.1-.07.23,0,.33.07.1.19.17.33.17h1.76s0,1.74,0,1.74v3.5s2.94,0,2.94,0h4.38s3.62.01,3.62.01h5.52s6.35.02,6.35.02h3.74s5.45.01,5.45.01h1.46s6.43.01,6.43.01h5.53s5.74.02,5.74.02h4.35s5.1.02,5.1.02h7.4s5.07.02,5.07.02h5.3s0-3.49,0-3.49h1.99s0,0,0,0c.18,0,.32-.12.32-.28,0-.06-.02-.11-.06-.16Zm-48.64.36v-3.12s.08.01.11.01h1.35s0,3.11,0,3.11h-1.46Z"/>
            <g>
              <path class="cls-6" d="m91.77,86.12l-1.81-2.75h.26c.24,0,.44-.17.44-.38,0-.08-.03-.16-.08-.22l-1.8-2.73h.37s0,0,0,0c.18,0,.32-.12.32-.28,0-.06-.02-.11-.06-.16l-2.73-4.15c-.06-.09-.16-.14-.27-.14-.11,0-.22.05-.27.14l-2.75,4.16c-.06.09-.06.19,0,.28.06.09.16.14.27.14h.37s-1.82,2.76-1.82,2.76c-.08.12-.08.27,0,.39.08.12.22.19.38.19h.26s-1.84,2.78-1.84,2.78c-.1.15-.1.34,0,.5.1.15.29.25.49.25l9.79.02h0c.31,0,.57-.22.57-.49,0-.11-.04-.2-.1-.28Z"/>
              <path class="cls-17" d="m91.77,86.12l-1.81-2.75h.26c.24,0,.44-.17.44-.38,0-.08-.03-.16-.08-.22l-1.8-2.73h.37s0,0,0,0c.18,0,.32-.12.32-.28,0-.06-.02-.11-.06-.16l-2.73-4.15c-.05-.07-.13-.12-.22-.13l-.02,11.57h4.84s0,0,0,0c.31,0,.57-.22.57-.49,0-.11-.04-.2-.1-.28Z"/>
              <path class="cls-7" d="m86.7,89.13v-4.23c0-.18-.14-.33-.33-.33-.18,0-.33.15-.33.33v4.23s.66,0,.66,0Z"/>
            </g>
            <g>
              <path class="cls-11" d="m38.9,79.94c0,2.6-1.49,4.7-3.32,4.7-1.83,0-3.31-2.11-3.3-4.71,0-2.6,1.49-4.7,3.32-4.7,1.83,0,3.31,2.11,3.3,4.71Z"/>
              <path class="cls-8" d="m35.64,75.24v9.4c1.8-.03,3.26-2.12,3.26-4.69,0-2.58-1.45-4.67-3.26-4.7Z"/>
              <path class="cls-7" d="m35.85,89.05v-6.71c.01-.15-.11-.28-.27-.28-.15,0-.28.12-.28.28v6.71s.55,0,.55,0Z"/>
            </g>
            <g>
              <path class="cls-11" d="m49.21,86.31l-1.65-2.51h.24s0,0,0,0c.22,0,.4-.16.4-.35,0-.08-.03-.14-.07-.2l-1.64-2.5h.34s0,0,0,0c.16,0,.29-.11.29-.25,0-.05-.02-.1-.05-.14l-2.49-3.79c-.05-.08-.15-.13-.25-.13-.1,0-.2.05-.25.13l-2.51,3.8c-.05.08-.05.18,0,.25.05.08.15.13.25.13h.34s-1.67,2.52-1.67,2.52c-.07.11-.07.24,0,.35.07.11.2.18.35.18h.24s-1.68,2.54-1.68,2.54c-.09.14-.09.31,0,.45.09.14.26.23.45.23h8.95s0,.01,0,.01c.29,0,.52-.2.52-.45,0-.1-.03-.19-.09-.26Z"/>
              <path class="cls-7" d="m44.58,89.07v-3.87c0-.17-.13-.31-.3-.31-.17,0-.31.14-.31.3v3.87s.6,0,.6,0Z"/>
            </g>
            <g>
              <path class="cls-11" d="m74.03,86.58l-1.52-2.31h.22s0,0,0,0c.2,0,.37-.14.37-.32,0-.07-.02-.13-.07-.18l-1.51-2.3h.31s0,0,0,0c.15,0,.27-.1.27-.23,0-.05-.02-.1-.05-.13l-2.29-3.48c-.05-.07-.14-.12-.23-.12s-.18.04-.23.12l-2.31,3.49c-.05.07-.05.16,0,.23.05.07.14.12.23.12h.31s-1.53,2.31-1.53,2.31c-.07.1-.07.22,0,.32.07.1.19.16.32.16h.22l-1.54,2.33c-.08.13-.09.29,0,.42.09.13.24.21.41.21h8.22s0,.01,0,.01c.26,0,.48-.19.48-.42,0-.09-.03-.17-.08-.24Z"/>
              <path class="cls-7" d="m69.77,89.1v-3.56c0-.15-.12-.28-.27-.28-.15,0-.28.13-.28.28v3.56s.56,0,.56,0Z"/>
            </g>
            <g>
              <path class="cls-11" d="m100.13,82.55c0,1.88-1.08,3.4-2.41,3.4-1.33,0-2.4-1.53-2.39-3.41,0-1.88,1.08-3.4,2.41-3.4,1.33,0,2.4,1.53,2.39,3.41Z"/>
              <path class="cls-7" d="m97.93,89.15v-4.86c0-.11-.08-.2-.2-.2-.11,0-.2.09-.2.2v4.86s.4,0,.4,0Z"/>
            </g>
            <g>
              <path class="cls-11" d="m23.88,83.88c0,1.26-.73,2.29-1.62,2.29-.89,0-1.61-1.03-1.61-2.29,0-1.26.73-2.29,1.62-2.29.89,0,1.61,1.03,1.61,2.29Z"/>
              <path class="cls-7" d="m22.42,89.03v-3.79c0-.09-.06-.16-.15-.16-.09,0-.16.07-.16.16v3.79s.31,0,.31,0Z"/>
            </g>
            <g>
              <path class="cls-6" d="m41.65,87.11l-1.17-1.78h.17s0,0,0,0c.16,0,.28-.11.28-.25,0-.05-.02-.1-.05-.14l-1.16-1.76h.24s0,0,0,0c.11,0,.21-.08.21-.18,0-.04-.01-.07-.04-.1l-1.76-2.68c-.04-.06-.1-.09-.18-.09s-.14.03-.18.09l-1.78,2.69c-.04.06-.04.12,0,.18.04.06.1.09.18.09h.24s-1.18,1.78-1.18,1.78c-.05.08-.05.17,0,.25.05.08.14.12.25.12h.17s-1.19,1.79-1.19,1.79c-.07.1-.07.22,0,.32.07.1.19.16.32.16h6.32s0,.01,0,.01c.2,0,.37-.14.37-.32,0-.07-.02-.13-.07-.18Z"/>
              <path class="cls-17" d="m41.65,87.11l-1.17-1.78h.17s0,0,0,0c.16,0,.28-.11.28-.25,0-.05-.02-.1-.05-.14l-1.16-1.76h.24s0,0,0,0c.11,0,.21-.08.21-.18,0-.04-.01-.07-.04-.1l-1.76-2.68s-.08-.08-.14-.09v7.47s3.11,0,3.11,0h0c.2,0,.37-.14.37-.32,0-.07-.02-.13-.07-.18Z"/>
              <path class="cls-7" d="m38.38,89.06v-2.73c0-.12-.09-.22-.21-.22-.12,0-.22.1-.22.22v2.73s.43,0,.43,0Z"/>
            </g>
            <g>
              <path class="cls-6" d="m52.09,86.54l-1.52-2.31h.22c.2,0,.37-.14.37-.32,0-.07-.02-.13-.07-.19l-1.51-2.29h.31s0,0,0,0c.15,0,.27-.1.27-.23,0-.05-.02-.1-.05-.13l-2.29-3.48c-.05-.07-.14-.12-.23-.12-.1,0-.18.04-.23.12l-2.31,3.49c-.05.07-.05.16,0,.23.05.07.14.12.23.12h.31s-1.53,2.31-1.53,2.31c-.07.1-.07.22,0,.32.07.1.19.16.32.16h.22s-1.54,2.33-1.54,2.33c-.08.13-.08.29,0,.42.08.13.24.21.41.21h8.22s0,.01,0,.01c.26,0,.48-.19.48-.42,0-.09-.03-.17-.08-.24Z"/>
              <path class="cls-7" d="m47.83,89.07v-3.55c0-.15-.12-.28-.27-.28-.16,0-.28.13-.28.28v3.56s.56,0,.56,0Z"/>
            </g>
            <g>
              <path class="cls-6" d="m58.44,86.55l-1.52-2.31h.22s0,0,0,0c.2,0,.37-.14.37-.32,0-.07-.02-.13-.07-.18l-1.51-2.29h.31s0,0,0,0c.15,0,.27-.1.27-.23,0-.05-.02-.1-.05-.13l-2.29-3.48c-.05-.07-.14-.12-.23-.12-.09,0-.18.04-.23.12l-2.31,3.49c-.05.07-.05.16,0,.23.05.07.14.12.23.12h.31s-1.53,2.31-1.53,2.31c-.07.1-.07.22,0,.32.07.1.19.16.32.16h.22s-1.54,2.33-1.54,2.33c-.09.13-.09.29,0,.42.09.13.24.21.41.21h8.22s0,.01,0,.01c.26,0,.48-.19.48-.42,0-.09-.03-.17-.08-.24Z"/>
              <path class="cls-7" d="m54.19,89.08v-3.56c0-.15-.12-.28-.27-.28-.16,0-.28.12-.28.28v3.56s.56,0,.56,0Z"/>
            </g>
            <g>
              <path class="cls-6" d="m70.66,85.8l-1.98-3.01h.28s0,0,0,0c.27,0,.48-.19.48-.42,0-.09-.03-.17-.09-.24l-1.97-3h.41s0,0,0,0c.19,0,.35-.14.35-.3,0-.06-.02-.12-.06-.17l-2.99-4.55c-.06-.09-.18-.15-.3-.15-.12,0-.24.06-.3.15l-3.02,4.56c-.06.09-.06.21,0,.3.06.09.18.15.3.15h.41s-2,3.02-2,3.02c-.09.13-.09.29,0,.42.09.13.25.21.42.21h.28s-2.01,3.05-2.01,3.05c-.11.17-.11.37,0,.54.11.17.32.27.54.27l10.73.02s0,0,0,0c.34,0,.62-.24.62-.54,0-.12-.04-.22-.11-.31Z"/>
              <path class="cls-7" d="m65.11,89.1v-4.64c0-.2-.16-.37-.36-.37-.2,0-.37.16-.37.37v4.64s.72,0,.72,0Z"/>
            </g>
            <g>
              <path class="cls-6" d="m102.66,87.88l-.76-1.16h.11s0,0,0,0c.1,0,.19-.07.19-.16,0-.03-.01-.07-.03-.09l-.76-1.15h.16s0,0,0,0c.07,0,.13-.05.13-.12,0-.02,0-.05-.02-.07l-1.15-1.75s-.07-.06-.12-.06-.09.02-.12.06l-1.16,1.75s-.02.08,0,.12c.02.04.07.06.12.06h.16s-.77,1.16-.77,1.16c-.03.05-.03.11,0,.16.03.05.09.08.16.08h.11s-.77,1.17-.77,1.17c-.04.06-.04.14,0,.21.04.06.12.1.21.1h4.13s0,0,0,0c.13,0,.24-.09.24-.21,0-.04-.02-.09-.04-.12Z"/>
              <path class="cls-7" d="m100.52,89.15v-1.78c0-.08-.06-.14-.14-.14-.08,0-.14.06-.14.14v1.78s.28,0,.28,0Z"/>
            </g>
            <g>
              <path class="cls-6" d="m91.98,87.58l-.93-1.42h.13c.13,0,.23-.09.23-.2,0-.04-.01-.08-.04-.11l-.93-1.41h.19s0,0,0,0c.09,0,.16-.06.16-.14,0-.03-.01-.06-.03-.08l-1.4-2.14s-.08-.07-.14-.07-.11.03-.14.07l-1.42,2.14s-.03.1,0,.14c.03.04.08.07.14.07h.19s-.94,1.42-.94,1.42c-.04.06-.04.14,0,.2.04.06.12.1.2.1h.13l-.95,1.43c-.05.08-.05.18,0,.26.05.08.15.13.25.13h5.05s0,0,0,0c.16,0,.29-.11.29-.25,0-.05-.02-.1-.05-.15Z"/>
              <path class="cls-7" d="m89.37,89.14v-2.18c0-.1-.07-.17-.17-.17s-.17.08-.17.17v2.18s.34,0,.34,0Z"/>
            </g>
            <g>
              <path class="cls-6" d="m35.51,87.1l-1.17-1.77h.17c.16,0,.28-.11.28-.25,0-.05-.02-.1-.05-.14l-1.16-1.76h.24s0,0,0,0c.11,0,.21-.08.21-.18,0-.04-.01-.07-.04-.1l-1.76-2.68c-.04-.06-.1-.09-.18-.09-.07,0-.14.03-.18.09l-1.78,2.69c-.04.06-.04.12,0,.18.04.06.1.09.18.09h.24s-1.18,1.78-1.18,1.78c-.05.08-.05.17,0,.25.05.08.14.12.25.12h.17s-1.19,1.79-1.19,1.79c-.07.1-.07.22,0,.32.07.1.19.16.32.16h6.32s0,0,0,0c.2,0,.37-.14.37-.32,0-.07-.02-.13-.06-.18Z"/>
              <path class="cls-7" d="m32.24,89.05v-2.73c0-.12-.09-.22-.21-.22-.12,0-.22.1-.22.22v2.73s.43,0,.43,0Z"/>
            </g>
            <g>
              <path class="cls-6" d="m27.6,87.49l-.92-1.4h.13s0,0,0,0c.12,0,.23-.09.23-.2,0-.04-.01-.08-.04-.11l-.92-1.4h.19s0,0,0,0c.09,0,.16-.06.16-.14,0-.03-.01-.06-.03-.08l-1.39-2.12s-.08-.07-.14-.07-.11.03-.14.07l-1.41,2.13s-.03.1,0,.14c.03.04.08.07.14.07h.19s-.93,1.41-.93,1.41c-.04.06-.04.14,0,.2.04.06.11.1.2.1h.13s-.94,1.42-.94,1.42c-.05.08-.05.17,0,.25.05.08.15.13.25.13h5.01s0,0,0,0c.16,0,.29-.11.29-.25,0-.05-.02-.1-.05-.14Z"/>
              <path class="cls-7" d="m25.01,89.04v-2.16c0-.09-.07-.17-.17-.17s-.17.08-.17.17v2.16s.34,0,.34,0Z"/>
            </g>
            <g>
              <path class="cls-11" d="m30.18,85.01c0,.99-.57,1.79-1.26,1.79-.7,0-1.26-.8-1.26-1.79,0-.99.57-1.79,1.26-1.79.7,0,1.26.8,1.26,1.79Z"/>
              <path class="cls-7" d="m29.04,89.04v-2.96c0-.07-.05-.12-.12-.12s-.12.06-.12.12v2.96s.24,0,.24,0Z"/>
            </g>
            <g>
              <path class="cls-6" d="m43.63,86.33c0,.67-.39,1.21-.86,1.21-.47,0-.86-.55-.85-1.22,0-.67.38-1.21.86-1.21.47,0,.85.55.85,1.22Z"/>
              <path class="cls-7" d="m42.86,89.06v-2.01s-.03-.08-.08-.08-.08.04-.08.08v2.01s.16,0,.16,0Z"/>
            </g>
            <g>
              <path class="cls-11" d="m61.05,83.88c0,1.28-.74,2.32-1.64,2.31-.9,0-1.63-1.04-1.63-2.32,0-1.28.73-2.32,1.64-2.31.9,0,1.63,1.04,1.63,2.32Z"/>
              <path class="cls-8" d="m59.44,81.56v4.63c.88-.01,1.61-1.04,1.61-2.31,0-1.27-.72-2.3-1.61-2.32Z"/>
              <path class="cls-7" d="m59.57,89.09v-3.84c0-.09-.07-.16-.15-.16s-.16.07-.16.16v3.84s.31,0,.31,0Z"/>
            </g>
            <g>
              <path class="cls-11" d="m77.41,80c0,2.6-1.49,4.7-3.32,4.7-1.83,0-3.31-2.11-3.3-4.71,0-2.6,1.49-4.7,3.32-4.7,1.83,0,3.31,2.11,3.3,4.71Z"/>
              <path class="cls-7" d="m74.36,89.11v-6.71c.01-.15-.12-.28-.27-.28-.15,0-.28.12-.28.28v6.71s.55,0,.55,0Z"/>
            </g>
            <g>
              <path class="cls-11" d="m87.08,82.52c0,1.88-1.08,3.41-2.41,3.4-1.33,0-2.4-1.53-2.4-3.41,0-1.88,1.08-3.41,2.41-3.4,1.33,0,2.4,1.53,2.4,3.41Z"/>
              <path class="cls-7" d="m84.87,89.13v-4.86c0-.11-.08-.2-.2-.2-.11,0-.2.09-.2.2v4.86s.4,0,.4,0Z"/>
            </g>
            <g>
              <path class="cls-11" d="m94.85,84.18c0,1.42-.81,2.56-1.81,2.56-1,0-1.8-1.15-1.8-2.57,0-1.42.81-2.56,1.81-2.56,1,0,1.8,1.15,1.8,2.57Z"/>
              <path class="cls-7" d="m93.19,89.14v-3.66c0-.08-.06-.15-.15-.15-.08,0-.15.07-.15.15v3.66s.3,0,.3,0Z"/>
            </g>
            <g>
              <path class="cls-6" d="m82.48,86.94l-1.31-1.99h.19s0,0,0,0c.18,0,.32-.12.32-.28,0-.06-.02-.11-.06-.16l-1.3-1.98h.27s0,0,0,0c.13,0,.23-.09.23-.2,0-.04-.02-.08-.04-.12l-1.98-3.01c-.04-.06-.12-.1-.2-.1s-.16.04-.2.1l-1.99,3.01c-.04.06-.04.14,0,.2.04.06.12.1.2.1h.27s-1.32,2-1.32,2c-.06.09-.06.19,0,.28.06.09.16.14.28.14h.19l-1.33,2.01c-.07.11-.07.25,0,.36.07.11.21.18.35.18h7.1s0,.01,0,.01c.23,0,.41-.16.41-.36,0-.08-.03-.15-.07-.2Z"/>
              <path class="cls-7" d="m78.81,89.12v-3.07c0-.13-.1-.24-.24-.24-.13,0-.24.11-.24.24v3.07s.48,0,.48,0Z"/>
            </g>
            <g>
              <path class="cls-1" d="m25.45,89.04c-.01-.56-.47-1.02-1.04-1.02-.57,0-1.03.45-1.04,1.02h2.08Z"/>
              <path class="cls-9" d="m24.41,89.03h1.04c-.01-.56-.47-1.02-1.04-1.02h0v1.02Z"/>
            </g>
            <g>
              <path class="cls-1" d="m28.83,89.04c-.01-.56-.47-1.02-1.04-1.02-.57,0-1.03.45-1.04,1.02h2.08Z"/>
              <path class="cls-9" d="m27.78,89.04h1.04c-.01-.56-.47-1.02-1.04-1.02,0,0,0,0,0,0v1.02Z"/>
            </g>
            <g>
              <path class="cls-1" d="m35.31,89.05c-.02-.8-.67-1.45-1.48-1.45-.81,0-1.46.64-1.48,1.45h2.96Z"/>
              <path class="cls-9" d="m33.82,89.05h1.49c-.02-.8-.67-1.45-1.48-1.45,0,0,0,0,0,0v1.45Z"/>
            </g>
            <g>
              <path class="cls-1" d="m40.16,89.06c0-.4-.33-.73-.74-.73-.4,0-.73.32-.74.72h1.48Z"/>
              <path class="cls-9" d="m39.42,89.06h.74c0-.4-.33-.72-.74-.72h0v.72Z"/>
            </g>
            <g>
              <path class="cls-1" d="m47,89.07c-.01-.58-.48-1.05-1.07-1.05-.58,0-1.06.47-1.07,1.05h2.14Z"/>
              <path class="cls-9" d="m45.93,89.07h1.08c-.01-.58-.48-1.05-1.07-1.05,0,0,0,0,0,0v1.05Z"/>
            </g>
            <g>
              <path class="cls-1" d="m49.35,89.09c-.01-.58-.48-1.05-1.07-1.05-.58,0-1.06.47-1.07,1.05h2.14Z"/>
              <path class="cls-9" d="m48.27,89.09h1.08c-.01-.58-.48-1.05-1.07-1.05,0,0,0,0,0,0v1.05Z"/>
            </g>
            <g>
              <path class="cls-1" d="m57.1,89.1c-.01-.58-.48-1.05-1.07-1.05-.58,0-1.06.47-1.07,1.05h2.14Z"/>
              <path class="cls-9" d="m56.03,89.1h1.08c-.01-.58-.48-1.05-1.07-1.05,0,0,0,0,0,0v1.05Z"/>
            </g>
            <g>
              <path class="cls-1" d="m66.88,89.12c-.01-.58-.48-1.05-1.07-1.05-.58,0-1.06.47-1.07,1.05h2.14Z"/>
              <path class="cls-9" d="m65.81,89.11h1.08c-.01-.58-.48-1.05-1.07-1.05,0,0,0,0,0,0v1.05Z"/>
            </g>
            <g>
              <path class="cls-1" d="m72.87,89.12c-.02-.91-.76-1.64-1.67-1.64-.91,0-1.66.73-1.68,1.64h3.35Z"/>
              <path class="cls-9" d="m71.18,89.12h1.68c-.02-.91-.76-1.64-1.67-1.64,0,0,0,0-.01,0v1.64Z"/>
            </g>
            <g>
              <path class="cls-1" d="m83.57,89.14c-.01-.71-.59-1.29-1.31-1.29-.72,0-1.3.57-1.31,1.28h2.62Z"/>
              <path class="cls-9" d="m82.25,89.14h1.32c-.01-.71-.59-1.28-1.31-1.28,0,0,0,0,0,0v1.28Z"/>
            </g>
            <g>
              <path class="cls-1" d="m93.91,89.14c-.01-.71-.59-1.29-1.31-1.29-.72,0-1.3.57-1.31,1.28h2.62Z"/>
              <path class="cls-9" d="m92.59,89.14h1.32c-.01-.71-.59-1.28-1.31-1.28,0,0,0,0,0,0v1.28Z"/>
            </g>
            <g>
              <path class="cls-1" d="m97.94,89.15c-.01-.71-.59-1.29-1.31-1.29-.72,0-1.3.57-1.31,1.28h2.62Z"/>
              <path class="cls-9" d="m96.63,89.15h1.32c-.01-.71-.59-1.28-1.31-1.28,0,0,0,0,0,0v1.28Z"/>
            </g>
          </g>
          <g>
            <path class="cls-10" d="m38.22,52.81c0-.83-.42-1.04-.95-1.08-.53.04-.95.25-.95,1.08l-.84,38.12h3.58l-.84-38.12Z"/>
            <path class="cls-5" d="m39.89,52.94c0,1.44-1.17,2.62-2.62,2.62s-2.62-1.17-2.62-2.62,1.17-2.62,2.62-2.62,2.62,1.17,2.62,2.62Z"/>
            <g>
              <path class="cls-16" d="m37.3,52.94s-1.58-3.04-1.74-4.24l.82-16.18c0-.38.2-.69.45-.69h0c.25,0,.45.31.45.69l.02,20.42Z"/>
              <path class="cls-16" d="m37.26,52.93s3.27,1.04,4.23,1.77l10.86,12.02c.27.27.34.63.17.8h0c-.17.17-.53.1-.8-.17l-14.46-14.42Z"/>
              <path class="cls-16" d="m37.26,52.93s-3.27,1.04-4.23,1.77l-10.86,12.02c-.27.27-.34.63-.17.8h0c.17.17.53.1.8-.17l14.46-14.42Z"/>
              <circle class="cls-12" cx="37.26" cy="52.93" r="1.16"/>
            </g>
            <path class="cls-10" d="m88.01,52.81c0-.83-.42-1.04-.95-1.08-.53.04-.95.25-.95,1.08l-.84,38.12h3.58l-.84-38.12Z"/>
            <path class="cls-5" d="m89.68,52.94c0,1.44-1.17,2.62-2.62,2.62s-2.62-1.17-2.62-2.62,1.17-2.62,2.62-2.62,2.62,1.17,2.62,2.62Z"/>
            <g>
              <path class="cls-16" d="m87.09,52.94s-1.58-3.04-1.74-4.24l.82-16.18c0-.38.2-.69.45-.69h0c.25,0,.45.31.45.69l.02,20.42Z"/>
              <path class="cls-16" d="m87.05,52.93s3.27,1.04,4.23,1.77l10.86,12.02c.27.27.34.63.17.8h0c-.17.17-.53.1-.8-.17l-14.46-14.42Z"/>
              <path class="cls-16" d="m87.05,52.93s-3.27,1.04-4.23,1.77l-10.86,12.02c-.27.27-.34.63-.17.8h0c.17.17.53.1.8-.17l14.46-14.42Z"/>
              <circle class="cls-14" cx="87.05" cy="52.93" r="1.16"/>
            </g>
            <path class="cls-10" d="m61.96,38.39c0-1.15-.58-1.43-1.31-1.49-.73.06-1.31.34-1.31,1.49l-1.16,52.54h4.93l-1.16-52.54Z"/>
            <path class="cls-5" d="m64.25,38.57c0,1.99-1.61,3.6-3.6,3.6s-3.61-1.61-3.61-3.6,1.61-3.6,3.61-3.6,3.6,1.61,3.6,3.6Z"/>
            <g>
              <path class="cls-16" d="m60.65,38.57s3.53,3.14,4.33,4.6l6.93,21.22c.19.49.08.98-.24,1.1h0c-.32.12-.73-.17-.91-.66l-10.11-26.26Z"/>
              <path class="cls-16" d="m60.7,38.56s-4.72.28-6.31-.19l-19.91-10.11c-.48-.21-.75-.64-.61-.95h0c.14-.31.64-.39,1.12-.18l25.72,11.43Z"/>
              <path class="cls-16" d="m60.7,38.56s3.69-2.95,4.57-4.36l8.05-20.82c.21-.48.13-.98-.18-1.12h0c-.31-.14-.74.14-.95.61l-11.49,25.69Z"/>
              <path class="cls-13" d="m59.21,39.13c-.32-.83.1-1.75.92-2.07.83-.32,1.75.1,2.07.92.32.83-.1,1.75-.92,2.07-.83.32-1.75-.1-2.07-.92Z"/>
            </g>
          </g>
          <path class="cls-6" d="m106.67,90.65c0,1.32-1.07,2.39-2.39,2.39H20.04c-1.32,0-2.39-1.07-2.39-2.39h0c0-1.32,1.07-2.39,2.39-2.39h84.24c1.32,0,2.39,1.07,2.39,2.39h0Z"/>
        </g>
      </g>
    </g>
  </g>
</svg>