<?xml version="1.0" encoding="UTF-8"?>
<svg id="Layer_2" data-name="Layer 2" xmlns="http://www.w3.org/2000/svg" viewBox="0 0 70.72 33.32">
  <defs>
    <style>
      .cls-1, .cls-2, .cls-3 {
        stroke-linecap: round;
        stroke-linejoin: round;
      }

      .cls-1, .cls-4 {
        fill: #fafbfc;
      }

      .cls-1, .cls-3 {
        stroke: #384850;
      }

      .cls-2 {
        stroke: #fafbfc;
      }

      .cls-2, .cls-3 {
        stroke-width: 2px;
      }

      .cls-2, .cls-5 {
        fill: #384850;
      }

      .cls-6 {
        fill: #f070a0;
      }

      .cls-3 {
        fill: none;
      }
    </style>
  </defs>
  <g id="Layer_1-2" data-name="Layer 1">
    <g>
      <path class="cls-6" d="m.1,23.21l2.08-7.06s.03-.06.04-.09l.06-.2c.15-.44.56-.74,1.02-.74h.24s.04,0,.06,0h1.14S8.78,3.04,8.78,3.04c.17-.51.59-.89,1.12-1C16.29.73,22.39.2,27.3.02c6.63-.24,13.21,1.27,19.07,4.39l8.06,5.18c1.33.85,2.83,1.42,4.4,1.61,9.09,1.13,11.89,9.42,11.89,9.42v3.23c0,1.19-.96,2.15-2.15,2.15H2.15c-1.46,0-2.49-1.42-2.05-2.8Z"/>
      <path class="cls-1" d="m48.76,8.74l-3.48-2.26c-5.1-2.7-10.85-4.12-16.63-4.12-.42,0-.85,0-1.27.02-5.38.19-10.57.75-15.45,1.66-.64.12-1.02.79-.81,1.41l1.21,3.56c.15.44.56.73,1.02.73h35.14c.54,0,.74-.7.29-.99Z"/>
      <g>
        <path class="cls-4" d="m68.85,20.13c-.25-.54-.54-1.06-.86-1.55-.15-.23-.12-.53.07-.72l.38-.38c.6.82,1.16,1.94,1.5,2.65h-1.09Z"/>
        <path class="cls-5" d="m68.49,16.73l-.78.78c-.36.36-.42.92-.14,1.34.37.56.69,1.16.96,1.78h2.19s-1.1-2.61-2.23-3.9h0Z"/>
      </g>
      <g>
        <path class="cls-4" d="m5.42,15.04l1.47-4.72c.1.05.19.13.26.22.14.19.18.43.11.66l-1.09,3.84h-.75Z"/>
        <path class="cls-5" d="m6.55,9.73l-1.8,5.81h1.8l1.19-4.19c.25-.8-.35-1.61-1.19-1.61h0Z"/>
      </g>
      <g>
        <circle class="cls-2" cx="56.74" cy="25.87" r="6.45"/>
        <circle class="cls-4" cx="56.74" cy="25.87" r="3.23" transform="translate(-4.43 13.73) rotate(-13.28)"/>
      </g>
      <g>
        <circle class="cls-2" cx="10.05" cy="25.87" r="6.45"/>
        <circle class="cls-4" cx="10.05" cy="25.87" r="3.23" transform="translate(-5.68 3) rotate(-13.28)"/>
      </g>
      <line class="cls-3" x1="33.39" y1="2.68" x2="33.39" y2="9.73"/>
      <line class="cls-2" x1="33.39" y1="13.9" x2="33.39" y2="21.84"/>
      <line class="cls-3" x1="46.61" y1="7.34" x2="46.61" y2="9.73"/>
      <line class="cls-3" x1="16.5" y1="3.3" x2="16.5" y2="9.73"/>
    </g>
  </g>
</svg>