<?xml version="1.0" encoding="UTF-8"?>
<svg id="Layer_2" data-name="Layer 2" xmlns="http://www.w3.org/2000/svg" viewBox="0 0 138.69 64.06">
  <defs>
    <style>
      .cls-1 {
        fill: #662d91;
      }

      .cls-2 {
        fill: #009444;
      }

      .cls-3 {
        fill: #f7941d;
      }

      .cls-4 {
        fill: #ed1c24;
      }

      .cls-5 {
        fill: #00a651;
      }

      .cls-6 {
        fill: #ef4136;
      }

      .cls-7 {
        fill: #006838;
      }

      .cls-8 {
        fill: #ec008c;
      }

      .cls-9 {
        fill: #1c75bc;
      }
    </style>
  </defs>
  <g id="Layer_1-2" data-name="Layer 1">
    <g>
      <path class="cls-2" d="m26.47,25.75L23.26.83,3.18,3.42l.93,9.98c.19,1.88.28,3.53.26,4.96-.02,1.43-.23,2.56-.63,3.39-.4.84-1.09,1.32-2.06,1.44-.31.04-.63.05-.98.02l.35,5.82c.61.07,1.19.1,1.73.1.54,0,1.05-.03,1.53-.09,1.57-.2,2.81-.73,3.72-1.58.92-.85,1.57-2,1.97-3.44.39-1.44.6-3.14.61-5.11.01-1.97-.1-4.17-.34-6.6l-.4-4.08,7.17-.92,2.49,19.33,6.94-.89Z"/>
      <path class="cls-3" d="m54.24,6.63c-1.08-1.21-2.38-2.19-3.92-2.93-1.54-.74-3.26-1.19-5.17-1.36s-3.66,0-5.31.47c-1.65.47-3.11,1.22-4.39,2.23s-2.3,2.24-3.08,3.67-1.24,3.03-1.4,4.81.04,3.44.56,4.98,1.33,2.92,2.42,4.13,2.4,2.19,3.95,2.94c1.55.74,3.27,1.19,5.16,1.36s3.69,0,5.33-.47c1.64-.47,3.09-1.21,4.35-2.22s2.29-2.23,3.08-3.67c.79-1.44,1.26-3.05,1.41-4.83s-.04-3.44-.58-4.98c-.54-1.54-1.34-2.92-2.42-4.13Zm-4.48,11.27c-.4.8-.91,1.48-1.53,2.03-.63.55-1.34.95-2.14,1.2-.8.25-1.66.34-2.56.26s-1.72-.31-2.48-.69c-.75-.38-1.39-.89-1.91-1.54-.52-.65-.91-1.4-1.17-2.26-.26-.86-.34-1.8-.26-2.81s.33-1.95.73-2.74c.4-.79.91-1.46,1.53-2.01s1.34-.95,2.14-1.2c.8-.25,1.66-.34,2.56-.26s1.73.31,2.48.69c.75.38,1.39.9,1.91,1.54s.91,1.39,1.17,2.24c.26.85.34,1.79.25,2.83s-.33,1.92-.72,2.73Z"/>
      <path class="cls-4" d="m80.37,26.01c1.89-.99,3.01-2.57,3.36-4.73s-.18-3.84-1.56-5.19c-.55-.54-1.25-.98-2.02-1.38.43-.13.84-.29,1.22-.49,1.71-.89,2.73-2.33,3.06-4.33s-.23-3.76-1.68-5.14c-1.45-1.38-3.66-2.31-6.62-2.8l-11.98-1.95-4.02,24.66,12.65,2.06c3.17.52,5.7.28,7.59-.72Zm-10.16-19.88l4.44.72c.99.16,1.69.49,2.12.98s.57,1.14.44,1.93-.48,1.36-1.04,1.69c-.56.33-1.33.42-2.32.25l-4.44-.72.79-4.86Zm-2.39,14.66l.83-5.07,5.49.9c1.01.16,1.73.49,2.17.99.44.49.59,1.16.45,2.01s-.49,1.45-1.07,1.8c-.58.35-1.37.44-2.38.28l-5.49-.9Z"/>
      <polygon class="cls-9" points="108.67 20.19 97.6 22.04 96.96 18.17 106.36 16.59 105.61 12.12 96.21 13.69 95.61 10.12 106.29 8.34 105.52 3.71 88.91 6.49 92.45 27.65 109.44 24.81 108.67 20.19"/>
      <polygon class="cls-1" points="131.84 27.19 131.14 31.97 137.19 32.85 138.65 22.83 135.45 22.36 138.09 4.22 131.58 3.27 128.93 21.41 119.94 20.1 122.59 1.96 116.08 1.01 112.66 24.4 128.16 26.66 131.84 27.19"/>
      <polygon class="cls-8" points="16.31 48.51 8.52 46.78 10.22 39.19 4.51 37.92 0 58.11 5.71 59.38 7.47 51.51 15.26 53.25 13.5 61.12 19.21 62.39 23.72 42.2 18.01 40.93 16.31 48.51"/>
      <path class="cls-9" d="m33.02,39.3l-5.88,24.76,6.61-1.22.96-4.78,9.71-1.79,2.61,4.12,6.74-1.24-14.37-21.02-6.38,1.18Zm2.73,13.63l1.59-7.86,4.29,6.78-5.88,1.09Z"/>
      <path class="cls-5" d="m76.45,47.41l-5.26.99-.62-3.28,11.32-2.14-.84-4.44-16.99,3.21,3.84,20.33,10.16-1.92c2.65-.5,4.6-1.47,5.86-2.9s1.69-3.16,1.3-5.19-1.31-3.36-2.82-4.16-3.5-.96-5.97-.5Zm2.55,7.7c-.44.48-1.13.82-2.08.99l-4.12.78-.83-4.39,4.12-.78c1.97-.37,3.1.16,3.37,1.59.14.72-.02,1.32-.46,1.8Z"/>
      <path class="cls-6" d="m111.34,42.41c-1.04-1.18-2.31-2.14-3.8-2.86-1.49-.73-3.17-1.17-5.03-1.33s-3.56-.02-5.16.44c-1.61.46-3.03,1.17-4.27,2.15s-2.25,2.17-3.01,3.56-1.22,2.95-1.37,4.67.03,3.34.53,4.84,1.29,2.84,2.34,4.03,2.33,2.14,3.83,2.87c1.5.73,3.17,1.17,5.01,1.33s3.59.02,5.18-.44c1.59-.46,3.01-1.17,4.24-2.14s2.24-2.16,3.01-3.56c.77-1.4,1.24-2.96,1.39-4.69s-.03-3.34-.55-4.84-1.3-2.84-2.34-4.03Zm-4.38,10.94c-.39.78-.89,1.44-1.5,1.97-.61.53-1.3.92-2.09,1.16-.78.24-1.61.32-2.49.24s-1.68-.3-2.4-.67c-.73-.37-1.34-.87-1.85-1.5-.51-.63-.88-1.36-1.13-2.2-.25-.84-.33-1.75-.24-2.73s.33-1.89.71-2.66c.39-.77.89-1.42,1.49-1.95s1.3-.92,2.09-1.16c.78-.24,1.61-.32,2.49-.24s1.68.3,2.4.67c.73.37,1.35.87,1.85,1.5s.88,1.36,1.13,2.18c.25.83.33,1.74.24,2.75s-.32,1.87-.71,2.65Z"/>
      <polygon class="cls-7" points="133.51 39.64 124.43 50.35 125.47 38.91 120.05 38.41 118.27 57.89 123.47 58.37 132.53 47.69 131.49 59.1 136.91 59.59 138.69 40.12 133.51 39.64"/>
    </g>
  </g>
</svg>